%TF.GenerationSoftware,KiCad,Pcbnew,8.0.4*%
%TF.CreationDate,2025-07-05T16:09:49+02:00*%
%TF.ProjectId,pec,7065632e-6b69-4636-9164-5f7063625858,rev?*%
%TF.SameCoordinates,PX1a39de0PY8954400*%
%TF.FileFunction,Drillmap*%
%TF.FilePolarity,Positive*%
%FSLAX45Y45*%
G04 Gerber Fmt 4.5, Leading zero omitted, Abs format (unit mm)*
G04 Created by KiCad (PCBNEW 8.0.4) date 2025-07-05 16:09:49*
%MOMM*%
%LPD*%
G01*
G04 APERTURE LIST*
%ADD10C,0.200000*%
%ADD11C,0.100000*%
%ADD12C,0.120000*%
%ADD13C,0.130000*%
%ADD14C,0.140000*%
%ADD15C,0.154000*%
%ADD16C,0.160000*%
%ADD17C,0.170000*%
G04 APERTURE END LIST*
D10*
X0Y12900000D02*
X0Y0D01*
X14025000Y0D02*
X14025000Y12900000D01*
X14025000Y12900000D02*
X0Y12900000D01*
X0Y0D02*
X14025000Y0D01*
D11*
X1335000Y10440000D02*
X1365000Y10410000D01*
X1365000Y10440000D02*
X1335000Y10410000D01*
X2385000Y6215000D02*
X2415000Y6185000D01*
X2415000Y6215000D02*
X2385000Y6185000D01*
X2410000Y10515000D02*
X2440000Y10485000D01*
X2440000Y10515000D02*
X2410000Y10485000D01*
X2410000Y8465000D02*
X2440000Y8435000D01*
X2440000Y8465000D02*
X2410000Y8435000D01*
X2410000Y5465000D02*
X2440000Y5435000D01*
X2440000Y5465000D02*
X2410000Y5435000D01*
X2435000Y7540000D02*
X2465000Y7510000D01*
X2465000Y7540000D02*
X2435000Y7510000D01*
X2435000Y3890000D02*
X2465000Y3860000D01*
X2465000Y3890000D02*
X2435000Y3860000D01*
X2435000Y3215000D02*
X2465000Y3185000D01*
X2465000Y3215000D02*
X2435000Y3185000D01*
X2460000Y9890000D02*
X2490000Y9860000D01*
X2490000Y9890000D02*
X2460000Y9860000D01*
X2485000Y11965000D02*
X2515000Y11935000D01*
X2515000Y11965000D02*
X2485000Y11935000D01*
X3560000Y2540000D02*
X3590000Y2510000D01*
X3590000Y2540000D02*
X3560000Y2510000D01*
X3560000Y2415878D02*
X3590000Y2385878D01*
X3590000Y2415878D02*
X3560000Y2385878D01*
X3560000Y2295000D02*
X3590000Y2265000D01*
X3590000Y2295000D02*
X3560000Y2265000D01*
X3560000Y2168000D02*
X3590000Y2138000D01*
X3590000Y2168000D02*
X3560000Y2138000D01*
X3594250Y4749250D02*
X3624250Y4719250D01*
X3624250Y4749250D02*
X3594250Y4719250D01*
X3594250Y4624250D02*
X3624250Y4594250D01*
X3624250Y4624250D02*
X3594250Y4594250D01*
X3594250Y4499250D02*
X3624250Y4469250D01*
X3624250Y4499250D02*
X3594250Y4469250D01*
X3594250Y4361750D02*
X3624250Y4331750D01*
X3624250Y4361750D02*
X3594250Y4331750D01*
X3610000Y6790000D02*
X3640000Y6760000D01*
X3640000Y6790000D02*
X3610000Y6760000D01*
X3610000Y6665000D02*
X3640000Y6635000D01*
X3640000Y6665000D02*
X3610000Y6635000D01*
X3610000Y6540000D02*
X3640000Y6510000D01*
X3640000Y6540000D02*
X3610000Y6510000D01*
X3610000Y6415000D02*
X3640000Y6385000D01*
X3640000Y6415000D02*
X3610000Y6385000D01*
X3635000Y9290000D02*
X3665000Y9260000D01*
X3665000Y9290000D02*
X3635000Y9260000D01*
X3635000Y9140000D02*
X3665000Y9110000D01*
X3665000Y9140000D02*
X3635000Y9110000D01*
X3635000Y9015000D02*
X3665000Y8985000D01*
X3665000Y9015000D02*
X3635000Y8985000D01*
X3635000Y8890000D02*
X3665000Y8860000D01*
X3665000Y8890000D02*
X3635000Y8860000D01*
X3662500Y10917500D02*
X3692500Y10887500D01*
X3692500Y10917500D02*
X3662500Y10887500D01*
X3670000Y11290500D02*
X3700000Y11260500D01*
X3700000Y11290500D02*
X3670000Y11260500D01*
X3670000Y11163500D02*
X3700000Y11133500D01*
X3700000Y11163500D02*
X3670000Y11133500D01*
X3670000Y11036500D02*
X3700000Y11006500D01*
X3700000Y11036500D02*
X3670000Y11006500D01*
X4160000Y9515000D02*
X4190000Y9485000D01*
X4190000Y9515000D02*
X4160000Y9485000D01*
X4160000Y6840000D02*
X4190000Y6810000D01*
X4190000Y6840000D02*
X4160000Y6810000D01*
X4185000Y2515000D02*
X4215000Y2485000D01*
X4215000Y2515000D02*
X4185000Y2485000D01*
X4219250Y4599250D02*
X4249250Y4569250D01*
X4249250Y4599250D02*
X4219250Y4569250D01*
X4244250Y4874250D02*
X4274250Y4844250D01*
X4274250Y4874250D02*
X4244250Y4844250D01*
X4245000Y2340000D02*
X4275000Y2310000D01*
X4275000Y2340000D02*
X4245000Y2310000D01*
X4260000Y11565000D02*
X4290000Y11535000D01*
X4290000Y11565000D02*
X4260000Y11535000D01*
X4310000Y9125000D02*
X4340000Y9095000D01*
X4340000Y9125000D02*
X4310000Y9095000D01*
X4310000Y6715000D02*
X4340000Y6685000D01*
X4340000Y6715000D02*
X4310000Y6685000D01*
X4360000Y11180000D02*
X4390000Y11150000D01*
X4390000Y11180000D02*
X4360000Y11150000D01*
X5060000Y9015000D02*
X5090000Y8985000D01*
X5090000Y9015000D02*
X5060000Y8985000D01*
X5094250Y4749250D02*
X5124250Y4719250D01*
X5124250Y4749250D02*
X5094250Y4719250D01*
X5095000Y6575000D02*
X5125000Y6545000D01*
X5125000Y6575000D02*
X5095000Y6545000D01*
X5095000Y2390000D02*
X5125000Y2360000D01*
X5125000Y2390000D02*
X5095000Y2360000D01*
X5145000Y11065000D02*
X5175000Y11035000D01*
X5175000Y11065000D02*
X5145000Y11035000D01*
X8730000Y11505000D02*
X8760000Y11475000D01*
X8760000Y11505000D02*
X8730000Y11475000D01*
X12030000Y11505000D02*
X12060000Y11475000D01*
X12060000Y11505000D02*
X12030000Y11475000D01*
X2074250Y10346500D02*
G75*
G02*
X1974250Y10346500I-50000J0D01*
G01*
X1974250Y10346500D02*
G75*
G02*
X2074250Y10346500I50000J0D01*
G01*
X2109250Y7986500D02*
G75*
G02*
X2009250Y7986500I-50000J0D01*
G01*
X2009250Y7986500D02*
G75*
G02*
X2109250Y7986500I50000J0D01*
G01*
X2114250Y5934250D02*
G75*
G02*
X2014250Y5934250I-50000J0D01*
G01*
X2014250Y5934250D02*
G75*
G02*
X2114250Y5934250I50000J0D01*
G01*
X2134750Y3679500D02*
G75*
G02*
X2034750Y3679500I-50000J0D01*
G01*
X2034750Y3679500D02*
G75*
G02*
X2134750Y3679500I50000J0D01*
G01*
X2155500Y12383500D02*
G75*
G02*
X2055500Y12383500I-50000J0D01*
G01*
X2055500Y12383500D02*
G75*
G02*
X2155500Y12383500I50000J0D01*
G01*
X2328250Y10346500D02*
G75*
G02*
X2228250Y10346500I-50000J0D01*
G01*
X2228250Y10346500D02*
G75*
G02*
X2328250Y10346500I50000J0D01*
G01*
X2363250Y7986500D02*
G75*
G02*
X2263250Y7986500I-50000J0D01*
G01*
X2263250Y7986500D02*
G75*
G02*
X2363250Y7986500I50000J0D01*
G01*
X2368250Y5934250D02*
G75*
G02*
X2268250Y5934250I-50000J0D01*
G01*
X2268250Y5934250D02*
G75*
G02*
X2368250Y5934250I50000J0D01*
G01*
X2388750Y3679500D02*
G75*
G02*
X2288750Y3679500I-50000J0D01*
G01*
X2288750Y3679500D02*
G75*
G02*
X2388750Y3679500I50000J0D01*
G01*
X2409500Y12383500D02*
G75*
G02*
X2309500Y12383500I-50000J0D01*
G01*
X2309500Y12383500D02*
G75*
G02*
X2409500Y12383500I50000J0D01*
G01*
X2836250Y10346500D02*
G75*
G02*
X2736250Y10346500I-50000J0D01*
G01*
X2736250Y10346500D02*
G75*
G02*
X2836250Y10346500I50000J0D01*
G01*
X2871250Y7986500D02*
G75*
G02*
X2771250Y7986500I-50000J0D01*
G01*
X2771250Y7986500D02*
G75*
G02*
X2871250Y7986500I50000J0D01*
G01*
X2876250Y5934250D02*
G75*
G02*
X2776250Y5934250I-50000J0D01*
G01*
X2776250Y5934250D02*
G75*
G02*
X2876250Y5934250I50000J0D01*
G01*
X2896750Y3679500D02*
G75*
G02*
X2796750Y3679500I-50000J0D01*
G01*
X2796750Y3679500D02*
G75*
G02*
X2896750Y3679500I50000J0D01*
G01*
X2917500Y12383500D02*
G75*
G02*
X2817500Y12383500I-50000J0D01*
G01*
X2817500Y12383500D02*
G75*
G02*
X2917500Y12383500I50000J0D01*
G01*
X3344250Y10346500D02*
G75*
G02*
X3244250Y10346500I-50000J0D01*
G01*
X3244250Y10346500D02*
G75*
G02*
X3344250Y10346500I50000J0D01*
G01*
X3379250Y7986500D02*
G75*
G02*
X3279250Y7986500I-50000J0D01*
G01*
X3279250Y7986500D02*
G75*
G02*
X3379250Y7986500I50000J0D01*
G01*
X3384250Y5934250D02*
G75*
G02*
X3284250Y5934250I-50000J0D01*
G01*
X3284250Y5934250D02*
G75*
G02*
X3384250Y5934250I50000J0D01*
G01*
X3404750Y3679500D02*
G75*
G02*
X3304750Y3679500I-50000J0D01*
G01*
X3304750Y3679500D02*
G75*
G02*
X3404750Y3679500I50000J0D01*
G01*
X3425500Y12383500D02*
G75*
G02*
X3325500Y12383500I-50000J0D01*
G01*
X3325500Y12383500D02*
G75*
G02*
X3425500Y12383500I50000J0D01*
G01*
D12*
X6125000Y9885000D02*
X6125000Y9765000D01*
X6065000Y9825000D02*
X6185000Y9825000D01*
X6125000Y8510000D02*
X6125000Y8390000D01*
X6065000Y8450000D02*
X6185000Y8450000D01*
X6600000Y7335000D02*
X6600000Y7215000D01*
X6540000Y7275000D02*
X6660000Y7275000D01*
X6600000Y6435000D02*
X6600000Y6315000D01*
X6540000Y6375000D02*
X6660000Y6375000D01*
X6600000Y5560000D02*
X6600000Y5440000D01*
X6540000Y5500000D02*
X6660000Y5500000D01*
X6600000Y4685000D02*
X6600000Y4565000D01*
X6540000Y4625000D02*
X6660000Y4625000D01*
X8100000Y7335000D02*
X8100000Y7215000D01*
X8040000Y7275000D02*
X8160000Y7275000D01*
X8100000Y6435000D02*
X8100000Y6315000D01*
X8040000Y6375000D02*
X8160000Y6375000D01*
X8100000Y5560000D02*
X8100000Y5440000D01*
X8040000Y5500000D02*
X8160000Y5500000D01*
X8100000Y4685000D02*
X8100000Y4565000D01*
X8040000Y4625000D02*
X8160000Y4625000D01*
X8875000Y9885000D02*
X8875000Y9765000D01*
X8815000Y9825000D02*
X8935000Y9825000D01*
X8875000Y8510000D02*
X8875000Y8390000D01*
X8815000Y8450000D02*
X8935000Y8450000D01*
D13*
X570962Y12204038D02*
X570962Y12295962D01*
X479038Y12295962D01*
X479038Y12204038D01*
X570962Y12204038D01*
X720962Y9279038D02*
X720962Y9370962D01*
X629038Y9370962D01*
X629038Y9279038D01*
X720962Y9279038D01*
X720962Y8779038D02*
X720962Y8870962D01*
X629038Y8870962D01*
X629038Y8779038D01*
X720962Y8779038D01*
X720962Y8279038D02*
X720962Y8370962D01*
X629038Y8370962D01*
X629038Y8279038D01*
X720962Y8279038D01*
X720962Y7479038D02*
X720962Y7570962D01*
X629038Y7570962D01*
X629038Y7479038D01*
X720962Y7479038D01*
X720962Y6979038D02*
X720962Y7070962D01*
X629038Y7070962D01*
X629038Y6979038D01*
X720962Y6979038D01*
X720962Y6329038D02*
X720962Y6420962D01*
X629038Y6420962D01*
X629038Y6329038D01*
X720962Y6329038D01*
X720962Y5829038D02*
X720962Y5920962D01*
X629038Y5920962D01*
X629038Y5829038D01*
X720962Y5829038D01*
X1070962Y12204038D02*
X1070962Y12295962D01*
X979038Y12295962D01*
X979038Y12204038D01*
X1070962Y12204038D01*
D14*
X6419000Y227250D02*
X6489000Y297250D01*
X6419000Y367250D01*
X6349000Y297250D01*
X6419000Y227250D01*
X7181000Y227250D02*
X7251000Y297250D01*
X7181000Y367250D01*
X7111000Y297250D01*
X7181000Y227250D01*
X12897250Y12211000D02*
X12967250Y12281000D01*
X12897250Y12351000D01*
X12827250Y12281000D01*
X12897250Y12211000D01*
X12897250Y11449000D02*
X12967250Y11519000D01*
X12897250Y11589000D01*
X12827250Y11519000D01*
X12897250Y11449000D01*
D15*
X5340000Y12577000D02*
X5494000Y12423000D01*
X5494000Y12577000D02*
X5340000Y12423000D01*
X5494000Y12500000D02*
G75*
G02*
X5340000Y12500000I-77000J0D01*
G01*
X5340000Y12500000D02*
G75*
G02*
X5494000Y12500000I77000J0D01*
G01*
X5848000Y12577000D02*
X6002000Y12423000D01*
X6002000Y12577000D02*
X5848000Y12423000D01*
X6002000Y12500000D02*
G75*
G02*
X5848000Y12500000I-77000J0D01*
G01*
X5848000Y12500000D02*
G75*
G02*
X6002000Y12500000I77000J0D01*
G01*
X6102000Y12577000D02*
X6256000Y12423000D01*
X6256000Y12577000D02*
X6102000Y12423000D01*
X6256000Y12500000D02*
G75*
G02*
X6102000Y12500000I-77000J0D01*
G01*
X6102000Y12500000D02*
G75*
G02*
X6256000Y12500000I77000J0D01*
G01*
X6356000Y12577000D02*
X6510000Y12423000D01*
X6510000Y12577000D02*
X6356000Y12423000D01*
X6510000Y12500000D02*
G75*
G02*
X6356000Y12500000I-77000J0D01*
G01*
X6356000Y12500000D02*
G75*
G02*
X6510000Y12500000I77000J0D01*
G01*
X7115000Y12577000D02*
X7269000Y12423000D01*
X7269000Y12577000D02*
X7115000Y12423000D01*
X7269000Y12500000D02*
G75*
G02*
X7115000Y12500000I-77000J0D01*
G01*
X7115000Y12500000D02*
G75*
G02*
X7269000Y12500000I77000J0D01*
G01*
X7623000Y12577000D02*
X7777000Y12423000D01*
X7777000Y12577000D02*
X7623000Y12423000D01*
X7777000Y12500000D02*
G75*
G02*
X7623000Y12500000I-77000J0D01*
G01*
X7623000Y12500000D02*
G75*
G02*
X7777000Y12500000I77000J0D01*
G01*
X7877000Y12577000D02*
X8031000Y12423000D01*
X8031000Y12577000D02*
X7877000Y12423000D01*
X8031000Y12500000D02*
G75*
G02*
X7877000Y12500000I-77000J0D01*
G01*
X7877000Y12500000D02*
G75*
G02*
X8031000Y12500000I77000J0D01*
G01*
X8131000Y12577000D02*
X8285000Y12423000D01*
X8285000Y12577000D02*
X8131000Y12423000D01*
X8285000Y12500000D02*
G75*
G02*
X8131000Y12500000I-77000J0D01*
G01*
X8131000Y12500000D02*
G75*
G02*
X8285000Y12500000I77000J0D01*
G01*
X8898000Y12577000D02*
X9052000Y12423000D01*
X9052000Y12577000D02*
X8898000Y12423000D01*
X9052000Y12500000D02*
G75*
G02*
X8898000Y12500000I-77000J0D01*
G01*
X8898000Y12500000D02*
G75*
G02*
X9052000Y12500000I77000J0D01*
G01*
X9406000Y12577000D02*
X9560000Y12423000D01*
X9560000Y12577000D02*
X9406000Y12423000D01*
X9560000Y12500000D02*
G75*
G02*
X9406000Y12500000I-77000J0D01*
G01*
X9406000Y12500000D02*
G75*
G02*
X9560000Y12500000I77000J0D01*
G01*
X9660000Y12577000D02*
X9814000Y12423000D01*
X9814000Y12577000D02*
X9660000Y12423000D01*
X9814000Y12500000D02*
G75*
G02*
X9660000Y12500000I-77000J0D01*
G01*
X9660000Y12500000D02*
G75*
G02*
X9814000Y12500000I77000J0D01*
G01*
X9914000Y12577000D02*
X10068000Y12423000D01*
X10068000Y12577000D02*
X9914000Y12423000D01*
X10068000Y12500000D02*
G75*
G02*
X9914000Y12500000I-77000J0D01*
G01*
X9914000Y12500000D02*
G75*
G02*
X10068000Y12500000I77000J0D01*
G01*
X10673000Y12577000D02*
X10827000Y12423000D01*
X10827000Y12577000D02*
X10673000Y12423000D01*
X10827000Y12500000D02*
G75*
G02*
X10673000Y12500000I-77000J0D01*
G01*
X10673000Y12500000D02*
G75*
G02*
X10827000Y12500000I77000J0D01*
G01*
X11181000Y12577000D02*
X11335000Y12423000D01*
X11335000Y12577000D02*
X11181000Y12423000D01*
X11335000Y12500000D02*
G75*
G02*
X11181000Y12500000I-77000J0D01*
G01*
X11181000Y12500000D02*
G75*
G02*
X11335000Y12500000I77000J0D01*
G01*
X11435000Y12577000D02*
X11589000Y12423000D01*
X11589000Y12577000D02*
X11435000Y12423000D01*
X11589000Y12500000D02*
G75*
G02*
X11435000Y12500000I-77000J0D01*
G01*
X11435000Y12500000D02*
G75*
G02*
X11589000Y12500000I77000J0D01*
G01*
X11689000Y12577000D02*
X11843000Y12423000D01*
X11843000Y12577000D02*
X11689000Y12423000D01*
X11843000Y12500000D02*
G75*
G02*
X11689000Y12500000I-77000J0D01*
G01*
X11689000Y12500000D02*
G75*
G02*
X11843000Y12500000I77000J0D01*
G01*
X13523000Y1627000D02*
X13677000Y1473000D01*
X13677000Y1627000D02*
X13523000Y1473000D01*
X13677000Y1550000D02*
G75*
G02*
X13523000Y1550000I-77000J0D01*
G01*
X13523000Y1550000D02*
G75*
G02*
X13677000Y1550000I77000J0D01*
G01*
X13523000Y1119000D02*
X13677000Y965000D01*
X13677000Y1119000D02*
X13523000Y965000D01*
X13677000Y1042000D02*
G75*
G02*
X13523000Y1042000I-77000J0D01*
G01*
X13523000Y1042000D02*
G75*
G02*
X13677000Y1042000I77000J0D01*
G01*
X13523000Y865000D02*
X13677000Y711000D01*
X13677000Y865000D02*
X13523000Y711000D01*
X13677000Y788000D02*
G75*
G02*
X13523000Y788000I-77000J0D01*
G01*
X13523000Y788000D02*
G75*
G02*
X13677000Y788000I77000J0D01*
G01*
X13523000Y611000D02*
X13677000Y457000D01*
X13677000Y611000D02*
X13523000Y457000D01*
X13677000Y534000D02*
G75*
G02*
X13523000Y534000I-77000J0D01*
G01*
X13523000Y534000D02*
G75*
G02*
X13677000Y534000I77000J0D01*
G01*
D16*
X11152000Y1740000D02*
X11312000Y1580000D01*
X11312000Y1740000D02*
X11152000Y1580000D01*
X11232000Y1740000D02*
X11232000Y1580000D01*
X11152000Y1660000D02*
X11312000Y1660000D01*
X11152000Y470000D02*
X11312000Y310000D01*
X11312000Y470000D02*
X11152000Y310000D01*
X11232000Y470000D02*
X11232000Y310000D01*
X11152000Y390000D02*
X11312000Y390000D01*
X12217000Y1740000D02*
X12377000Y1580000D01*
X12377000Y1740000D02*
X12217000Y1580000D01*
X12297000Y1740000D02*
X12297000Y1580000D01*
X12217000Y1660000D02*
X12377000Y1660000D01*
X12217000Y470000D02*
X12377000Y310000D01*
X12377000Y470000D02*
X12217000Y310000D01*
X12297000Y470000D02*
X12297000Y310000D01*
X12217000Y390000D02*
X12377000Y390000D01*
D17*
X8115000Y3840000D02*
X8285000Y3670000D01*
X8285000Y3840000D02*
X8115000Y3670000D01*
X8260105Y3694895D02*
X8260105Y3815105D01*
X8139895Y3815105D01*
X8139895Y3694895D01*
X8260105Y3694895D01*
X8115000Y1760000D02*
X8285000Y1590000D01*
X8285000Y1760000D02*
X8115000Y1590000D01*
X8260105Y1614895D02*
X8260105Y1735105D01*
X8139895Y1735105D01*
X8139895Y1614895D01*
X8260105Y1614895D01*
D10*
X9684217Y10150000D02*
X9884217Y9950000D01*
X9884217Y10150000D02*
X9684217Y9950000D01*
X9784217Y9950000D02*
X9884217Y10050000D01*
X9784217Y10150000D01*
X9684217Y10050000D01*
X9784217Y9950000D01*
X9684217Y7750000D02*
X9884217Y7550000D01*
X9884217Y7750000D02*
X9684217Y7550000D01*
X9784217Y7550000D02*
X9884217Y7650000D01*
X9784217Y7750000D01*
X9684217Y7650000D01*
X9784217Y7550000D01*
X9684217Y5400000D02*
X9884217Y5200000D01*
X9884217Y5400000D02*
X9684217Y5200000D01*
X9784217Y5200000D02*
X9884217Y5300000D01*
X9784217Y5400000D01*
X9684217Y5300000D01*
X9784217Y5200000D01*
X10684217Y10150000D02*
X10884217Y9950000D01*
X10884217Y10150000D02*
X10684217Y9950000D01*
X10784217Y9950000D02*
X10884217Y10050000D01*
X10784217Y10150000D01*
X10684217Y10050000D01*
X10784217Y9950000D01*
X10684217Y7750000D02*
X10884217Y7550000D01*
X10884217Y7750000D02*
X10684217Y7550000D01*
X10784217Y7550000D02*
X10884217Y7650000D01*
X10784217Y7750000D01*
X10684217Y7650000D01*
X10784217Y7550000D01*
X10684217Y5400000D02*
X10884217Y5200000D01*
X10884217Y5400000D02*
X10684217Y5200000D01*
X10784217Y5200000D02*
X10884217Y5300000D01*
X10784217Y5400000D01*
X10684217Y5300000D01*
X10784217Y5200000D01*
X12050000Y7775000D02*
X12250000Y7575000D01*
X12250000Y7775000D02*
X12050000Y7575000D01*
X12150000Y7575000D02*
X12250000Y7675000D01*
X12150000Y7775000D01*
X12050000Y7675000D01*
X12150000Y7575000D01*
X12050000Y5475000D02*
X12250000Y5275000D01*
X12250000Y5475000D02*
X12050000Y5275000D01*
X12150000Y5275000D02*
X12250000Y5375000D01*
X12150000Y5475000D01*
X12050000Y5375000D01*
X12150000Y5275000D01*
X12065783Y10050000D02*
X12265783Y9850000D01*
X12265783Y10050000D02*
X12065783Y9850000D01*
X12165783Y9850000D02*
X12265783Y9950000D01*
X12165783Y10050000D01*
X12065783Y9950000D01*
X12165783Y9850000D01*
X12068566Y3175000D02*
X12268566Y2975000D01*
X12268566Y3175000D02*
X12068566Y2975000D01*
X12168566Y2975000D02*
X12268566Y3075000D01*
X12168566Y3175000D01*
X12068566Y3075000D01*
X12168566Y2975000D01*
X13050000Y7775000D02*
X13250000Y7575000D01*
X13250000Y7775000D02*
X13050000Y7575000D01*
X13150000Y7575000D02*
X13250000Y7675000D01*
X13150000Y7775000D01*
X13050000Y7675000D01*
X13150000Y7575000D01*
X13050000Y5475000D02*
X13250000Y5275000D01*
X13250000Y5475000D02*
X13050000Y5275000D01*
X13150000Y5275000D02*
X13250000Y5375000D01*
X13150000Y5475000D01*
X13050000Y5375000D01*
X13150000Y5275000D01*
X13065783Y10050000D02*
X13265783Y9850000D01*
X13265783Y10050000D02*
X13065783Y9850000D01*
X13165783Y9850000D02*
X13265783Y9950000D01*
X13165783Y10050000D01*
X13065783Y9950000D01*
X13165783Y9850000D01*
X13068566Y3175000D02*
X13268566Y2975000D01*
X13268566Y3175000D02*
X13068566Y2975000D01*
X13168566Y2975000D02*
X13268566Y3075000D01*
X13168566Y3175000D01*
X13068566Y3075000D01*
X13168566Y2975000D01*
X250777Y-321484D02*
X250777Y-121484D01*
X250777Y-121484D02*
X298396Y-121484D01*
X298396Y-121484D02*
X326967Y-131008D01*
X326967Y-131008D02*
X346015Y-150055D01*
X346015Y-150055D02*
X355539Y-169103D01*
X355539Y-169103D02*
X365062Y-207198D01*
X365062Y-207198D02*
X365062Y-235769D01*
X365062Y-235769D02*
X355539Y-273865D01*
X355539Y-273865D02*
X346015Y-292912D01*
X346015Y-292912D02*
X326967Y-311960D01*
X326967Y-311960D02*
X298396Y-321484D01*
X298396Y-321484D02*
X250777Y-321484D01*
X450777Y-321484D02*
X450777Y-188150D01*
X450777Y-226246D02*
X460301Y-207198D01*
X460301Y-207198D02*
X469824Y-197674D01*
X469824Y-197674D02*
X488872Y-188150D01*
X488872Y-188150D02*
X507920Y-188150D01*
X574586Y-321484D02*
X574586Y-188150D01*
X574586Y-121484D02*
X565063Y-131008D01*
X565063Y-131008D02*
X574586Y-140531D01*
X574586Y-140531D02*
X584110Y-131008D01*
X584110Y-131008D02*
X574586Y-121484D01*
X574586Y-121484D02*
X574586Y-140531D01*
X698396Y-321484D02*
X679348Y-311960D01*
X679348Y-311960D02*
X669824Y-292912D01*
X669824Y-292912D02*
X669824Y-121484D01*
X803158Y-321484D02*
X784110Y-311960D01*
X784110Y-311960D02*
X774586Y-292912D01*
X774586Y-292912D02*
X774586Y-121484D01*
X1031729Y-321484D02*
X1031729Y-121484D01*
X1031729Y-121484D02*
X1098396Y-264341D01*
X1098396Y-264341D02*
X1165063Y-121484D01*
X1165063Y-121484D02*
X1165063Y-321484D01*
X1346015Y-321484D02*
X1346015Y-216722D01*
X1346015Y-216722D02*
X1336491Y-197674D01*
X1336491Y-197674D02*
X1317444Y-188150D01*
X1317444Y-188150D02*
X1279348Y-188150D01*
X1279348Y-188150D02*
X1260301Y-197674D01*
X1346015Y-311960D02*
X1326967Y-321484D01*
X1326967Y-321484D02*
X1279348Y-321484D01*
X1279348Y-321484D02*
X1260301Y-311960D01*
X1260301Y-311960D02*
X1250777Y-292912D01*
X1250777Y-292912D02*
X1250777Y-273865D01*
X1250777Y-273865D02*
X1260301Y-254817D01*
X1260301Y-254817D02*
X1279348Y-245293D01*
X1279348Y-245293D02*
X1326967Y-245293D01*
X1326967Y-245293D02*
X1346015Y-235769D01*
X1441253Y-188150D02*
X1441253Y-388150D01*
X1441253Y-197674D02*
X1460301Y-188150D01*
X1460301Y-188150D02*
X1498396Y-188150D01*
X1498396Y-188150D02*
X1517443Y-197674D01*
X1517443Y-197674D02*
X1526967Y-207198D01*
X1526967Y-207198D02*
X1536491Y-226246D01*
X1536491Y-226246D02*
X1536491Y-283389D01*
X1536491Y-283389D02*
X1526967Y-302436D01*
X1526967Y-302436D02*
X1517443Y-311960D01*
X1517443Y-311960D02*
X1498396Y-321484D01*
X1498396Y-321484D02*
X1460301Y-321484D01*
X1460301Y-321484D02*
X1441253Y-311960D01*
X1622205Y-302436D02*
X1631729Y-311960D01*
X1631729Y-311960D02*
X1622205Y-321484D01*
X1622205Y-321484D02*
X1612682Y-311960D01*
X1612682Y-311960D02*
X1622205Y-302436D01*
X1622205Y-302436D02*
X1622205Y-321484D01*
X1622205Y-197674D02*
X1631729Y-207198D01*
X1631729Y-207198D02*
X1622205Y-216722D01*
X1622205Y-216722D02*
X1612682Y-207198D01*
X1612682Y-207198D02*
X1622205Y-197674D01*
X1622205Y-197674D02*
X1622205Y-216722D01*
D11*
X-40000Y-635000D02*
X-10000Y-665000D01*
X-10000Y-635000D02*
X-40000Y-665000D01*
D10*
X288872Y-541484D02*
X307920Y-541484D01*
X307920Y-541484D02*
X326967Y-551008D01*
X326967Y-551008D02*
X336491Y-560531D01*
X336491Y-560531D02*
X346015Y-579579D01*
X346015Y-579579D02*
X355539Y-617674D01*
X355539Y-617674D02*
X355539Y-665293D01*
X355539Y-665293D02*
X346015Y-703388D01*
X346015Y-703388D02*
X336491Y-722436D01*
X336491Y-722436D02*
X326967Y-731960D01*
X326967Y-731960D02*
X307920Y-741484D01*
X307920Y-741484D02*
X288872Y-741484D01*
X288872Y-741484D02*
X269824Y-731960D01*
X269824Y-731960D02*
X260301Y-722436D01*
X260301Y-722436D02*
X250777Y-703388D01*
X250777Y-703388D02*
X241253Y-665293D01*
X241253Y-665293D02*
X241253Y-617674D01*
X241253Y-617674D02*
X250777Y-579579D01*
X250777Y-579579D02*
X260301Y-560531D01*
X260301Y-560531D02*
X269824Y-551008D01*
X269824Y-551008D02*
X288872Y-541484D01*
X441253Y-722436D02*
X450777Y-731960D01*
X450777Y-731960D02*
X441253Y-741484D01*
X441253Y-741484D02*
X431729Y-731960D01*
X431729Y-731960D02*
X441253Y-722436D01*
X441253Y-722436D02*
X441253Y-741484D01*
X517443Y-541484D02*
X641253Y-541484D01*
X641253Y-541484D02*
X574586Y-617674D01*
X574586Y-617674D02*
X603158Y-617674D01*
X603158Y-617674D02*
X622205Y-627198D01*
X622205Y-627198D02*
X631729Y-636722D01*
X631729Y-636722D02*
X641253Y-655770D01*
X641253Y-655770D02*
X641253Y-703388D01*
X641253Y-703388D02*
X631729Y-722436D01*
X631729Y-722436D02*
X622205Y-731960D01*
X622205Y-731960D02*
X603158Y-741484D01*
X603158Y-741484D02*
X546015Y-741484D01*
X546015Y-741484D02*
X526967Y-731960D01*
X526967Y-731960D02*
X517443Y-722436D01*
X765062Y-541484D02*
X784110Y-541484D01*
X784110Y-541484D02*
X803158Y-551008D01*
X803158Y-551008D02*
X812682Y-560531D01*
X812682Y-560531D02*
X822205Y-579579D01*
X822205Y-579579D02*
X831729Y-617674D01*
X831729Y-617674D02*
X831729Y-665293D01*
X831729Y-665293D02*
X822205Y-703388D01*
X822205Y-703388D02*
X812682Y-722436D01*
X812682Y-722436D02*
X803158Y-731960D01*
X803158Y-731960D02*
X784110Y-741484D01*
X784110Y-741484D02*
X765062Y-741484D01*
X765062Y-741484D02*
X746015Y-731960D01*
X746015Y-731960D02*
X736491Y-722436D01*
X736491Y-722436D02*
X726967Y-703388D01*
X726967Y-703388D02*
X717443Y-665293D01*
X717443Y-665293D02*
X717443Y-617674D01*
X717443Y-617674D02*
X726967Y-579579D01*
X726967Y-579579D02*
X736491Y-560531D01*
X736491Y-560531D02*
X746015Y-551008D01*
X746015Y-551008D02*
X765062Y-541484D01*
X955539Y-541484D02*
X974586Y-541484D01*
X974586Y-541484D02*
X993634Y-551008D01*
X993634Y-551008D02*
X1003158Y-560531D01*
X1003158Y-560531D02*
X1012682Y-579579D01*
X1012682Y-579579D02*
X1022205Y-617674D01*
X1022205Y-617674D02*
X1022205Y-665293D01*
X1022205Y-665293D02*
X1012682Y-703388D01*
X1012682Y-703388D02*
X1003158Y-722436D01*
X1003158Y-722436D02*
X993634Y-731960D01*
X993634Y-731960D02*
X974586Y-741484D01*
X974586Y-741484D02*
X955539Y-741484D01*
X955539Y-741484D02*
X936491Y-731960D01*
X936491Y-731960D02*
X926967Y-722436D01*
X926967Y-722436D02*
X917443Y-703388D01*
X917443Y-703388D02*
X907920Y-665293D01*
X907920Y-665293D02*
X907920Y-617674D01*
X907920Y-617674D02*
X917443Y-579579D01*
X917443Y-579579D02*
X926967Y-560531D01*
X926967Y-560531D02*
X936491Y-551008D01*
X936491Y-551008D02*
X955539Y-541484D01*
X1107920Y-741484D02*
X1107920Y-608150D01*
X1107920Y-627198D02*
X1117444Y-617674D01*
X1117444Y-617674D02*
X1136491Y-608150D01*
X1136491Y-608150D02*
X1165063Y-608150D01*
X1165063Y-608150D02*
X1184110Y-617674D01*
X1184110Y-617674D02*
X1193634Y-636722D01*
X1193634Y-636722D02*
X1193634Y-741484D01*
X1193634Y-636722D02*
X1203158Y-617674D01*
X1203158Y-617674D02*
X1222205Y-608150D01*
X1222205Y-608150D02*
X1250777Y-608150D01*
X1250777Y-608150D02*
X1269825Y-617674D01*
X1269825Y-617674D02*
X1279348Y-636722D01*
X1279348Y-636722D02*
X1279348Y-741484D01*
X1374586Y-741484D02*
X1374586Y-608150D01*
X1374586Y-627198D02*
X1384110Y-617674D01*
X1384110Y-617674D02*
X1403158Y-608150D01*
X1403158Y-608150D02*
X1431729Y-608150D01*
X1431729Y-608150D02*
X1450777Y-617674D01*
X1450777Y-617674D02*
X1460301Y-636722D01*
X1460301Y-636722D02*
X1460301Y-741484D01*
X1460301Y-636722D02*
X1469824Y-617674D01*
X1469824Y-617674D02*
X1488872Y-608150D01*
X1488872Y-608150D02*
X1517443Y-608150D01*
X1517443Y-608150D02*
X1536491Y-617674D01*
X1536491Y-617674D02*
X1546015Y-636722D01*
X1546015Y-636722D02*
X1546015Y-741484D01*
X1936491Y-531960D02*
X1765063Y-789103D01*
X2193634Y-541484D02*
X2212682Y-541484D01*
X2212682Y-541484D02*
X2231729Y-551008D01*
X2231729Y-551008D02*
X2241253Y-560531D01*
X2241253Y-560531D02*
X2250777Y-579579D01*
X2250777Y-579579D02*
X2260301Y-617674D01*
X2260301Y-617674D02*
X2260301Y-665293D01*
X2260301Y-665293D02*
X2250777Y-703388D01*
X2250777Y-703388D02*
X2241253Y-722436D01*
X2241253Y-722436D02*
X2231729Y-731960D01*
X2231729Y-731960D02*
X2212682Y-741484D01*
X2212682Y-741484D02*
X2193634Y-741484D01*
X2193634Y-741484D02*
X2174587Y-731960D01*
X2174587Y-731960D02*
X2165063Y-722436D01*
X2165063Y-722436D02*
X2155539Y-703388D01*
X2155539Y-703388D02*
X2146015Y-665293D01*
X2146015Y-665293D02*
X2146015Y-617674D01*
X2146015Y-617674D02*
X2155539Y-579579D01*
X2155539Y-579579D02*
X2165063Y-560531D01*
X2165063Y-560531D02*
X2174587Y-551008D01*
X2174587Y-551008D02*
X2193634Y-541484D01*
X2346015Y-722436D02*
X2355539Y-731960D01*
X2355539Y-731960D02*
X2346015Y-741484D01*
X2346015Y-741484D02*
X2336491Y-731960D01*
X2336491Y-731960D02*
X2346015Y-722436D01*
X2346015Y-722436D02*
X2346015Y-741484D01*
X2479348Y-541484D02*
X2498396Y-541484D01*
X2498396Y-541484D02*
X2517444Y-551008D01*
X2517444Y-551008D02*
X2526968Y-560531D01*
X2526968Y-560531D02*
X2536491Y-579579D01*
X2536491Y-579579D02*
X2546015Y-617674D01*
X2546015Y-617674D02*
X2546015Y-665293D01*
X2546015Y-665293D02*
X2536491Y-703388D01*
X2536491Y-703388D02*
X2526968Y-722436D01*
X2526968Y-722436D02*
X2517444Y-731960D01*
X2517444Y-731960D02*
X2498396Y-741484D01*
X2498396Y-741484D02*
X2479348Y-741484D01*
X2479348Y-741484D02*
X2460301Y-731960D01*
X2460301Y-731960D02*
X2450777Y-722436D01*
X2450777Y-722436D02*
X2441253Y-703388D01*
X2441253Y-703388D02*
X2431729Y-665293D01*
X2431729Y-665293D02*
X2431729Y-617674D01*
X2431729Y-617674D02*
X2441253Y-579579D01*
X2441253Y-579579D02*
X2450777Y-560531D01*
X2450777Y-560531D02*
X2460301Y-551008D01*
X2460301Y-551008D02*
X2479348Y-541484D01*
X2736491Y-741484D02*
X2622206Y-741484D01*
X2679348Y-741484D02*
X2679348Y-541484D01*
X2679348Y-541484D02*
X2660301Y-570055D01*
X2660301Y-570055D02*
X2641253Y-589103D01*
X2641253Y-589103D02*
X2622206Y-598627D01*
X2926967Y-741484D02*
X2812682Y-741484D01*
X2869825Y-741484D02*
X2869825Y-541484D01*
X2869825Y-541484D02*
X2850777Y-570055D01*
X2850777Y-570055D02*
X2831729Y-589103D01*
X2831729Y-589103D02*
X2812682Y-598627D01*
X3041253Y-627198D02*
X3022206Y-617674D01*
X3022206Y-617674D02*
X3012682Y-608150D01*
X3012682Y-608150D02*
X3003158Y-589103D01*
X3003158Y-589103D02*
X3003158Y-579579D01*
X3003158Y-579579D02*
X3012682Y-560531D01*
X3012682Y-560531D02*
X3022206Y-551008D01*
X3022206Y-551008D02*
X3041253Y-541484D01*
X3041253Y-541484D02*
X3079348Y-541484D01*
X3079348Y-541484D02*
X3098396Y-551008D01*
X3098396Y-551008D02*
X3107920Y-560531D01*
X3107920Y-560531D02*
X3117444Y-579579D01*
X3117444Y-579579D02*
X3117444Y-589103D01*
X3117444Y-589103D02*
X3107920Y-608150D01*
X3107920Y-608150D02*
X3098396Y-617674D01*
X3098396Y-617674D02*
X3079348Y-627198D01*
X3079348Y-627198D02*
X3041253Y-627198D01*
X3041253Y-627198D02*
X3022206Y-636722D01*
X3022206Y-636722D02*
X3012682Y-646246D01*
X3012682Y-646246D02*
X3003158Y-665293D01*
X3003158Y-665293D02*
X3003158Y-703388D01*
X3003158Y-703388D02*
X3012682Y-722436D01*
X3012682Y-722436D02*
X3022206Y-731960D01*
X3022206Y-731960D02*
X3041253Y-741484D01*
X3041253Y-741484D02*
X3079348Y-741484D01*
X3079348Y-741484D02*
X3098396Y-731960D01*
X3098396Y-731960D02*
X3107920Y-722436D01*
X3107920Y-722436D02*
X3117444Y-703388D01*
X3117444Y-703388D02*
X3117444Y-665293D01*
X3117444Y-665293D02*
X3107920Y-646246D01*
X3107920Y-646246D02*
X3098396Y-636722D01*
X3098396Y-636722D02*
X3079348Y-627198D01*
X3193634Y-541484D02*
X3193634Y-579579D01*
X3269825Y-541484D02*
X3269825Y-579579D01*
X3565063Y-817674D02*
X3555539Y-808150D01*
X3555539Y-808150D02*
X3536491Y-779579D01*
X3536491Y-779579D02*
X3526968Y-760531D01*
X3526968Y-760531D02*
X3517444Y-731960D01*
X3517444Y-731960D02*
X3507920Y-684341D01*
X3507920Y-684341D02*
X3507920Y-646246D01*
X3507920Y-646246D02*
X3517444Y-598627D01*
X3517444Y-598627D02*
X3526968Y-570055D01*
X3526968Y-570055D02*
X3536491Y-551008D01*
X3536491Y-551008D02*
X3555539Y-522436D01*
X3555539Y-522436D02*
X3565063Y-512912D01*
X3726968Y-608150D02*
X3726968Y-741484D01*
X3679348Y-531960D02*
X3631729Y-674817D01*
X3631729Y-674817D02*
X3755539Y-674817D01*
X3812682Y-541484D02*
X3946015Y-541484D01*
X3946015Y-541484D02*
X3860301Y-741484D01*
X4174587Y-741484D02*
X4174587Y-541484D01*
X4260301Y-741484D02*
X4260301Y-636722D01*
X4260301Y-636722D02*
X4250777Y-617674D01*
X4250777Y-617674D02*
X4231730Y-608150D01*
X4231730Y-608150D02*
X4203158Y-608150D01*
X4203158Y-608150D02*
X4184110Y-617674D01*
X4184110Y-617674D02*
X4174587Y-627198D01*
X4384111Y-741484D02*
X4365063Y-731960D01*
X4365063Y-731960D02*
X4355539Y-722436D01*
X4355539Y-722436D02*
X4346015Y-703388D01*
X4346015Y-703388D02*
X4346015Y-646246D01*
X4346015Y-646246D02*
X4355539Y-627198D01*
X4355539Y-627198D02*
X4365063Y-617674D01*
X4365063Y-617674D02*
X4384111Y-608150D01*
X4384111Y-608150D02*
X4412682Y-608150D01*
X4412682Y-608150D02*
X4431730Y-617674D01*
X4431730Y-617674D02*
X4441253Y-627198D01*
X4441253Y-627198D02*
X4450777Y-646246D01*
X4450777Y-646246D02*
X4450777Y-703388D01*
X4450777Y-703388D02*
X4441253Y-722436D01*
X4441253Y-722436D02*
X4431730Y-731960D01*
X4431730Y-731960D02*
X4412682Y-741484D01*
X4412682Y-741484D02*
X4384111Y-741484D01*
X4565063Y-741484D02*
X4546015Y-731960D01*
X4546015Y-731960D02*
X4536492Y-712912D01*
X4536492Y-712912D02*
X4536492Y-541484D01*
X4717444Y-731960D02*
X4698396Y-741484D01*
X4698396Y-741484D02*
X4660301Y-741484D01*
X4660301Y-741484D02*
X4641253Y-731960D01*
X4641253Y-731960D02*
X4631730Y-712912D01*
X4631730Y-712912D02*
X4631730Y-636722D01*
X4631730Y-636722D02*
X4641253Y-617674D01*
X4641253Y-617674D02*
X4660301Y-608150D01*
X4660301Y-608150D02*
X4698396Y-608150D01*
X4698396Y-608150D02*
X4717444Y-617674D01*
X4717444Y-617674D02*
X4726968Y-636722D01*
X4726968Y-636722D02*
X4726968Y-655770D01*
X4726968Y-655770D02*
X4631730Y-674817D01*
X4803158Y-731960D02*
X4822206Y-741484D01*
X4822206Y-741484D02*
X4860301Y-741484D01*
X4860301Y-741484D02*
X4879349Y-731960D01*
X4879349Y-731960D02*
X4888873Y-712912D01*
X4888873Y-712912D02*
X4888873Y-703388D01*
X4888873Y-703388D02*
X4879349Y-684341D01*
X4879349Y-684341D02*
X4860301Y-674817D01*
X4860301Y-674817D02*
X4831730Y-674817D01*
X4831730Y-674817D02*
X4812682Y-665293D01*
X4812682Y-665293D02*
X4803158Y-646246D01*
X4803158Y-646246D02*
X4803158Y-636722D01*
X4803158Y-636722D02*
X4812682Y-617674D01*
X4812682Y-617674D02*
X4831730Y-608150D01*
X4831730Y-608150D02*
X4860301Y-608150D01*
X4860301Y-608150D02*
X4879349Y-617674D01*
X4955539Y-817674D02*
X4965063Y-808150D01*
X4965063Y-808150D02*
X4984111Y-779579D01*
X4984111Y-779579D02*
X4993634Y-760531D01*
X4993634Y-760531D02*
X5003158Y-731960D01*
X5003158Y-731960D02*
X5012682Y-684341D01*
X5012682Y-684341D02*
X5012682Y-646246D01*
X5012682Y-646246D02*
X5003158Y-598627D01*
X5003158Y-598627D02*
X4993634Y-570055D01*
X4993634Y-570055D02*
X4984111Y-551008D01*
X4984111Y-551008D02*
X4965063Y-522436D01*
X4965063Y-522436D02*
X4955539Y-512912D01*
D11*
X-10000Y-914000D02*
G75*
G02*
X-110000Y-914000I-50000J0D01*
G01*
X-110000Y-914000D02*
G75*
G02*
X-10000Y-914000I50000J0D01*
G01*
D10*
X355539Y-1005484D02*
X241253Y-1005484D01*
X298396Y-1005484D02*
X298396Y-805484D01*
X298396Y-805484D02*
X279348Y-834055D01*
X279348Y-834055D02*
X260301Y-853103D01*
X260301Y-853103D02*
X241253Y-862627D01*
X441253Y-986436D02*
X450777Y-995960D01*
X450777Y-995960D02*
X441253Y-1005484D01*
X441253Y-1005484D02*
X431729Y-995960D01*
X431729Y-995960D02*
X441253Y-986436D01*
X441253Y-986436D02*
X441253Y-1005484D01*
X574586Y-805484D02*
X593634Y-805484D01*
X593634Y-805484D02*
X612682Y-815008D01*
X612682Y-815008D02*
X622205Y-824531D01*
X622205Y-824531D02*
X631729Y-843579D01*
X631729Y-843579D02*
X641253Y-881674D01*
X641253Y-881674D02*
X641253Y-929293D01*
X641253Y-929293D02*
X631729Y-967388D01*
X631729Y-967388D02*
X622205Y-986436D01*
X622205Y-986436D02*
X612682Y-995960D01*
X612682Y-995960D02*
X593634Y-1005484D01*
X593634Y-1005484D02*
X574586Y-1005484D01*
X574586Y-1005484D02*
X555539Y-995960D01*
X555539Y-995960D02*
X546015Y-986436D01*
X546015Y-986436D02*
X536491Y-967388D01*
X536491Y-967388D02*
X526967Y-929293D01*
X526967Y-929293D02*
X526967Y-881674D01*
X526967Y-881674D02*
X536491Y-843579D01*
X536491Y-843579D02*
X546015Y-824531D01*
X546015Y-824531D02*
X555539Y-815008D01*
X555539Y-815008D02*
X574586Y-805484D01*
X765062Y-805484D02*
X784110Y-805484D01*
X784110Y-805484D02*
X803158Y-815008D01*
X803158Y-815008D02*
X812682Y-824531D01*
X812682Y-824531D02*
X822205Y-843579D01*
X822205Y-843579D02*
X831729Y-881674D01*
X831729Y-881674D02*
X831729Y-929293D01*
X831729Y-929293D02*
X822205Y-967388D01*
X822205Y-967388D02*
X812682Y-986436D01*
X812682Y-986436D02*
X803158Y-995960D01*
X803158Y-995960D02*
X784110Y-1005484D01*
X784110Y-1005484D02*
X765062Y-1005484D01*
X765062Y-1005484D02*
X746015Y-995960D01*
X746015Y-995960D02*
X736491Y-986436D01*
X736491Y-986436D02*
X726967Y-967388D01*
X726967Y-967388D02*
X717443Y-929293D01*
X717443Y-929293D02*
X717443Y-881674D01*
X717443Y-881674D02*
X726967Y-843579D01*
X726967Y-843579D02*
X736491Y-824531D01*
X736491Y-824531D02*
X746015Y-815008D01*
X746015Y-815008D02*
X765062Y-805484D01*
X955539Y-805484D02*
X974586Y-805484D01*
X974586Y-805484D02*
X993634Y-815008D01*
X993634Y-815008D02*
X1003158Y-824531D01*
X1003158Y-824531D02*
X1012682Y-843579D01*
X1012682Y-843579D02*
X1022205Y-881674D01*
X1022205Y-881674D02*
X1022205Y-929293D01*
X1022205Y-929293D02*
X1012682Y-967388D01*
X1012682Y-967388D02*
X1003158Y-986436D01*
X1003158Y-986436D02*
X993634Y-995960D01*
X993634Y-995960D02*
X974586Y-1005484D01*
X974586Y-1005484D02*
X955539Y-1005484D01*
X955539Y-1005484D02*
X936491Y-995960D01*
X936491Y-995960D02*
X926967Y-986436D01*
X926967Y-986436D02*
X917443Y-967388D01*
X917443Y-967388D02*
X907920Y-929293D01*
X907920Y-929293D02*
X907920Y-881674D01*
X907920Y-881674D02*
X917443Y-843579D01*
X917443Y-843579D02*
X926967Y-824531D01*
X926967Y-824531D02*
X936491Y-815008D01*
X936491Y-815008D02*
X955539Y-805484D01*
X1107920Y-1005484D02*
X1107920Y-872150D01*
X1107920Y-891198D02*
X1117444Y-881674D01*
X1117444Y-881674D02*
X1136491Y-872150D01*
X1136491Y-872150D02*
X1165063Y-872150D01*
X1165063Y-872150D02*
X1184110Y-881674D01*
X1184110Y-881674D02*
X1193634Y-900722D01*
X1193634Y-900722D02*
X1193634Y-1005484D01*
X1193634Y-900722D02*
X1203158Y-881674D01*
X1203158Y-881674D02*
X1222205Y-872150D01*
X1222205Y-872150D02*
X1250777Y-872150D01*
X1250777Y-872150D02*
X1269825Y-881674D01*
X1269825Y-881674D02*
X1279348Y-900722D01*
X1279348Y-900722D02*
X1279348Y-1005484D01*
X1374586Y-1005484D02*
X1374586Y-872150D01*
X1374586Y-891198D02*
X1384110Y-881674D01*
X1384110Y-881674D02*
X1403158Y-872150D01*
X1403158Y-872150D02*
X1431729Y-872150D01*
X1431729Y-872150D02*
X1450777Y-881674D01*
X1450777Y-881674D02*
X1460301Y-900722D01*
X1460301Y-900722D02*
X1460301Y-1005484D01*
X1460301Y-900722D02*
X1469824Y-881674D01*
X1469824Y-881674D02*
X1488872Y-872150D01*
X1488872Y-872150D02*
X1517443Y-872150D01*
X1517443Y-872150D02*
X1536491Y-881674D01*
X1536491Y-881674D02*
X1546015Y-900722D01*
X1546015Y-900722D02*
X1546015Y-1005484D01*
X1936491Y-795960D02*
X1765063Y-1053103D01*
X2193634Y-805484D02*
X2212682Y-805484D01*
X2212682Y-805484D02*
X2231729Y-815008D01*
X2231729Y-815008D02*
X2241253Y-824531D01*
X2241253Y-824531D02*
X2250777Y-843579D01*
X2250777Y-843579D02*
X2260301Y-881674D01*
X2260301Y-881674D02*
X2260301Y-929293D01*
X2260301Y-929293D02*
X2250777Y-967388D01*
X2250777Y-967388D02*
X2241253Y-986436D01*
X2241253Y-986436D02*
X2231729Y-995960D01*
X2231729Y-995960D02*
X2212682Y-1005484D01*
X2212682Y-1005484D02*
X2193634Y-1005484D01*
X2193634Y-1005484D02*
X2174587Y-995960D01*
X2174587Y-995960D02*
X2165063Y-986436D01*
X2165063Y-986436D02*
X2155539Y-967388D01*
X2155539Y-967388D02*
X2146015Y-929293D01*
X2146015Y-929293D02*
X2146015Y-881674D01*
X2146015Y-881674D02*
X2155539Y-843579D01*
X2155539Y-843579D02*
X2165063Y-824531D01*
X2165063Y-824531D02*
X2174587Y-815008D01*
X2174587Y-815008D02*
X2193634Y-805484D01*
X2346015Y-986436D02*
X2355539Y-995960D01*
X2355539Y-995960D02*
X2346015Y-1005484D01*
X2346015Y-1005484D02*
X2336491Y-995960D01*
X2336491Y-995960D02*
X2346015Y-986436D01*
X2346015Y-986436D02*
X2346015Y-1005484D01*
X2479348Y-805484D02*
X2498396Y-805484D01*
X2498396Y-805484D02*
X2517444Y-815008D01*
X2517444Y-815008D02*
X2526968Y-824531D01*
X2526968Y-824531D02*
X2536491Y-843579D01*
X2536491Y-843579D02*
X2546015Y-881674D01*
X2546015Y-881674D02*
X2546015Y-929293D01*
X2546015Y-929293D02*
X2536491Y-967388D01*
X2536491Y-967388D02*
X2526968Y-986436D01*
X2526968Y-986436D02*
X2517444Y-995960D01*
X2517444Y-995960D02*
X2498396Y-1005484D01*
X2498396Y-1005484D02*
X2479348Y-1005484D01*
X2479348Y-1005484D02*
X2460301Y-995960D01*
X2460301Y-995960D02*
X2450777Y-986436D01*
X2450777Y-986436D02*
X2441253Y-967388D01*
X2441253Y-967388D02*
X2431729Y-929293D01*
X2431729Y-929293D02*
X2431729Y-881674D01*
X2431729Y-881674D02*
X2441253Y-843579D01*
X2441253Y-843579D02*
X2450777Y-824531D01*
X2450777Y-824531D02*
X2460301Y-815008D01*
X2460301Y-815008D02*
X2479348Y-805484D01*
X2612682Y-805484D02*
X2736491Y-805484D01*
X2736491Y-805484D02*
X2669825Y-881674D01*
X2669825Y-881674D02*
X2698396Y-881674D01*
X2698396Y-881674D02*
X2717444Y-891198D01*
X2717444Y-891198D02*
X2726968Y-900722D01*
X2726968Y-900722D02*
X2736491Y-919769D01*
X2736491Y-919769D02*
X2736491Y-967388D01*
X2736491Y-967388D02*
X2726968Y-986436D01*
X2726968Y-986436D02*
X2717444Y-995960D01*
X2717444Y-995960D02*
X2698396Y-1005484D01*
X2698396Y-1005484D02*
X2641253Y-1005484D01*
X2641253Y-1005484D02*
X2622206Y-995960D01*
X2622206Y-995960D02*
X2612682Y-986436D01*
X2831729Y-1005484D02*
X2869825Y-1005484D01*
X2869825Y-1005484D02*
X2888872Y-995960D01*
X2888872Y-995960D02*
X2898396Y-986436D01*
X2898396Y-986436D02*
X2917444Y-957865D01*
X2917444Y-957865D02*
X2926967Y-919769D01*
X2926967Y-919769D02*
X2926967Y-843579D01*
X2926967Y-843579D02*
X2917444Y-824531D01*
X2917444Y-824531D02*
X2907920Y-815008D01*
X2907920Y-815008D02*
X2888872Y-805484D01*
X2888872Y-805484D02*
X2850777Y-805484D01*
X2850777Y-805484D02*
X2831729Y-815008D01*
X2831729Y-815008D02*
X2822206Y-824531D01*
X2822206Y-824531D02*
X2812682Y-843579D01*
X2812682Y-843579D02*
X2812682Y-891198D01*
X2812682Y-891198D02*
X2822206Y-910246D01*
X2822206Y-910246D02*
X2831729Y-919769D01*
X2831729Y-919769D02*
X2850777Y-929293D01*
X2850777Y-929293D02*
X2888872Y-929293D01*
X2888872Y-929293D02*
X2907920Y-919769D01*
X2907920Y-919769D02*
X2917444Y-910246D01*
X2917444Y-910246D02*
X2926967Y-891198D01*
X3098396Y-872150D02*
X3098396Y-1005484D01*
X3050777Y-795960D02*
X3003158Y-938817D01*
X3003158Y-938817D02*
X3126967Y-938817D01*
X3193634Y-805484D02*
X3193634Y-843579D01*
X3269825Y-805484D02*
X3269825Y-843579D01*
X3565063Y-1081674D02*
X3555539Y-1072150D01*
X3555539Y-1072150D02*
X3536491Y-1043579D01*
X3536491Y-1043579D02*
X3526968Y-1024531D01*
X3526968Y-1024531D02*
X3517444Y-995960D01*
X3517444Y-995960D02*
X3507920Y-948341D01*
X3507920Y-948341D02*
X3507920Y-910246D01*
X3507920Y-910246D02*
X3517444Y-862627D01*
X3517444Y-862627D02*
X3526968Y-834055D01*
X3526968Y-834055D02*
X3536491Y-815008D01*
X3536491Y-815008D02*
X3555539Y-786436D01*
X3555539Y-786436D02*
X3565063Y-776912D01*
X3631729Y-824531D02*
X3641253Y-815008D01*
X3641253Y-815008D02*
X3660301Y-805484D01*
X3660301Y-805484D02*
X3707920Y-805484D01*
X3707920Y-805484D02*
X3726968Y-815008D01*
X3726968Y-815008D02*
X3736491Y-824531D01*
X3736491Y-824531D02*
X3746015Y-843579D01*
X3746015Y-843579D02*
X3746015Y-862627D01*
X3746015Y-862627D02*
X3736491Y-891198D01*
X3736491Y-891198D02*
X3622206Y-1005484D01*
X3622206Y-1005484D02*
X3746015Y-1005484D01*
X3869825Y-805484D02*
X3888872Y-805484D01*
X3888872Y-805484D02*
X3907920Y-815008D01*
X3907920Y-815008D02*
X3917444Y-824531D01*
X3917444Y-824531D02*
X3926968Y-843579D01*
X3926968Y-843579D02*
X3936491Y-881674D01*
X3936491Y-881674D02*
X3936491Y-929293D01*
X3936491Y-929293D02*
X3926968Y-967388D01*
X3926968Y-967388D02*
X3917444Y-986436D01*
X3917444Y-986436D02*
X3907920Y-995960D01*
X3907920Y-995960D02*
X3888872Y-1005484D01*
X3888872Y-1005484D02*
X3869825Y-1005484D01*
X3869825Y-1005484D02*
X3850777Y-995960D01*
X3850777Y-995960D02*
X3841253Y-986436D01*
X3841253Y-986436D02*
X3831729Y-967388D01*
X3831729Y-967388D02*
X3822206Y-929293D01*
X3822206Y-929293D02*
X3822206Y-881674D01*
X3822206Y-881674D02*
X3831729Y-843579D01*
X3831729Y-843579D02*
X3841253Y-824531D01*
X3841253Y-824531D02*
X3850777Y-815008D01*
X3850777Y-815008D02*
X3869825Y-805484D01*
X4174587Y-1005484D02*
X4174587Y-805484D01*
X4260301Y-1005484D02*
X4260301Y-900722D01*
X4260301Y-900722D02*
X4250777Y-881674D01*
X4250777Y-881674D02*
X4231730Y-872150D01*
X4231730Y-872150D02*
X4203158Y-872150D01*
X4203158Y-872150D02*
X4184110Y-881674D01*
X4184110Y-881674D02*
X4174587Y-891198D01*
X4384111Y-1005484D02*
X4365063Y-995960D01*
X4365063Y-995960D02*
X4355539Y-986436D01*
X4355539Y-986436D02*
X4346015Y-967388D01*
X4346015Y-967388D02*
X4346015Y-910246D01*
X4346015Y-910246D02*
X4355539Y-891198D01*
X4355539Y-891198D02*
X4365063Y-881674D01*
X4365063Y-881674D02*
X4384111Y-872150D01*
X4384111Y-872150D02*
X4412682Y-872150D01*
X4412682Y-872150D02*
X4431730Y-881674D01*
X4431730Y-881674D02*
X4441253Y-891198D01*
X4441253Y-891198D02*
X4450777Y-910246D01*
X4450777Y-910246D02*
X4450777Y-967388D01*
X4450777Y-967388D02*
X4441253Y-986436D01*
X4441253Y-986436D02*
X4431730Y-995960D01*
X4431730Y-995960D02*
X4412682Y-1005484D01*
X4412682Y-1005484D02*
X4384111Y-1005484D01*
X4565063Y-1005484D02*
X4546015Y-995960D01*
X4546015Y-995960D02*
X4536492Y-976912D01*
X4536492Y-976912D02*
X4536492Y-805484D01*
X4717444Y-995960D02*
X4698396Y-1005484D01*
X4698396Y-1005484D02*
X4660301Y-1005484D01*
X4660301Y-1005484D02*
X4641253Y-995960D01*
X4641253Y-995960D02*
X4631730Y-976912D01*
X4631730Y-976912D02*
X4631730Y-900722D01*
X4631730Y-900722D02*
X4641253Y-881674D01*
X4641253Y-881674D02*
X4660301Y-872150D01*
X4660301Y-872150D02*
X4698396Y-872150D01*
X4698396Y-872150D02*
X4717444Y-881674D01*
X4717444Y-881674D02*
X4726968Y-900722D01*
X4726968Y-900722D02*
X4726968Y-919769D01*
X4726968Y-919769D02*
X4631730Y-938817D01*
X4803158Y-995960D02*
X4822206Y-1005484D01*
X4822206Y-1005484D02*
X4860301Y-1005484D01*
X4860301Y-1005484D02*
X4879349Y-995960D01*
X4879349Y-995960D02*
X4888873Y-976912D01*
X4888873Y-976912D02*
X4888873Y-967388D01*
X4888873Y-967388D02*
X4879349Y-948341D01*
X4879349Y-948341D02*
X4860301Y-938817D01*
X4860301Y-938817D02*
X4831730Y-938817D01*
X4831730Y-938817D02*
X4812682Y-929293D01*
X4812682Y-929293D02*
X4803158Y-910246D01*
X4803158Y-910246D02*
X4803158Y-900722D01*
X4803158Y-900722D02*
X4812682Y-881674D01*
X4812682Y-881674D02*
X4831730Y-872150D01*
X4831730Y-872150D02*
X4860301Y-872150D01*
X4860301Y-872150D02*
X4879349Y-881674D01*
X4955539Y-1081674D02*
X4965063Y-1072150D01*
X4965063Y-1072150D02*
X4984111Y-1043579D01*
X4984111Y-1043579D02*
X4993634Y-1024531D01*
X4993634Y-1024531D02*
X5003158Y-995960D01*
X5003158Y-995960D02*
X5012682Y-948341D01*
X5012682Y-948341D02*
X5012682Y-910246D01*
X5012682Y-910246D02*
X5003158Y-862627D01*
X5003158Y-862627D02*
X4993634Y-834055D01*
X4993634Y-834055D02*
X4984111Y-815008D01*
X4984111Y-815008D02*
X4965063Y-786436D01*
X4965063Y-786436D02*
X4955539Y-776912D01*
D12*
X-70000Y-1118000D02*
X-70000Y-1238000D01*
X-130000Y-1178000D02*
X-10000Y-1178000D01*
D10*
X355539Y-1269484D02*
X241253Y-1269484D01*
X298396Y-1269484D02*
X298396Y-1069484D01*
X298396Y-1069484D02*
X279348Y-1098055D01*
X279348Y-1098055D02*
X260301Y-1117103D01*
X260301Y-1117103D02*
X241253Y-1126627D01*
X441253Y-1250436D02*
X450777Y-1259960D01*
X450777Y-1259960D02*
X441253Y-1269484D01*
X441253Y-1269484D02*
X431729Y-1259960D01*
X431729Y-1259960D02*
X441253Y-1250436D01*
X441253Y-1250436D02*
X441253Y-1269484D01*
X526967Y-1088531D02*
X536491Y-1079008D01*
X536491Y-1079008D02*
X555539Y-1069484D01*
X555539Y-1069484D02*
X603158Y-1069484D01*
X603158Y-1069484D02*
X622205Y-1079008D01*
X622205Y-1079008D02*
X631729Y-1088531D01*
X631729Y-1088531D02*
X641253Y-1107579D01*
X641253Y-1107579D02*
X641253Y-1126627D01*
X641253Y-1126627D02*
X631729Y-1155198D01*
X631729Y-1155198D02*
X517443Y-1269484D01*
X517443Y-1269484D02*
X641253Y-1269484D01*
X765062Y-1069484D02*
X784110Y-1069484D01*
X784110Y-1069484D02*
X803158Y-1079008D01*
X803158Y-1079008D02*
X812682Y-1088531D01*
X812682Y-1088531D02*
X822205Y-1107579D01*
X822205Y-1107579D02*
X831729Y-1145674D01*
X831729Y-1145674D02*
X831729Y-1193293D01*
X831729Y-1193293D02*
X822205Y-1231389D01*
X822205Y-1231389D02*
X812682Y-1250436D01*
X812682Y-1250436D02*
X803158Y-1259960D01*
X803158Y-1259960D02*
X784110Y-1269484D01*
X784110Y-1269484D02*
X765062Y-1269484D01*
X765062Y-1269484D02*
X746015Y-1259960D01*
X746015Y-1259960D02*
X736491Y-1250436D01*
X736491Y-1250436D02*
X726967Y-1231389D01*
X726967Y-1231389D02*
X717443Y-1193293D01*
X717443Y-1193293D02*
X717443Y-1145674D01*
X717443Y-1145674D02*
X726967Y-1107579D01*
X726967Y-1107579D02*
X736491Y-1088531D01*
X736491Y-1088531D02*
X746015Y-1079008D01*
X746015Y-1079008D02*
X765062Y-1069484D01*
X955539Y-1069484D02*
X974586Y-1069484D01*
X974586Y-1069484D02*
X993634Y-1079008D01*
X993634Y-1079008D02*
X1003158Y-1088531D01*
X1003158Y-1088531D02*
X1012682Y-1107579D01*
X1012682Y-1107579D02*
X1022205Y-1145674D01*
X1022205Y-1145674D02*
X1022205Y-1193293D01*
X1022205Y-1193293D02*
X1012682Y-1231389D01*
X1012682Y-1231389D02*
X1003158Y-1250436D01*
X1003158Y-1250436D02*
X993634Y-1259960D01*
X993634Y-1259960D02*
X974586Y-1269484D01*
X974586Y-1269484D02*
X955539Y-1269484D01*
X955539Y-1269484D02*
X936491Y-1259960D01*
X936491Y-1259960D02*
X926967Y-1250436D01*
X926967Y-1250436D02*
X917443Y-1231389D01*
X917443Y-1231389D02*
X907920Y-1193293D01*
X907920Y-1193293D02*
X907920Y-1145674D01*
X907920Y-1145674D02*
X917443Y-1107579D01*
X917443Y-1107579D02*
X926967Y-1088531D01*
X926967Y-1088531D02*
X936491Y-1079008D01*
X936491Y-1079008D02*
X955539Y-1069484D01*
X1107920Y-1269484D02*
X1107920Y-1136150D01*
X1107920Y-1155198D02*
X1117444Y-1145674D01*
X1117444Y-1145674D02*
X1136491Y-1136150D01*
X1136491Y-1136150D02*
X1165063Y-1136150D01*
X1165063Y-1136150D02*
X1184110Y-1145674D01*
X1184110Y-1145674D02*
X1193634Y-1164722D01*
X1193634Y-1164722D02*
X1193634Y-1269484D01*
X1193634Y-1164722D02*
X1203158Y-1145674D01*
X1203158Y-1145674D02*
X1222205Y-1136150D01*
X1222205Y-1136150D02*
X1250777Y-1136150D01*
X1250777Y-1136150D02*
X1269825Y-1145674D01*
X1269825Y-1145674D02*
X1279348Y-1164722D01*
X1279348Y-1164722D02*
X1279348Y-1269484D01*
X1374586Y-1269484D02*
X1374586Y-1136150D01*
X1374586Y-1155198D02*
X1384110Y-1145674D01*
X1384110Y-1145674D02*
X1403158Y-1136150D01*
X1403158Y-1136150D02*
X1431729Y-1136150D01*
X1431729Y-1136150D02*
X1450777Y-1145674D01*
X1450777Y-1145674D02*
X1460301Y-1164722D01*
X1460301Y-1164722D02*
X1460301Y-1269484D01*
X1460301Y-1164722D02*
X1469824Y-1145674D01*
X1469824Y-1145674D02*
X1488872Y-1136150D01*
X1488872Y-1136150D02*
X1517443Y-1136150D01*
X1517443Y-1136150D02*
X1536491Y-1145674D01*
X1536491Y-1145674D02*
X1546015Y-1164722D01*
X1546015Y-1164722D02*
X1546015Y-1269484D01*
X1936491Y-1059960D02*
X1765063Y-1317103D01*
X2193634Y-1069484D02*
X2212682Y-1069484D01*
X2212682Y-1069484D02*
X2231729Y-1079008D01*
X2231729Y-1079008D02*
X2241253Y-1088531D01*
X2241253Y-1088531D02*
X2250777Y-1107579D01*
X2250777Y-1107579D02*
X2260301Y-1145674D01*
X2260301Y-1145674D02*
X2260301Y-1193293D01*
X2260301Y-1193293D02*
X2250777Y-1231389D01*
X2250777Y-1231389D02*
X2241253Y-1250436D01*
X2241253Y-1250436D02*
X2231729Y-1259960D01*
X2231729Y-1259960D02*
X2212682Y-1269484D01*
X2212682Y-1269484D02*
X2193634Y-1269484D01*
X2193634Y-1269484D02*
X2174587Y-1259960D01*
X2174587Y-1259960D02*
X2165063Y-1250436D01*
X2165063Y-1250436D02*
X2155539Y-1231389D01*
X2155539Y-1231389D02*
X2146015Y-1193293D01*
X2146015Y-1193293D02*
X2146015Y-1145674D01*
X2146015Y-1145674D02*
X2155539Y-1107579D01*
X2155539Y-1107579D02*
X2165063Y-1088531D01*
X2165063Y-1088531D02*
X2174587Y-1079008D01*
X2174587Y-1079008D02*
X2193634Y-1069484D01*
X2346015Y-1250436D02*
X2355539Y-1259960D01*
X2355539Y-1259960D02*
X2346015Y-1269484D01*
X2346015Y-1269484D02*
X2336491Y-1259960D01*
X2336491Y-1259960D02*
X2346015Y-1250436D01*
X2346015Y-1250436D02*
X2346015Y-1269484D01*
X2479348Y-1069484D02*
X2498396Y-1069484D01*
X2498396Y-1069484D02*
X2517444Y-1079008D01*
X2517444Y-1079008D02*
X2526968Y-1088531D01*
X2526968Y-1088531D02*
X2536491Y-1107579D01*
X2536491Y-1107579D02*
X2546015Y-1145674D01*
X2546015Y-1145674D02*
X2546015Y-1193293D01*
X2546015Y-1193293D02*
X2536491Y-1231389D01*
X2536491Y-1231389D02*
X2526968Y-1250436D01*
X2526968Y-1250436D02*
X2517444Y-1259960D01*
X2517444Y-1259960D02*
X2498396Y-1269484D01*
X2498396Y-1269484D02*
X2479348Y-1269484D01*
X2479348Y-1269484D02*
X2460301Y-1259960D01*
X2460301Y-1259960D02*
X2450777Y-1250436D01*
X2450777Y-1250436D02*
X2441253Y-1231389D01*
X2441253Y-1231389D02*
X2431729Y-1193293D01*
X2431729Y-1193293D02*
X2431729Y-1145674D01*
X2431729Y-1145674D02*
X2441253Y-1107579D01*
X2441253Y-1107579D02*
X2450777Y-1088531D01*
X2450777Y-1088531D02*
X2460301Y-1079008D01*
X2460301Y-1079008D02*
X2479348Y-1069484D01*
X2717444Y-1136150D02*
X2717444Y-1269484D01*
X2669825Y-1059960D02*
X2622206Y-1202817D01*
X2622206Y-1202817D02*
X2746015Y-1202817D01*
X2803158Y-1069484D02*
X2936491Y-1069484D01*
X2936491Y-1069484D02*
X2850777Y-1269484D01*
X3003158Y-1088531D02*
X3012682Y-1079008D01*
X3012682Y-1079008D02*
X3031729Y-1069484D01*
X3031729Y-1069484D02*
X3079348Y-1069484D01*
X3079348Y-1069484D02*
X3098396Y-1079008D01*
X3098396Y-1079008D02*
X3107920Y-1088531D01*
X3107920Y-1088531D02*
X3117444Y-1107579D01*
X3117444Y-1107579D02*
X3117444Y-1126627D01*
X3117444Y-1126627D02*
X3107920Y-1155198D01*
X3107920Y-1155198D02*
X2993634Y-1269484D01*
X2993634Y-1269484D02*
X3117444Y-1269484D01*
X3193634Y-1069484D02*
X3193634Y-1107579D01*
X3269825Y-1069484D02*
X3269825Y-1107579D01*
X3565063Y-1345674D02*
X3555539Y-1336150D01*
X3555539Y-1336150D02*
X3536491Y-1307579D01*
X3536491Y-1307579D02*
X3526968Y-1288531D01*
X3526968Y-1288531D02*
X3517444Y-1259960D01*
X3517444Y-1259960D02*
X3507920Y-1212341D01*
X3507920Y-1212341D02*
X3507920Y-1174246D01*
X3507920Y-1174246D02*
X3517444Y-1126627D01*
X3517444Y-1126627D02*
X3526968Y-1098055D01*
X3526968Y-1098055D02*
X3536491Y-1079008D01*
X3536491Y-1079008D02*
X3555539Y-1050436D01*
X3555539Y-1050436D02*
X3565063Y-1040912D01*
X3746015Y-1269484D02*
X3631729Y-1269484D01*
X3688872Y-1269484D02*
X3688872Y-1069484D01*
X3688872Y-1069484D02*
X3669825Y-1098055D01*
X3669825Y-1098055D02*
X3650777Y-1117103D01*
X3650777Y-1117103D02*
X3631729Y-1126627D01*
X3822206Y-1088531D02*
X3831729Y-1079008D01*
X3831729Y-1079008D02*
X3850777Y-1069484D01*
X3850777Y-1069484D02*
X3898396Y-1069484D01*
X3898396Y-1069484D02*
X3917444Y-1079008D01*
X3917444Y-1079008D02*
X3926968Y-1088531D01*
X3926968Y-1088531D02*
X3936491Y-1107579D01*
X3936491Y-1107579D02*
X3936491Y-1126627D01*
X3936491Y-1126627D02*
X3926968Y-1155198D01*
X3926968Y-1155198D02*
X3812682Y-1269484D01*
X3812682Y-1269484D02*
X3936491Y-1269484D01*
X4174587Y-1269484D02*
X4174587Y-1069484D01*
X4260301Y-1269484D02*
X4260301Y-1164722D01*
X4260301Y-1164722D02*
X4250777Y-1145674D01*
X4250777Y-1145674D02*
X4231730Y-1136150D01*
X4231730Y-1136150D02*
X4203158Y-1136150D01*
X4203158Y-1136150D02*
X4184110Y-1145674D01*
X4184110Y-1145674D02*
X4174587Y-1155198D01*
X4384111Y-1269484D02*
X4365063Y-1259960D01*
X4365063Y-1259960D02*
X4355539Y-1250436D01*
X4355539Y-1250436D02*
X4346015Y-1231389D01*
X4346015Y-1231389D02*
X4346015Y-1174246D01*
X4346015Y-1174246D02*
X4355539Y-1155198D01*
X4355539Y-1155198D02*
X4365063Y-1145674D01*
X4365063Y-1145674D02*
X4384111Y-1136150D01*
X4384111Y-1136150D02*
X4412682Y-1136150D01*
X4412682Y-1136150D02*
X4431730Y-1145674D01*
X4431730Y-1145674D02*
X4441253Y-1155198D01*
X4441253Y-1155198D02*
X4450777Y-1174246D01*
X4450777Y-1174246D02*
X4450777Y-1231389D01*
X4450777Y-1231389D02*
X4441253Y-1250436D01*
X4441253Y-1250436D02*
X4431730Y-1259960D01*
X4431730Y-1259960D02*
X4412682Y-1269484D01*
X4412682Y-1269484D02*
X4384111Y-1269484D01*
X4565063Y-1269484D02*
X4546015Y-1259960D01*
X4546015Y-1259960D02*
X4536492Y-1240912D01*
X4536492Y-1240912D02*
X4536492Y-1069484D01*
X4717444Y-1259960D02*
X4698396Y-1269484D01*
X4698396Y-1269484D02*
X4660301Y-1269484D01*
X4660301Y-1269484D02*
X4641253Y-1259960D01*
X4641253Y-1259960D02*
X4631730Y-1240912D01*
X4631730Y-1240912D02*
X4631730Y-1164722D01*
X4631730Y-1164722D02*
X4641253Y-1145674D01*
X4641253Y-1145674D02*
X4660301Y-1136150D01*
X4660301Y-1136150D02*
X4698396Y-1136150D01*
X4698396Y-1136150D02*
X4717444Y-1145674D01*
X4717444Y-1145674D02*
X4726968Y-1164722D01*
X4726968Y-1164722D02*
X4726968Y-1183770D01*
X4726968Y-1183770D02*
X4631730Y-1202817D01*
X4803158Y-1259960D02*
X4822206Y-1269484D01*
X4822206Y-1269484D02*
X4860301Y-1269484D01*
X4860301Y-1269484D02*
X4879349Y-1259960D01*
X4879349Y-1259960D02*
X4888873Y-1240912D01*
X4888873Y-1240912D02*
X4888873Y-1231389D01*
X4888873Y-1231389D02*
X4879349Y-1212341D01*
X4879349Y-1212341D02*
X4860301Y-1202817D01*
X4860301Y-1202817D02*
X4831730Y-1202817D01*
X4831730Y-1202817D02*
X4812682Y-1193293D01*
X4812682Y-1193293D02*
X4803158Y-1174246D01*
X4803158Y-1174246D02*
X4803158Y-1164722D01*
X4803158Y-1164722D02*
X4812682Y-1145674D01*
X4812682Y-1145674D02*
X4831730Y-1136150D01*
X4831730Y-1136150D02*
X4860301Y-1136150D01*
X4860301Y-1136150D02*
X4879349Y-1145674D01*
X4955539Y-1345674D02*
X4965063Y-1336150D01*
X4965063Y-1336150D02*
X4984111Y-1307579D01*
X4984111Y-1307579D02*
X4993634Y-1288531D01*
X4993634Y-1288531D02*
X5003158Y-1259960D01*
X5003158Y-1259960D02*
X5012682Y-1212341D01*
X5012682Y-1212341D02*
X5012682Y-1174246D01*
X5012682Y-1174246D02*
X5003158Y-1126627D01*
X5003158Y-1126627D02*
X4993634Y-1098055D01*
X4993634Y-1098055D02*
X4984111Y-1079008D01*
X4984111Y-1079008D02*
X4965063Y-1050436D01*
X4965063Y-1050436D02*
X4955539Y-1040912D01*
D13*
X-29038Y-1487962D02*
X-29038Y-1396038D01*
X-120962Y-1396038D01*
X-120962Y-1487962D01*
X-29038Y-1487962D01*
D10*
X355539Y-1533484D02*
X241253Y-1533484D01*
X298396Y-1533484D02*
X298396Y-1333484D01*
X298396Y-1333484D02*
X279348Y-1362055D01*
X279348Y-1362055D02*
X260301Y-1381103D01*
X260301Y-1381103D02*
X241253Y-1390627D01*
X441253Y-1514436D02*
X450777Y-1523960D01*
X450777Y-1523960D02*
X441253Y-1533484D01*
X441253Y-1533484D02*
X431729Y-1523960D01*
X431729Y-1523960D02*
X441253Y-1514436D01*
X441253Y-1514436D02*
X441253Y-1533484D01*
X517443Y-1333484D02*
X641253Y-1333484D01*
X641253Y-1333484D02*
X574586Y-1409674D01*
X574586Y-1409674D02*
X603158Y-1409674D01*
X603158Y-1409674D02*
X622205Y-1419198D01*
X622205Y-1419198D02*
X631729Y-1428722D01*
X631729Y-1428722D02*
X641253Y-1447769D01*
X641253Y-1447769D02*
X641253Y-1495388D01*
X641253Y-1495388D02*
X631729Y-1514436D01*
X631729Y-1514436D02*
X622205Y-1523960D01*
X622205Y-1523960D02*
X603158Y-1533484D01*
X603158Y-1533484D02*
X546015Y-1533484D01*
X546015Y-1533484D02*
X526967Y-1523960D01*
X526967Y-1523960D02*
X517443Y-1514436D01*
X765062Y-1333484D02*
X784110Y-1333484D01*
X784110Y-1333484D02*
X803158Y-1343008D01*
X803158Y-1343008D02*
X812682Y-1352531D01*
X812682Y-1352531D02*
X822205Y-1371579D01*
X822205Y-1371579D02*
X831729Y-1409674D01*
X831729Y-1409674D02*
X831729Y-1457293D01*
X831729Y-1457293D02*
X822205Y-1495388D01*
X822205Y-1495388D02*
X812682Y-1514436D01*
X812682Y-1514436D02*
X803158Y-1523960D01*
X803158Y-1523960D02*
X784110Y-1533484D01*
X784110Y-1533484D02*
X765062Y-1533484D01*
X765062Y-1533484D02*
X746015Y-1523960D01*
X746015Y-1523960D02*
X736491Y-1514436D01*
X736491Y-1514436D02*
X726967Y-1495388D01*
X726967Y-1495388D02*
X717443Y-1457293D01*
X717443Y-1457293D02*
X717443Y-1409674D01*
X717443Y-1409674D02*
X726967Y-1371579D01*
X726967Y-1371579D02*
X736491Y-1352531D01*
X736491Y-1352531D02*
X746015Y-1343008D01*
X746015Y-1343008D02*
X765062Y-1333484D01*
X955539Y-1333484D02*
X974586Y-1333484D01*
X974586Y-1333484D02*
X993634Y-1343008D01*
X993634Y-1343008D02*
X1003158Y-1352531D01*
X1003158Y-1352531D02*
X1012682Y-1371579D01*
X1012682Y-1371579D02*
X1022205Y-1409674D01*
X1022205Y-1409674D02*
X1022205Y-1457293D01*
X1022205Y-1457293D02*
X1012682Y-1495388D01*
X1012682Y-1495388D02*
X1003158Y-1514436D01*
X1003158Y-1514436D02*
X993634Y-1523960D01*
X993634Y-1523960D02*
X974586Y-1533484D01*
X974586Y-1533484D02*
X955539Y-1533484D01*
X955539Y-1533484D02*
X936491Y-1523960D01*
X936491Y-1523960D02*
X926967Y-1514436D01*
X926967Y-1514436D02*
X917443Y-1495388D01*
X917443Y-1495388D02*
X907920Y-1457293D01*
X907920Y-1457293D02*
X907920Y-1409674D01*
X907920Y-1409674D02*
X917443Y-1371579D01*
X917443Y-1371579D02*
X926967Y-1352531D01*
X926967Y-1352531D02*
X936491Y-1343008D01*
X936491Y-1343008D02*
X955539Y-1333484D01*
X1107920Y-1533484D02*
X1107920Y-1400150D01*
X1107920Y-1419198D02*
X1117444Y-1409674D01*
X1117444Y-1409674D02*
X1136491Y-1400150D01*
X1136491Y-1400150D02*
X1165063Y-1400150D01*
X1165063Y-1400150D02*
X1184110Y-1409674D01*
X1184110Y-1409674D02*
X1193634Y-1428722D01*
X1193634Y-1428722D02*
X1193634Y-1533484D01*
X1193634Y-1428722D02*
X1203158Y-1409674D01*
X1203158Y-1409674D02*
X1222205Y-1400150D01*
X1222205Y-1400150D02*
X1250777Y-1400150D01*
X1250777Y-1400150D02*
X1269825Y-1409674D01*
X1269825Y-1409674D02*
X1279348Y-1428722D01*
X1279348Y-1428722D02*
X1279348Y-1533484D01*
X1374586Y-1533484D02*
X1374586Y-1400150D01*
X1374586Y-1419198D02*
X1384110Y-1409674D01*
X1384110Y-1409674D02*
X1403158Y-1400150D01*
X1403158Y-1400150D02*
X1431729Y-1400150D01*
X1431729Y-1400150D02*
X1450777Y-1409674D01*
X1450777Y-1409674D02*
X1460301Y-1428722D01*
X1460301Y-1428722D02*
X1460301Y-1533484D01*
X1460301Y-1428722D02*
X1469824Y-1409674D01*
X1469824Y-1409674D02*
X1488872Y-1400150D01*
X1488872Y-1400150D02*
X1517443Y-1400150D01*
X1517443Y-1400150D02*
X1536491Y-1409674D01*
X1536491Y-1409674D02*
X1546015Y-1428722D01*
X1546015Y-1428722D02*
X1546015Y-1533484D01*
X1936491Y-1323960D02*
X1765063Y-1581103D01*
X2193634Y-1333484D02*
X2212682Y-1333484D01*
X2212682Y-1333484D02*
X2231729Y-1343008D01*
X2231729Y-1343008D02*
X2241253Y-1352531D01*
X2241253Y-1352531D02*
X2250777Y-1371579D01*
X2250777Y-1371579D02*
X2260301Y-1409674D01*
X2260301Y-1409674D02*
X2260301Y-1457293D01*
X2260301Y-1457293D02*
X2250777Y-1495388D01*
X2250777Y-1495388D02*
X2241253Y-1514436D01*
X2241253Y-1514436D02*
X2231729Y-1523960D01*
X2231729Y-1523960D02*
X2212682Y-1533484D01*
X2212682Y-1533484D02*
X2193634Y-1533484D01*
X2193634Y-1533484D02*
X2174587Y-1523960D01*
X2174587Y-1523960D02*
X2165063Y-1514436D01*
X2165063Y-1514436D02*
X2155539Y-1495388D01*
X2155539Y-1495388D02*
X2146015Y-1457293D01*
X2146015Y-1457293D02*
X2146015Y-1409674D01*
X2146015Y-1409674D02*
X2155539Y-1371579D01*
X2155539Y-1371579D02*
X2165063Y-1352531D01*
X2165063Y-1352531D02*
X2174587Y-1343008D01*
X2174587Y-1343008D02*
X2193634Y-1333484D01*
X2346015Y-1514436D02*
X2355539Y-1523960D01*
X2355539Y-1523960D02*
X2346015Y-1533484D01*
X2346015Y-1533484D02*
X2336491Y-1523960D01*
X2336491Y-1523960D02*
X2346015Y-1514436D01*
X2346015Y-1514436D02*
X2346015Y-1533484D01*
X2479348Y-1333484D02*
X2498396Y-1333484D01*
X2498396Y-1333484D02*
X2517444Y-1343008D01*
X2517444Y-1343008D02*
X2526968Y-1352531D01*
X2526968Y-1352531D02*
X2536491Y-1371579D01*
X2536491Y-1371579D02*
X2546015Y-1409674D01*
X2546015Y-1409674D02*
X2546015Y-1457293D01*
X2546015Y-1457293D02*
X2536491Y-1495388D01*
X2536491Y-1495388D02*
X2526968Y-1514436D01*
X2526968Y-1514436D02*
X2517444Y-1523960D01*
X2517444Y-1523960D02*
X2498396Y-1533484D01*
X2498396Y-1533484D02*
X2479348Y-1533484D01*
X2479348Y-1533484D02*
X2460301Y-1523960D01*
X2460301Y-1523960D02*
X2450777Y-1514436D01*
X2450777Y-1514436D02*
X2441253Y-1495388D01*
X2441253Y-1495388D02*
X2431729Y-1457293D01*
X2431729Y-1457293D02*
X2431729Y-1409674D01*
X2431729Y-1409674D02*
X2441253Y-1371579D01*
X2441253Y-1371579D02*
X2450777Y-1352531D01*
X2450777Y-1352531D02*
X2460301Y-1343008D01*
X2460301Y-1343008D02*
X2479348Y-1333484D01*
X2726968Y-1333484D02*
X2631729Y-1333484D01*
X2631729Y-1333484D02*
X2622206Y-1428722D01*
X2622206Y-1428722D02*
X2631729Y-1419198D01*
X2631729Y-1419198D02*
X2650777Y-1409674D01*
X2650777Y-1409674D02*
X2698396Y-1409674D01*
X2698396Y-1409674D02*
X2717444Y-1419198D01*
X2717444Y-1419198D02*
X2726968Y-1428722D01*
X2726968Y-1428722D02*
X2736491Y-1447769D01*
X2736491Y-1447769D02*
X2736491Y-1495388D01*
X2736491Y-1495388D02*
X2726968Y-1514436D01*
X2726968Y-1514436D02*
X2717444Y-1523960D01*
X2717444Y-1523960D02*
X2698396Y-1533484D01*
X2698396Y-1533484D02*
X2650777Y-1533484D01*
X2650777Y-1533484D02*
X2631729Y-1523960D01*
X2631729Y-1523960D02*
X2622206Y-1514436D01*
X2926967Y-1533484D02*
X2812682Y-1533484D01*
X2869825Y-1533484D02*
X2869825Y-1333484D01*
X2869825Y-1333484D02*
X2850777Y-1362055D01*
X2850777Y-1362055D02*
X2831729Y-1381103D01*
X2831729Y-1381103D02*
X2812682Y-1390627D01*
X3003158Y-1352531D02*
X3012682Y-1343008D01*
X3012682Y-1343008D02*
X3031729Y-1333484D01*
X3031729Y-1333484D02*
X3079348Y-1333484D01*
X3079348Y-1333484D02*
X3098396Y-1343008D01*
X3098396Y-1343008D02*
X3107920Y-1352531D01*
X3107920Y-1352531D02*
X3117444Y-1371579D01*
X3117444Y-1371579D02*
X3117444Y-1390627D01*
X3117444Y-1390627D02*
X3107920Y-1419198D01*
X3107920Y-1419198D02*
X2993634Y-1533484D01*
X2993634Y-1533484D02*
X3117444Y-1533484D01*
X3193634Y-1333484D02*
X3193634Y-1371579D01*
X3269825Y-1333484D02*
X3269825Y-1371579D01*
X3565063Y-1609674D02*
X3555539Y-1600150D01*
X3555539Y-1600150D02*
X3536491Y-1571579D01*
X3536491Y-1571579D02*
X3526968Y-1552531D01*
X3526968Y-1552531D02*
X3517444Y-1523960D01*
X3517444Y-1523960D02*
X3507920Y-1476341D01*
X3507920Y-1476341D02*
X3507920Y-1438246D01*
X3507920Y-1438246D02*
X3517444Y-1390627D01*
X3517444Y-1390627D02*
X3526968Y-1362055D01*
X3526968Y-1362055D02*
X3536491Y-1343008D01*
X3536491Y-1343008D02*
X3555539Y-1314436D01*
X3555539Y-1314436D02*
X3565063Y-1304912D01*
X3650777Y-1533484D02*
X3688872Y-1533484D01*
X3688872Y-1533484D02*
X3707920Y-1523960D01*
X3707920Y-1523960D02*
X3717444Y-1514436D01*
X3717444Y-1514436D02*
X3736491Y-1485865D01*
X3736491Y-1485865D02*
X3746015Y-1447769D01*
X3746015Y-1447769D02*
X3746015Y-1371579D01*
X3746015Y-1371579D02*
X3736491Y-1352531D01*
X3736491Y-1352531D02*
X3726968Y-1343008D01*
X3726968Y-1343008D02*
X3707920Y-1333484D01*
X3707920Y-1333484D02*
X3669825Y-1333484D01*
X3669825Y-1333484D02*
X3650777Y-1343008D01*
X3650777Y-1343008D02*
X3641253Y-1352531D01*
X3641253Y-1352531D02*
X3631729Y-1371579D01*
X3631729Y-1371579D02*
X3631729Y-1419198D01*
X3631729Y-1419198D02*
X3641253Y-1438246D01*
X3641253Y-1438246D02*
X3650777Y-1447769D01*
X3650777Y-1447769D02*
X3669825Y-1457293D01*
X3669825Y-1457293D02*
X3707920Y-1457293D01*
X3707920Y-1457293D02*
X3726968Y-1447769D01*
X3726968Y-1447769D02*
X3736491Y-1438246D01*
X3736491Y-1438246D02*
X3746015Y-1419198D01*
X3984110Y-1533484D02*
X3984110Y-1333484D01*
X4069825Y-1533484D02*
X4069825Y-1428722D01*
X4069825Y-1428722D02*
X4060301Y-1409674D01*
X4060301Y-1409674D02*
X4041253Y-1400150D01*
X4041253Y-1400150D02*
X4012682Y-1400150D01*
X4012682Y-1400150D02*
X3993634Y-1409674D01*
X3993634Y-1409674D02*
X3984110Y-1419198D01*
X4193634Y-1533484D02*
X4174587Y-1523960D01*
X4174587Y-1523960D02*
X4165063Y-1514436D01*
X4165063Y-1514436D02*
X4155539Y-1495388D01*
X4155539Y-1495388D02*
X4155539Y-1438246D01*
X4155539Y-1438246D02*
X4165063Y-1419198D01*
X4165063Y-1419198D02*
X4174587Y-1409674D01*
X4174587Y-1409674D02*
X4193634Y-1400150D01*
X4193634Y-1400150D02*
X4222206Y-1400150D01*
X4222206Y-1400150D02*
X4241253Y-1409674D01*
X4241253Y-1409674D02*
X4250777Y-1419198D01*
X4250777Y-1419198D02*
X4260301Y-1438246D01*
X4260301Y-1438246D02*
X4260301Y-1495388D01*
X4260301Y-1495388D02*
X4250777Y-1514436D01*
X4250777Y-1514436D02*
X4241253Y-1523960D01*
X4241253Y-1523960D02*
X4222206Y-1533484D01*
X4222206Y-1533484D02*
X4193634Y-1533484D01*
X4374587Y-1533484D02*
X4355539Y-1523960D01*
X4355539Y-1523960D02*
X4346015Y-1504912D01*
X4346015Y-1504912D02*
X4346015Y-1333484D01*
X4526968Y-1523960D02*
X4507920Y-1533484D01*
X4507920Y-1533484D02*
X4469825Y-1533484D01*
X4469825Y-1533484D02*
X4450777Y-1523960D01*
X4450777Y-1523960D02*
X4441253Y-1504912D01*
X4441253Y-1504912D02*
X4441253Y-1428722D01*
X4441253Y-1428722D02*
X4450777Y-1409674D01*
X4450777Y-1409674D02*
X4469825Y-1400150D01*
X4469825Y-1400150D02*
X4507920Y-1400150D01*
X4507920Y-1400150D02*
X4526968Y-1409674D01*
X4526968Y-1409674D02*
X4536492Y-1428722D01*
X4536492Y-1428722D02*
X4536492Y-1447769D01*
X4536492Y-1447769D02*
X4441253Y-1466817D01*
X4612682Y-1523960D02*
X4631730Y-1533484D01*
X4631730Y-1533484D02*
X4669825Y-1533484D01*
X4669825Y-1533484D02*
X4688873Y-1523960D01*
X4688873Y-1523960D02*
X4698396Y-1504912D01*
X4698396Y-1504912D02*
X4698396Y-1495388D01*
X4698396Y-1495388D02*
X4688873Y-1476341D01*
X4688873Y-1476341D02*
X4669825Y-1466817D01*
X4669825Y-1466817D02*
X4641253Y-1466817D01*
X4641253Y-1466817D02*
X4622206Y-1457293D01*
X4622206Y-1457293D02*
X4612682Y-1438246D01*
X4612682Y-1438246D02*
X4612682Y-1428722D01*
X4612682Y-1428722D02*
X4622206Y-1409674D01*
X4622206Y-1409674D02*
X4641253Y-1400150D01*
X4641253Y-1400150D02*
X4669825Y-1400150D01*
X4669825Y-1400150D02*
X4688873Y-1409674D01*
X4765063Y-1609674D02*
X4774587Y-1600150D01*
X4774587Y-1600150D02*
X4793634Y-1571579D01*
X4793634Y-1571579D02*
X4803158Y-1552531D01*
X4803158Y-1552531D02*
X4812682Y-1523960D01*
X4812682Y-1523960D02*
X4822206Y-1476341D01*
X4822206Y-1476341D02*
X4822206Y-1438246D01*
X4822206Y-1438246D02*
X4812682Y-1390627D01*
X4812682Y-1390627D02*
X4803158Y-1362055D01*
X4803158Y-1362055D02*
X4793634Y-1343008D01*
X4793634Y-1343008D02*
X4774587Y-1314436D01*
X4774587Y-1314436D02*
X4765063Y-1304912D01*
D14*
X-80000Y-1776000D02*
X-10000Y-1706000D01*
X-80000Y-1636000D01*
X-150000Y-1706000D01*
X-80000Y-1776000D01*
D10*
X355539Y-1797484D02*
X241253Y-1797484D01*
X298396Y-1797484D02*
X298396Y-1597484D01*
X298396Y-1597484D02*
X279348Y-1626055D01*
X279348Y-1626055D02*
X260301Y-1645103D01*
X260301Y-1645103D02*
X241253Y-1654627D01*
X441253Y-1778436D02*
X450777Y-1787960D01*
X450777Y-1787960D02*
X441253Y-1797484D01*
X441253Y-1797484D02*
X431729Y-1787960D01*
X431729Y-1787960D02*
X441253Y-1778436D01*
X441253Y-1778436D02*
X441253Y-1797484D01*
X622205Y-1664150D02*
X622205Y-1797484D01*
X574586Y-1587960D02*
X526967Y-1730817D01*
X526967Y-1730817D02*
X650777Y-1730817D01*
X765062Y-1597484D02*
X784110Y-1597484D01*
X784110Y-1597484D02*
X803158Y-1607008D01*
X803158Y-1607008D02*
X812682Y-1616531D01*
X812682Y-1616531D02*
X822205Y-1635579D01*
X822205Y-1635579D02*
X831729Y-1673674D01*
X831729Y-1673674D02*
X831729Y-1721293D01*
X831729Y-1721293D02*
X822205Y-1759388D01*
X822205Y-1759388D02*
X812682Y-1778436D01*
X812682Y-1778436D02*
X803158Y-1787960D01*
X803158Y-1787960D02*
X784110Y-1797484D01*
X784110Y-1797484D02*
X765062Y-1797484D01*
X765062Y-1797484D02*
X746015Y-1787960D01*
X746015Y-1787960D02*
X736491Y-1778436D01*
X736491Y-1778436D02*
X726967Y-1759388D01*
X726967Y-1759388D02*
X717443Y-1721293D01*
X717443Y-1721293D02*
X717443Y-1673674D01*
X717443Y-1673674D02*
X726967Y-1635579D01*
X726967Y-1635579D02*
X736491Y-1616531D01*
X736491Y-1616531D02*
X746015Y-1607008D01*
X746015Y-1607008D02*
X765062Y-1597484D01*
X955539Y-1597484D02*
X974586Y-1597484D01*
X974586Y-1597484D02*
X993634Y-1607008D01*
X993634Y-1607008D02*
X1003158Y-1616531D01*
X1003158Y-1616531D02*
X1012682Y-1635579D01*
X1012682Y-1635579D02*
X1022205Y-1673674D01*
X1022205Y-1673674D02*
X1022205Y-1721293D01*
X1022205Y-1721293D02*
X1012682Y-1759388D01*
X1012682Y-1759388D02*
X1003158Y-1778436D01*
X1003158Y-1778436D02*
X993634Y-1787960D01*
X993634Y-1787960D02*
X974586Y-1797484D01*
X974586Y-1797484D02*
X955539Y-1797484D01*
X955539Y-1797484D02*
X936491Y-1787960D01*
X936491Y-1787960D02*
X926967Y-1778436D01*
X926967Y-1778436D02*
X917443Y-1759388D01*
X917443Y-1759388D02*
X907920Y-1721293D01*
X907920Y-1721293D02*
X907920Y-1673674D01*
X907920Y-1673674D02*
X917443Y-1635579D01*
X917443Y-1635579D02*
X926967Y-1616531D01*
X926967Y-1616531D02*
X936491Y-1607008D01*
X936491Y-1607008D02*
X955539Y-1597484D01*
X1107920Y-1797484D02*
X1107920Y-1664150D01*
X1107920Y-1683198D02*
X1117444Y-1673674D01*
X1117444Y-1673674D02*
X1136491Y-1664150D01*
X1136491Y-1664150D02*
X1165063Y-1664150D01*
X1165063Y-1664150D02*
X1184110Y-1673674D01*
X1184110Y-1673674D02*
X1193634Y-1692722D01*
X1193634Y-1692722D02*
X1193634Y-1797484D01*
X1193634Y-1692722D02*
X1203158Y-1673674D01*
X1203158Y-1673674D02*
X1222205Y-1664150D01*
X1222205Y-1664150D02*
X1250777Y-1664150D01*
X1250777Y-1664150D02*
X1269825Y-1673674D01*
X1269825Y-1673674D02*
X1279348Y-1692722D01*
X1279348Y-1692722D02*
X1279348Y-1797484D01*
X1374586Y-1797484D02*
X1374586Y-1664150D01*
X1374586Y-1683198D02*
X1384110Y-1673674D01*
X1384110Y-1673674D02*
X1403158Y-1664150D01*
X1403158Y-1664150D02*
X1431729Y-1664150D01*
X1431729Y-1664150D02*
X1450777Y-1673674D01*
X1450777Y-1673674D02*
X1460301Y-1692722D01*
X1460301Y-1692722D02*
X1460301Y-1797484D01*
X1460301Y-1692722D02*
X1469824Y-1673674D01*
X1469824Y-1673674D02*
X1488872Y-1664150D01*
X1488872Y-1664150D02*
X1517443Y-1664150D01*
X1517443Y-1664150D02*
X1536491Y-1673674D01*
X1536491Y-1673674D02*
X1546015Y-1692722D01*
X1546015Y-1692722D02*
X1546015Y-1797484D01*
X1936491Y-1587960D02*
X1765063Y-1845103D01*
X2193634Y-1597484D02*
X2212682Y-1597484D01*
X2212682Y-1597484D02*
X2231729Y-1607008D01*
X2231729Y-1607008D02*
X2241253Y-1616531D01*
X2241253Y-1616531D02*
X2250777Y-1635579D01*
X2250777Y-1635579D02*
X2260301Y-1673674D01*
X2260301Y-1673674D02*
X2260301Y-1721293D01*
X2260301Y-1721293D02*
X2250777Y-1759388D01*
X2250777Y-1759388D02*
X2241253Y-1778436D01*
X2241253Y-1778436D02*
X2231729Y-1787960D01*
X2231729Y-1787960D02*
X2212682Y-1797484D01*
X2212682Y-1797484D02*
X2193634Y-1797484D01*
X2193634Y-1797484D02*
X2174587Y-1787960D01*
X2174587Y-1787960D02*
X2165063Y-1778436D01*
X2165063Y-1778436D02*
X2155539Y-1759388D01*
X2155539Y-1759388D02*
X2146015Y-1721293D01*
X2146015Y-1721293D02*
X2146015Y-1673674D01*
X2146015Y-1673674D02*
X2155539Y-1635579D01*
X2155539Y-1635579D02*
X2165063Y-1616531D01*
X2165063Y-1616531D02*
X2174587Y-1607008D01*
X2174587Y-1607008D02*
X2193634Y-1597484D01*
X2346015Y-1778436D02*
X2355539Y-1787960D01*
X2355539Y-1787960D02*
X2346015Y-1797484D01*
X2346015Y-1797484D02*
X2336491Y-1787960D01*
X2336491Y-1787960D02*
X2346015Y-1778436D01*
X2346015Y-1778436D02*
X2346015Y-1797484D01*
X2479348Y-1597484D02*
X2498396Y-1597484D01*
X2498396Y-1597484D02*
X2517444Y-1607008D01*
X2517444Y-1607008D02*
X2526968Y-1616531D01*
X2526968Y-1616531D02*
X2536491Y-1635579D01*
X2536491Y-1635579D02*
X2546015Y-1673674D01*
X2546015Y-1673674D02*
X2546015Y-1721293D01*
X2546015Y-1721293D02*
X2536491Y-1759388D01*
X2536491Y-1759388D02*
X2526968Y-1778436D01*
X2526968Y-1778436D02*
X2517444Y-1787960D01*
X2517444Y-1787960D02*
X2498396Y-1797484D01*
X2498396Y-1797484D02*
X2479348Y-1797484D01*
X2479348Y-1797484D02*
X2460301Y-1787960D01*
X2460301Y-1787960D02*
X2450777Y-1778436D01*
X2450777Y-1778436D02*
X2441253Y-1759388D01*
X2441253Y-1759388D02*
X2431729Y-1721293D01*
X2431729Y-1721293D02*
X2431729Y-1673674D01*
X2431729Y-1673674D02*
X2441253Y-1635579D01*
X2441253Y-1635579D02*
X2450777Y-1616531D01*
X2450777Y-1616531D02*
X2460301Y-1607008D01*
X2460301Y-1607008D02*
X2479348Y-1597484D01*
X2726968Y-1597484D02*
X2631729Y-1597484D01*
X2631729Y-1597484D02*
X2622206Y-1692722D01*
X2622206Y-1692722D02*
X2631729Y-1683198D01*
X2631729Y-1683198D02*
X2650777Y-1673674D01*
X2650777Y-1673674D02*
X2698396Y-1673674D01*
X2698396Y-1673674D02*
X2717444Y-1683198D01*
X2717444Y-1683198D02*
X2726968Y-1692722D01*
X2726968Y-1692722D02*
X2736491Y-1711769D01*
X2736491Y-1711769D02*
X2736491Y-1759388D01*
X2736491Y-1759388D02*
X2726968Y-1778436D01*
X2726968Y-1778436D02*
X2717444Y-1787960D01*
X2717444Y-1787960D02*
X2698396Y-1797484D01*
X2698396Y-1797484D02*
X2650777Y-1797484D01*
X2650777Y-1797484D02*
X2631729Y-1787960D01*
X2631729Y-1787960D02*
X2622206Y-1778436D01*
X2917444Y-1597484D02*
X2822206Y-1597484D01*
X2822206Y-1597484D02*
X2812682Y-1692722D01*
X2812682Y-1692722D02*
X2822206Y-1683198D01*
X2822206Y-1683198D02*
X2841253Y-1673674D01*
X2841253Y-1673674D02*
X2888872Y-1673674D01*
X2888872Y-1673674D02*
X2907920Y-1683198D01*
X2907920Y-1683198D02*
X2917444Y-1692722D01*
X2917444Y-1692722D02*
X2926967Y-1711769D01*
X2926967Y-1711769D02*
X2926967Y-1759388D01*
X2926967Y-1759388D02*
X2917444Y-1778436D01*
X2917444Y-1778436D02*
X2907920Y-1787960D01*
X2907920Y-1787960D02*
X2888872Y-1797484D01*
X2888872Y-1797484D02*
X2841253Y-1797484D01*
X2841253Y-1797484D02*
X2822206Y-1787960D01*
X2822206Y-1787960D02*
X2812682Y-1778436D01*
X3117444Y-1797484D02*
X3003158Y-1797484D01*
X3060301Y-1797484D02*
X3060301Y-1597484D01*
X3060301Y-1597484D02*
X3041253Y-1626055D01*
X3041253Y-1626055D02*
X3022206Y-1645103D01*
X3022206Y-1645103D02*
X3003158Y-1654627D01*
X3193634Y-1597484D02*
X3193634Y-1635579D01*
X3269825Y-1597484D02*
X3269825Y-1635579D01*
X3565063Y-1873674D02*
X3555539Y-1864150D01*
X3555539Y-1864150D02*
X3536491Y-1835579D01*
X3536491Y-1835579D02*
X3526968Y-1816531D01*
X3526968Y-1816531D02*
X3517444Y-1787960D01*
X3517444Y-1787960D02*
X3507920Y-1740341D01*
X3507920Y-1740341D02*
X3507920Y-1702246D01*
X3507920Y-1702246D02*
X3517444Y-1654627D01*
X3517444Y-1654627D02*
X3526968Y-1626055D01*
X3526968Y-1626055D02*
X3536491Y-1607008D01*
X3536491Y-1607008D02*
X3555539Y-1578436D01*
X3555539Y-1578436D02*
X3565063Y-1568912D01*
X3726968Y-1664150D02*
X3726968Y-1797484D01*
X3679348Y-1587960D02*
X3631729Y-1730817D01*
X3631729Y-1730817D02*
X3755539Y-1730817D01*
X3984110Y-1797484D02*
X3984110Y-1597484D01*
X4069825Y-1797484D02*
X4069825Y-1692722D01*
X4069825Y-1692722D02*
X4060301Y-1673674D01*
X4060301Y-1673674D02*
X4041253Y-1664150D01*
X4041253Y-1664150D02*
X4012682Y-1664150D01*
X4012682Y-1664150D02*
X3993634Y-1673674D01*
X3993634Y-1673674D02*
X3984110Y-1683198D01*
X4193634Y-1797484D02*
X4174587Y-1787960D01*
X4174587Y-1787960D02*
X4165063Y-1778436D01*
X4165063Y-1778436D02*
X4155539Y-1759388D01*
X4155539Y-1759388D02*
X4155539Y-1702246D01*
X4155539Y-1702246D02*
X4165063Y-1683198D01*
X4165063Y-1683198D02*
X4174587Y-1673674D01*
X4174587Y-1673674D02*
X4193634Y-1664150D01*
X4193634Y-1664150D02*
X4222206Y-1664150D01*
X4222206Y-1664150D02*
X4241253Y-1673674D01*
X4241253Y-1673674D02*
X4250777Y-1683198D01*
X4250777Y-1683198D02*
X4260301Y-1702246D01*
X4260301Y-1702246D02*
X4260301Y-1759388D01*
X4260301Y-1759388D02*
X4250777Y-1778436D01*
X4250777Y-1778436D02*
X4241253Y-1787960D01*
X4241253Y-1787960D02*
X4222206Y-1797484D01*
X4222206Y-1797484D02*
X4193634Y-1797484D01*
X4374587Y-1797484D02*
X4355539Y-1787960D01*
X4355539Y-1787960D02*
X4346015Y-1768912D01*
X4346015Y-1768912D02*
X4346015Y-1597484D01*
X4526968Y-1787960D02*
X4507920Y-1797484D01*
X4507920Y-1797484D02*
X4469825Y-1797484D01*
X4469825Y-1797484D02*
X4450777Y-1787960D01*
X4450777Y-1787960D02*
X4441253Y-1768912D01*
X4441253Y-1768912D02*
X4441253Y-1692722D01*
X4441253Y-1692722D02*
X4450777Y-1673674D01*
X4450777Y-1673674D02*
X4469825Y-1664150D01*
X4469825Y-1664150D02*
X4507920Y-1664150D01*
X4507920Y-1664150D02*
X4526968Y-1673674D01*
X4526968Y-1673674D02*
X4536492Y-1692722D01*
X4536492Y-1692722D02*
X4536492Y-1711769D01*
X4536492Y-1711769D02*
X4441253Y-1730817D01*
X4612682Y-1787960D02*
X4631730Y-1797484D01*
X4631730Y-1797484D02*
X4669825Y-1797484D01*
X4669825Y-1797484D02*
X4688873Y-1787960D01*
X4688873Y-1787960D02*
X4698396Y-1768912D01*
X4698396Y-1768912D02*
X4698396Y-1759388D01*
X4698396Y-1759388D02*
X4688873Y-1740341D01*
X4688873Y-1740341D02*
X4669825Y-1730817D01*
X4669825Y-1730817D02*
X4641253Y-1730817D01*
X4641253Y-1730817D02*
X4622206Y-1721293D01*
X4622206Y-1721293D02*
X4612682Y-1702246D01*
X4612682Y-1702246D02*
X4612682Y-1692722D01*
X4612682Y-1692722D02*
X4622206Y-1673674D01*
X4622206Y-1673674D02*
X4641253Y-1664150D01*
X4641253Y-1664150D02*
X4669825Y-1664150D01*
X4669825Y-1664150D02*
X4688873Y-1673674D01*
X4765063Y-1873674D02*
X4774587Y-1864150D01*
X4774587Y-1864150D02*
X4793634Y-1835579D01*
X4793634Y-1835579D02*
X4803158Y-1816531D01*
X4803158Y-1816531D02*
X4812682Y-1787960D01*
X4812682Y-1787960D02*
X4822206Y-1740341D01*
X4822206Y-1740341D02*
X4822206Y-1702246D01*
X4822206Y-1702246D02*
X4812682Y-1654627D01*
X4812682Y-1654627D02*
X4803158Y-1626055D01*
X4803158Y-1626055D02*
X4793634Y-1607008D01*
X4793634Y-1607008D02*
X4774587Y-1578436D01*
X4774587Y-1578436D02*
X4765063Y-1568912D01*
D15*
X-164000Y-1893000D02*
X-10000Y-2047000D01*
X-10000Y-1893000D02*
X-164000Y-2047000D01*
X-10000Y-1970000D02*
G75*
G02*
X-164000Y-1970000I-77000J0D01*
G01*
X-164000Y-1970000D02*
G75*
G02*
X-10000Y-1970000I77000J0D01*
G01*
D10*
X355539Y-2061484D02*
X241253Y-2061484D01*
X298396Y-2061484D02*
X298396Y-1861484D01*
X298396Y-1861484D02*
X279348Y-1890055D01*
X279348Y-1890055D02*
X260301Y-1909103D01*
X260301Y-1909103D02*
X241253Y-1918627D01*
X441253Y-2042436D02*
X450777Y-2051960D01*
X450777Y-2051960D02*
X441253Y-2061484D01*
X441253Y-2061484D02*
X431729Y-2051960D01*
X431729Y-2051960D02*
X441253Y-2042436D01*
X441253Y-2042436D02*
X441253Y-2061484D01*
X631729Y-1861484D02*
X536491Y-1861484D01*
X536491Y-1861484D02*
X526967Y-1956722D01*
X526967Y-1956722D02*
X536491Y-1947198D01*
X536491Y-1947198D02*
X555539Y-1937674D01*
X555539Y-1937674D02*
X603158Y-1937674D01*
X603158Y-1937674D02*
X622205Y-1947198D01*
X622205Y-1947198D02*
X631729Y-1956722D01*
X631729Y-1956722D02*
X641253Y-1975769D01*
X641253Y-1975769D02*
X641253Y-2023388D01*
X641253Y-2023388D02*
X631729Y-2042436D01*
X631729Y-2042436D02*
X622205Y-2051960D01*
X622205Y-2051960D02*
X603158Y-2061484D01*
X603158Y-2061484D02*
X555539Y-2061484D01*
X555539Y-2061484D02*
X536491Y-2051960D01*
X536491Y-2051960D02*
X526967Y-2042436D01*
X812682Y-1928150D02*
X812682Y-2061484D01*
X765062Y-1851960D02*
X717443Y-1994817D01*
X717443Y-1994817D02*
X841253Y-1994817D01*
X955539Y-1861484D02*
X974586Y-1861484D01*
X974586Y-1861484D02*
X993634Y-1871008D01*
X993634Y-1871008D02*
X1003158Y-1880531D01*
X1003158Y-1880531D02*
X1012682Y-1899579D01*
X1012682Y-1899579D02*
X1022205Y-1937674D01*
X1022205Y-1937674D02*
X1022205Y-1985293D01*
X1022205Y-1985293D02*
X1012682Y-2023388D01*
X1012682Y-2023388D02*
X1003158Y-2042436D01*
X1003158Y-2042436D02*
X993634Y-2051960D01*
X993634Y-2051960D02*
X974586Y-2061484D01*
X974586Y-2061484D02*
X955539Y-2061484D01*
X955539Y-2061484D02*
X936491Y-2051960D01*
X936491Y-2051960D02*
X926967Y-2042436D01*
X926967Y-2042436D02*
X917443Y-2023388D01*
X917443Y-2023388D02*
X907920Y-1985293D01*
X907920Y-1985293D02*
X907920Y-1937674D01*
X907920Y-1937674D02*
X917443Y-1899579D01*
X917443Y-1899579D02*
X926967Y-1880531D01*
X926967Y-1880531D02*
X936491Y-1871008D01*
X936491Y-1871008D02*
X955539Y-1861484D01*
X1107920Y-2061484D02*
X1107920Y-1928150D01*
X1107920Y-1947198D02*
X1117444Y-1937674D01*
X1117444Y-1937674D02*
X1136491Y-1928150D01*
X1136491Y-1928150D02*
X1165063Y-1928150D01*
X1165063Y-1928150D02*
X1184110Y-1937674D01*
X1184110Y-1937674D02*
X1193634Y-1956722D01*
X1193634Y-1956722D02*
X1193634Y-2061484D01*
X1193634Y-1956722D02*
X1203158Y-1937674D01*
X1203158Y-1937674D02*
X1222205Y-1928150D01*
X1222205Y-1928150D02*
X1250777Y-1928150D01*
X1250777Y-1928150D02*
X1269825Y-1937674D01*
X1269825Y-1937674D02*
X1279348Y-1956722D01*
X1279348Y-1956722D02*
X1279348Y-2061484D01*
X1374586Y-2061484D02*
X1374586Y-1928150D01*
X1374586Y-1947198D02*
X1384110Y-1937674D01*
X1384110Y-1937674D02*
X1403158Y-1928150D01*
X1403158Y-1928150D02*
X1431729Y-1928150D01*
X1431729Y-1928150D02*
X1450777Y-1937674D01*
X1450777Y-1937674D02*
X1460301Y-1956722D01*
X1460301Y-1956722D02*
X1460301Y-2061484D01*
X1460301Y-1956722D02*
X1469824Y-1937674D01*
X1469824Y-1937674D02*
X1488872Y-1928150D01*
X1488872Y-1928150D02*
X1517443Y-1928150D01*
X1517443Y-1928150D02*
X1536491Y-1937674D01*
X1536491Y-1937674D02*
X1546015Y-1956722D01*
X1546015Y-1956722D02*
X1546015Y-2061484D01*
X1936491Y-1851960D02*
X1765063Y-2109103D01*
X2193634Y-1861484D02*
X2212682Y-1861484D01*
X2212682Y-1861484D02*
X2231729Y-1871008D01*
X2231729Y-1871008D02*
X2241253Y-1880531D01*
X2241253Y-1880531D02*
X2250777Y-1899579D01*
X2250777Y-1899579D02*
X2260301Y-1937674D01*
X2260301Y-1937674D02*
X2260301Y-1985293D01*
X2260301Y-1985293D02*
X2250777Y-2023388D01*
X2250777Y-2023388D02*
X2241253Y-2042436D01*
X2241253Y-2042436D02*
X2231729Y-2051960D01*
X2231729Y-2051960D02*
X2212682Y-2061484D01*
X2212682Y-2061484D02*
X2193634Y-2061484D01*
X2193634Y-2061484D02*
X2174587Y-2051960D01*
X2174587Y-2051960D02*
X2165063Y-2042436D01*
X2165063Y-2042436D02*
X2155539Y-2023388D01*
X2155539Y-2023388D02*
X2146015Y-1985293D01*
X2146015Y-1985293D02*
X2146015Y-1937674D01*
X2146015Y-1937674D02*
X2155539Y-1899579D01*
X2155539Y-1899579D02*
X2165063Y-1880531D01*
X2165063Y-1880531D02*
X2174587Y-1871008D01*
X2174587Y-1871008D02*
X2193634Y-1861484D01*
X2346015Y-2042436D02*
X2355539Y-2051960D01*
X2355539Y-2051960D02*
X2346015Y-2061484D01*
X2346015Y-2061484D02*
X2336491Y-2051960D01*
X2336491Y-2051960D02*
X2346015Y-2042436D01*
X2346015Y-2042436D02*
X2346015Y-2061484D01*
X2479348Y-1861484D02*
X2498396Y-1861484D01*
X2498396Y-1861484D02*
X2517444Y-1871008D01*
X2517444Y-1871008D02*
X2526968Y-1880531D01*
X2526968Y-1880531D02*
X2536491Y-1899579D01*
X2536491Y-1899579D02*
X2546015Y-1937674D01*
X2546015Y-1937674D02*
X2546015Y-1985293D01*
X2546015Y-1985293D02*
X2536491Y-2023388D01*
X2536491Y-2023388D02*
X2526968Y-2042436D01*
X2526968Y-2042436D02*
X2517444Y-2051960D01*
X2517444Y-2051960D02*
X2498396Y-2061484D01*
X2498396Y-2061484D02*
X2479348Y-2061484D01*
X2479348Y-2061484D02*
X2460301Y-2051960D01*
X2460301Y-2051960D02*
X2450777Y-2042436D01*
X2450777Y-2042436D02*
X2441253Y-2023388D01*
X2441253Y-2023388D02*
X2431729Y-1985293D01*
X2431729Y-1985293D02*
X2431729Y-1937674D01*
X2431729Y-1937674D02*
X2441253Y-1899579D01*
X2441253Y-1899579D02*
X2450777Y-1880531D01*
X2450777Y-1880531D02*
X2460301Y-1871008D01*
X2460301Y-1871008D02*
X2479348Y-1861484D01*
X2717444Y-1861484D02*
X2679348Y-1861484D01*
X2679348Y-1861484D02*
X2660301Y-1871008D01*
X2660301Y-1871008D02*
X2650777Y-1880531D01*
X2650777Y-1880531D02*
X2631729Y-1909103D01*
X2631729Y-1909103D02*
X2622206Y-1947198D01*
X2622206Y-1947198D02*
X2622206Y-2023388D01*
X2622206Y-2023388D02*
X2631729Y-2042436D01*
X2631729Y-2042436D02*
X2641253Y-2051960D01*
X2641253Y-2051960D02*
X2660301Y-2061484D01*
X2660301Y-2061484D02*
X2698396Y-2061484D01*
X2698396Y-2061484D02*
X2717444Y-2051960D01*
X2717444Y-2051960D02*
X2726968Y-2042436D01*
X2726968Y-2042436D02*
X2736491Y-2023388D01*
X2736491Y-2023388D02*
X2736491Y-1975769D01*
X2736491Y-1975769D02*
X2726968Y-1956722D01*
X2726968Y-1956722D02*
X2717444Y-1947198D01*
X2717444Y-1947198D02*
X2698396Y-1937674D01*
X2698396Y-1937674D02*
X2660301Y-1937674D01*
X2660301Y-1937674D02*
X2641253Y-1947198D01*
X2641253Y-1947198D02*
X2631729Y-1956722D01*
X2631729Y-1956722D02*
X2622206Y-1975769D01*
X2860301Y-1861484D02*
X2879348Y-1861484D01*
X2879348Y-1861484D02*
X2898396Y-1871008D01*
X2898396Y-1871008D02*
X2907920Y-1880531D01*
X2907920Y-1880531D02*
X2917444Y-1899579D01*
X2917444Y-1899579D02*
X2926967Y-1937674D01*
X2926967Y-1937674D02*
X2926967Y-1985293D01*
X2926967Y-1985293D02*
X2917444Y-2023388D01*
X2917444Y-2023388D02*
X2907920Y-2042436D01*
X2907920Y-2042436D02*
X2898396Y-2051960D01*
X2898396Y-2051960D02*
X2879348Y-2061484D01*
X2879348Y-2061484D02*
X2860301Y-2061484D01*
X2860301Y-2061484D02*
X2841253Y-2051960D01*
X2841253Y-2051960D02*
X2831729Y-2042436D01*
X2831729Y-2042436D02*
X2822206Y-2023388D01*
X2822206Y-2023388D02*
X2812682Y-1985293D01*
X2812682Y-1985293D02*
X2812682Y-1937674D01*
X2812682Y-1937674D02*
X2822206Y-1899579D01*
X2822206Y-1899579D02*
X2831729Y-1880531D01*
X2831729Y-1880531D02*
X2841253Y-1871008D01*
X2841253Y-1871008D02*
X2860301Y-1861484D01*
X3098396Y-1861484D02*
X3060301Y-1861484D01*
X3060301Y-1861484D02*
X3041253Y-1871008D01*
X3041253Y-1871008D02*
X3031729Y-1880531D01*
X3031729Y-1880531D02*
X3012682Y-1909103D01*
X3012682Y-1909103D02*
X3003158Y-1947198D01*
X3003158Y-1947198D02*
X3003158Y-2023388D01*
X3003158Y-2023388D02*
X3012682Y-2042436D01*
X3012682Y-2042436D02*
X3022206Y-2051960D01*
X3022206Y-2051960D02*
X3041253Y-2061484D01*
X3041253Y-2061484D02*
X3079348Y-2061484D01*
X3079348Y-2061484D02*
X3098396Y-2051960D01*
X3098396Y-2051960D02*
X3107920Y-2042436D01*
X3107920Y-2042436D02*
X3117444Y-2023388D01*
X3117444Y-2023388D02*
X3117444Y-1975769D01*
X3117444Y-1975769D02*
X3107920Y-1956722D01*
X3107920Y-1956722D02*
X3098396Y-1947198D01*
X3098396Y-1947198D02*
X3079348Y-1937674D01*
X3079348Y-1937674D02*
X3041253Y-1937674D01*
X3041253Y-1937674D02*
X3022206Y-1947198D01*
X3022206Y-1947198D02*
X3012682Y-1956722D01*
X3012682Y-1956722D02*
X3003158Y-1975769D01*
X3193634Y-1861484D02*
X3193634Y-1899579D01*
X3269825Y-1861484D02*
X3269825Y-1899579D01*
X3565063Y-2137674D02*
X3555539Y-2128150D01*
X3555539Y-2128150D02*
X3536491Y-2099579D01*
X3536491Y-2099579D02*
X3526968Y-2080531D01*
X3526968Y-2080531D02*
X3517444Y-2051960D01*
X3517444Y-2051960D02*
X3507920Y-2004341D01*
X3507920Y-2004341D02*
X3507920Y-1966246D01*
X3507920Y-1966246D02*
X3517444Y-1918627D01*
X3517444Y-1918627D02*
X3526968Y-1890055D01*
X3526968Y-1890055D02*
X3536491Y-1871008D01*
X3536491Y-1871008D02*
X3555539Y-1842436D01*
X3555539Y-1842436D02*
X3565063Y-1832912D01*
X3631729Y-1880531D02*
X3641253Y-1871008D01*
X3641253Y-1871008D02*
X3660301Y-1861484D01*
X3660301Y-1861484D02*
X3707920Y-1861484D01*
X3707920Y-1861484D02*
X3726968Y-1871008D01*
X3726968Y-1871008D02*
X3736491Y-1880531D01*
X3736491Y-1880531D02*
X3746015Y-1899579D01*
X3746015Y-1899579D02*
X3746015Y-1918627D01*
X3746015Y-1918627D02*
X3736491Y-1947198D01*
X3736491Y-1947198D02*
X3622206Y-2061484D01*
X3622206Y-2061484D02*
X3746015Y-2061484D01*
X3869825Y-1861484D02*
X3888872Y-1861484D01*
X3888872Y-1861484D02*
X3907920Y-1871008D01*
X3907920Y-1871008D02*
X3917444Y-1880531D01*
X3917444Y-1880531D02*
X3926968Y-1899579D01*
X3926968Y-1899579D02*
X3936491Y-1937674D01*
X3936491Y-1937674D02*
X3936491Y-1985293D01*
X3936491Y-1985293D02*
X3926968Y-2023388D01*
X3926968Y-2023388D02*
X3917444Y-2042436D01*
X3917444Y-2042436D02*
X3907920Y-2051960D01*
X3907920Y-2051960D02*
X3888872Y-2061484D01*
X3888872Y-2061484D02*
X3869825Y-2061484D01*
X3869825Y-2061484D02*
X3850777Y-2051960D01*
X3850777Y-2051960D02*
X3841253Y-2042436D01*
X3841253Y-2042436D02*
X3831729Y-2023388D01*
X3831729Y-2023388D02*
X3822206Y-1985293D01*
X3822206Y-1985293D02*
X3822206Y-1937674D01*
X3822206Y-1937674D02*
X3831729Y-1899579D01*
X3831729Y-1899579D02*
X3841253Y-1880531D01*
X3841253Y-1880531D02*
X3850777Y-1871008D01*
X3850777Y-1871008D02*
X3869825Y-1861484D01*
X4174587Y-2061484D02*
X4174587Y-1861484D01*
X4260301Y-2061484D02*
X4260301Y-1956722D01*
X4260301Y-1956722D02*
X4250777Y-1937674D01*
X4250777Y-1937674D02*
X4231730Y-1928150D01*
X4231730Y-1928150D02*
X4203158Y-1928150D01*
X4203158Y-1928150D02*
X4184110Y-1937674D01*
X4184110Y-1937674D02*
X4174587Y-1947198D01*
X4384111Y-2061484D02*
X4365063Y-2051960D01*
X4365063Y-2051960D02*
X4355539Y-2042436D01*
X4355539Y-2042436D02*
X4346015Y-2023388D01*
X4346015Y-2023388D02*
X4346015Y-1966246D01*
X4346015Y-1966246D02*
X4355539Y-1947198D01*
X4355539Y-1947198D02*
X4365063Y-1937674D01*
X4365063Y-1937674D02*
X4384111Y-1928150D01*
X4384111Y-1928150D02*
X4412682Y-1928150D01*
X4412682Y-1928150D02*
X4431730Y-1937674D01*
X4431730Y-1937674D02*
X4441253Y-1947198D01*
X4441253Y-1947198D02*
X4450777Y-1966246D01*
X4450777Y-1966246D02*
X4450777Y-2023388D01*
X4450777Y-2023388D02*
X4441253Y-2042436D01*
X4441253Y-2042436D02*
X4431730Y-2051960D01*
X4431730Y-2051960D02*
X4412682Y-2061484D01*
X4412682Y-2061484D02*
X4384111Y-2061484D01*
X4565063Y-2061484D02*
X4546015Y-2051960D01*
X4546015Y-2051960D02*
X4536492Y-2032912D01*
X4536492Y-2032912D02*
X4536492Y-1861484D01*
X4717444Y-2051960D02*
X4698396Y-2061484D01*
X4698396Y-2061484D02*
X4660301Y-2061484D01*
X4660301Y-2061484D02*
X4641253Y-2051960D01*
X4641253Y-2051960D02*
X4631730Y-2032912D01*
X4631730Y-2032912D02*
X4631730Y-1956722D01*
X4631730Y-1956722D02*
X4641253Y-1937674D01*
X4641253Y-1937674D02*
X4660301Y-1928150D01*
X4660301Y-1928150D02*
X4698396Y-1928150D01*
X4698396Y-1928150D02*
X4717444Y-1937674D01*
X4717444Y-1937674D02*
X4726968Y-1956722D01*
X4726968Y-1956722D02*
X4726968Y-1975769D01*
X4726968Y-1975769D02*
X4631730Y-1994817D01*
X4803158Y-2051960D02*
X4822206Y-2061484D01*
X4822206Y-2061484D02*
X4860301Y-2061484D01*
X4860301Y-2061484D02*
X4879349Y-2051960D01*
X4879349Y-2051960D02*
X4888873Y-2032912D01*
X4888873Y-2032912D02*
X4888873Y-2023388D01*
X4888873Y-2023388D02*
X4879349Y-2004341D01*
X4879349Y-2004341D02*
X4860301Y-1994817D01*
X4860301Y-1994817D02*
X4831730Y-1994817D01*
X4831730Y-1994817D02*
X4812682Y-1985293D01*
X4812682Y-1985293D02*
X4803158Y-1966246D01*
X4803158Y-1966246D02*
X4803158Y-1956722D01*
X4803158Y-1956722D02*
X4812682Y-1937674D01*
X4812682Y-1937674D02*
X4831730Y-1928150D01*
X4831730Y-1928150D02*
X4860301Y-1928150D01*
X4860301Y-1928150D02*
X4879349Y-1937674D01*
X4955539Y-2137674D02*
X4965063Y-2128150D01*
X4965063Y-2128150D02*
X4984111Y-2099579D01*
X4984111Y-2099579D02*
X4993634Y-2080531D01*
X4993634Y-2080531D02*
X5003158Y-2051960D01*
X5003158Y-2051960D02*
X5012682Y-2004341D01*
X5012682Y-2004341D02*
X5012682Y-1966246D01*
X5012682Y-1966246D02*
X5003158Y-1918627D01*
X5003158Y-1918627D02*
X4993634Y-1890055D01*
X4993634Y-1890055D02*
X4984111Y-1871008D01*
X4984111Y-1871008D02*
X4965063Y-1842436D01*
X4965063Y-1842436D02*
X4955539Y-1832912D01*
D16*
X-170000Y-2164000D02*
X-10000Y-2324000D01*
X-10000Y-2164000D02*
X-170000Y-2324000D01*
X-90000Y-2164000D02*
X-90000Y-2324000D01*
X-170000Y-2244000D02*
X-10000Y-2244000D01*
D10*
X355539Y-2335484D02*
X241253Y-2335484D01*
X298396Y-2335484D02*
X298396Y-2135484D01*
X298396Y-2135484D02*
X279348Y-2164055D01*
X279348Y-2164055D02*
X260301Y-2183103D01*
X260301Y-2183103D02*
X241253Y-2192627D01*
X441253Y-2316436D02*
X450777Y-2325960D01*
X450777Y-2325960D02*
X441253Y-2335484D01*
X441253Y-2335484D02*
X431729Y-2325960D01*
X431729Y-2325960D02*
X441253Y-2316436D01*
X441253Y-2316436D02*
X441253Y-2335484D01*
X622205Y-2135484D02*
X584110Y-2135484D01*
X584110Y-2135484D02*
X565063Y-2145008D01*
X565063Y-2145008D02*
X555539Y-2154531D01*
X555539Y-2154531D02*
X536491Y-2183103D01*
X536491Y-2183103D02*
X526967Y-2221198D01*
X526967Y-2221198D02*
X526967Y-2297389D01*
X526967Y-2297389D02*
X536491Y-2316436D01*
X536491Y-2316436D02*
X546015Y-2325960D01*
X546015Y-2325960D02*
X565063Y-2335484D01*
X565063Y-2335484D02*
X603158Y-2335484D01*
X603158Y-2335484D02*
X622205Y-2325960D01*
X622205Y-2325960D02*
X631729Y-2316436D01*
X631729Y-2316436D02*
X641253Y-2297389D01*
X641253Y-2297389D02*
X641253Y-2249770D01*
X641253Y-2249770D02*
X631729Y-2230722D01*
X631729Y-2230722D02*
X622205Y-2221198D01*
X622205Y-2221198D02*
X603158Y-2211674D01*
X603158Y-2211674D02*
X565063Y-2211674D01*
X565063Y-2211674D02*
X546015Y-2221198D01*
X546015Y-2221198D02*
X536491Y-2230722D01*
X536491Y-2230722D02*
X526967Y-2249770D01*
X765062Y-2135484D02*
X784110Y-2135484D01*
X784110Y-2135484D02*
X803158Y-2145008D01*
X803158Y-2145008D02*
X812682Y-2154531D01*
X812682Y-2154531D02*
X822205Y-2173579D01*
X822205Y-2173579D02*
X831729Y-2211674D01*
X831729Y-2211674D02*
X831729Y-2259293D01*
X831729Y-2259293D02*
X822205Y-2297389D01*
X822205Y-2297389D02*
X812682Y-2316436D01*
X812682Y-2316436D02*
X803158Y-2325960D01*
X803158Y-2325960D02*
X784110Y-2335484D01*
X784110Y-2335484D02*
X765062Y-2335484D01*
X765062Y-2335484D02*
X746015Y-2325960D01*
X746015Y-2325960D02*
X736491Y-2316436D01*
X736491Y-2316436D02*
X726967Y-2297389D01*
X726967Y-2297389D02*
X717443Y-2259293D01*
X717443Y-2259293D02*
X717443Y-2211674D01*
X717443Y-2211674D02*
X726967Y-2173579D01*
X726967Y-2173579D02*
X736491Y-2154531D01*
X736491Y-2154531D02*
X746015Y-2145008D01*
X746015Y-2145008D02*
X765062Y-2135484D01*
X955539Y-2135484D02*
X974586Y-2135484D01*
X974586Y-2135484D02*
X993634Y-2145008D01*
X993634Y-2145008D02*
X1003158Y-2154531D01*
X1003158Y-2154531D02*
X1012682Y-2173579D01*
X1012682Y-2173579D02*
X1022205Y-2211674D01*
X1022205Y-2211674D02*
X1022205Y-2259293D01*
X1022205Y-2259293D02*
X1012682Y-2297389D01*
X1012682Y-2297389D02*
X1003158Y-2316436D01*
X1003158Y-2316436D02*
X993634Y-2325960D01*
X993634Y-2325960D02*
X974586Y-2335484D01*
X974586Y-2335484D02*
X955539Y-2335484D01*
X955539Y-2335484D02*
X936491Y-2325960D01*
X936491Y-2325960D02*
X926967Y-2316436D01*
X926967Y-2316436D02*
X917443Y-2297389D01*
X917443Y-2297389D02*
X907920Y-2259293D01*
X907920Y-2259293D02*
X907920Y-2211674D01*
X907920Y-2211674D02*
X917443Y-2173579D01*
X917443Y-2173579D02*
X926967Y-2154531D01*
X926967Y-2154531D02*
X936491Y-2145008D01*
X936491Y-2145008D02*
X955539Y-2135484D01*
X1107920Y-2335484D02*
X1107920Y-2202150D01*
X1107920Y-2221198D02*
X1117444Y-2211674D01*
X1117444Y-2211674D02*
X1136491Y-2202150D01*
X1136491Y-2202150D02*
X1165063Y-2202150D01*
X1165063Y-2202150D02*
X1184110Y-2211674D01*
X1184110Y-2211674D02*
X1193634Y-2230722D01*
X1193634Y-2230722D02*
X1193634Y-2335484D01*
X1193634Y-2230722D02*
X1203158Y-2211674D01*
X1203158Y-2211674D02*
X1222205Y-2202150D01*
X1222205Y-2202150D02*
X1250777Y-2202150D01*
X1250777Y-2202150D02*
X1269825Y-2211674D01*
X1269825Y-2211674D02*
X1279348Y-2230722D01*
X1279348Y-2230722D02*
X1279348Y-2335484D01*
X1374586Y-2335484D02*
X1374586Y-2202150D01*
X1374586Y-2221198D02*
X1384110Y-2211674D01*
X1384110Y-2211674D02*
X1403158Y-2202150D01*
X1403158Y-2202150D02*
X1431729Y-2202150D01*
X1431729Y-2202150D02*
X1450777Y-2211674D01*
X1450777Y-2211674D02*
X1460301Y-2230722D01*
X1460301Y-2230722D02*
X1460301Y-2335484D01*
X1460301Y-2230722D02*
X1469824Y-2211674D01*
X1469824Y-2211674D02*
X1488872Y-2202150D01*
X1488872Y-2202150D02*
X1517443Y-2202150D01*
X1517443Y-2202150D02*
X1536491Y-2211674D01*
X1536491Y-2211674D02*
X1546015Y-2230722D01*
X1546015Y-2230722D02*
X1546015Y-2335484D01*
X1936491Y-2125960D02*
X1765063Y-2383103D01*
X2193634Y-2135484D02*
X2212682Y-2135484D01*
X2212682Y-2135484D02*
X2231729Y-2145008D01*
X2231729Y-2145008D02*
X2241253Y-2154531D01*
X2241253Y-2154531D02*
X2250777Y-2173579D01*
X2250777Y-2173579D02*
X2260301Y-2211674D01*
X2260301Y-2211674D02*
X2260301Y-2259293D01*
X2260301Y-2259293D02*
X2250777Y-2297389D01*
X2250777Y-2297389D02*
X2241253Y-2316436D01*
X2241253Y-2316436D02*
X2231729Y-2325960D01*
X2231729Y-2325960D02*
X2212682Y-2335484D01*
X2212682Y-2335484D02*
X2193634Y-2335484D01*
X2193634Y-2335484D02*
X2174587Y-2325960D01*
X2174587Y-2325960D02*
X2165063Y-2316436D01*
X2165063Y-2316436D02*
X2155539Y-2297389D01*
X2155539Y-2297389D02*
X2146015Y-2259293D01*
X2146015Y-2259293D02*
X2146015Y-2211674D01*
X2146015Y-2211674D02*
X2155539Y-2173579D01*
X2155539Y-2173579D02*
X2165063Y-2154531D01*
X2165063Y-2154531D02*
X2174587Y-2145008D01*
X2174587Y-2145008D02*
X2193634Y-2135484D01*
X2346015Y-2316436D02*
X2355539Y-2325960D01*
X2355539Y-2325960D02*
X2346015Y-2335484D01*
X2346015Y-2335484D02*
X2336491Y-2325960D01*
X2336491Y-2325960D02*
X2346015Y-2316436D01*
X2346015Y-2316436D02*
X2346015Y-2335484D01*
X2479348Y-2135484D02*
X2498396Y-2135484D01*
X2498396Y-2135484D02*
X2517444Y-2145008D01*
X2517444Y-2145008D02*
X2526968Y-2154531D01*
X2526968Y-2154531D02*
X2536491Y-2173579D01*
X2536491Y-2173579D02*
X2546015Y-2211674D01*
X2546015Y-2211674D02*
X2546015Y-2259293D01*
X2546015Y-2259293D02*
X2536491Y-2297389D01*
X2536491Y-2297389D02*
X2526968Y-2316436D01*
X2526968Y-2316436D02*
X2517444Y-2325960D01*
X2517444Y-2325960D02*
X2498396Y-2335484D01*
X2498396Y-2335484D02*
X2479348Y-2335484D01*
X2479348Y-2335484D02*
X2460301Y-2325960D01*
X2460301Y-2325960D02*
X2450777Y-2316436D01*
X2450777Y-2316436D02*
X2441253Y-2297389D01*
X2441253Y-2297389D02*
X2431729Y-2259293D01*
X2431729Y-2259293D02*
X2431729Y-2211674D01*
X2431729Y-2211674D02*
X2441253Y-2173579D01*
X2441253Y-2173579D02*
X2450777Y-2154531D01*
X2450777Y-2154531D02*
X2460301Y-2145008D01*
X2460301Y-2145008D02*
X2479348Y-2135484D01*
X2717444Y-2135484D02*
X2679348Y-2135484D01*
X2679348Y-2135484D02*
X2660301Y-2145008D01*
X2660301Y-2145008D02*
X2650777Y-2154531D01*
X2650777Y-2154531D02*
X2631729Y-2183103D01*
X2631729Y-2183103D02*
X2622206Y-2221198D01*
X2622206Y-2221198D02*
X2622206Y-2297389D01*
X2622206Y-2297389D02*
X2631729Y-2316436D01*
X2631729Y-2316436D02*
X2641253Y-2325960D01*
X2641253Y-2325960D02*
X2660301Y-2335484D01*
X2660301Y-2335484D02*
X2698396Y-2335484D01*
X2698396Y-2335484D02*
X2717444Y-2325960D01*
X2717444Y-2325960D02*
X2726968Y-2316436D01*
X2726968Y-2316436D02*
X2736491Y-2297389D01*
X2736491Y-2297389D02*
X2736491Y-2249770D01*
X2736491Y-2249770D02*
X2726968Y-2230722D01*
X2726968Y-2230722D02*
X2717444Y-2221198D01*
X2717444Y-2221198D02*
X2698396Y-2211674D01*
X2698396Y-2211674D02*
X2660301Y-2211674D01*
X2660301Y-2211674D02*
X2641253Y-2221198D01*
X2641253Y-2221198D02*
X2631729Y-2230722D01*
X2631729Y-2230722D02*
X2622206Y-2249770D01*
X2803158Y-2135484D02*
X2926967Y-2135484D01*
X2926967Y-2135484D02*
X2860301Y-2211674D01*
X2860301Y-2211674D02*
X2888872Y-2211674D01*
X2888872Y-2211674D02*
X2907920Y-2221198D01*
X2907920Y-2221198D02*
X2917444Y-2230722D01*
X2917444Y-2230722D02*
X2926967Y-2249770D01*
X2926967Y-2249770D02*
X2926967Y-2297389D01*
X2926967Y-2297389D02*
X2917444Y-2316436D01*
X2917444Y-2316436D02*
X2907920Y-2325960D01*
X2907920Y-2325960D02*
X2888872Y-2335484D01*
X2888872Y-2335484D02*
X2831729Y-2335484D01*
X2831729Y-2335484D02*
X2812682Y-2325960D01*
X2812682Y-2325960D02*
X2803158Y-2316436D01*
X3050777Y-2135484D02*
X3069825Y-2135484D01*
X3069825Y-2135484D02*
X3088872Y-2145008D01*
X3088872Y-2145008D02*
X3098396Y-2154531D01*
X3098396Y-2154531D02*
X3107920Y-2173579D01*
X3107920Y-2173579D02*
X3117444Y-2211674D01*
X3117444Y-2211674D02*
X3117444Y-2259293D01*
X3117444Y-2259293D02*
X3107920Y-2297389D01*
X3107920Y-2297389D02*
X3098396Y-2316436D01*
X3098396Y-2316436D02*
X3088872Y-2325960D01*
X3088872Y-2325960D02*
X3069825Y-2335484D01*
X3069825Y-2335484D02*
X3050777Y-2335484D01*
X3050777Y-2335484D02*
X3031729Y-2325960D01*
X3031729Y-2325960D02*
X3022206Y-2316436D01*
X3022206Y-2316436D02*
X3012682Y-2297389D01*
X3012682Y-2297389D02*
X3003158Y-2259293D01*
X3003158Y-2259293D02*
X3003158Y-2211674D01*
X3003158Y-2211674D02*
X3012682Y-2173579D01*
X3012682Y-2173579D02*
X3022206Y-2154531D01*
X3022206Y-2154531D02*
X3031729Y-2145008D01*
X3031729Y-2145008D02*
X3050777Y-2135484D01*
X3193634Y-2135484D02*
X3193634Y-2173579D01*
X3269825Y-2135484D02*
X3269825Y-2173579D01*
X3565063Y-2411674D02*
X3555539Y-2402150D01*
X3555539Y-2402150D02*
X3536491Y-2373579D01*
X3536491Y-2373579D02*
X3526968Y-2354531D01*
X3526968Y-2354531D02*
X3517444Y-2325960D01*
X3517444Y-2325960D02*
X3507920Y-2278341D01*
X3507920Y-2278341D02*
X3507920Y-2240246D01*
X3507920Y-2240246D02*
X3517444Y-2192627D01*
X3517444Y-2192627D02*
X3526968Y-2164055D01*
X3526968Y-2164055D02*
X3536491Y-2145008D01*
X3536491Y-2145008D02*
X3555539Y-2116436D01*
X3555539Y-2116436D02*
X3565063Y-2106912D01*
X3726968Y-2202150D02*
X3726968Y-2335484D01*
X3679348Y-2125960D02*
X3631729Y-2268817D01*
X3631729Y-2268817D02*
X3755539Y-2268817D01*
X3984110Y-2335484D02*
X3984110Y-2135484D01*
X4069825Y-2335484D02*
X4069825Y-2230722D01*
X4069825Y-2230722D02*
X4060301Y-2211674D01*
X4060301Y-2211674D02*
X4041253Y-2202150D01*
X4041253Y-2202150D02*
X4012682Y-2202150D01*
X4012682Y-2202150D02*
X3993634Y-2211674D01*
X3993634Y-2211674D02*
X3984110Y-2221198D01*
X4193634Y-2335484D02*
X4174587Y-2325960D01*
X4174587Y-2325960D02*
X4165063Y-2316436D01*
X4165063Y-2316436D02*
X4155539Y-2297389D01*
X4155539Y-2297389D02*
X4155539Y-2240246D01*
X4155539Y-2240246D02*
X4165063Y-2221198D01*
X4165063Y-2221198D02*
X4174587Y-2211674D01*
X4174587Y-2211674D02*
X4193634Y-2202150D01*
X4193634Y-2202150D02*
X4222206Y-2202150D01*
X4222206Y-2202150D02*
X4241253Y-2211674D01*
X4241253Y-2211674D02*
X4250777Y-2221198D01*
X4250777Y-2221198D02*
X4260301Y-2240246D01*
X4260301Y-2240246D02*
X4260301Y-2297389D01*
X4260301Y-2297389D02*
X4250777Y-2316436D01*
X4250777Y-2316436D02*
X4241253Y-2325960D01*
X4241253Y-2325960D02*
X4222206Y-2335484D01*
X4222206Y-2335484D02*
X4193634Y-2335484D01*
X4374587Y-2335484D02*
X4355539Y-2325960D01*
X4355539Y-2325960D02*
X4346015Y-2306912D01*
X4346015Y-2306912D02*
X4346015Y-2135484D01*
X4526968Y-2325960D02*
X4507920Y-2335484D01*
X4507920Y-2335484D02*
X4469825Y-2335484D01*
X4469825Y-2335484D02*
X4450777Y-2325960D01*
X4450777Y-2325960D02*
X4441253Y-2306912D01*
X4441253Y-2306912D02*
X4441253Y-2230722D01*
X4441253Y-2230722D02*
X4450777Y-2211674D01*
X4450777Y-2211674D02*
X4469825Y-2202150D01*
X4469825Y-2202150D02*
X4507920Y-2202150D01*
X4507920Y-2202150D02*
X4526968Y-2211674D01*
X4526968Y-2211674D02*
X4536492Y-2230722D01*
X4536492Y-2230722D02*
X4536492Y-2249770D01*
X4536492Y-2249770D02*
X4441253Y-2268817D01*
X4612682Y-2325960D02*
X4631730Y-2335484D01*
X4631730Y-2335484D02*
X4669825Y-2335484D01*
X4669825Y-2335484D02*
X4688873Y-2325960D01*
X4688873Y-2325960D02*
X4698396Y-2306912D01*
X4698396Y-2306912D02*
X4698396Y-2297389D01*
X4698396Y-2297389D02*
X4688873Y-2278341D01*
X4688873Y-2278341D02*
X4669825Y-2268817D01*
X4669825Y-2268817D02*
X4641253Y-2268817D01*
X4641253Y-2268817D02*
X4622206Y-2259293D01*
X4622206Y-2259293D02*
X4612682Y-2240246D01*
X4612682Y-2240246D02*
X4612682Y-2230722D01*
X4612682Y-2230722D02*
X4622206Y-2211674D01*
X4622206Y-2211674D02*
X4641253Y-2202150D01*
X4641253Y-2202150D02*
X4669825Y-2202150D01*
X4669825Y-2202150D02*
X4688873Y-2211674D01*
X4765063Y-2411674D02*
X4774587Y-2402150D01*
X4774587Y-2402150D02*
X4793634Y-2373579D01*
X4793634Y-2373579D02*
X4803158Y-2354531D01*
X4803158Y-2354531D02*
X4812682Y-2325960D01*
X4812682Y-2325960D02*
X4822206Y-2278341D01*
X4822206Y-2278341D02*
X4822206Y-2240246D01*
X4822206Y-2240246D02*
X4812682Y-2192627D01*
X4812682Y-2192627D02*
X4803158Y-2164055D01*
X4803158Y-2164055D02*
X4793634Y-2145008D01*
X4793634Y-2145008D02*
X4774587Y-2116436D01*
X4774587Y-2116436D02*
X4765063Y-2106912D01*
D17*
X-180000Y-2439000D02*
X-10000Y-2609000D01*
X-10000Y-2439000D02*
X-180000Y-2609000D01*
X-34895Y-2584105D02*
X-34895Y-2463895D01*
X-155105Y-2463895D01*
X-155105Y-2584105D01*
X-34895Y-2584105D01*
D10*
X355539Y-2615484D02*
X241253Y-2615484D01*
X298396Y-2615484D02*
X298396Y-2415484D01*
X298396Y-2415484D02*
X279348Y-2444055D01*
X279348Y-2444055D02*
X260301Y-2463103D01*
X260301Y-2463103D02*
X241253Y-2472627D01*
X441253Y-2596436D02*
X450777Y-2605960D01*
X450777Y-2605960D02*
X441253Y-2615484D01*
X441253Y-2615484D02*
X431729Y-2605960D01*
X431729Y-2605960D02*
X441253Y-2596436D01*
X441253Y-2596436D02*
X441253Y-2615484D01*
X517443Y-2415484D02*
X650777Y-2415484D01*
X650777Y-2415484D02*
X565063Y-2615484D01*
X765062Y-2415484D02*
X784110Y-2415484D01*
X784110Y-2415484D02*
X803158Y-2425008D01*
X803158Y-2425008D02*
X812682Y-2434531D01*
X812682Y-2434531D02*
X822205Y-2453579D01*
X822205Y-2453579D02*
X831729Y-2491674D01*
X831729Y-2491674D02*
X831729Y-2539293D01*
X831729Y-2539293D02*
X822205Y-2577389D01*
X822205Y-2577389D02*
X812682Y-2596436D01*
X812682Y-2596436D02*
X803158Y-2605960D01*
X803158Y-2605960D02*
X784110Y-2615484D01*
X784110Y-2615484D02*
X765062Y-2615484D01*
X765062Y-2615484D02*
X746015Y-2605960D01*
X746015Y-2605960D02*
X736491Y-2596436D01*
X736491Y-2596436D02*
X726967Y-2577389D01*
X726967Y-2577389D02*
X717443Y-2539293D01*
X717443Y-2539293D02*
X717443Y-2491674D01*
X717443Y-2491674D02*
X726967Y-2453579D01*
X726967Y-2453579D02*
X736491Y-2434531D01*
X736491Y-2434531D02*
X746015Y-2425008D01*
X746015Y-2425008D02*
X765062Y-2415484D01*
X955539Y-2415484D02*
X974586Y-2415484D01*
X974586Y-2415484D02*
X993634Y-2425008D01*
X993634Y-2425008D02*
X1003158Y-2434531D01*
X1003158Y-2434531D02*
X1012682Y-2453579D01*
X1012682Y-2453579D02*
X1022205Y-2491674D01*
X1022205Y-2491674D02*
X1022205Y-2539293D01*
X1022205Y-2539293D02*
X1012682Y-2577389D01*
X1012682Y-2577389D02*
X1003158Y-2596436D01*
X1003158Y-2596436D02*
X993634Y-2605960D01*
X993634Y-2605960D02*
X974586Y-2615484D01*
X974586Y-2615484D02*
X955539Y-2615484D01*
X955539Y-2615484D02*
X936491Y-2605960D01*
X936491Y-2605960D02*
X926967Y-2596436D01*
X926967Y-2596436D02*
X917443Y-2577389D01*
X917443Y-2577389D02*
X907920Y-2539293D01*
X907920Y-2539293D02*
X907920Y-2491674D01*
X907920Y-2491674D02*
X917443Y-2453579D01*
X917443Y-2453579D02*
X926967Y-2434531D01*
X926967Y-2434531D02*
X936491Y-2425008D01*
X936491Y-2425008D02*
X955539Y-2415484D01*
X1107920Y-2615484D02*
X1107920Y-2482150D01*
X1107920Y-2501198D02*
X1117444Y-2491674D01*
X1117444Y-2491674D02*
X1136491Y-2482150D01*
X1136491Y-2482150D02*
X1165063Y-2482150D01*
X1165063Y-2482150D02*
X1184110Y-2491674D01*
X1184110Y-2491674D02*
X1193634Y-2510722D01*
X1193634Y-2510722D02*
X1193634Y-2615484D01*
X1193634Y-2510722D02*
X1203158Y-2491674D01*
X1203158Y-2491674D02*
X1222205Y-2482150D01*
X1222205Y-2482150D02*
X1250777Y-2482150D01*
X1250777Y-2482150D02*
X1269825Y-2491674D01*
X1269825Y-2491674D02*
X1279348Y-2510722D01*
X1279348Y-2510722D02*
X1279348Y-2615484D01*
X1374586Y-2615484D02*
X1374586Y-2482150D01*
X1374586Y-2501198D02*
X1384110Y-2491674D01*
X1384110Y-2491674D02*
X1403158Y-2482150D01*
X1403158Y-2482150D02*
X1431729Y-2482150D01*
X1431729Y-2482150D02*
X1450777Y-2491674D01*
X1450777Y-2491674D02*
X1460301Y-2510722D01*
X1460301Y-2510722D02*
X1460301Y-2615484D01*
X1460301Y-2510722D02*
X1469824Y-2491674D01*
X1469824Y-2491674D02*
X1488872Y-2482150D01*
X1488872Y-2482150D02*
X1517443Y-2482150D01*
X1517443Y-2482150D02*
X1536491Y-2491674D01*
X1536491Y-2491674D02*
X1546015Y-2510722D01*
X1546015Y-2510722D02*
X1546015Y-2615484D01*
X1936491Y-2405960D02*
X1765063Y-2663103D01*
X2193634Y-2415484D02*
X2212682Y-2415484D01*
X2212682Y-2415484D02*
X2231729Y-2425008D01*
X2231729Y-2425008D02*
X2241253Y-2434531D01*
X2241253Y-2434531D02*
X2250777Y-2453579D01*
X2250777Y-2453579D02*
X2260301Y-2491674D01*
X2260301Y-2491674D02*
X2260301Y-2539293D01*
X2260301Y-2539293D02*
X2250777Y-2577389D01*
X2250777Y-2577389D02*
X2241253Y-2596436D01*
X2241253Y-2596436D02*
X2231729Y-2605960D01*
X2231729Y-2605960D02*
X2212682Y-2615484D01*
X2212682Y-2615484D02*
X2193634Y-2615484D01*
X2193634Y-2615484D02*
X2174587Y-2605960D01*
X2174587Y-2605960D02*
X2165063Y-2596436D01*
X2165063Y-2596436D02*
X2155539Y-2577389D01*
X2155539Y-2577389D02*
X2146015Y-2539293D01*
X2146015Y-2539293D02*
X2146015Y-2491674D01*
X2146015Y-2491674D02*
X2155539Y-2453579D01*
X2155539Y-2453579D02*
X2165063Y-2434531D01*
X2165063Y-2434531D02*
X2174587Y-2425008D01*
X2174587Y-2425008D02*
X2193634Y-2415484D01*
X2346015Y-2596436D02*
X2355539Y-2605960D01*
X2355539Y-2605960D02*
X2346015Y-2615484D01*
X2346015Y-2615484D02*
X2336491Y-2605960D01*
X2336491Y-2605960D02*
X2346015Y-2596436D01*
X2346015Y-2596436D02*
X2346015Y-2615484D01*
X2479348Y-2415484D02*
X2498396Y-2415484D01*
X2498396Y-2415484D02*
X2517444Y-2425008D01*
X2517444Y-2425008D02*
X2526968Y-2434531D01*
X2526968Y-2434531D02*
X2536491Y-2453579D01*
X2536491Y-2453579D02*
X2546015Y-2491674D01*
X2546015Y-2491674D02*
X2546015Y-2539293D01*
X2546015Y-2539293D02*
X2536491Y-2577389D01*
X2536491Y-2577389D02*
X2526968Y-2596436D01*
X2526968Y-2596436D02*
X2517444Y-2605960D01*
X2517444Y-2605960D02*
X2498396Y-2615484D01*
X2498396Y-2615484D02*
X2479348Y-2615484D01*
X2479348Y-2615484D02*
X2460301Y-2605960D01*
X2460301Y-2605960D02*
X2450777Y-2596436D01*
X2450777Y-2596436D02*
X2441253Y-2577389D01*
X2441253Y-2577389D02*
X2431729Y-2539293D01*
X2431729Y-2539293D02*
X2431729Y-2491674D01*
X2431729Y-2491674D02*
X2441253Y-2453579D01*
X2441253Y-2453579D02*
X2450777Y-2434531D01*
X2450777Y-2434531D02*
X2460301Y-2425008D01*
X2460301Y-2425008D02*
X2479348Y-2415484D01*
X2717444Y-2415484D02*
X2679348Y-2415484D01*
X2679348Y-2415484D02*
X2660301Y-2425008D01*
X2660301Y-2425008D02*
X2650777Y-2434531D01*
X2650777Y-2434531D02*
X2631729Y-2463103D01*
X2631729Y-2463103D02*
X2622206Y-2501198D01*
X2622206Y-2501198D02*
X2622206Y-2577389D01*
X2622206Y-2577389D02*
X2631729Y-2596436D01*
X2631729Y-2596436D02*
X2641253Y-2605960D01*
X2641253Y-2605960D02*
X2660301Y-2615484D01*
X2660301Y-2615484D02*
X2698396Y-2615484D01*
X2698396Y-2615484D02*
X2717444Y-2605960D01*
X2717444Y-2605960D02*
X2726968Y-2596436D01*
X2726968Y-2596436D02*
X2736491Y-2577389D01*
X2736491Y-2577389D02*
X2736491Y-2529770D01*
X2736491Y-2529770D02*
X2726968Y-2510722D01*
X2726968Y-2510722D02*
X2717444Y-2501198D01*
X2717444Y-2501198D02*
X2698396Y-2491674D01*
X2698396Y-2491674D02*
X2660301Y-2491674D01*
X2660301Y-2491674D02*
X2641253Y-2501198D01*
X2641253Y-2501198D02*
X2631729Y-2510722D01*
X2631729Y-2510722D02*
X2622206Y-2529770D01*
X2907920Y-2415484D02*
X2869825Y-2415484D01*
X2869825Y-2415484D02*
X2850777Y-2425008D01*
X2850777Y-2425008D02*
X2841253Y-2434531D01*
X2841253Y-2434531D02*
X2822206Y-2463103D01*
X2822206Y-2463103D02*
X2812682Y-2501198D01*
X2812682Y-2501198D02*
X2812682Y-2577389D01*
X2812682Y-2577389D02*
X2822206Y-2596436D01*
X2822206Y-2596436D02*
X2831729Y-2605960D01*
X2831729Y-2605960D02*
X2850777Y-2615484D01*
X2850777Y-2615484D02*
X2888872Y-2615484D01*
X2888872Y-2615484D02*
X2907920Y-2605960D01*
X2907920Y-2605960D02*
X2917444Y-2596436D01*
X2917444Y-2596436D02*
X2926967Y-2577389D01*
X2926967Y-2577389D02*
X2926967Y-2529770D01*
X2926967Y-2529770D02*
X2917444Y-2510722D01*
X2917444Y-2510722D02*
X2907920Y-2501198D01*
X2907920Y-2501198D02*
X2888872Y-2491674D01*
X2888872Y-2491674D02*
X2850777Y-2491674D01*
X2850777Y-2491674D02*
X2831729Y-2501198D01*
X2831729Y-2501198D02*
X2822206Y-2510722D01*
X2822206Y-2510722D02*
X2812682Y-2529770D01*
X3022206Y-2615484D02*
X3060301Y-2615484D01*
X3060301Y-2615484D02*
X3079348Y-2605960D01*
X3079348Y-2605960D02*
X3088872Y-2596436D01*
X3088872Y-2596436D02*
X3107920Y-2567865D01*
X3107920Y-2567865D02*
X3117444Y-2529770D01*
X3117444Y-2529770D02*
X3117444Y-2453579D01*
X3117444Y-2453579D02*
X3107920Y-2434531D01*
X3107920Y-2434531D02*
X3098396Y-2425008D01*
X3098396Y-2425008D02*
X3079348Y-2415484D01*
X3079348Y-2415484D02*
X3041253Y-2415484D01*
X3041253Y-2415484D02*
X3022206Y-2425008D01*
X3022206Y-2425008D02*
X3012682Y-2434531D01*
X3012682Y-2434531D02*
X3003158Y-2453579D01*
X3003158Y-2453579D02*
X3003158Y-2501198D01*
X3003158Y-2501198D02*
X3012682Y-2520246D01*
X3012682Y-2520246D02*
X3022206Y-2529770D01*
X3022206Y-2529770D02*
X3041253Y-2539293D01*
X3041253Y-2539293D02*
X3079348Y-2539293D01*
X3079348Y-2539293D02*
X3098396Y-2529770D01*
X3098396Y-2529770D02*
X3107920Y-2520246D01*
X3107920Y-2520246D02*
X3117444Y-2501198D01*
X3193634Y-2415484D02*
X3193634Y-2453579D01*
X3269825Y-2415484D02*
X3269825Y-2453579D01*
X3565063Y-2691674D02*
X3555539Y-2682150D01*
X3555539Y-2682150D02*
X3536491Y-2653579D01*
X3536491Y-2653579D02*
X3526968Y-2634531D01*
X3526968Y-2634531D02*
X3517444Y-2605960D01*
X3517444Y-2605960D02*
X3507920Y-2558341D01*
X3507920Y-2558341D02*
X3507920Y-2520246D01*
X3507920Y-2520246D02*
X3517444Y-2472627D01*
X3517444Y-2472627D02*
X3526968Y-2444055D01*
X3526968Y-2444055D02*
X3536491Y-2425008D01*
X3536491Y-2425008D02*
X3555539Y-2396436D01*
X3555539Y-2396436D02*
X3565063Y-2386912D01*
X3631729Y-2434531D02*
X3641253Y-2425008D01*
X3641253Y-2425008D02*
X3660301Y-2415484D01*
X3660301Y-2415484D02*
X3707920Y-2415484D01*
X3707920Y-2415484D02*
X3726968Y-2425008D01*
X3726968Y-2425008D02*
X3736491Y-2434531D01*
X3736491Y-2434531D02*
X3746015Y-2453579D01*
X3746015Y-2453579D02*
X3746015Y-2472627D01*
X3746015Y-2472627D02*
X3736491Y-2501198D01*
X3736491Y-2501198D02*
X3622206Y-2615484D01*
X3622206Y-2615484D02*
X3746015Y-2615484D01*
X3984110Y-2615484D02*
X3984110Y-2415484D01*
X4069825Y-2615484D02*
X4069825Y-2510722D01*
X4069825Y-2510722D02*
X4060301Y-2491674D01*
X4060301Y-2491674D02*
X4041253Y-2482150D01*
X4041253Y-2482150D02*
X4012682Y-2482150D01*
X4012682Y-2482150D02*
X3993634Y-2491674D01*
X3993634Y-2491674D02*
X3984110Y-2501198D01*
X4193634Y-2615484D02*
X4174587Y-2605960D01*
X4174587Y-2605960D02*
X4165063Y-2596436D01*
X4165063Y-2596436D02*
X4155539Y-2577389D01*
X4155539Y-2577389D02*
X4155539Y-2520246D01*
X4155539Y-2520246D02*
X4165063Y-2501198D01*
X4165063Y-2501198D02*
X4174587Y-2491674D01*
X4174587Y-2491674D02*
X4193634Y-2482150D01*
X4193634Y-2482150D02*
X4222206Y-2482150D01*
X4222206Y-2482150D02*
X4241253Y-2491674D01*
X4241253Y-2491674D02*
X4250777Y-2501198D01*
X4250777Y-2501198D02*
X4260301Y-2520246D01*
X4260301Y-2520246D02*
X4260301Y-2577389D01*
X4260301Y-2577389D02*
X4250777Y-2596436D01*
X4250777Y-2596436D02*
X4241253Y-2605960D01*
X4241253Y-2605960D02*
X4222206Y-2615484D01*
X4222206Y-2615484D02*
X4193634Y-2615484D01*
X4374587Y-2615484D02*
X4355539Y-2605960D01*
X4355539Y-2605960D02*
X4346015Y-2586912D01*
X4346015Y-2586912D02*
X4346015Y-2415484D01*
X4526968Y-2605960D02*
X4507920Y-2615484D01*
X4507920Y-2615484D02*
X4469825Y-2615484D01*
X4469825Y-2615484D02*
X4450777Y-2605960D01*
X4450777Y-2605960D02*
X4441253Y-2586912D01*
X4441253Y-2586912D02*
X4441253Y-2510722D01*
X4441253Y-2510722D02*
X4450777Y-2491674D01*
X4450777Y-2491674D02*
X4469825Y-2482150D01*
X4469825Y-2482150D02*
X4507920Y-2482150D01*
X4507920Y-2482150D02*
X4526968Y-2491674D01*
X4526968Y-2491674D02*
X4536492Y-2510722D01*
X4536492Y-2510722D02*
X4536492Y-2529770D01*
X4536492Y-2529770D02*
X4441253Y-2548817D01*
X4612682Y-2605960D02*
X4631730Y-2615484D01*
X4631730Y-2615484D02*
X4669825Y-2615484D01*
X4669825Y-2615484D02*
X4688873Y-2605960D01*
X4688873Y-2605960D02*
X4698396Y-2586912D01*
X4698396Y-2586912D02*
X4698396Y-2577389D01*
X4698396Y-2577389D02*
X4688873Y-2558341D01*
X4688873Y-2558341D02*
X4669825Y-2548817D01*
X4669825Y-2548817D02*
X4641253Y-2548817D01*
X4641253Y-2548817D02*
X4622206Y-2539293D01*
X4622206Y-2539293D02*
X4612682Y-2520246D01*
X4612682Y-2520246D02*
X4612682Y-2510722D01*
X4612682Y-2510722D02*
X4622206Y-2491674D01*
X4622206Y-2491674D02*
X4641253Y-2482150D01*
X4641253Y-2482150D02*
X4669825Y-2482150D01*
X4669825Y-2482150D02*
X4688873Y-2491674D01*
X4765063Y-2691674D02*
X4774587Y-2682150D01*
X4774587Y-2682150D02*
X4793634Y-2653579D01*
X4793634Y-2653579D02*
X4803158Y-2634531D01*
X4803158Y-2634531D02*
X4812682Y-2605960D01*
X4812682Y-2605960D02*
X4822206Y-2558341D01*
X4822206Y-2558341D02*
X4822206Y-2520246D01*
X4822206Y-2520246D02*
X4812682Y-2472627D01*
X4812682Y-2472627D02*
X4803158Y-2444055D01*
X4803158Y-2444055D02*
X4793634Y-2425008D01*
X4793634Y-2425008D02*
X4774587Y-2396436D01*
X4774587Y-2396436D02*
X4765063Y-2386912D01*
X-210000Y-2714000D02*
X-10000Y-2914000D01*
X-10000Y-2714000D02*
X-210000Y-2914000D01*
X-110000Y-2914000D02*
X-10000Y-2814000D01*
X-110000Y-2714000D01*
X-210000Y-2814000D01*
X-110000Y-2914000D01*
X241253Y-2724531D02*
X250777Y-2715008D01*
X250777Y-2715008D02*
X269824Y-2705484D01*
X269824Y-2705484D02*
X317444Y-2705484D01*
X317444Y-2705484D02*
X336491Y-2715008D01*
X336491Y-2715008D02*
X346015Y-2724531D01*
X346015Y-2724531D02*
X355539Y-2743579D01*
X355539Y-2743579D02*
X355539Y-2762627D01*
X355539Y-2762627D02*
X346015Y-2791198D01*
X346015Y-2791198D02*
X231729Y-2905484D01*
X231729Y-2905484D02*
X355539Y-2905484D01*
X441253Y-2886436D02*
X450777Y-2895960D01*
X450777Y-2895960D02*
X441253Y-2905484D01*
X441253Y-2905484D02*
X431729Y-2895960D01*
X431729Y-2895960D02*
X441253Y-2886436D01*
X441253Y-2886436D02*
X441253Y-2905484D01*
X574586Y-2705484D02*
X593634Y-2705484D01*
X593634Y-2705484D02*
X612682Y-2715008D01*
X612682Y-2715008D02*
X622205Y-2724531D01*
X622205Y-2724531D02*
X631729Y-2743579D01*
X631729Y-2743579D02*
X641253Y-2781674D01*
X641253Y-2781674D02*
X641253Y-2829293D01*
X641253Y-2829293D02*
X631729Y-2867388D01*
X631729Y-2867388D02*
X622205Y-2886436D01*
X622205Y-2886436D02*
X612682Y-2895960D01*
X612682Y-2895960D02*
X593634Y-2905484D01*
X593634Y-2905484D02*
X574586Y-2905484D01*
X574586Y-2905484D02*
X555539Y-2895960D01*
X555539Y-2895960D02*
X546015Y-2886436D01*
X546015Y-2886436D02*
X536491Y-2867388D01*
X536491Y-2867388D02*
X526967Y-2829293D01*
X526967Y-2829293D02*
X526967Y-2781674D01*
X526967Y-2781674D02*
X536491Y-2743579D01*
X536491Y-2743579D02*
X546015Y-2724531D01*
X546015Y-2724531D02*
X555539Y-2715008D01*
X555539Y-2715008D02*
X574586Y-2705484D01*
X765062Y-2705484D02*
X784110Y-2705484D01*
X784110Y-2705484D02*
X803158Y-2715008D01*
X803158Y-2715008D02*
X812682Y-2724531D01*
X812682Y-2724531D02*
X822205Y-2743579D01*
X822205Y-2743579D02*
X831729Y-2781674D01*
X831729Y-2781674D02*
X831729Y-2829293D01*
X831729Y-2829293D02*
X822205Y-2867388D01*
X822205Y-2867388D02*
X812682Y-2886436D01*
X812682Y-2886436D02*
X803158Y-2895960D01*
X803158Y-2895960D02*
X784110Y-2905484D01*
X784110Y-2905484D02*
X765062Y-2905484D01*
X765062Y-2905484D02*
X746015Y-2895960D01*
X746015Y-2895960D02*
X736491Y-2886436D01*
X736491Y-2886436D02*
X726967Y-2867388D01*
X726967Y-2867388D02*
X717443Y-2829293D01*
X717443Y-2829293D02*
X717443Y-2781674D01*
X717443Y-2781674D02*
X726967Y-2743579D01*
X726967Y-2743579D02*
X736491Y-2724531D01*
X736491Y-2724531D02*
X746015Y-2715008D01*
X746015Y-2715008D02*
X765062Y-2705484D01*
X955539Y-2705484D02*
X974586Y-2705484D01*
X974586Y-2705484D02*
X993634Y-2715008D01*
X993634Y-2715008D02*
X1003158Y-2724531D01*
X1003158Y-2724531D02*
X1012682Y-2743579D01*
X1012682Y-2743579D02*
X1022205Y-2781674D01*
X1022205Y-2781674D02*
X1022205Y-2829293D01*
X1022205Y-2829293D02*
X1012682Y-2867388D01*
X1012682Y-2867388D02*
X1003158Y-2886436D01*
X1003158Y-2886436D02*
X993634Y-2895960D01*
X993634Y-2895960D02*
X974586Y-2905484D01*
X974586Y-2905484D02*
X955539Y-2905484D01*
X955539Y-2905484D02*
X936491Y-2895960D01*
X936491Y-2895960D02*
X926967Y-2886436D01*
X926967Y-2886436D02*
X917443Y-2867388D01*
X917443Y-2867388D02*
X907920Y-2829293D01*
X907920Y-2829293D02*
X907920Y-2781674D01*
X907920Y-2781674D02*
X917443Y-2743579D01*
X917443Y-2743579D02*
X926967Y-2724531D01*
X926967Y-2724531D02*
X936491Y-2715008D01*
X936491Y-2715008D02*
X955539Y-2705484D01*
X1107920Y-2905484D02*
X1107920Y-2772150D01*
X1107920Y-2791198D02*
X1117444Y-2781674D01*
X1117444Y-2781674D02*
X1136491Y-2772150D01*
X1136491Y-2772150D02*
X1165063Y-2772150D01*
X1165063Y-2772150D02*
X1184110Y-2781674D01*
X1184110Y-2781674D02*
X1193634Y-2800722D01*
X1193634Y-2800722D02*
X1193634Y-2905484D01*
X1193634Y-2800722D02*
X1203158Y-2781674D01*
X1203158Y-2781674D02*
X1222205Y-2772150D01*
X1222205Y-2772150D02*
X1250777Y-2772150D01*
X1250777Y-2772150D02*
X1269825Y-2781674D01*
X1269825Y-2781674D02*
X1279348Y-2800722D01*
X1279348Y-2800722D02*
X1279348Y-2905484D01*
X1374586Y-2905484D02*
X1374586Y-2772150D01*
X1374586Y-2791198D02*
X1384110Y-2781674D01*
X1384110Y-2781674D02*
X1403158Y-2772150D01*
X1403158Y-2772150D02*
X1431729Y-2772150D01*
X1431729Y-2772150D02*
X1450777Y-2781674D01*
X1450777Y-2781674D02*
X1460301Y-2800722D01*
X1460301Y-2800722D02*
X1460301Y-2905484D01*
X1460301Y-2800722D02*
X1469824Y-2781674D01*
X1469824Y-2781674D02*
X1488872Y-2772150D01*
X1488872Y-2772150D02*
X1517443Y-2772150D01*
X1517443Y-2772150D02*
X1536491Y-2781674D01*
X1536491Y-2781674D02*
X1546015Y-2800722D01*
X1546015Y-2800722D02*
X1546015Y-2905484D01*
X1936491Y-2695960D02*
X1765063Y-2953103D01*
X2193634Y-2705484D02*
X2212682Y-2705484D01*
X2212682Y-2705484D02*
X2231729Y-2715008D01*
X2231729Y-2715008D02*
X2241253Y-2724531D01*
X2241253Y-2724531D02*
X2250777Y-2743579D01*
X2250777Y-2743579D02*
X2260301Y-2781674D01*
X2260301Y-2781674D02*
X2260301Y-2829293D01*
X2260301Y-2829293D02*
X2250777Y-2867388D01*
X2250777Y-2867388D02*
X2241253Y-2886436D01*
X2241253Y-2886436D02*
X2231729Y-2895960D01*
X2231729Y-2895960D02*
X2212682Y-2905484D01*
X2212682Y-2905484D02*
X2193634Y-2905484D01*
X2193634Y-2905484D02*
X2174587Y-2895960D01*
X2174587Y-2895960D02*
X2165063Y-2886436D01*
X2165063Y-2886436D02*
X2155539Y-2867388D01*
X2155539Y-2867388D02*
X2146015Y-2829293D01*
X2146015Y-2829293D02*
X2146015Y-2781674D01*
X2146015Y-2781674D02*
X2155539Y-2743579D01*
X2155539Y-2743579D02*
X2165063Y-2724531D01*
X2165063Y-2724531D02*
X2174587Y-2715008D01*
X2174587Y-2715008D02*
X2193634Y-2705484D01*
X2346015Y-2886436D02*
X2355539Y-2895960D01*
X2355539Y-2895960D02*
X2346015Y-2905484D01*
X2346015Y-2905484D02*
X2336491Y-2895960D01*
X2336491Y-2895960D02*
X2346015Y-2886436D01*
X2346015Y-2886436D02*
X2346015Y-2905484D01*
X2479348Y-2705484D02*
X2498396Y-2705484D01*
X2498396Y-2705484D02*
X2517444Y-2715008D01*
X2517444Y-2715008D02*
X2526968Y-2724531D01*
X2526968Y-2724531D02*
X2536491Y-2743579D01*
X2536491Y-2743579D02*
X2546015Y-2781674D01*
X2546015Y-2781674D02*
X2546015Y-2829293D01*
X2546015Y-2829293D02*
X2536491Y-2867388D01*
X2536491Y-2867388D02*
X2526968Y-2886436D01*
X2526968Y-2886436D02*
X2517444Y-2895960D01*
X2517444Y-2895960D02*
X2498396Y-2905484D01*
X2498396Y-2905484D02*
X2479348Y-2905484D01*
X2479348Y-2905484D02*
X2460301Y-2895960D01*
X2460301Y-2895960D02*
X2450777Y-2886436D01*
X2450777Y-2886436D02*
X2441253Y-2867388D01*
X2441253Y-2867388D02*
X2431729Y-2829293D01*
X2431729Y-2829293D02*
X2431729Y-2781674D01*
X2431729Y-2781674D02*
X2441253Y-2743579D01*
X2441253Y-2743579D02*
X2450777Y-2724531D01*
X2450777Y-2724531D02*
X2460301Y-2715008D01*
X2460301Y-2715008D02*
X2479348Y-2705484D01*
X2612682Y-2705484D02*
X2746015Y-2705484D01*
X2746015Y-2705484D02*
X2660301Y-2905484D01*
X2850777Y-2791198D02*
X2831729Y-2781674D01*
X2831729Y-2781674D02*
X2822206Y-2772150D01*
X2822206Y-2772150D02*
X2812682Y-2753103D01*
X2812682Y-2753103D02*
X2812682Y-2743579D01*
X2812682Y-2743579D02*
X2822206Y-2724531D01*
X2822206Y-2724531D02*
X2831729Y-2715008D01*
X2831729Y-2715008D02*
X2850777Y-2705484D01*
X2850777Y-2705484D02*
X2888872Y-2705484D01*
X2888872Y-2705484D02*
X2907920Y-2715008D01*
X2907920Y-2715008D02*
X2917444Y-2724531D01*
X2917444Y-2724531D02*
X2926967Y-2743579D01*
X2926967Y-2743579D02*
X2926967Y-2753103D01*
X2926967Y-2753103D02*
X2917444Y-2772150D01*
X2917444Y-2772150D02*
X2907920Y-2781674D01*
X2907920Y-2781674D02*
X2888872Y-2791198D01*
X2888872Y-2791198D02*
X2850777Y-2791198D01*
X2850777Y-2791198D02*
X2831729Y-2800722D01*
X2831729Y-2800722D02*
X2822206Y-2810246D01*
X2822206Y-2810246D02*
X2812682Y-2829293D01*
X2812682Y-2829293D02*
X2812682Y-2867388D01*
X2812682Y-2867388D02*
X2822206Y-2886436D01*
X2822206Y-2886436D02*
X2831729Y-2895960D01*
X2831729Y-2895960D02*
X2850777Y-2905484D01*
X2850777Y-2905484D02*
X2888872Y-2905484D01*
X2888872Y-2905484D02*
X2907920Y-2895960D01*
X2907920Y-2895960D02*
X2917444Y-2886436D01*
X2917444Y-2886436D02*
X2926967Y-2867388D01*
X2926967Y-2867388D02*
X2926967Y-2829293D01*
X2926967Y-2829293D02*
X2917444Y-2810246D01*
X2917444Y-2810246D02*
X2907920Y-2800722D01*
X2907920Y-2800722D02*
X2888872Y-2791198D01*
X2993634Y-2705484D02*
X3126967Y-2705484D01*
X3126967Y-2705484D02*
X3041253Y-2905484D01*
X3193634Y-2705484D02*
X3193634Y-2743579D01*
X3269825Y-2705484D02*
X3269825Y-2743579D01*
X3565063Y-2981674D02*
X3555539Y-2972150D01*
X3555539Y-2972150D02*
X3536491Y-2943579D01*
X3536491Y-2943579D02*
X3526968Y-2924531D01*
X3526968Y-2924531D02*
X3517444Y-2895960D01*
X3517444Y-2895960D02*
X3507920Y-2848341D01*
X3507920Y-2848341D02*
X3507920Y-2810246D01*
X3507920Y-2810246D02*
X3517444Y-2762627D01*
X3517444Y-2762627D02*
X3526968Y-2734055D01*
X3526968Y-2734055D02*
X3536491Y-2715008D01*
X3536491Y-2715008D02*
X3555539Y-2686436D01*
X3555539Y-2686436D02*
X3565063Y-2676912D01*
X3746015Y-2905484D02*
X3631729Y-2905484D01*
X3688872Y-2905484D02*
X3688872Y-2705484D01*
X3688872Y-2705484D02*
X3669825Y-2734055D01*
X3669825Y-2734055D02*
X3650777Y-2753103D01*
X3650777Y-2753103D02*
X3631729Y-2762627D01*
X3917444Y-2772150D02*
X3917444Y-2905484D01*
X3869825Y-2695960D02*
X3822206Y-2838817D01*
X3822206Y-2838817D02*
X3946015Y-2838817D01*
X4174587Y-2905484D02*
X4174587Y-2705484D01*
X4260301Y-2905484D02*
X4260301Y-2800722D01*
X4260301Y-2800722D02*
X4250777Y-2781674D01*
X4250777Y-2781674D02*
X4231730Y-2772150D01*
X4231730Y-2772150D02*
X4203158Y-2772150D01*
X4203158Y-2772150D02*
X4184110Y-2781674D01*
X4184110Y-2781674D02*
X4174587Y-2791198D01*
X4384111Y-2905484D02*
X4365063Y-2895960D01*
X4365063Y-2895960D02*
X4355539Y-2886436D01*
X4355539Y-2886436D02*
X4346015Y-2867388D01*
X4346015Y-2867388D02*
X4346015Y-2810246D01*
X4346015Y-2810246D02*
X4355539Y-2791198D01*
X4355539Y-2791198D02*
X4365063Y-2781674D01*
X4365063Y-2781674D02*
X4384111Y-2772150D01*
X4384111Y-2772150D02*
X4412682Y-2772150D01*
X4412682Y-2772150D02*
X4431730Y-2781674D01*
X4431730Y-2781674D02*
X4441253Y-2791198D01*
X4441253Y-2791198D02*
X4450777Y-2810246D01*
X4450777Y-2810246D02*
X4450777Y-2867388D01*
X4450777Y-2867388D02*
X4441253Y-2886436D01*
X4441253Y-2886436D02*
X4431730Y-2895960D01*
X4431730Y-2895960D02*
X4412682Y-2905484D01*
X4412682Y-2905484D02*
X4384111Y-2905484D01*
X4565063Y-2905484D02*
X4546015Y-2895960D01*
X4546015Y-2895960D02*
X4536492Y-2876912D01*
X4536492Y-2876912D02*
X4536492Y-2705484D01*
X4717444Y-2895960D02*
X4698396Y-2905484D01*
X4698396Y-2905484D02*
X4660301Y-2905484D01*
X4660301Y-2905484D02*
X4641253Y-2895960D01*
X4641253Y-2895960D02*
X4631730Y-2876912D01*
X4631730Y-2876912D02*
X4631730Y-2800722D01*
X4631730Y-2800722D02*
X4641253Y-2781674D01*
X4641253Y-2781674D02*
X4660301Y-2772150D01*
X4660301Y-2772150D02*
X4698396Y-2772150D01*
X4698396Y-2772150D02*
X4717444Y-2781674D01*
X4717444Y-2781674D02*
X4726968Y-2800722D01*
X4726968Y-2800722D02*
X4726968Y-2819769D01*
X4726968Y-2819769D02*
X4631730Y-2838817D01*
X4803158Y-2895960D02*
X4822206Y-2905484D01*
X4822206Y-2905484D02*
X4860301Y-2905484D01*
X4860301Y-2905484D02*
X4879349Y-2895960D01*
X4879349Y-2895960D02*
X4888873Y-2876912D01*
X4888873Y-2876912D02*
X4888873Y-2867388D01*
X4888873Y-2867388D02*
X4879349Y-2848341D01*
X4879349Y-2848341D02*
X4860301Y-2838817D01*
X4860301Y-2838817D02*
X4831730Y-2838817D01*
X4831730Y-2838817D02*
X4812682Y-2829293D01*
X4812682Y-2829293D02*
X4803158Y-2810246D01*
X4803158Y-2810246D02*
X4803158Y-2800722D01*
X4803158Y-2800722D02*
X4812682Y-2781674D01*
X4812682Y-2781674D02*
X4831730Y-2772150D01*
X4831730Y-2772150D02*
X4860301Y-2772150D01*
X4860301Y-2772150D02*
X4879349Y-2781674D01*
X4955539Y-2981674D02*
X4965063Y-2972150D01*
X4965063Y-2972150D02*
X4984111Y-2943579D01*
X4984111Y-2943579D02*
X4993634Y-2924531D01*
X4993634Y-2924531D02*
X5003158Y-2895960D01*
X5003158Y-2895960D02*
X5012682Y-2848341D01*
X5012682Y-2848341D02*
X5012682Y-2810246D01*
X5012682Y-2810246D02*
X5003158Y-2762627D01*
X5003158Y-2762627D02*
X4993634Y-2734055D01*
X4993634Y-2734055D02*
X4984111Y-2715008D01*
X4984111Y-2715008D02*
X4965063Y-2686436D01*
X4965063Y-2686436D02*
X4955539Y-2676912D01*
M02*
