%TF.GenerationSoftware,KiCad,Pcbnew,8.0.4*%
%TF.CreationDate,2025-07-05T15:36:37+02:00*%
%TF.ProjectId,pec,7065632e-6b69-4636-9164-5f7063625858,rev?*%
%TF.SameCoordinates,PX1a39de0PY8954400*%
%TF.FileFunction,Plated,1,4,PTH,Drill*%
%TF.FilePolarity,Positive*%
%FSLAX46Y46*%
G04 Gerber Fmt 4.6, Leading zero omitted, Abs format (unit mm)*
G04 Created by KiCad (PCBNEW 8.0.4) date 2025-07-05 15:36:37*
%MOMM*%
%LPD*%
G01*
G04 APERTURE LIST*
%TA.AperFunction,ViaDrill*%
%ADD10C,0.300000*%
%TD*%
%TA.AperFunction,ComponentDrill*%
%ADD11C,1.000000*%
%TD*%
%TA.AperFunction,ComponentDrill*%
%ADD12C,1.200000*%
%TD*%
%TA.AperFunction,ComponentDrill*%
%ADD13C,1.300000*%
%TD*%
%TA.AperFunction,ComponentDrill*%
%ADD14C,1.400000*%
%TD*%
%TA.AperFunction,ComponentDrill*%
%ADD15C,1.540000*%
%TD*%
%TA.AperFunction,ComponentDrill*%
%ADD16C,1.600000*%
%TD*%
%TA.AperFunction,ComponentDrill*%
%ADD17C,1.700000*%
%TD*%
%TA.AperFunction,ComponentDrill*%
%ADD18C,2.000000*%
%TD*%
G04 APERTURE END LIST*
D10*
X13500000Y104250000D03*
X24000000Y62000000D03*
X24250000Y105000000D03*
X24250000Y84500000D03*
X24250000Y54500000D03*
X24500000Y75250000D03*
X24500000Y38750000D03*
X24500000Y32000000D03*
X24750000Y98750000D03*
X25000000Y119500000D03*
X35750000Y25250000D03*
X35750000Y24008783D03*
X35750000Y22800000D03*
X35750000Y21530000D03*
X36092500Y47342500D03*
X36092500Y46092500D03*
X36092500Y44842500D03*
X36092500Y43467500D03*
X36250000Y67750000D03*
X36250000Y66500000D03*
X36250000Y65250000D03*
X36250000Y64000000D03*
X36500000Y92750000D03*
X36500000Y91250000D03*
X36500000Y90000000D03*
X36500000Y88750000D03*
X36775000Y109025000D03*
X36850000Y112755000D03*
X36850000Y111485000D03*
X36850000Y110215000D03*
X41750000Y95000000D03*
X41750000Y68250000D03*
X42000000Y25000000D03*
X42342500Y45842500D03*
X42592500Y48592500D03*
X42600000Y23250000D03*
X42750000Y115500000D03*
X43250000Y91100000D03*
X43250000Y67000000D03*
X43750000Y111650000D03*
X50750000Y90000000D03*
X51092500Y47342500D03*
X51100000Y65600000D03*
X51100000Y23750000D03*
X51600000Y110500000D03*
X87450000Y114900000D03*
X120450000Y114900000D03*
D11*
%TO.C,U3*%
X20242500Y103465000D03*
%TO.C,U4*%
X20592500Y79865000D03*
%TO.C,U5*%
X20642500Y59342500D03*
%TO.C,U1*%
X20847500Y36795000D03*
%TO.C,U2*%
X21055000Y123835000D03*
%TO.C,U3*%
X22782500Y103465000D03*
%TO.C,U4*%
X23132500Y79865000D03*
%TO.C,U5*%
X23182500Y59342500D03*
%TO.C,U1*%
X23387500Y36795000D03*
%TO.C,U2*%
X23595000Y123835000D03*
%TO.C,U3*%
X27862500Y103465000D03*
%TO.C,U4*%
X28212500Y79865000D03*
%TO.C,U5*%
X28262500Y59342500D03*
%TO.C,U1*%
X28467500Y36795000D03*
%TO.C,U2*%
X28675000Y123835000D03*
%TO.C,U3*%
X32942500Y103465000D03*
%TO.C,U4*%
X33292500Y79865000D03*
%TO.C,U5*%
X33342500Y59342500D03*
%TO.C,U1*%
X33547500Y36795000D03*
%TO.C,U2*%
X33755000Y123835000D03*
D12*
%TO.C,C2*%
X61250000Y98250000D03*
%TO.C,C45*%
X61250000Y84500000D03*
%TO.C,C46*%
X66000000Y72750000D03*
%TO.C,C47*%
X66000000Y63750000D03*
%TO.C,C48*%
X66000000Y55000000D03*
%TO.C,C49*%
X66000000Y46250000D03*
%TO.C,C46*%
X81000000Y72750000D03*
%TO.C,C47*%
X81000000Y63750000D03*
%TO.C,C48*%
X81000000Y55000000D03*
%TO.C,C49*%
X81000000Y46250000D03*
%TO.C,C2*%
X88750000Y98250000D03*
%TO.C,C45*%
X88750000Y84500000D03*
D13*
%TO.C,J1*%
X5250000Y122500000D03*
%TO.C,J5*%
X6750000Y93250000D03*
X6750000Y88250000D03*
X6750000Y83250000D03*
%TO.C,J3*%
X6750000Y75250000D03*
X6750000Y70250000D03*
%TO.C,J4*%
X6750000Y63750000D03*
X6750000Y58750000D03*
%TO.C,J1*%
X10250000Y122500000D03*
D14*
%TO.C,J2*%
X64190000Y2972500D03*
X71810000Y2972500D03*
%TO.C,J6*%
X128972500Y122810000D03*
X128972500Y115190000D03*
D15*
%TO.C,Q1*%
X54170000Y125000000D03*
X59250000Y125000000D03*
X61790000Y125000000D03*
X64330000Y125000000D03*
%TO.C,Q3*%
X71920000Y125000000D03*
X77000000Y125000000D03*
X79540000Y125000000D03*
X82080000Y125000000D03*
%TO.C,Q2*%
X89750000Y125000000D03*
X94830000Y125000000D03*
X97370000Y125000000D03*
X99910000Y125000000D03*
%TO.C,Q4*%
X107500000Y125000000D03*
X112580000Y125000000D03*
X115120000Y125000000D03*
X117660000Y125000000D03*
%TO.C,Q6*%
X136000000Y15500000D03*
X136000000Y10420000D03*
X136000000Y7880000D03*
X136000000Y5340000D03*
D16*
%TO.C,D1*%
X112320000Y16600000D03*
X112320000Y3900000D03*
%TO.C,D4*%
X122970000Y16600000D03*
X122970000Y3900000D03*
D17*
%TO.C,L1*%
X82000000Y37550000D03*
X82000000Y16750000D03*
D18*
%TO.C,C43*%
X97842169Y100500000D03*
%TO.C,C44*%
X97842169Y76500000D03*
%TO.C,C42*%
X97842169Y53000000D03*
%TO.C,C43*%
X107842169Y100500000D03*
%TO.C,C44*%
X107842169Y76500000D03*
%TO.C,C42*%
X107842169Y53000000D03*
%TO.C,C41*%
X121500001Y76750000D03*
%TO.C,C39*%
X121500001Y53750000D03*
%TO.C,C40*%
X121657832Y99500000D03*
%TO.C,C1*%
X121685664Y30750000D03*
%TO.C,C41*%
X131500001Y76750000D03*
%TO.C,C39*%
X131500001Y53750000D03*
%TO.C,C40*%
X131657832Y99500000D03*
%TO.C,C1*%
X131685664Y30750000D03*
M02*
