%TF.GenerationSoftware,KiCad,Pcbnew,8.0.4*%
%TF.CreationDate,2025-07-05T15:36:49+02:00*%
%TF.ProjectId,pec,7065632e-6b69-4636-9164-5f7063625858,rev?*%
%TF.SameCoordinates,PX1a39de0PY8954400*%
%TF.FileFunction,Soldermask,Top*%
%TF.FilePolarity,Negative*%
%FSLAX46Y46*%
G04 Gerber Fmt 4.6, Leading zero omitted, Abs format (unit mm)*
G04 Created by KiCad (PCBNEW 8.0.4) date 2025-07-05 15:36:49*
%MOMM*%
%LPD*%
G01*
G04 APERTURE LIST*
G04 Aperture macros list*
%AMRoundRect*
0 Rectangle with rounded corners*
0 $1 Rounding radius*
0 $2 $3 $4 $5 $6 $7 $8 $9 X,Y pos of 4 corners*
0 Add a 4 corners polygon primitive as box body*
4,1,4,$2,$3,$4,$5,$6,$7,$8,$9,$2,$3,0*
0 Add four circle primitives for the rounded corners*
1,1,$1+$1,$2,$3*
1,1,$1+$1,$4,$5*
1,1,$1+$1,$6,$7*
1,1,$1+$1,$8,$9*
0 Add four rect primitives between the rounded corners*
20,1,$1+$1,$2,$3,$4,$5,0*
20,1,$1+$1,$4,$5,$6,$7,0*
20,1,$1+$1,$6,$7,$8,$9,0*
20,1,$1+$1,$8,$9,$2,$3,0*%
G04 Aperture macros list end*
%ADD10RoundRect,0.250000X-0.450000X0.350000X-0.450000X-0.350000X0.450000X-0.350000X0.450000X0.350000X0*%
%ADD11RoundRect,0.250000X-0.400000X-0.625000X0.400000X-0.625000X0.400000X0.625000X-0.400000X0.625000X0*%
%ADD12R,2.310000X2.310000*%
%ADD13C,2.310000*%
%ADD14RoundRect,0.225000X0.225000X0.375000X-0.225000X0.375000X-0.225000X-0.375000X0.225000X-0.375000X0*%
%ADD15R,1.600000X0.650000*%
%ADD16RoundRect,0.250000X-0.350000X-0.450000X0.350000X-0.450000X0.350000X0.450000X-0.350000X0.450000X0*%
%ADD17RoundRect,0.250001X0.799999X1.549999X-0.799999X1.549999X-0.799999X-1.549999X0.799999X-1.549999X0*%
%ADD18O,2.100000X3.600000*%
%ADD19R,1.500000X1.500000*%
%ADD20C,1.500000*%
%ADD21R,1.120000X1.240000*%
%ADD22RoundRect,0.250000X-0.337500X-0.475000X0.337500X-0.475000X0.337500X0.475000X-0.337500X0.475000X0*%
%ADD23C,2.400000*%
%ADD24R,4.000000X4.000000*%
%ADD25C,4.000000*%
%ADD26RoundRect,0.237500X-0.300000X-0.237500X0.300000X-0.237500X0.300000X0.237500X-0.300000X0.237500X0*%
%ADD27C,2.500000*%
%ADD28R,2.500000X2.500000*%
%ADD29RoundRect,0.250001X1.549999X-0.799999X1.549999X0.799999X-1.549999X0.799999X-1.549999X-0.799999X0*%
%ADD30O,3.600000X2.100000*%
%ADD31R,3.200000X3.200000*%
%ADD32O,3.200000X3.200000*%
%ADD33C,3.400000*%
%ADD34RoundRect,0.250001X-0.462499X-0.624999X0.462499X-0.624999X0.462499X0.624999X-0.462499X0.624999X0*%
%ADD35RoundRect,0.250000X0.475000X-0.337500X0.475000X0.337500X-0.475000X0.337500X-0.475000X-0.337500X0*%
%ADD36RoundRect,0.237500X0.237500X-0.300000X0.237500X0.300000X-0.237500X0.300000X-0.237500X-0.300000X0*%
G04 APERTURE END LIST*
D10*
%TO.C,R21*%
X20960000Y46167500D03*
X20960000Y44167500D03*
%TD*%
D11*
%TO.C,R47*%
X44342500Y42592500D03*
X47442500Y42592500D03*
%TD*%
D12*
%TO.C,Q1*%
X54170000Y125000000D03*
D13*
X59250000Y125000000D03*
X61790000Y125000000D03*
X64330000Y125000000D03*
%TD*%
D14*
%TO.C,D2*%
X6950000Y114500000D03*
X10250000Y114500000D03*
%TD*%
D11*
%TO.C,R31*%
X94650000Y113600000D03*
X97750000Y113600000D03*
%TD*%
%TO.C,R4*%
X44242500Y48637500D03*
X47342500Y48637500D03*
%TD*%
%TO.C,R14*%
X44750000Y88500000D03*
X47850000Y88500000D03*
%TD*%
D15*
%TO.C,IC3*%
X24650000Y92655000D03*
X24650000Y91385000D03*
X24650000Y90115000D03*
X24650000Y88845000D03*
X34350000Y88845000D03*
X34350000Y90115000D03*
X34350000Y91385000D03*
X34350000Y92655000D03*
%TD*%
D11*
%TO.C,R33*%
X99900000Y113600000D03*
X103000000Y113600000D03*
%TD*%
D16*
%TO.C,R27*%
X16350000Y46122500D03*
X18350000Y46122500D03*
%TD*%
D11*
%TO.C,R32*%
X99900000Y116400000D03*
X103000000Y116400000D03*
%TD*%
D17*
%TO.C,J2*%
X71810000Y2972500D03*
D18*
X64190000Y2972500D03*
%TD*%
D19*
%TO.C,U4*%
X20592500Y79865000D03*
D20*
X23132500Y79865000D03*
X28212500Y79865000D03*
X33292500Y79865000D03*
%TD*%
D11*
%TO.C,R29*%
X89400000Y113600000D03*
X92500000Y113600000D03*
%TD*%
%TO.C,R5*%
X44750000Y93750000D03*
X47850000Y93750000D03*
%TD*%
%TO.C,R34*%
X105150000Y116400000D03*
X108250000Y116400000D03*
%TD*%
%TO.C,R13*%
X47100000Y22450000D03*
X44000000Y22450000D03*
%TD*%
D10*
%TO.C,R19*%
X21350000Y91250000D03*
X21350000Y89250000D03*
%TD*%
D16*
%TO.C,R25*%
X17160000Y91250000D03*
X19160000Y91250000D03*
%TD*%
D11*
%TO.C,R6*%
X44750000Y91100000D03*
X47850000Y91100000D03*
%TD*%
%TO.C,R30*%
X94650000Y116400000D03*
X97750000Y116400000D03*
%TD*%
%TO.C,R8*%
X48100000Y67150000D03*
X45000000Y67150000D03*
%TD*%
D10*
%TO.C,R22*%
X21600000Y109650000D03*
X21600000Y111650000D03*
%TD*%
D21*
%TO.C,D7*%
X51600000Y106150000D03*
X51600000Y109150000D03*
%TD*%
D22*
%TO.C,C8*%
X25100000Y117320000D03*
X23025000Y117320000D03*
%TD*%
D23*
%TO.C,C49*%
X66000000Y46250000D03*
X81000000Y46250000D03*
%TD*%
D24*
%TO.C,C44*%
X97842169Y76500000D03*
D25*
X107842169Y76500000D03*
%TD*%
D24*
%TO.C,C40*%
X131657832Y99500000D03*
D25*
X121657832Y99500000D03*
%TD*%
D11*
%TO.C,R37*%
X110350000Y113600000D03*
X113450000Y113600000D03*
%TD*%
D26*
%TO.C,C15*%
X22720000Y71115000D03*
X24445000Y71115000D03*
%TD*%
D24*
%TO.C,C42*%
X97842169Y53000000D03*
D25*
X107842169Y53000000D03*
%TD*%
D11*
%TO.C,R39*%
X115600000Y113600000D03*
X118700000Y113600000D03*
%TD*%
D19*
%TO.C,U5*%
X20642500Y59342500D03*
D20*
X23182500Y59342500D03*
X28262500Y59342500D03*
X33342500Y59342500D03*
%TD*%
D12*
%TO.C,Q3*%
X71920000Y125000000D03*
D13*
X77000000Y125000000D03*
X79540000Y125000000D03*
X82080000Y125000000D03*
%TD*%
D22*
%TO.C,C3*%
X24507500Y29780000D03*
X22432500Y29780000D03*
%TD*%
D27*
%TO.C,J1*%
X5250000Y122500000D03*
D28*
X10250000Y122500000D03*
%TD*%
D10*
%TO.C,R18*%
X21000000Y22250000D03*
X21000000Y24250000D03*
%TD*%
D21*
%TO.C,D9*%
X51100000Y22250000D03*
X51100000Y19250000D03*
%TD*%
D11*
%TO.C,R48*%
X44342500Y39842500D03*
X47442500Y39842500D03*
%TD*%
%TO.C,R36*%
X110400000Y116400000D03*
X113500000Y116400000D03*
%TD*%
D20*
%TO.C,U2*%
X33755000Y123835000D03*
X28675000Y123835000D03*
X23595000Y123835000D03*
D19*
X21055000Y123835000D03*
%TD*%
D26*
%TO.C,C23*%
X10250000Y110500000D03*
X8525000Y110500000D03*
%TD*%
D29*
%TO.C,J6*%
X128972500Y115190000D03*
D30*
X128972500Y122810000D03*
%TD*%
D22*
%TO.C,C20*%
X22312500Y52122500D03*
X24387500Y52122500D03*
%TD*%
D16*
%TO.C,R23*%
X19325000Y111630000D03*
X17325000Y111630000D03*
%TD*%
D22*
%TO.C,C16*%
X22620000Y73115000D03*
X24695000Y73115000D03*
%TD*%
D21*
%TO.C,D5*%
X50750000Y88450000D03*
X50750000Y85450000D03*
%TD*%
D26*
%TO.C,C7*%
X24915000Y115600000D03*
X23190000Y115600000D03*
%TD*%
D31*
%TO.C,D4*%
X122970000Y3900000D03*
D32*
X122970000Y16600000D03*
%TD*%
D16*
%TO.C,R11*%
X11262500Y104250000D03*
X9262500Y104250000D03*
%TD*%
D26*
%TO.C,C5*%
X24220000Y28030000D03*
X22495000Y28030000D03*
%TD*%
D11*
%TO.C,R40*%
X47085000Y16230000D03*
X43985000Y16230000D03*
%TD*%
%TO.C,R28*%
X89400000Y116400000D03*
X92500000Y116400000D03*
%TD*%
D22*
%TO.C,C12*%
X22675000Y96750000D03*
X24750000Y96750000D03*
%TD*%
D11*
%TO.C,R7*%
X48100000Y69600000D03*
X45000000Y69600000D03*
%TD*%
D12*
%TO.C,Q4*%
X107500000Y125000000D03*
D13*
X112580000Y125000000D03*
X115120000Y125000000D03*
X117660000Y125000000D03*
%TD*%
D23*
%TO.C,C2*%
X61250000Y98250000D03*
X88750000Y98250000D03*
%TD*%
D19*
%TO.C,U3*%
X20242500Y103465000D03*
D20*
X22782500Y103465000D03*
X27862500Y103465000D03*
X32942500Y103465000D03*
%TD*%
D16*
%TO.C,R24*%
X19000000Y24250000D03*
X17000000Y24250000D03*
%TD*%
D11*
%TO.C,R12*%
X47100000Y24970000D03*
X44000000Y24970000D03*
%TD*%
D23*
%TO.C,C46*%
X66000000Y72750000D03*
X81000000Y72750000D03*
%TD*%
D11*
%TO.C,R15*%
X48100000Y64685000D03*
X45000000Y64685000D03*
%TD*%
%TO.C,R41*%
X44800000Y85200000D03*
X47900000Y85200000D03*
%TD*%
%TO.C,R45*%
X45700000Y105750000D03*
X48800000Y105750000D03*
%TD*%
%TO.C,R35*%
X105200000Y113600000D03*
X108300000Y113600000D03*
%TD*%
%TO.C,R42*%
X44800000Y82700000D03*
X47900000Y82700000D03*
%TD*%
D23*
%TO.C,C45*%
X61250000Y84500000D03*
X88750000Y84500000D03*
%TD*%
D12*
%TO.C,Q2*%
X89750000Y125000000D03*
D13*
X94830000Y125000000D03*
X97370000Y125000000D03*
X99910000Y125000000D03*
%TD*%
D21*
%TO.C,D8*%
X51092500Y42742500D03*
X51092500Y45742500D03*
%TD*%
D24*
%TO.C,C1*%
X131685664Y30750000D03*
D25*
X121685664Y30750000D03*
%TD*%
D33*
%TO.C,L1*%
X82000000Y16750000D03*
X82000000Y37550000D03*
%TD*%
D21*
%TO.C,D6*%
X51000000Y64300000D03*
X51000000Y61300000D03*
%TD*%
D15*
%TO.C,IC1*%
X34007500Y25340000D03*
X34007500Y24070000D03*
X34007500Y22800000D03*
X34007500Y21530000D03*
X24307500Y21530000D03*
X24307500Y22800000D03*
X24307500Y24070000D03*
X24307500Y25340000D03*
%TD*%
D11*
%TO.C,R16*%
X45600000Y111650000D03*
X48700000Y111650000D03*
%TD*%
%TO.C,R46*%
X45692500Y103205000D03*
X48792500Y103205000D03*
%TD*%
D27*
%TO.C,J3*%
X6750000Y75250000D03*
D28*
X6750000Y70250000D03*
%TD*%
D11*
%TO.C,R44*%
X48250000Y58600000D03*
X45150000Y58600000D03*
%TD*%
%TO.C,R3*%
X44242500Y51342500D03*
X47342500Y51342500D03*
%TD*%
D27*
%TO.C,J4*%
X6750000Y58750000D03*
D28*
X6750000Y63750000D03*
%TD*%
D24*
%TO.C,C43*%
X97842169Y100500000D03*
D25*
X107842169Y100500000D03*
%TD*%
D26*
%TO.C,C19*%
X22412500Y50122500D03*
X24137500Y50122500D03*
%TD*%
D12*
%TO.C,Q6*%
X136000000Y15500000D03*
D13*
X136000000Y10420000D03*
X136000000Y7880000D03*
X136000000Y5340000D03*
%TD*%
D23*
%TO.C,C47*%
X66000000Y63750000D03*
X81000000Y63750000D03*
%TD*%
D11*
%TO.C,R9*%
X44242500Y45972500D03*
X47342500Y45972500D03*
%TD*%
D23*
%TO.C,C48*%
X66000000Y55000000D03*
X81000000Y55000000D03*
%TD*%
D11*
%TO.C,R1*%
X47100000Y27450000D03*
X44000000Y27450000D03*
%TD*%
D15*
%TO.C,IC5*%
X24250000Y47277500D03*
X24250000Y46007500D03*
X24250000Y44737500D03*
X24250000Y43467500D03*
X33950000Y43467500D03*
X33950000Y44737500D03*
X33950000Y46007500D03*
X33950000Y47277500D03*
%TD*%
D24*
%TO.C,C39*%
X131500001Y53750000D03*
D25*
X121500001Y53750000D03*
%TD*%
D11*
%TO.C,R43*%
X48200000Y61150000D03*
X45100000Y61150000D03*
%TD*%
%TO.C,R10*%
X45550000Y114100000D03*
X48650000Y114100000D03*
%TD*%
D10*
%TO.C,R20*%
X21350000Y64350000D03*
X21350000Y66350000D03*
%TD*%
D26*
%TO.C,C11*%
X22865000Y94780000D03*
X24590000Y94780000D03*
%TD*%
D11*
%TO.C,R38*%
X115600000Y116400000D03*
X118700000Y116400000D03*
%TD*%
D34*
%TO.C,D3*%
X6750000Y104250000D03*
X3775000Y104250000D03*
%TD*%
D16*
%TO.C,R26*%
X17100000Y66350000D03*
X19100000Y66350000D03*
%TD*%
D11*
%TO.C,R2*%
X47100000Y18750000D03*
X44000000Y18750000D03*
%TD*%
D24*
%TO.C,C41*%
X131500001Y76750000D03*
D25*
X121500001Y76750000D03*
%TD*%
D11*
%TO.C,R17*%
X45600000Y109150000D03*
X48700000Y109150000D03*
%TD*%
D15*
%TO.C,IC2*%
X25000000Y112755000D03*
X25000000Y111485000D03*
X25000000Y110215000D03*
X25000000Y108945000D03*
X34700000Y108945000D03*
X34700000Y110215000D03*
X34700000Y111485000D03*
X34700000Y112755000D03*
%TD*%
D31*
%TO.C,D1*%
X112320000Y3900000D03*
D32*
X112320000Y16600000D03*
%TD*%
D27*
%TO.C,J5*%
X6750000Y83250000D03*
X6750000Y88250000D03*
D28*
X6750000Y93250000D03*
%TD*%
D35*
%TO.C,C22*%
X39842500Y43517500D03*
X39842500Y45592500D03*
%TD*%
D36*
%TO.C,C21*%
X38092500Y43617500D03*
X38092500Y45342500D03*
%TD*%
%TO.C,C6*%
X38250000Y23187500D03*
X38250000Y21462500D03*
%TD*%
D35*
%TO.C,C10*%
X40900000Y110925000D03*
X40900000Y108850000D03*
%TD*%
D36*
%TO.C,C13*%
X38250000Y88887500D03*
X38250000Y90612500D03*
%TD*%
D35*
%TO.C,C4*%
X40000000Y23500000D03*
X40000000Y21425000D03*
%TD*%
%TO.C,C18*%
X39850000Y66001250D03*
X39850000Y63926250D03*
%TD*%
%TO.C,C14*%
X40050000Y88750000D03*
X40050000Y90825000D03*
%TD*%
D36*
%TO.C,C17*%
X38050000Y65862500D03*
X38050000Y64137500D03*
%TD*%
%TO.C,C9*%
X39100000Y110700000D03*
X39100000Y108975000D03*
%TD*%
D20*
%TO.C,U1*%
X33547500Y36795000D03*
X28467500Y36795000D03*
X23387500Y36795000D03*
D19*
X20847500Y36795000D03*
%TD*%
D15*
%TO.C,IC4*%
X34200000Y67755000D03*
X34200000Y66485000D03*
X34200000Y65215000D03*
X34200000Y63945000D03*
X24500000Y63945000D03*
X24500000Y65215000D03*
X24500000Y66485000D03*
X24500000Y67755000D03*
%TD*%
M02*
