%TF.GenerationSoftware,KiCad,Pcbnew,8.0.4*%
%TF.CreationDate,2025-07-07T20:00:18+02:00*%
%TF.ProjectId,pec,7065632e-6b69-4636-9164-5f7063625858,rev?*%
%TF.SameCoordinates,Original*%
%TF.FileFunction,Drillmap*%
%TF.FilePolarity,Positive*%
%FSLAX45Y45*%
G04 Gerber Fmt 4.5, Leading zero omitted, Abs format (unit mm)*
G04 Created by KiCad (PCBNEW 8.0.4) date 2025-07-07 20:00:18*
%MOMM*%
%LPD*%
G01*
G04 APERTURE LIST*
%ADD10C,0.200000*%
G04 APERTURE END LIST*
D10*
X2750000Y-1500000D02*
X2750000Y-14400000D01*
X16775000Y-14400000D02*
X16775000Y-1500000D01*
X16775000Y-1500000D02*
X2750000Y-1500000D01*
X2750000Y-14400000D02*
X16775000Y-14400000D01*
X3000777Y-14721484D02*
X3000777Y-14521484D01*
X3000777Y-14521484D02*
X3048396Y-14521484D01*
X3048396Y-14521484D02*
X3076967Y-14531008D01*
X3076967Y-14531008D02*
X3096015Y-14550055D01*
X3096015Y-14550055D02*
X3105539Y-14569103D01*
X3105539Y-14569103D02*
X3115062Y-14607198D01*
X3115062Y-14607198D02*
X3115062Y-14635769D01*
X3115062Y-14635769D02*
X3105539Y-14673865D01*
X3105539Y-14673865D02*
X3096015Y-14692912D01*
X3096015Y-14692912D02*
X3076967Y-14711960D01*
X3076967Y-14711960D02*
X3048396Y-14721484D01*
X3048396Y-14721484D02*
X3000777Y-14721484D01*
X3200777Y-14721484D02*
X3200777Y-14588150D01*
X3200777Y-14626246D02*
X3210301Y-14607198D01*
X3210301Y-14607198D02*
X3219824Y-14597674D01*
X3219824Y-14597674D02*
X3238872Y-14588150D01*
X3238872Y-14588150D02*
X3257920Y-14588150D01*
X3324586Y-14721484D02*
X3324586Y-14588150D01*
X3324586Y-14521484D02*
X3315062Y-14531008D01*
X3315062Y-14531008D02*
X3324586Y-14540531D01*
X3324586Y-14540531D02*
X3334110Y-14531008D01*
X3334110Y-14531008D02*
X3324586Y-14521484D01*
X3324586Y-14521484D02*
X3324586Y-14540531D01*
X3448396Y-14721484D02*
X3429348Y-14711960D01*
X3429348Y-14711960D02*
X3419824Y-14692912D01*
X3419824Y-14692912D02*
X3419824Y-14521484D01*
X3553158Y-14721484D02*
X3534110Y-14711960D01*
X3534110Y-14711960D02*
X3524586Y-14692912D01*
X3524586Y-14692912D02*
X3524586Y-14521484D01*
X3781729Y-14721484D02*
X3781729Y-14521484D01*
X3781729Y-14521484D02*
X3848396Y-14664341D01*
X3848396Y-14664341D02*
X3915062Y-14521484D01*
X3915062Y-14521484D02*
X3915062Y-14721484D01*
X4096015Y-14721484D02*
X4096015Y-14616722D01*
X4096015Y-14616722D02*
X4086491Y-14597674D01*
X4086491Y-14597674D02*
X4067443Y-14588150D01*
X4067443Y-14588150D02*
X4029348Y-14588150D01*
X4029348Y-14588150D02*
X4010301Y-14597674D01*
X4096015Y-14711960D02*
X4076967Y-14721484D01*
X4076967Y-14721484D02*
X4029348Y-14721484D01*
X4029348Y-14721484D02*
X4010301Y-14711960D01*
X4010301Y-14711960D02*
X4000777Y-14692912D01*
X4000777Y-14692912D02*
X4000777Y-14673865D01*
X4000777Y-14673865D02*
X4010301Y-14654817D01*
X4010301Y-14654817D02*
X4029348Y-14645293D01*
X4029348Y-14645293D02*
X4076967Y-14645293D01*
X4076967Y-14645293D02*
X4096015Y-14635769D01*
X4191253Y-14588150D02*
X4191253Y-14788150D01*
X4191253Y-14597674D02*
X4210301Y-14588150D01*
X4210301Y-14588150D02*
X4248396Y-14588150D01*
X4248396Y-14588150D02*
X4267444Y-14597674D01*
X4267444Y-14597674D02*
X4276967Y-14607198D01*
X4276967Y-14607198D02*
X4286491Y-14626246D01*
X4286491Y-14626246D02*
X4286491Y-14683388D01*
X4286491Y-14683388D02*
X4276967Y-14702436D01*
X4276967Y-14702436D02*
X4267444Y-14711960D01*
X4267444Y-14711960D02*
X4248396Y-14721484D01*
X4248396Y-14721484D02*
X4210301Y-14721484D01*
X4210301Y-14721484D02*
X4191253Y-14711960D01*
X4372205Y-14702436D02*
X4381729Y-14711960D01*
X4381729Y-14711960D02*
X4372205Y-14721484D01*
X4372205Y-14721484D02*
X4362682Y-14711960D01*
X4362682Y-14711960D02*
X4372205Y-14702436D01*
X4372205Y-14702436D02*
X4372205Y-14721484D01*
X4372205Y-14597674D02*
X4381729Y-14607198D01*
X4381729Y-14607198D02*
X4372205Y-14616722D01*
X4372205Y-14616722D02*
X4362682Y-14607198D01*
X4362682Y-14607198D02*
X4372205Y-14597674D01*
X4372205Y-14597674D02*
X4372205Y-14616722D01*
M02*
