G04 #@! TF.GenerationSoftware,KiCad,Pcbnew,8.0.4*
G04 #@! TF.CreationDate,2025-07-07T19:56:56+02:00*
G04 #@! TF.ProjectId,pec,7065632e-6b69-4636-9164-5f7063625858,rev?*
G04 #@! TF.SameCoordinates,Original*
G04 #@! TF.FileFunction,Copper,L1,Top*
G04 #@! TF.FilePolarity,Positive*
%FSLAX46Y46*%
G04 Gerber Fmt 4.6, Leading zero omitted, Abs format (unit mm)*
G04 Created by KiCad (PCBNEW 8.0.4) date 2025-07-07 19:56:56*
%MOMM*%
%LPD*%
G01*
G04 APERTURE LIST*
G04 Aperture macros list*
%AMRoundRect*
0 Rectangle with rounded corners*
0 $1 Rounding radius*
0 $2 $3 $4 $5 $6 $7 $8 $9 X,Y pos of 4 corners*
0 Add a 4 corners polygon primitive as box body*
4,1,4,$2,$3,$4,$5,$6,$7,$8,$9,$2,$3,0*
0 Add four circle primitives for the rounded corners*
1,1,$1+$1,$2,$3*
1,1,$1+$1,$4,$5*
1,1,$1+$1,$6,$7*
1,1,$1+$1,$8,$9*
0 Add four rect primitives between the rounded corners*
20,1,$1+$1,$2,$3,$4,$5,0*
20,1,$1+$1,$4,$5,$6,$7,0*
20,1,$1+$1,$6,$7,$8,$9,0*
20,1,$1+$1,$8,$9,$2,$3,0*%
G04 Aperture macros list end*
%ADD10C,0.300000*%
G04 #@! TA.AperFunction,NonConductor*
%ADD11C,0.300000*%
G04 #@! TD*
G04 #@! TA.AperFunction,SMDPad,CuDef*
%ADD12RoundRect,0.250000X-0.450000X0.350000X-0.450000X-0.350000X0.450000X-0.350000X0.450000X0.350000X0*%
G04 #@! TD*
G04 #@! TA.AperFunction,SMDPad,CuDef*
%ADD13RoundRect,0.250000X0.475000X-0.337500X0.475000X0.337500X-0.475000X0.337500X-0.475000X-0.337500X0*%
G04 #@! TD*
G04 #@! TA.AperFunction,SMDPad,CuDef*
%ADD14RoundRect,0.250000X-0.400000X-0.625000X0.400000X-0.625000X0.400000X0.625000X-0.400000X0.625000X0*%
G04 #@! TD*
G04 #@! TA.AperFunction,ComponentPad*
%ADD15R,2.310000X2.310000*%
G04 #@! TD*
G04 #@! TA.AperFunction,ComponentPad*
%ADD16C,2.310000*%
G04 #@! TD*
G04 #@! TA.AperFunction,SMDPad,CuDef*
%ADD17RoundRect,0.225000X0.225000X0.375000X-0.225000X0.375000X-0.225000X-0.375000X0.225000X-0.375000X0*%
G04 #@! TD*
G04 #@! TA.AperFunction,SMDPad,CuDef*
%ADD18R,1.600000X0.650000*%
G04 #@! TD*
G04 #@! TA.AperFunction,SMDPad,CuDef*
%ADD19RoundRect,0.250000X-0.350000X-0.450000X0.350000X-0.450000X0.350000X0.450000X-0.350000X0.450000X0*%
G04 #@! TD*
G04 #@! TA.AperFunction,SMDPad,CuDef*
%ADD20RoundRect,0.237500X0.237500X-0.300000X0.237500X0.300000X-0.237500X0.300000X-0.237500X-0.300000X0*%
G04 #@! TD*
G04 #@! TA.AperFunction,ComponentPad*
%ADD21RoundRect,0.250001X0.799999X1.549999X-0.799999X1.549999X-0.799999X-1.549999X0.799999X-1.549999X0*%
G04 #@! TD*
G04 #@! TA.AperFunction,ComponentPad*
%ADD22O,2.100000X3.600000*%
G04 #@! TD*
G04 #@! TA.AperFunction,ComponentPad*
%ADD23R,1.500000X1.500000*%
G04 #@! TD*
G04 #@! TA.AperFunction,ComponentPad*
%ADD24C,1.500000*%
G04 #@! TD*
G04 #@! TA.AperFunction,SMDPad,CuDef*
%ADD25R,1.120000X1.240000*%
G04 #@! TD*
G04 #@! TA.AperFunction,SMDPad,CuDef*
%ADD26RoundRect,0.250000X-0.337500X-0.475000X0.337500X-0.475000X0.337500X0.475000X-0.337500X0.475000X0*%
G04 #@! TD*
G04 #@! TA.AperFunction,ComponentPad*
%ADD27C,2.400000*%
G04 #@! TD*
G04 #@! TA.AperFunction,ComponentPad*
%ADD28R,4.000000X4.000000*%
G04 #@! TD*
G04 #@! TA.AperFunction,ComponentPad*
%ADD29C,4.000000*%
G04 #@! TD*
G04 #@! TA.AperFunction,SMDPad,CuDef*
%ADD30RoundRect,0.237500X-0.300000X-0.237500X0.300000X-0.237500X0.300000X0.237500X-0.300000X0.237500X0*%
G04 #@! TD*
G04 #@! TA.AperFunction,ComponentPad*
%ADD31R,2.500000X2.500000*%
G04 #@! TD*
G04 #@! TA.AperFunction,ComponentPad*
%ADD32C,2.500000*%
G04 #@! TD*
G04 #@! TA.AperFunction,ComponentPad*
%ADD33RoundRect,0.250001X1.549999X-0.799999X1.549999X0.799999X-1.549999X0.799999X-1.549999X-0.799999X0*%
G04 #@! TD*
G04 #@! TA.AperFunction,ComponentPad*
%ADD34O,3.600000X2.100000*%
G04 #@! TD*
G04 #@! TA.AperFunction,ComponentPad*
%ADD35R,3.200000X3.200000*%
G04 #@! TD*
G04 #@! TA.AperFunction,ComponentPad*
%ADD36O,3.200000X3.200000*%
G04 #@! TD*
G04 #@! TA.AperFunction,ComponentPad*
%ADD37C,3.400000*%
G04 #@! TD*
G04 #@! TA.AperFunction,SMDPad,CuDef*
%ADD38RoundRect,0.250001X-0.462499X-0.624999X0.462499X-0.624999X0.462499X0.624999X-0.462499X0.624999X0*%
G04 #@! TD*
G04 #@! TA.AperFunction,ViaPad*
%ADD39C,0.600000*%
G04 #@! TD*
G04 #@! TA.AperFunction,Conductor*
%ADD40C,0.200000*%
G04 #@! TD*
G04 APERTURE END LIST*
D10*
D11*
X35840225Y-132800828D02*
X34983082Y-132800828D01*
X35411653Y-132800828D02*
X35411653Y-131300828D01*
X35411653Y-131300828D02*
X35268796Y-131515114D01*
X35268796Y-131515114D02*
X35125939Y-131657971D01*
X35125939Y-131657971D02*
X34983082Y-131729400D01*
D12*
X48460000Y-97832500D03*
X48460000Y-99832500D03*
D13*
X67342500Y-100482500D03*
X67342500Y-98407500D03*
D14*
X71842500Y-101407500D03*
X74942500Y-101407500D03*
D15*
X81670000Y-19000000D03*
D16*
X86750000Y-19000000D03*
X89290000Y-19000000D03*
X91830000Y-19000000D03*
D17*
X37750000Y-29500000D03*
X34450000Y-29500000D03*
D18*
X52000000Y-76245000D03*
X52000000Y-77515000D03*
X52000000Y-78785000D03*
X52000000Y-80055000D03*
X61700000Y-80055000D03*
X61700000Y-78785000D03*
X61700000Y-77515000D03*
X61700000Y-76245000D03*
D14*
X122150000Y-30400000D03*
X125250000Y-30400000D03*
X71742500Y-95362500D03*
X74842500Y-95362500D03*
X72250000Y-55500000D03*
X75350000Y-55500000D03*
D18*
X52150000Y-51345000D03*
X52150000Y-52615000D03*
X52150000Y-53885000D03*
X52150000Y-55155000D03*
X61850000Y-55155000D03*
X61850000Y-53885000D03*
X61850000Y-52615000D03*
X61850000Y-51345000D03*
D14*
X127400000Y-30400000D03*
X130500000Y-30400000D03*
D19*
X43850000Y-97877500D03*
X45850000Y-97877500D03*
D20*
X65592500Y-100382500D03*
X65592500Y-98657500D03*
D14*
X127400000Y-27600000D03*
X130500000Y-27600000D03*
D21*
X99310000Y-141027500D03*
D22*
X91690000Y-141027500D03*
D23*
X48092500Y-64135000D03*
D24*
X50632500Y-64135000D03*
X55712500Y-64135000D03*
X60792500Y-64135000D03*
D14*
X116900000Y-30400000D03*
X120000000Y-30400000D03*
X72250000Y-50250000D03*
X75350000Y-50250000D03*
X132650000Y-27600000D03*
X135750000Y-27600000D03*
X71500000Y-121550000D03*
X74600000Y-121550000D03*
D12*
X48850000Y-52750000D03*
X48850000Y-54750000D03*
D19*
X44660000Y-52750000D03*
X46660000Y-52750000D03*
D14*
X72250000Y-52900000D03*
X75350000Y-52900000D03*
X122150000Y-27600000D03*
X125250000Y-27600000D03*
X72500000Y-76850000D03*
X75600000Y-76850000D03*
D12*
X49100000Y-32350000D03*
X49100000Y-34350000D03*
D25*
X79100000Y-37850000D03*
X79100000Y-34850000D03*
D26*
X50525000Y-26680000D03*
X52600000Y-26680000D03*
D27*
X93500000Y-97750000D03*
X108500000Y-97750000D03*
D28*
X125342169Y-67500000D03*
D29*
X135342169Y-67500000D03*
D28*
X159157832Y-44500000D03*
D29*
X149157832Y-44500000D03*
D20*
X65750000Y-122537500D03*
X65750000Y-120812500D03*
D14*
X137850000Y-30400000D03*
X140950000Y-30400000D03*
D30*
X50220000Y-72885000D03*
X51945000Y-72885000D03*
D28*
X125342169Y-91000000D03*
D29*
X135342169Y-91000000D03*
D14*
X143100000Y-30400000D03*
X146200000Y-30400000D03*
D23*
X48142500Y-84657500D03*
D24*
X50682500Y-84657500D03*
X55762500Y-84657500D03*
X60842500Y-84657500D03*
D15*
X99420000Y-19000000D03*
D16*
X104500000Y-19000000D03*
X107040000Y-19000000D03*
X109580000Y-19000000D03*
D26*
X49932500Y-114220000D03*
X52007500Y-114220000D03*
D31*
X37750000Y-21500000D03*
D32*
X32750000Y-21500000D03*
D13*
X68400000Y-35150000D03*
X68400000Y-33075000D03*
D12*
X48500000Y-119750000D03*
X48500000Y-121750000D03*
D25*
X78600000Y-124750000D03*
X78600000Y-121750000D03*
D14*
X71842500Y-104157500D03*
X74942500Y-104157500D03*
X137900000Y-27600000D03*
X141000000Y-27600000D03*
D23*
X48555000Y-20165000D03*
D24*
X51095000Y-20165000D03*
X56175000Y-20165000D03*
X61255000Y-20165000D03*
D30*
X36025000Y-33500000D03*
X37750000Y-33500000D03*
D33*
X156472500Y-28810000D03*
D34*
X156472500Y-21190000D03*
D26*
X49812500Y-91877500D03*
X51887500Y-91877500D03*
D19*
X44825000Y-32370000D03*
X46825000Y-32370000D03*
D26*
X50120000Y-70885000D03*
X52195000Y-70885000D03*
D25*
X78250000Y-58550000D03*
X78250000Y-55550000D03*
D30*
X50690000Y-28400000D03*
X52415000Y-28400000D03*
D35*
X150470000Y-140100000D03*
D36*
X150470000Y-127400000D03*
D19*
X36762500Y-39750000D03*
X38762500Y-39750000D03*
D30*
X49995000Y-115970000D03*
X51720000Y-115970000D03*
D20*
X65750000Y-55112500D03*
X65750000Y-53387500D03*
D14*
X71485000Y-127770000D03*
X74585000Y-127770000D03*
X116900000Y-27600000D03*
X120000000Y-27600000D03*
D13*
X67500000Y-122575000D03*
X67500000Y-120500000D03*
D26*
X50175000Y-47250000D03*
X52250000Y-47250000D03*
D14*
X72500000Y-74400000D03*
X75600000Y-74400000D03*
D15*
X135000000Y-19000000D03*
D16*
X140080000Y-19000000D03*
X142620000Y-19000000D03*
X145160000Y-19000000D03*
D27*
X88750000Y-45750000D03*
X116250000Y-45750000D03*
D23*
X47742500Y-40535000D03*
D24*
X50282500Y-40535000D03*
X55362500Y-40535000D03*
X60442500Y-40535000D03*
D19*
X44500000Y-119750000D03*
X46500000Y-119750000D03*
D14*
X71500000Y-119030000D03*
X74600000Y-119030000D03*
D27*
X93500000Y-71250000D03*
X108500000Y-71250000D03*
D23*
X48347500Y-107205000D03*
D24*
X50887500Y-107205000D03*
X55967500Y-107205000D03*
X61047500Y-107205000D03*
D14*
X72500000Y-79315000D03*
X75600000Y-79315000D03*
X72300000Y-58800000D03*
X75400000Y-58800000D03*
X73200000Y-38250000D03*
X76300000Y-38250000D03*
X132700000Y-30400000D03*
X135800000Y-30400000D03*
X72300000Y-61300000D03*
X75400000Y-61300000D03*
D27*
X88750000Y-59500000D03*
X116250000Y-59500000D03*
D15*
X117250000Y-19000000D03*
D16*
X122330000Y-19000000D03*
X124870000Y-19000000D03*
X127410000Y-19000000D03*
D25*
X78592500Y-101257500D03*
X78592500Y-98257500D03*
D28*
X159185664Y-113250000D03*
D29*
X149185664Y-113250000D03*
D37*
X109500000Y-127250000D03*
X109500000Y-106450000D03*
D25*
X78500000Y-82700000D03*
X78500000Y-79700000D03*
D18*
X51807500Y-118660000D03*
X51807500Y-119930000D03*
X51807500Y-121200000D03*
X51807500Y-122470000D03*
X61507500Y-122470000D03*
X61507500Y-121200000D03*
X61507500Y-119930000D03*
X61507500Y-118660000D03*
D14*
X73100000Y-32350000D03*
X76200000Y-32350000D03*
X73192500Y-40795000D03*
X76292500Y-40795000D03*
D13*
X67350000Y-80073750D03*
X67350000Y-77998750D03*
D31*
X34250000Y-73750000D03*
D32*
X34250000Y-68750000D03*
D14*
X72650000Y-85400000D03*
X75750000Y-85400000D03*
D13*
X67550000Y-55250000D03*
X67550000Y-53175000D03*
D14*
X71742500Y-92657500D03*
X74842500Y-92657500D03*
D31*
X34250000Y-80250000D03*
D32*
X34250000Y-85250000D03*
D28*
X125342169Y-43500000D03*
D29*
X135342169Y-43500000D03*
D30*
X49912500Y-93877500D03*
X51637500Y-93877500D03*
D15*
X163500000Y-128500000D03*
D16*
X163500000Y-133580000D03*
X163500000Y-136120000D03*
X163500000Y-138660000D03*
D27*
X93500000Y-80250000D03*
X108500000Y-80250000D03*
D14*
X71742500Y-98027500D03*
X74842500Y-98027500D03*
D27*
X93500000Y-89000000D03*
X108500000Y-89000000D03*
D14*
X71500000Y-116550000D03*
X74600000Y-116550000D03*
D18*
X51750000Y-96722500D03*
X51750000Y-97992500D03*
X51750000Y-99262500D03*
X51750000Y-100532500D03*
X61450000Y-100532500D03*
X61450000Y-99262500D03*
X61450000Y-97992500D03*
X61450000Y-96722500D03*
D20*
X65550000Y-79862500D03*
X65550000Y-78137500D03*
D28*
X159000001Y-90250000D03*
D29*
X149000001Y-90250000D03*
D20*
X66600000Y-35025000D03*
X66600000Y-33300000D03*
D14*
X72600000Y-82850000D03*
X75700000Y-82850000D03*
X73050000Y-29900000D03*
X76150000Y-29900000D03*
D12*
X48850000Y-77650000D03*
X48850000Y-79650000D03*
D30*
X50365000Y-49220000D03*
X52090000Y-49220000D03*
D14*
X143100000Y-27600000D03*
X146200000Y-27600000D03*
D38*
X31275000Y-39750000D03*
X34250000Y-39750000D03*
D19*
X44600000Y-77650000D03*
X46600000Y-77650000D03*
D14*
X71500000Y-125250000D03*
X74600000Y-125250000D03*
D28*
X159000001Y-67250000D03*
D29*
X149000001Y-67250000D03*
D14*
X73100000Y-34850000D03*
X76200000Y-34850000D03*
D18*
X52500000Y-31245000D03*
X52500000Y-32515000D03*
X52500000Y-33785000D03*
X52500000Y-35055000D03*
X62200000Y-35055000D03*
X62200000Y-33785000D03*
X62200000Y-32515000D03*
X62200000Y-31245000D03*
D35*
X139820000Y-140100000D03*
D36*
X139820000Y-127400000D03*
D31*
X34250000Y-50750000D03*
D32*
X34250000Y-55750000D03*
X34250000Y-60750000D03*
D39*
X147950000Y-29100000D03*
X51750000Y-39000000D03*
X52000000Y-105250000D03*
X51500000Y-82000000D03*
X51750000Y-59500000D03*
X70100000Y-120750000D03*
X63250000Y-122470000D03*
X70250000Y-28500000D03*
X64275000Y-34975000D03*
X69250000Y-49000000D03*
X64000000Y-55250000D03*
X69250000Y-75750000D03*
X63750000Y-80000000D03*
X69842500Y-98157500D03*
X63592500Y-100532500D03*
X41000000Y-39750000D03*
X51750000Y-89500000D03*
X52500000Y-24500000D03*
X52000000Y-68750000D03*
X52000000Y-112000000D03*
X52250000Y-45250000D03*
X114950000Y-29100000D03*
X63250000Y-121200000D03*
X78600000Y-120250000D03*
X63250000Y-119991217D03*
X69500000Y-119000000D03*
X71250000Y-32350000D03*
X64350000Y-32515000D03*
X64350000Y-33785000D03*
X79100000Y-33500000D03*
X78250000Y-54000000D03*
X64000000Y-54000000D03*
X70750000Y-52900000D03*
X64000000Y-52750000D03*
X63750000Y-77500000D03*
X70750000Y-77000000D03*
X78600000Y-78400000D03*
X63750000Y-78750000D03*
X63592500Y-97907500D03*
X70092500Y-95407500D03*
X63592500Y-99157500D03*
X78592500Y-96657500D03*
X63250000Y-118750000D03*
X64350000Y-31245000D03*
X64000000Y-51250000D03*
X63750000Y-76250000D03*
X63592500Y-96657500D03*
D40*
X146200000Y-29100000D02*
X146200000Y-30400000D01*
X147950000Y-29100000D02*
X146200000Y-29100000D01*
X146200000Y-27600000D02*
X146200000Y-29100000D01*
X149157832Y-67092169D02*
X149000001Y-67250000D01*
X162412169Y-129012169D02*
X162570000Y-129170000D01*
X159157832Y-67092169D02*
X159000001Y-67250000D01*
X67500000Y-122575000D02*
X67687500Y-122575000D01*
X69512500Y-120750000D02*
X70100000Y-120750000D01*
X63250000Y-122470000D02*
X61507500Y-122470000D01*
X67395000Y-122470000D02*
X67500000Y-122575000D01*
X61507500Y-122470000D02*
X67395000Y-122470000D01*
X67687500Y-122575000D02*
X69512500Y-120750000D01*
X68400000Y-35150000D02*
X70250000Y-33300000D01*
X68225000Y-34975000D02*
X68400000Y-35150000D01*
X64275000Y-34975000D02*
X68225000Y-34975000D01*
X64275000Y-34975000D02*
X64195000Y-35055000D01*
X64195000Y-35055000D02*
X62200000Y-35055000D01*
X70250000Y-33300000D02*
X70250000Y-28500000D01*
X63905000Y-55155000D02*
X64000000Y-55250000D01*
X64000000Y-55250000D02*
X64025000Y-55275000D01*
X64025000Y-55275000D02*
X67550000Y-55275000D01*
X61850000Y-55155000D02*
X63905000Y-55155000D01*
X69250000Y-54500000D02*
X69250000Y-49000000D01*
X67550000Y-55250000D02*
X68500000Y-55250000D01*
X68500000Y-55250000D02*
X69250000Y-54500000D01*
X67350000Y-80073750D02*
X69250000Y-78173750D01*
X61700000Y-80055000D02*
X63695000Y-80055000D01*
X69250000Y-78173750D02*
X69250000Y-75750000D01*
X63750000Y-80000000D02*
X63823750Y-80073750D01*
X63695000Y-80055000D02*
X63750000Y-80000000D01*
X63823750Y-80073750D02*
X67350000Y-80073750D01*
X69842500Y-98157500D02*
X67517500Y-100482500D01*
X63592500Y-100532500D02*
X67292500Y-100532500D01*
X63592500Y-100532500D02*
X61450000Y-100532500D01*
X38762500Y-37762500D02*
X37750000Y-36750000D01*
X51750000Y-96722500D02*
X51750000Y-89500000D01*
X52000000Y-112000000D02*
X52000000Y-112250000D01*
X52250000Y-45250000D02*
X52250000Y-51245000D01*
X51720000Y-115970000D02*
X51720000Y-114507500D01*
X38762500Y-39750000D02*
X41000000Y-39750000D01*
X51720000Y-114507500D02*
X52007500Y-114220000D01*
X52250000Y-51245000D02*
X52150000Y-51345000D01*
X52250000Y-45250000D02*
X52150000Y-45350000D01*
X51720000Y-118572500D02*
X51807500Y-118660000D01*
X37750000Y-29500000D02*
X37750000Y-33500000D01*
X52000000Y-112250000D02*
X52007500Y-112257500D01*
X51720000Y-115970000D02*
X51720000Y-118572500D01*
X52000000Y-68750000D02*
X52000000Y-76245000D01*
X37750000Y-21500000D02*
X37750000Y-29000000D01*
X37750000Y-36750000D02*
X37750000Y-33500000D01*
X52007500Y-112257500D02*
X52007500Y-114220000D01*
X51657500Y-89592500D02*
X51750000Y-89500000D01*
X52500000Y-26500000D02*
X52500000Y-30495000D01*
X52500000Y-31245000D02*
X52500000Y-24500000D01*
X51900000Y-68850000D02*
X52000000Y-68750000D01*
X38762500Y-37762500D02*
X38762500Y-39750000D01*
X116900000Y-29100000D02*
X116900000Y-27600000D01*
X114950000Y-29100000D02*
X116900000Y-29100000D01*
X116900000Y-30400000D02*
X116900000Y-29100000D01*
X151390000Y-139180000D02*
X150470000Y-140100000D01*
X36762500Y-39750000D02*
X34250000Y-39750000D01*
X63250000Y-121200000D02*
X61507500Y-121200000D01*
X51807500Y-119930000D02*
X46680000Y-119930000D01*
X46680000Y-119930000D02*
X46500000Y-119750000D01*
X69500000Y-119030000D02*
X69500000Y-119000000D01*
X69500000Y-119000000D02*
X71500000Y-119030000D01*
X71500000Y-116550000D02*
X71500000Y-121550000D01*
X63368783Y-119991217D02*
X63430000Y-119930000D01*
X71485000Y-121945000D02*
X71485000Y-127770000D01*
X63188783Y-119930000D02*
X63250000Y-119991217D01*
X61507500Y-119930000D02*
X63188783Y-119930000D01*
X63250000Y-119991217D02*
X63368783Y-119991217D01*
X46825000Y-32370000D02*
X52355000Y-32370000D01*
X73050000Y-40652500D02*
X73192500Y-40795000D01*
X64350000Y-32515000D02*
X62200000Y-32515000D01*
X71250000Y-32350000D02*
X73100000Y-32350000D01*
X73050000Y-29900000D02*
X73050000Y-40652500D01*
X64350000Y-33785000D02*
X62200000Y-33785000D01*
X46660000Y-52750000D02*
X52015000Y-52750000D01*
X64000000Y-54000000D02*
X63885000Y-53885000D01*
X61850000Y-53885000D02*
X63885000Y-53885000D01*
X72250000Y-50250000D02*
X72250000Y-61250000D01*
X63865000Y-52615000D02*
X64000000Y-52750000D01*
X70750000Y-52900000D02*
X72250000Y-52900000D01*
X72250000Y-61250000D02*
X72300000Y-61300000D01*
X61850000Y-52615000D02*
X63865000Y-52615000D01*
X61700000Y-77515000D02*
X63735000Y-77515000D01*
X63735000Y-77515000D02*
X63750000Y-77500000D01*
X72500000Y-85250000D02*
X72650000Y-85400000D01*
X72500000Y-79315000D02*
X72500000Y-85250000D01*
X72500000Y-79315000D02*
X72500000Y-74400000D01*
X70750000Y-77000000D02*
X72350000Y-77000000D01*
X72350000Y-77000000D02*
X72500000Y-76850000D01*
X46600000Y-77650000D02*
X51865000Y-77650000D01*
X63715000Y-78785000D02*
X63750000Y-78750000D01*
X61700000Y-78785000D02*
X63715000Y-78785000D01*
X48460000Y-97832500D02*
X51590000Y-97832500D01*
X45850000Y-97877500D02*
X48415000Y-97877500D01*
X61450000Y-97992500D02*
X63507500Y-97992500D01*
X71742500Y-92657500D02*
X71742500Y-104057500D01*
X70092500Y-95407500D02*
X71697500Y-95407500D01*
X44660000Y-52750000D02*
X44660000Y-58340000D01*
X44660000Y-58340000D02*
X34250000Y-68750000D01*
X40700000Y-73750000D02*
X44600000Y-77650000D01*
X34250000Y-73750000D02*
X40700000Y-73750000D01*
X34250000Y-85250000D02*
X34250000Y-88277500D01*
X34250000Y-88277500D02*
X43850000Y-97877500D01*
X31500000Y-68250000D02*
X40000000Y-59750000D01*
X34250000Y-80250000D02*
X31500000Y-77500000D01*
X43500000Y-33750000D02*
X44825000Y-32425000D01*
X40000000Y-59750000D02*
X40000000Y-44000000D01*
X43500000Y-40500000D02*
X43500000Y-33750000D01*
X44825000Y-32425000D02*
X44825000Y-32370000D01*
X40000000Y-44000000D02*
X43500000Y-40500000D01*
X31500000Y-77500000D02*
X31500000Y-68250000D01*
X44600000Y-32000000D02*
X44910000Y-32000000D01*
X29750000Y-60250000D02*
X29750000Y-105000000D01*
X29750000Y-105000000D02*
X44500000Y-119750000D01*
X34250000Y-55750000D02*
X29750000Y-60250000D01*
X61450000Y-99262500D02*
X63487500Y-99262500D01*
X122150000Y-27600000D02*
X120000000Y-27600000D01*
X122150000Y-30400000D02*
X122150000Y-27600000D01*
X122150000Y-30400000D02*
X120000000Y-30400000D01*
X120000000Y-30400000D02*
X120000000Y-27600000D01*
X125250000Y-30400000D02*
X125250000Y-27600000D01*
X127400000Y-27600000D02*
X125250000Y-27600000D01*
X127400000Y-30400000D02*
X127400000Y-27600000D01*
X125250000Y-30400000D02*
X127400000Y-30400000D01*
X130500000Y-30400000D02*
X132700000Y-30400000D01*
X130500000Y-27600000D02*
X130500000Y-30400000D01*
X132700000Y-27650000D02*
X132650000Y-27600000D01*
X132650000Y-27600000D02*
X130500000Y-27600000D01*
X132700000Y-30400000D02*
X132700000Y-27650000D01*
X132650000Y-30350000D02*
X132700000Y-30400000D01*
X137850000Y-30400000D02*
X137850000Y-27650000D01*
X137900000Y-30350000D02*
X137850000Y-30400000D01*
X137900000Y-27600000D02*
X135750000Y-27600000D01*
X137850000Y-27650000D02*
X137900000Y-27600000D01*
X135750000Y-30350000D02*
X135800000Y-30400000D01*
X135750000Y-27600000D02*
X135750000Y-30350000D01*
X135800000Y-30400000D02*
X137850000Y-30400000D01*
X140950000Y-30400000D02*
X140950000Y-27650000D01*
X140950000Y-27650000D02*
X141000000Y-27600000D01*
X141000000Y-30350000D02*
X140950000Y-30400000D01*
X143100000Y-27600000D02*
X143100000Y-30400000D01*
X143100000Y-27600000D02*
X141000000Y-27600000D01*
X143100000Y-30400000D02*
X140950000Y-30400000D01*
X61560000Y-118712500D02*
X61507500Y-118660000D01*
X63250000Y-118750000D02*
X63687500Y-118750000D01*
X67500000Y-120500000D02*
X66062500Y-120500000D01*
X63250000Y-118750000D02*
X61597500Y-118750000D01*
X66062500Y-120500000D02*
X65750000Y-120812500D01*
X61597500Y-118750000D02*
X61507500Y-118660000D01*
X63687500Y-118750000D02*
X65750000Y-120812500D01*
X64350000Y-31245000D02*
X64545000Y-31245000D01*
X66600000Y-33300000D02*
X68175000Y-33300000D01*
X64350000Y-31245000D02*
X62200000Y-31245000D01*
X64545000Y-31245000D02*
X66600000Y-33300000D01*
X68175000Y-33300000D02*
X68400000Y-33075000D01*
X66050000Y-53200000D02*
X65750000Y-53500000D01*
X64000000Y-51250000D02*
X65750000Y-53000000D01*
X63905000Y-51345000D02*
X64000000Y-51250000D01*
X61850000Y-51345000D02*
X63905000Y-51345000D01*
X65750000Y-53000000D02*
X65750000Y-53500000D01*
X67550000Y-53200000D02*
X66050000Y-53200000D01*
X61700000Y-76245000D02*
X63745000Y-76245000D01*
X65550000Y-78050000D02*
X65550000Y-78137500D01*
X63750000Y-76250000D02*
X65550000Y-78050000D01*
X65852500Y-77998750D02*
X65550000Y-78301250D01*
X63745000Y-76245000D02*
X63750000Y-76250000D01*
X65550000Y-78137500D02*
X67211250Y-78137500D01*
X67211250Y-78137500D02*
X67350000Y-77998750D01*
X61450000Y-96722500D02*
X63407500Y-96722500D01*
X67342500Y-98407500D02*
X65842500Y-98407500D01*
X63592500Y-96657500D02*
X65592500Y-98657500D01*
G04 #@! TA.AperFunction,Conductor*
G36*
X79535539Y-91427185D02*
G01*
X79581294Y-91479989D01*
X79592500Y-91531500D01*
X79592500Y-99283500D01*
X79572815Y-99350539D01*
X79520011Y-99396294D01*
X79468500Y-99407500D01*
X73966500Y-99407500D01*
X73899461Y-99387815D01*
X73853706Y-99335011D01*
X73842500Y-99283500D01*
X73842500Y-91531500D01*
X73862185Y-91464461D01*
X73914989Y-91418706D01*
X73966500Y-91407500D01*
X79468500Y-91407500D01*
X79535539Y-91427185D01*
G37*
G04 #@! TD.AperFunction*
G04 #@! TA.AperFunction,Conductor*
G36*
X119311971Y-43252381D02*
G01*
X119352346Y-43260412D01*
X119397043Y-43278927D01*
X119420913Y-43294877D01*
X119455122Y-43329086D01*
X119471072Y-43352956D01*
X119489588Y-43397655D01*
X119497617Y-43438022D01*
X119500000Y-43462210D01*
X119500000Y-44498246D01*
X119499999Y-44498839D01*
X119499995Y-44499675D01*
X119499988Y-44500526D01*
X119499980Y-44501213D01*
X119499974Y-44501648D01*
X119250938Y-60938089D01*
X119249624Y-60954308D01*
X119245561Y-60981848D01*
X119236656Y-61013076D01*
X119225577Y-61038629D01*
X119218139Y-61053100D01*
X114025134Y-69708108D01*
X114025130Y-69708116D01*
X114000000Y-69750000D01*
X113997006Y-69798748D01*
X113997006Y-69798750D01*
X113997006Y-69798752D01*
X112255331Y-98163163D01*
X112251941Y-98185318D01*
X112242807Y-98222270D01*
X112224464Y-98262978D01*
X112202832Y-98294302D01*
X112188479Y-98311520D01*
X106800334Y-103699665D01*
X106800329Y-103699670D01*
X106750000Y-103750000D01*
X106742784Y-103820810D01*
X106742783Y-103820815D01*
X102769863Y-142805097D01*
X102763134Y-142834631D01*
X102745908Y-142882347D01*
X102712394Y-142932259D01*
X102686422Y-142955719D01*
X102633367Y-142984002D01*
X102611014Y-142989588D01*
X102584147Y-142996301D01*
X102554088Y-143000000D01*
X96962211Y-143000000D01*
X96938020Y-142997617D01*
X96922744Y-142994578D01*
X96897656Y-142989588D01*
X96852956Y-142971072D01*
X96829086Y-142955122D01*
X96794877Y-142920913D01*
X96778927Y-142897043D01*
X96760412Y-142852346D01*
X96752381Y-142811971D01*
X96750000Y-142787789D01*
X96750000Y-140261744D01*
X96750040Y-140258612D01*
X96750177Y-140253190D01*
X96750495Y-140246906D01*
X96750919Y-140241356D01*
X96751188Y-140238345D01*
X103249615Y-76503771D01*
X103249700Y-76502975D01*
X103249918Y-76500999D01*
X103250159Y-76498980D01*
X103250394Y-76497140D01*
X103250532Y-76496095D01*
X104170455Y-69750000D01*
X107725432Y-43680164D01*
X107732587Y-43652338D01*
X107749947Y-43607285D01*
X107782181Y-43560176D01*
X107806894Y-43537680D01*
X107856814Y-43510006D01*
X107903303Y-43496943D01*
X107931670Y-43492430D01*
X113745220Y-43250198D01*
X113746514Y-43250152D01*
X113748769Y-43250082D01*
X113751245Y-43250030D01*
X113753655Y-43250005D01*
X113754767Y-43250000D01*
X119287789Y-43250000D01*
X119311971Y-43252381D01*
G37*
G04 #@! TD.AperFunction*
G04 #@! TA.AperFunction,Conductor*
G36*
X80043039Y-28669685D02*
G01*
X80088794Y-28722489D01*
X80100000Y-28774000D01*
X80100000Y-36026000D01*
X80080315Y-36093039D01*
X80027511Y-36138794D01*
X79976000Y-36150000D01*
X75224000Y-36150000D01*
X75156961Y-36130315D01*
X75111206Y-36077511D01*
X75100000Y-36026000D01*
X75100000Y-28774000D01*
X75119685Y-28706961D01*
X75172489Y-28661206D01*
X75224000Y-28650000D01*
X79976000Y-28650000D01*
X80043039Y-28669685D01*
G37*
G04 #@! TD.AperFunction*
G04 #@! TA.AperFunction,Conductor*
G36*
X79535539Y-100177185D02*
G01*
X79581294Y-100229989D01*
X79592500Y-100281500D01*
X79592500Y-105283500D01*
X79572815Y-105350539D01*
X79520011Y-105396294D01*
X79468500Y-105407500D01*
X73966500Y-105407500D01*
X73899461Y-105387815D01*
X73853706Y-105335011D01*
X73842500Y-105283500D01*
X73842500Y-100281500D01*
X73862185Y-100214461D01*
X73914989Y-100168706D01*
X73966500Y-100157500D01*
X79468500Y-100157500D01*
X79535539Y-100177185D01*
G37*
G04 #@! TD.AperFunction*
G04 #@! TA.AperFunction,Conductor*
G36*
X79543039Y-73169685D02*
G01*
X79588794Y-73222489D01*
X79600000Y-73274000D01*
X79600000Y-80526000D01*
X79580315Y-80593039D01*
X79527511Y-80638794D01*
X79476000Y-80650000D01*
X74724000Y-80650000D01*
X74656961Y-80630315D01*
X74611206Y-80577511D01*
X74600000Y-80526000D01*
X74600000Y-73274000D01*
X74619685Y-73206961D01*
X74672489Y-73161206D01*
X74724000Y-73150000D01*
X79476000Y-73150000D01*
X79543039Y-73169685D01*
G37*
G04 #@! TD.AperFunction*
G04 #@! TA.AperFunction,Conductor*
G36*
X80043039Y-36919685D02*
G01*
X80088794Y-36972489D01*
X80100000Y-37024000D01*
X80100000Y-42026000D01*
X80080315Y-42093039D01*
X80027511Y-42138794D01*
X79976000Y-42150000D01*
X75474000Y-42150000D01*
X75406961Y-42130315D01*
X75361206Y-42077511D01*
X75350000Y-42026000D01*
X75350000Y-37024000D01*
X75369685Y-36956961D01*
X75422489Y-36911206D01*
X75474000Y-36900000D01*
X79976000Y-36900000D01*
X80043039Y-36919685D01*
G37*
G04 #@! TD.AperFunction*
G04 #@! TA.AperFunction,Conductor*
G36*
X79543039Y-115269685D02*
G01*
X79588794Y-115322489D01*
X79600000Y-115374000D01*
X79600000Y-122626000D01*
X79580315Y-122693039D01*
X79527511Y-122738794D01*
X79476000Y-122750000D01*
X73474000Y-122750000D01*
X73406961Y-122730315D01*
X73361206Y-122677511D01*
X73350000Y-122626000D01*
X73350000Y-115374000D01*
X73369685Y-115306961D01*
X73422489Y-115261206D01*
X73474000Y-115250000D01*
X79476000Y-115250000D01*
X79543039Y-115269685D01*
G37*
G04 #@! TD.AperFunction*
G04 #@! TA.AperFunction,Conductor*
G36*
X80028039Y-123914685D02*
G01*
X80073794Y-123967489D01*
X80085000Y-124019000D01*
X80085000Y-129021000D01*
X80065315Y-129088039D01*
X80012511Y-129133794D01*
X79961000Y-129145000D01*
X73709000Y-129145000D01*
X73641961Y-129125315D01*
X73596206Y-129072511D01*
X73585000Y-129021000D01*
X73585000Y-124019000D01*
X73604685Y-123951961D01*
X73657489Y-123906206D01*
X73709000Y-123895000D01*
X79961000Y-123895000D01*
X80028039Y-123914685D01*
G37*
G04 #@! TD.AperFunction*
G04 #@! TA.AperFunction,Conductor*
G36*
X79193039Y-49019685D02*
G01*
X79238794Y-49072489D01*
X79250000Y-49124000D01*
X79250000Y-56626000D01*
X79230315Y-56693039D01*
X79177511Y-56738794D01*
X79126000Y-56750000D01*
X74374000Y-56750000D01*
X74306961Y-56730315D01*
X74261206Y-56677511D01*
X74250000Y-56626000D01*
X74250000Y-49124000D01*
X74269685Y-49056961D01*
X74322489Y-49011206D01*
X74374000Y-49000000D01*
X79126000Y-49000000D01*
X79193039Y-49019685D01*
G37*
G04 #@! TD.AperFunction*
G04 #@! TA.AperFunction,Conductor*
G36*
X79543039Y-81669685D02*
G01*
X79588794Y-81722489D01*
X79600000Y-81774000D01*
X79600000Y-86526000D01*
X79580315Y-86593039D01*
X79527511Y-86638794D01*
X79476000Y-86650000D01*
X74724000Y-86650000D01*
X74656961Y-86630315D01*
X74611206Y-86577511D01*
X74600000Y-86526000D01*
X74600000Y-81774000D01*
X74619685Y-81706961D01*
X74672489Y-81661206D01*
X74724000Y-81650000D01*
X79476000Y-81650000D01*
X79543039Y-81669685D01*
G37*
G04 #@! TD.AperFunction*
G04 #@! TA.AperFunction,Conductor*
G36*
X79193039Y-57519685D02*
G01*
X79238794Y-57572489D01*
X79250000Y-57624000D01*
X79250000Y-62376000D01*
X79230315Y-62443039D01*
X79177511Y-62488794D01*
X79126000Y-62500000D01*
X74374000Y-62500000D01*
X74306961Y-62480315D01*
X74261206Y-62427511D01*
X74250000Y-62376000D01*
X74250000Y-57624000D01*
X74269685Y-57556961D01*
X74322489Y-57511206D01*
X74374000Y-57500000D01*
X79126000Y-57500000D01*
X79193039Y-57519685D01*
G37*
G04 #@! TD.AperFunction*
G04 #@! TA.AperFunction,Conductor*
G36*
X119061971Y-17252381D02*
G01*
X119102346Y-17260412D01*
X119147043Y-17278927D01*
X119170913Y-17294877D01*
X119205122Y-17329086D01*
X119221072Y-17352956D01*
X119239588Y-17397655D01*
X119247617Y-17438022D01*
X119250000Y-17462210D01*
X119250000Y-20927707D01*
X119248566Y-20946509D01*
X119243687Y-20978314D01*
X119232417Y-21014185D01*
X119218233Y-21043059D01*
X119208657Y-21059301D01*
X116850333Y-24442062D01*
X116838688Y-24456367D01*
X116817048Y-24479240D01*
X116788084Y-24501915D01*
X116760686Y-24517433D01*
X116744007Y-24525303D01*
X115208926Y-25114432D01*
X112312097Y-26226168D01*
X112312093Y-26226169D01*
X112250000Y-26250000D01*
X112214546Y-26306262D01*
X112214543Y-26306266D01*
X112214543Y-26306267D01*
X100778771Y-44454339D01*
X100778769Y-44454343D01*
X100778766Y-44454348D01*
X100750000Y-44500000D01*
X100748104Y-44553931D01*
X100748103Y-44553938D01*
X98500268Y-108492362D01*
X98500180Y-108494407D01*
X98499997Y-108497947D01*
X98499719Y-108502023D01*
X98499421Y-108505537D01*
X98499231Y-108507574D01*
X95019782Y-142805001D01*
X95013064Y-142834544D01*
X94995853Y-142882279D01*
X94962341Y-142932221D01*
X94942047Y-142950561D01*
X94936365Y-142955696D01*
X94883301Y-142983992D01*
X94863824Y-142988861D01*
X94834070Y-142996298D01*
X94804002Y-143000000D01*
X88966904Y-143000000D01*
X88942376Y-142997549D01*
X88917233Y-142992475D01*
X88901481Y-142989296D01*
X88856263Y-142970270D01*
X88832216Y-142953909D01*
X88797918Y-142918837D01*
X88782094Y-142894424D01*
X88764086Y-142848799D01*
X88756746Y-142807719D01*
X88754845Y-142783153D01*
X89520803Y-108506565D01*
X89750000Y-98250000D01*
X89500000Y-68250000D01*
X89480685Y-68209761D01*
X89480684Y-68209757D01*
X86522698Y-62047288D01*
X86517407Y-62034474D01*
X86509572Y-62012013D01*
X86503430Y-61985019D01*
X86500775Y-61961380D01*
X86500000Y-61947540D01*
X86500000Y-43074635D01*
X86501521Y-43055273D01*
X86506699Y-43022534D01*
X86518652Y-42985695D01*
X86533686Y-42956142D01*
X86543811Y-42939592D01*
X102961901Y-20302531D01*
X102961901Y-20302529D01*
X103000000Y-20250000D01*
X103000000Y-17712210D01*
X103002381Y-17688029D01*
X103010412Y-17647651D01*
X103028927Y-17602956D01*
X103044877Y-17579086D01*
X103079086Y-17544877D01*
X103102956Y-17528927D01*
X103147653Y-17510412D01*
X103188027Y-17502381D01*
X103212211Y-17500000D01*
X105521209Y-17500000D01*
X105546565Y-17502620D01*
X105568308Y-17507162D01*
X105588735Y-17511429D01*
X105635208Y-17531733D01*
X105659653Y-17549105D01*
X105694112Y-17586317D01*
X105709557Y-17612022D01*
X105726235Y-17659912D01*
X105731784Y-17702628D01*
X105732452Y-17728113D01*
X105713879Y-17969545D01*
X105695972Y-18024823D01*
X105560376Y-18246096D01*
X105460655Y-18486845D01*
X105399825Y-18740224D01*
X105379381Y-19000000D01*
X105399825Y-19259775D01*
X105460655Y-19513154D01*
X105562242Y-19758405D01*
X105560388Y-19759172D01*
X105571818Y-19816353D01*
X105519231Y-20500000D01*
X105500000Y-20750000D01*
X109281684Y-20635403D01*
X109314386Y-20638773D01*
X109320222Y-20640174D01*
X109580000Y-20660619D01*
X109839778Y-20640174D01*
X109930722Y-20618340D01*
X109955905Y-20614972D01*
X111261031Y-20575423D01*
X113634668Y-20503495D01*
X113634668Y-20503494D01*
X113634671Y-20503494D01*
X113634671Y-20503493D01*
X113750000Y-20500000D01*
X113804704Y-20398407D01*
X113884616Y-20250000D01*
X114118118Y-19816353D01*
X115435407Y-17369959D01*
X115454964Y-17343052D01*
X115493254Y-17303020D01*
X115549881Y-17269197D01*
X115564282Y-17265224D01*
X115603275Y-17254466D01*
X115636254Y-17250000D01*
X119037789Y-17250000D01*
X119061971Y-17252381D01*
G37*
G04 #@! TD.AperFunction*
G04 #@! TA.AperFunction,Conductor*
G36*
X52443526Y-15769685D02*
G01*
X52489281Y-15822489D01*
X52500486Y-15873512D01*
X52515533Y-19695440D01*
X52496113Y-19762556D01*
X52443489Y-19808519D01*
X52374370Y-19818734D01*
X52310701Y-19789960D01*
X52276606Y-19740648D01*
X52276391Y-19740749D01*
X52275801Y-19739483D01*
X52275015Y-19738347D01*
X52274103Y-19735844D01*
X52181667Y-19537614D01*
X52181666Y-19537612D01*
X52138124Y-19475428D01*
X52138124Y-19475427D01*
X51577962Y-20035589D01*
X51560925Y-19972007D01*
X51495099Y-19857993D01*
X51402007Y-19764901D01*
X51287993Y-19699075D01*
X51224409Y-19682037D01*
X51784571Y-19121874D01*
X51722387Y-19078333D01*
X51524159Y-18985898D01*
X51524150Y-18985894D01*
X51312894Y-18929289D01*
X51312884Y-18929287D01*
X51095001Y-18910225D01*
X51094999Y-18910225D01*
X50877115Y-18929287D01*
X50877105Y-18929289D01*
X50665849Y-18985894D01*
X50665840Y-18985898D01*
X50467613Y-19078333D01*
X50405428Y-19121874D01*
X50965591Y-19682037D01*
X50902007Y-19699075D01*
X50787993Y-19764901D01*
X50694901Y-19857993D01*
X50629075Y-19972007D01*
X50612037Y-20035591D01*
X50051874Y-19475428D01*
X50031075Y-19505133D01*
X49976499Y-19548759D01*
X49907000Y-19555953D01*
X49844645Y-19524431D01*
X49809231Y-19464202D01*
X49805499Y-19434011D01*
X49805499Y-19367129D01*
X49805498Y-19367123D01*
X49805497Y-19367116D01*
X49799091Y-19307517D01*
X49748796Y-19172669D01*
X49748795Y-19172668D01*
X49748793Y-19172664D01*
X49662547Y-19057455D01*
X49662544Y-19057452D01*
X49547335Y-18971206D01*
X49547328Y-18971202D01*
X49412482Y-18920908D01*
X49412483Y-18920908D01*
X49352883Y-18914501D01*
X49352881Y-18914500D01*
X49352873Y-18914500D01*
X49352864Y-18914500D01*
X47757129Y-18914500D01*
X47757123Y-18914501D01*
X47697516Y-18920908D01*
X47562671Y-18971202D01*
X47562664Y-18971206D01*
X47447455Y-19057452D01*
X47447452Y-19057455D01*
X47361206Y-19172664D01*
X47361202Y-19172671D01*
X47310908Y-19307517D01*
X47304501Y-19367116D01*
X47304501Y-19367123D01*
X47304500Y-19367135D01*
X47304500Y-20962870D01*
X47304501Y-20962876D01*
X47310908Y-21022483D01*
X47361202Y-21157328D01*
X47361206Y-21157335D01*
X47447452Y-21272544D01*
X47447455Y-21272547D01*
X47562664Y-21358793D01*
X47562671Y-21358797D01*
X47697517Y-21409091D01*
X47697516Y-21409091D01*
X47704444Y-21409835D01*
X47757127Y-21415500D01*
X49352872Y-21415499D01*
X49412483Y-21409091D01*
X49547331Y-21358796D01*
X49662546Y-21272546D01*
X49748796Y-21157331D01*
X49799091Y-21022483D01*
X49805500Y-20962873D01*
X49805499Y-20895988D01*
X49825183Y-20828952D01*
X49877986Y-20783196D01*
X49947144Y-20773252D01*
X50010700Y-20802276D01*
X50031073Y-20824866D01*
X50051873Y-20854571D01*
X50051874Y-20854571D01*
X50612037Y-20294408D01*
X50629075Y-20357993D01*
X50694901Y-20472007D01*
X50787993Y-20565099D01*
X50902007Y-20630925D01*
X50965590Y-20647962D01*
X50405427Y-21208124D01*
X50467612Y-21251666D01*
X50665840Y-21344101D01*
X50665849Y-21344105D01*
X50877105Y-21400710D01*
X50877115Y-21400712D01*
X51094999Y-21419775D01*
X51095001Y-21419775D01*
X51312884Y-21400712D01*
X51312894Y-21400710D01*
X51524150Y-21344105D01*
X51524164Y-21344100D01*
X51722383Y-21251669D01*
X51722385Y-21251668D01*
X51784571Y-21208124D01*
X51224410Y-20647962D01*
X51287993Y-20630925D01*
X51402007Y-20565099D01*
X51495099Y-20472007D01*
X51560925Y-20357993D01*
X51577962Y-20294409D01*
X52138124Y-20854570D01*
X52181668Y-20792385D01*
X52181669Y-20792383D01*
X52274100Y-20594164D01*
X52274102Y-20594158D01*
X52275399Y-20589318D01*
X52311759Y-20529654D01*
X52374604Y-20499120D01*
X52443980Y-20507409D01*
X52497862Y-20551889D01*
X52519142Y-20618439D01*
X52519176Y-20620913D01*
X52530825Y-23579660D01*
X52511405Y-23646776D01*
X52458781Y-23692739D01*
X52420710Y-23703368D01*
X52320749Y-23714630D01*
X52320745Y-23714631D01*
X52150476Y-23774211D01*
X51997737Y-23870184D01*
X51870184Y-23997737D01*
X51774211Y-24150476D01*
X51714631Y-24320745D01*
X51714630Y-24320750D01*
X51694435Y-24499996D01*
X51694435Y-24500003D01*
X51714630Y-24679249D01*
X51714631Y-24679254D01*
X51774211Y-24849523D01*
X51870185Y-25002263D01*
X51872445Y-25005097D01*
X51873334Y-25007275D01*
X51873889Y-25008158D01*
X51873734Y-25008255D01*
X51898855Y-25069783D01*
X51899500Y-25082412D01*
X51899500Y-25477911D01*
X51879815Y-25544950D01*
X51840598Y-25583449D01*
X51793844Y-25612287D01*
X51669788Y-25736343D01*
X51669783Y-25736349D01*
X51667741Y-25739661D01*
X51665747Y-25741453D01*
X51665307Y-25742011D01*
X51665211Y-25741935D01*
X51615791Y-25786383D01*
X51546828Y-25797602D01*
X51482747Y-25769755D01*
X51456668Y-25739656D01*
X51454819Y-25736659D01*
X51454816Y-25736655D01*
X51330845Y-25612684D01*
X51181624Y-25520643D01*
X51181619Y-25520641D01*
X51015197Y-25465494D01*
X51015190Y-25465493D01*
X50912486Y-25455000D01*
X50775000Y-25455000D01*
X50775000Y-27382000D01*
X50816000Y-27382000D01*
X50883039Y-27401685D01*
X50928794Y-27454489D01*
X50940000Y-27506000D01*
X50940000Y-29374999D01*
X51039140Y-29374999D01*
X51039154Y-29374998D01*
X51140152Y-29364680D01*
X51303800Y-29310453D01*
X51303811Y-29310448D01*
X51450535Y-29219947D01*
X51464460Y-29206021D01*
X51525782Y-29172533D01*
X51595473Y-29177514D01*
X51639827Y-29206017D01*
X51654150Y-29220340D01*
X51800984Y-29310908D01*
X51814504Y-29315388D01*
X51871947Y-29355157D01*
X51898772Y-29419672D01*
X51899500Y-29433093D01*
X51899500Y-30295500D01*
X51879815Y-30362539D01*
X51827011Y-30408294D01*
X51775501Y-30419500D01*
X51652130Y-30419500D01*
X51652123Y-30419501D01*
X51592516Y-30425908D01*
X51457671Y-30476202D01*
X51457664Y-30476206D01*
X51342455Y-30562452D01*
X51342452Y-30562455D01*
X51256206Y-30677664D01*
X51256202Y-30677671D01*
X51205910Y-30812513D01*
X51205909Y-30812517D01*
X51199500Y-30872127D01*
X51199500Y-30872134D01*
X51199500Y-30872135D01*
X51199500Y-31617870D01*
X51199501Y-31617879D01*
X51201046Y-31632248D01*
X51188639Y-31701007D01*
X51141027Y-31752143D01*
X51077756Y-31769500D01*
X50353792Y-31769500D01*
X50286753Y-31749815D01*
X50240998Y-31697011D01*
X50236087Y-31684507D01*
X50234814Y-31680667D01*
X50234814Y-31680666D01*
X50142712Y-31531344D01*
X50018656Y-31407288D01*
X49869334Y-31315186D01*
X49702797Y-31260001D01*
X49702795Y-31260000D01*
X49600010Y-31249500D01*
X48599998Y-31249500D01*
X48599980Y-31249501D01*
X48497203Y-31260000D01*
X48497200Y-31260001D01*
X48330668Y-31315185D01*
X48330663Y-31315187D01*
X48181342Y-31407289D01*
X48057287Y-31531344D01*
X48042710Y-31554978D01*
X47990761Y-31601702D01*
X47921799Y-31612923D01*
X47857717Y-31585079D01*
X47831633Y-31554977D01*
X47817055Y-31531342D01*
X47767712Y-31451344D01*
X47643656Y-31327288D01*
X47534564Y-31260000D01*
X47494336Y-31235187D01*
X47494331Y-31235185D01*
X47492862Y-31234698D01*
X47327797Y-31180001D01*
X47327795Y-31180000D01*
X47225010Y-31169500D01*
X46424998Y-31169500D01*
X46424980Y-31169501D01*
X46322203Y-31180000D01*
X46322200Y-31180001D01*
X46155668Y-31235185D01*
X46155663Y-31235187D01*
X46006342Y-31327289D01*
X45912681Y-31420951D01*
X45851358Y-31454436D01*
X45781666Y-31449452D01*
X45737319Y-31420951D01*
X45643657Y-31327289D01*
X45643656Y-31327288D01*
X45534564Y-31260000D01*
X45494336Y-31235187D01*
X45494331Y-31235185D01*
X45492862Y-31234698D01*
X45327797Y-31180001D01*
X45327795Y-31180000D01*
X45225010Y-31169500D01*
X44424998Y-31169500D01*
X44424980Y-31169501D01*
X44322203Y-31180000D01*
X44322200Y-31180001D01*
X44155668Y-31235185D01*
X44155663Y-31235187D01*
X44006342Y-31327289D01*
X43882289Y-31451342D01*
X43790187Y-31600663D01*
X43790185Y-31600668D01*
X43786124Y-31612923D01*
X43735001Y-31767203D01*
X43735001Y-31767204D01*
X43735000Y-31767204D01*
X43724500Y-31869983D01*
X43724500Y-32624902D01*
X43704815Y-32691941D01*
X43688181Y-32712583D01*
X43019481Y-33381282D01*
X43019480Y-33381284D01*
X42979519Y-33450500D01*
X42969361Y-33468094D01*
X42969359Y-33468096D01*
X42940425Y-33518209D01*
X42940424Y-33518210D01*
X42940423Y-33518215D01*
X42899499Y-33670943D01*
X42899499Y-33670945D01*
X42899499Y-33839046D01*
X42899500Y-33839059D01*
X42899500Y-40199902D01*
X42879815Y-40266941D01*
X42863181Y-40287583D01*
X39519481Y-43631282D01*
X39519479Y-43631285D01*
X39469361Y-43718094D01*
X39469359Y-43718096D01*
X39440425Y-43768209D01*
X39440424Y-43768210D01*
X39440423Y-43768215D01*
X39399499Y-43920943D01*
X39399499Y-43920945D01*
X39399499Y-44089046D01*
X39399500Y-44089059D01*
X39399500Y-59449902D01*
X39379815Y-59516941D01*
X39363181Y-59537583D01*
X31019481Y-67881282D01*
X31019480Y-67881284D01*
X30983020Y-67944435D01*
X30940423Y-68018215D01*
X30899499Y-68170943D01*
X30899499Y-68170945D01*
X30899499Y-68339046D01*
X30899500Y-68339059D01*
X30899500Y-77413330D01*
X30899499Y-77413348D01*
X30899499Y-77579054D01*
X30899498Y-77579054D01*
X30940423Y-77731785D01*
X30969358Y-77781900D01*
X30969359Y-77781904D01*
X30969360Y-77781904D01*
X31019479Y-77868714D01*
X31019481Y-77868717D01*
X31138349Y-77987585D01*
X31138355Y-77987590D01*
X32463181Y-79312416D01*
X32496666Y-79373739D01*
X32499500Y-79400097D01*
X32499500Y-81547870D01*
X32499501Y-81547876D01*
X32505908Y-81607483D01*
X32556202Y-81742328D01*
X32556206Y-81742335D01*
X32642452Y-81857544D01*
X32642455Y-81857547D01*
X32757664Y-81943793D01*
X32757671Y-81943797D01*
X32892517Y-81994091D01*
X32892516Y-81994091D01*
X32899444Y-81994835D01*
X32952127Y-82000500D01*
X35547872Y-82000499D01*
X35607483Y-81994091D01*
X35742331Y-81943796D01*
X35857546Y-81857546D01*
X35943796Y-81742331D01*
X35994091Y-81607483D01*
X36000500Y-81547873D01*
X36000499Y-80049986D01*
X47650001Y-80049986D01*
X47660494Y-80152697D01*
X47715641Y-80319119D01*
X47715643Y-80319124D01*
X47807684Y-80468345D01*
X47931654Y-80592315D01*
X48080875Y-80684356D01*
X48080880Y-80684358D01*
X48247302Y-80739505D01*
X48247309Y-80739506D01*
X48350019Y-80749999D01*
X48599999Y-80749999D01*
X49100000Y-80749999D01*
X49349972Y-80749999D01*
X49349986Y-80749998D01*
X49452697Y-80739505D01*
X49619119Y-80684358D01*
X49619124Y-80684356D01*
X49768345Y-80592315D01*
X49892315Y-80468345D01*
X49917296Y-80427844D01*
X50700000Y-80427844D01*
X50706401Y-80487372D01*
X50706403Y-80487379D01*
X50756645Y-80622086D01*
X50756649Y-80622093D01*
X50842809Y-80737187D01*
X50842812Y-80737190D01*
X50957906Y-80823350D01*
X50957913Y-80823354D01*
X51092620Y-80873596D01*
X51092627Y-80873598D01*
X51152155Y-80879999D01*
X51152172Y-80880000D01*
X51750000Y-80880000D01*
X51750000Y-80305000D01*
X50700000Y-80305000D01*
X50700000Y-80427844D01*
X49917296Y-80427844D01*
X49984356Y-80319124D01*
X49984358Y-80319119D01*
X50039505Y-80152697D01*
X50039506Y-80152690D01*
X50049999Y-80049986D01*
X50050000Y-80049973D01*
X50050000Y-79900000D01*
X49100000Y-79900000D01*
X49100000Y-80749999D01*
X48599999Y-80749999D01*
X48600000Y-80749998D01*
X48600000Y-79900000D01*
X47650001Y-79900000D01*
X47650001Y-80049986D01*
X36000499Y-80049986D01*
X36000499Y-78952128D01*
X35994091Y-78892517D01*
X35978419Y-78850499D01*
X35943797Y-78757671D01*
X35943793Y-78757664D01*
X35857547Y-78642455D01*
X35857544Y-78642452D01*
X35742335Y-78556206D01*
X35742328Y-78556202D01*
X35607482Y-78505908D01*
X35607483Y-78505908D01*
X35547883Y-78499501D01*
X35547881Y-78499500D01*
X35547873Y-78499500D01*
X35547865Y-78499500D01*
X33400097Y-78499500D01*
X33333058Y-78479815D01*
X33312416Y-78463181D01*
X32136819Y-77287584D01*
X32103334Y-77226261D01*
X32100500Y-77199903D01*
X32100500Y-71409986D01*
X49032501Y-71409986D01*
X49042994Y-71512697D01*
X49098141Y-71679119D01*
X49098143Y-71679124D01*
X49190184Y-71828345D01*
X49314156Y-71952317D01*
X49340282Y-71968432D01*
X49387006Y-72020380D01*
X49398227Y-72089343D01*
X49370383Y-72153425D01*
X49362867Y-72161650D01*
X49337552Y-72186965D01*
X49247051Y-72333688D01*
X49247046Y-72333699D01*
X49192819Y-72497347D01*
X49182500Y-72598345D01*
X49182500Y-72635000D01*
X49970000Y-72635000D01*
X49970000Y-72153000D01*
X49960023Y-72143023D01*
X49926961Y-72133315D01*
X49881206Y-72080511D01*
X49870000Y-72029000D01*
X49870000Y-71135000D01*
X49032501Y-71135000D01*
X49032501Y-71409986D01*
X32100500Y-71409986D01*
X32100500Y-68550096D01*
X32120185Y-68483057D01*
X32136815Y-68462419D01*
X32329135Y-68270099D01*
X32390457Y-68236615D01*
X32460149Y-68241599D01*
X32516082Y-68283471D01*
X32540499Y-68348935D01*
X32537706Y-68385373D01*
X32514197Y-68488374D01*
X32514196Y-68488379D01*
X32494592Y-68749995D01*
X32494592Y-68750004D01*
X32514196Y-69011620D01*
X32514197Y-69011625D01*
X32572576Y-69267402D01*
X32572578Y-69267411D01*
X32572580Y-69267416D01*
X32668432Y-69511643D01*
X32799614Y-69738857D01*
X32931736Y-69904533D01*
X32963198Y-69943985D01*
X33121284Y-70090666D01*
X33155521Y-70122433D01*
X33372296Y-70270228D01*
X33372301Y-70270230D01*
X33372302Y-70270231D01*
X33372303Y-70270232D01*
X33497843Y-70330688D01*
X33608673Y-70384061D01*
X33608674Y-70384061D01*
X33608677Y-70384063D01*
X33859385Y-70461396D01*
X34118818Y-70500500D01*
X34381182Y-70500500D01*
X34640615Y-70461396D01*
X34891323Y-70384063D01*
X34941263Y-70360013D01*
X49032500Y-70360013D01*
X49032500Y-70635000D01*
X49870000Y-70635000D01*
X49870000Y-69660000D01*
X49732527Y-69660000D01*
X49732512Y-69660001D01*
X49629802Y-69670494D01*
X49463380Y-69725641D01*
X49463375Y-69725643D01*
X49314154Y-69817684D01*
X49190184Y-69941654D01*
X49098143Y-70090875D01*
X49098141Y-70090880D01*
X49042994Y-70257302D01*
X49042993Y-70257309D01*
X49032500Y-70360013D01*
X34941263Y-70360013D01*
X35127704Y-70270228D01*
X35344479Y-70122433D01*
X35493733Y-69983945D01*
X35536801Y-69943985D01*
X35536801Y-69943983D01*
X35536805Y-69943981D01*
X35700386Y-69738857D01*
X35831568Y-69511643D01*
X35927420Y-69267416D01*
X35985802Y-69011630D01*
X35991975Y-68929254D01*
X36005408Y-68750004D01*
X36005408Y-68749995D01*
X35985803Y-68488379D01*
X35985802Y-68488374D01*
X35985802Y-68488370D01*
X35927420Y-68232584D01*
X35869488Y-68084976D01*
X35863320Y-68015384D01*
X35895758Y-67953500D01*
X35897176Y-67952057D01*
X40512099Y-63337135D01*
X46842000Y-63337135D01*
X46842000Y-64932870D01*
X46842001Y-64932876D01*
X46848408Y-64992483D01*
X46898702Y-65127328D01*
X46898706Y-65127335D01*
X46984952Y-65242544D01*
X46984955Y-65242547D01*
X47100164Y-65328793D01*
X47100171Y-65328797D01*
X47235017Y-65379091D01*
X47235016Y-65379091D01*
X47241944Y-65379835D01*
X47294627Y-65385500D01*
X48890372Y-65385499D01*
X48949983Y-65379091D01*
X49084831Y-65328796D01*
X49200046Y-65242546D01*
X49286296Y-65127331D01*
X49336591Y-64992483D01*
X49343000Y-64932873D01*
X49342999Y-64865988D01*
X49362683Y-64798952D01*
X49415486Y-64753196D01*
X49484644Y-64743252D01*
X49548200Y-64772276D01*
X49568573Y-64794866D01*
X49589373Y-64824571D01*
X49589374Y-64824571D01*
X50149537Y-64264408D01*
X50166575Y-64327993D01*
X50232401Y-64442007D01*
X50325493Y-64535099D01*
X50439507Y-64600925D01*
X50503090Y-64617962D01*
X49942927Y-65178124D01*
X50005112Y-65221666D01*
X50203340Y-65314101D01*
X50203349Y-65314105D01*
X50414605Y-65370710D01*
X50414615Y-65370712D01*
X50632499Y-65389775D01*
X50632501Y-65389775D01*
X50850384Y-65370712D01*
X50850394Y-65370710D01*
X51061650Y-65314105D01*
X51061664Y-65314100D01*
X51259883Y-65221669D01*
X51259885Y-65221668D01*
X51322071Y-65178124D01*
X50761910Y-64617962D01*
X50825493Y-64600925D01*
X50939507Y-64535099D01*
X51032599Y-64442007D01*
X51098425Y-64327993D01*
X51115462Y-64264409D01*
X51675624Y-64824570D01*
X51719168Y-64762385D01*
X51719169Y-64762383D01*
X51811600Y-64564164D01*
X51811605Y-64564150D01*
X51868210Y-64352894D01*
X51868212Y-64352884D01*
X51887275Y-64135000D01*
X51887275Y-64134999D01*
X51868212Y-63917115D01*
X51868210Y-63917105D01*
X51811605Y-63705849D01*
X51811601Y-63705840D01*
X51719167Y-63507614D01*
X51719166Y-63507612D01*
X51675624Y-63445428D01*
X51675624Y-63445427D01*
X51115462Y-64005589D01*
X51098425Y-63942007D01*
X51032599Y-63827993D01*
X50939507Y-63734901D01*
X50825493Y-63669075D01*
X50761909Y-63652037D01*
X51322071Y-63091874D01*
X51259887Y-63048333D01*
X51061659Y-62955898D01*
X51061650Y-62955894D01*
X50850394Y-62899289D01*
X50850384Y-62899287D01*
X50632501Y-62880225D01*
X50632499Y-62880225D01*
X50414615Y-62899287D01*
X50414605Y-62899289D01*
X50203349Y-62955894D01*
X50203340Y-62955898D01*
X50005113Y-63048333D01*
X49942928Y-63091874D01*
X50503091Y-63652037D01*
X50439507Y-63669075D01*
X50325493Y-63734901D01*
X50232401Y-63827993D01*
X50166575Y-63942007D01*
X50149537Y-64005591D01*
X49589374Y-63445428D01*
X49568575Y-63475133D01*
X49513999Y-63518759D01*
X49444500Y-63525953D01*
X49382145Y-63494431D01*
X49346731Y-63434202D01*
X49342999Y-63404011D01*
X49342999Y-63337129D01*
X49342998Y-63337123D01*
X49342997Y-63337116D01*
X49336591Y-63277517D01*
X49286296Y-63142669D01*
X49286295Y-63142668D01*
X49286293Y-63142664D01*
X49200047Y-63027455D01*
X49200044Y-63027452D01*
X49084835Y-62941206D01*
X49084828Y-62941202D01*
X48949982Y-62890908D01*
X48949983Y-62890908D01*
X48890383Y-62884501D01*
X48890381Y-62884500D01*
X48890373Y-62884500D01*
X48890364Y-62884500D01*
X47294629Y-62884500D01*
X47294623Y-62884501D01*
X47235016Y-62890908D01*
X47100171Y-62941202D01*
X47100164Y-62941206D01*
X46984955Y-63027452D01*
X46984952Y-63027455D01*
X46898706Y-63142664D01*
X46898702Y-63142671D01*
X46848408Y-63277517D01*
X46842001Y-63337116D01*
X46842001Y-63337123D01*
X46842000Y-63337135D01*
X40512099Y-63337135D01*
X45028713Y-58820521D01*
X45028716Y-58820520D01*
X45140520Y-58708716D01*
X45190639Y-58621904D01*
X45219577Y-58571785D01*
X45260500Y-58419057D01*
X45260500Y-58260943D01*
X45260500Y-55149986D01*
X47650001Y-55149986D01*
X47660494Y-55252697D01*
X47715641Y-55419119D01*
X47715643Y-55419124D01*
X47807684Y-55568345D01*
X47931654Y-55692315D01*
X48080875Y-55784356D01*
X48080880Y-55784358D01*
X48247302Y-55839505D01*
X48247309Y-55839506D01*
X48350019Y-55849999D01*
X48599999Y-55849999D01*
X49100000Y-55849999D01*
X49349972Y-55849999D01*
X49349986Y-55849998D01*
X49452697Y-55839505D01*
X49619119Y-55784358D01*
X49619124Y-55784356D01*
X49768345Y-55692315D01*
X49892315Y-55568345D01*
X49917296Y-55527844D01*
X50850000Y-55527844D01*
X50856401Y-55587372D01*
X50856403Y-55587379D01*
X50906645Y-55722086D01*
X50906649Y-55722093D01*
X50992809Y-55837187D01*
X50992812Y-55837190D01*
X51107906Y-55923350D01*
X51107913Y-55923354D01*
X51242620Y-55973596D01*
X51242627Y-55973598D01*
X51302155Y-55979999D01*
X51302172Y-55980000D01*
X51900000Y-55980000D01*
X51900000Y-55405000D01*
X50850000Y-55405000D01*
X50850000Y-55527844D01*
X49917296Y-55527844D01*
X49984356Y-55419124D01*
X49984358Y-55419119D01*
X50039505Y-55252697D01*
X50039506Y-55252690D01*
X50049999Y-55149986D01*
X50050000Y-55149973D01*
X50050000Y-55000000D01*
X49100000Y-55000000D01*
X49100000Y-55849999D01*
X48599999Y-55849999D01*
X48600000Y-55849998D01*
X48600000Y-55000000D01*
X47650001Y-55000000D01*
X47650001Y-55149986D01*
X45260500Y-55149986D01*
X45260500Y-53995908D01*
X45280185Y-53928869D01*
X45324271Y-53890363D01*
X45323187Y-53888605D01*
X45329332Y-53884814D01*
X45329334Y-53884814D01*
X45478656Y-53792712D01*
X45572319Y-53699049D01*
X45633642Y-53665564D01*
X45703334Y-53670548D01*
X45747681Y-53699049D01*
X45841344Y-53792712D01*
X45990666Y-53884814D01*
X46157203Y-53939999D01*
X46259991Y-53950500D01*
X47060008Y-53950499D01*
X47060016Y-53950498D01*
X47060019Y-53950498D01*
X47116302Y-53944748D01*
X47162797Y-53939999D01*
X47329334Y-53884814D01*
X47478656Y-53792712D01*
X47602712Y-53668656D01*
X47636579Y-53613748D01*
X47688523Y-53567025D01*
X47757486Y-53555802D01*
X47821568Y-53583644D01*
X47829797Y-53591165D01*
X47901304Y-53662672D01*
X47934789Y-53723995D01*
X47929805Y-53793687D01*
X47901305Y-53838034D01*
X47807682Y-53931657D01*
X47715643Y-54080875D01*
X47715641Y-54080880D01*
X47660494Y-54247302D01*
X47660493Y-54247309D01*
X47650000Y-54350013D01*
X47650000Y-54500000D01*
X50049999Y-54500000D01*
X50049999Y-54350028D01*
X50049998Y-54350013D01*
X50040582Y-54257844D01*
X50850000Y-54257844D01*
X50856401Y-54317372D01*
X50856403Y-54317379D01*
X50906645Y-54452086D01*
X50910897Y-54459872D01*
X50907780Y-54461573D01*
X50926273Y-54511155D01*
X50911420Y-54579428D01*
X50910483Y-54580885D01*
X50906645Y-54587913D01*
X50856403Y-54722620D01*
X50856401Y-54722627D01*
X50850000Y-54782155D01*
X50850000Y-54905000D01*
X51900000Y-54905000D01*
X51900000Y-54135000D01*
X50850000Y-54135000D01*
X50850000Y-54257844D01*
X50040582Y-54257844D01*
X50039505Y-54247302D01*
X49984358Y-54080880D01*
X49984356Y-54080875D01*
X49892315Y-53931654D01*
X49798695Y-53838034D01*
X49765210Y-53776711D01*
X49770194Y-53707019D01*
X49798691Y-53662676D01*
X49892712Y-53568656D01*
X49984814Y-53419334D01*
X49984814Y-53419332D01*
X49988605Y-53413187D01*
X49990399Y-53414293D01*
X50029687Y-53369663D01*
X50095908Y-53350500D01*
X50729335Y-53350500D01*
X50796374Y-53370185D01*
X50842129Y-53422989D01*
X50852625Y-53487755D01*
X50850000Y-53512171D01*
X50850000Y-53635000D01*
X52276000Y-53635000D01*
X52343039Y-53654685D01*
X52388794Y-53707489D01*
X52400000Y-53759000D01*
X52400000Y-55980000D01*
X52534873Y-55980000D01*
X52601912Y-55999685D01*
X52647667Y-56052489D01*
X52658872Y-56103512D01*
X52705804Y-68024528D01*
X52686384Y-68091644D01*
X52633760Y-68137607D01*
X52564641Y-68147822D01*
X52508331Y-68123612D01*
X52508158Y-68123889D01*
X52506391Y-68122778D01*
X52504489Y-68121961D01*
X52502258Y-68120181D01*
X52349523Y-68024211D01*
X52179254Y-67964631D01*
X52179249Y-67964630D01*
X52000004Y-67944435D01*
X51999996Y-67944435D01*
X51820750Y-67964630D01*
X51820745Y-67964631D01*
X51650476Y-68024211D01*
X51497737Y-68120184D01*
X51370184Y-68247737D01*
X51274211Y-68400476D01*
X51214631Y-68570745D01*
X51214630Y-68570750D01*
X51194435Y-68749996D01*
X51194435Y-68750003D01*
X51214630Y-68929249D01*
X51214631Y-68929254D01*
X51274211Y-69099523D01*
X51370185Y-69252263D01*
X51372445Y-69255097D01*
X51373334Y-69257275D01*
X51373889Y-69258158D01*
X51373734Y-69258255D01*
X51398855Y-69319783D01*
X51399500Y-69332412D01*
X51399500Y-69755269D01*
X51379815Y-69822308D01*
X51363182Y-69842950D01*
X51264783Y-69941349D01*
X51262741Y-69944661D01*
X51260747Y-69946453D01*
X51260307Y-69947011D01*
X51260211Y-69946935D01*
X51210791Y-69991383D01*
X51141828Y-70002602D01*
X51077747Y-69974755D01*
X51051668Y-69944656D01*
X51049819Y-69941659D01*
X51049816Y-69941655D01*
X50925845Y-69817684D01*
X50776624Y-69725643D01*
X50776619Y-69725641D01*
X50610197Y-69670494D01*
X50610190Y-69670493D01*
X50507486Y-69660000D01*
X50370000Y-69660000D01*
X50370000Y-71867000D01*
X50379976Y-71876976D01*
X50413039Y-71886685D01*
X50458794Y-71939489D01*
X50470000Y-71991000D01*
X50470000Y-73859999D01*
X50569140Y-73859999D01*
X50569154Y-73859998D01*
X50670152Y-73849680D01*
X50833800Y-73795453D01*
X50833811Y-73795448D01*
X50980535Y-73704947D01*
X50994460Y-73691021D01*
X51055782Y-73657533D01*
X51125473Y-73662514D01*
X51169827Y-73691017D01*
X51184150Y-73705340D01*
X51330984Y-73795908D01*
X51330985Y-73795908D01*
X51337131Y-73799699D01*
X51335972Y-73801577D01*
X51380341Y-73840639D01*
X51399500Y-73906854D01*
X51399500Y-75295500D01*
X51379815Y-75362539D01*
X51327011Y-75408294D01*
X51275501Y-75419500D01*
X51152130Y-75419500D01*
X51152123Y-75419501D01*
X51092516Y-75425908D01*
X50957671Y-75476202D01*
X50957664Y-75476206D01*
X50842455Y-75562452D01*
X50842452Y-75562455D01*
X50756206Y-75677664D01*
X50756202Y-75677671D01*
X50705910Y-75812513D01*
X50705909Y-75812517D01*
X50699500Y-75872127D01*
X50699500Y-75872134D01*
X50699500Y-75872135D01*
X50699500Y-76617870D01*
X50699501Y-76617876D01*
X50705908Y-76677483D01*
X50756202Y-76812328D01*
X50760454Y-76820114D01*
X50757280Y-76821846D01*
X50775659Y-76871302D01*
X50760725Y-76939557D01*
X50760113Y-76940509D01*
X50756205Y-76947665D01*
X50748310Y-76968834D01*
X50706438Y-77024767D01*
X50640974Y-77049184D01*
X50632128Y-77049500D01*
X50095908Y-77049500D01*
X50028869Y-77029815D01*
X49990363Y-76985728D01*
X49988605Y-76986813D01*
X49984814Y-76980666D01*
X49892712Y-76831344D01*
X49768656Y-76707288D01*
X49675888Y-76650069D01*
X49619336Y-76615187D01*
X49619331Y-76615185D01*
X49595499Y-76607288D01*
X49452797Y-76560001D01*
X49452795Y-76560000D01*
X49350010Y-76549500D01*
X48349998Y-76549500D01*
X48349980Y-76549501D01*
X48247203Y-76560000D01*
X48247200Y-76560001D01*
X48080668Y-76615185D01*
X48080663Y-76615187D01*
X47931342Y-76707289D01*
X47807292Y-76831339D01*
X47803143Y-76836587D01*
X47746120Y-76876963D01*
X47676321Y-76880101D01*
X47615906Y-76845005D01*
X47600340Y-76824775D01*
X47542712Y-76731344D01*
X47418656Y-76607288D01*
X47269334Y-76515186D01*
X47102797Y-76460001D01*
X47102795Y-76460000D01*
X47000010Y-76449500D01*
X46199998Y-76449500D01*
X46199980Y-76449501D01*
X46097203Y-76460000D01*
X46097200Y-76460001D01*
X45930668Y-76515185D01*
X45930663Y-76515187D01*
X45781342Y-76607289D01*
X45687681Y-76700951D01*
X45626358Y-76734436D01*
X45556666Y-76729452D01*
X45512319Y-76700951D01*
X45418657Y-76607289D01*
X45418656Y-76607288D01*
X45269334Y-76515186D01*
X45102797Y-76460001D01*
X45102795Y-76460000D01*
X45000016Y-76449500D01*
X45000009Y-76449500D01*
X44300097Y-76449500D01*
X44233058Y-76429815D01*
X44212416Y-76413181D01*
X41187590Y-73388355D01*
X41187588Y-73388352D01*
X41068717Y-73269481D01*
X41068716Y-73269480D01*
X40981904Y-73219360D01*
X40981904Y-73219359D01*
X40981900Y-73219358D01*
X40931785Y-73190423D01*
X40861739Y-73171654D01*
X49182501Y-73171654D01*
X49192819Y-73272652D01*
X49247046Y-73436300D01*
X49247051Y-73436311D01*
X49337552Y-73583034D01*
X49337555Y-73583038D01*
X49459461Y-73704944D01*
X49459465Y-73704947D01*
X49606188Y-73795448D01*
X49606199Y-73795453D01*
X49769847Y-73849680D01*
X49870851Y-73859999D01*
X49970000Y-73859998D01*
X49970000Y-73135000D01*
X49182501Y-73135000D01*
X49182501Y-73171654D01*
X40861739Y-73171654D01*
X40779057Y-73149499D01*
X40620943Y-73149499D01*
X40613347Y-73149499D01*
X40613331Y-73149500D01*
X36124499Y-73149500D01*
X36057460Y-73129815D01*
X36011705Y-73077011D01*
X36000499Y-73025500D01*
X36000499Y-72452129D01*
X36000498Y-72452123D01*
X36000497Y-72452116D01*
X35994091Y-72392517D01*
X35972153Y-72333699D01*
X35943797Y-72257671D01*
X35943793Y-72257664D01*
X35857547Y-72142455D01*
X35857544Y-72142452D01*
X35742335Y-72056206D01*
X35742328Y-72056202D01*
X35607482Y-72005908D01*
X35607483Y-72005908D01*
X35547883Y-71999501D01*
X35547881Y-71999500D01*
X35547873Y-71999500D01*
X35547864Y-71999500D01*
X32952129Y-71999500D01*
X32952123Y-71999501D01*
X32892516Y-72005908D01*
X32757671Y-72056202D01*
X32757664Y-72056206D01*
X32642455Y-72142452D01*
X32642452Y-72142455D01*
X32556206Y-72257664D01*
X32556202Y-72257671D01*
X32505908Y-72392517D01*
X32499501Y-72452116D01*
X32499501Y-72452123D01*
X32499500Y-72452135D01*
X32499500Y-75047870D01*
X32499501Y-75047876D01*
X32505908Y-75107483D01*
X32556202Y-75242328D01*
X32556206Y-75242335D01*
X32642452Y-75357544D01*
X32642455Y-75357547D01*
X32757664Y-75443793D01*
X32757671Y-75443797D01*
X32892517Y-75494091D01*
X32892516Y-75494091D01*
X32899444Y-75494835D01*
X32952127Y-75500500D01*
X35547872Y-75500499D01*
X35607483Y-75494091D01*
X35742331Y-75443796D01*
X35857546Y-75357546D01*
X35943796Y-75242331D01*
X35994091Y-75107483D01*
X36000500Y-75047873D01*
X36000500Y-74474500D01*
X36020185Y-74407461D01*
X36072989Y-74361706D01*
X36124500Y-74350500D01*
X40399903Y-74350500D01*
X40466942Y-74370185D01*
X40487584Y-74386819D01*
X43463181Y-77362416D01*
X43496666Y-77423739D01*
X43499500Y-77450097D01*
X43499500Y-78150001D01*
X43499501Y-78150019D01*
X43510000Y-78252796D01*
X43510001Y-78252799D01*
X43539063Y-78340500D01*
X43565186Y-78419334D01*
X43657288Y-78568656D01*
X43781344Y-78692712D01*
X43930666Y-78784814D01*
X44097203Y-78839999D01*
X44199991Y-78850500D01*
X45000008Y-78850499D01*
X45000016Y-78850498D01*
X45000019Y-78850498D01*
X45056302Y-78844748D01*
X45102797Y-78839999D01*
X45269334Y-78784814D01*
X45418656Y-78692712D01*
X45512319Y-78599049D01*
X45573642Y-78565564D01*
X45643334Y-78570548D01*
X45687681Y-78599049D01*
X45781344Y-78692712D01*
X45930666Y-78784814D01*
X46097203Y-78839999D01*
X46199991Y-78850500D01*
X47000008Y-78850499D01*
X47000016Y-78850498D01*
X47000019Y-78850498D01*
X47056302Y-78844748D01*
X47102797Y-78839999D01*
X47269334Y-78784814D01*
X47418656Y-78692712D01*
X47542712Y-78568656D01*
X47600339Y-78475226D01*
X47652285Y-78428503D01*
X47721248Y-78417280D01*
X47785330Y-78445123D01*
X47803146Y-78463417D01*
X47807289Y-78468657D01*
X47901304Y-78562672D01*
X47934789Y-78623995D01*
X47929805Y-78693687D01*
X47901305Y-78738034D01*
X47807682Y-78831657D01*
X47715643Y-78980875D01*
X47715641Y-78980880D01*
X47660494Y-79147302D01*
X47660493Y-79147309D01*
X47650000Y-79250013D01*
X47650000Y-79400000D01*
X50049999Y-79400000D01*
X50049999Y-79250028D01*
X50049998Y-79250013D01*
X50040582Y-79157844D01*
X50700000Y-79157844D01*
X50706401Y-79217372D01*
X50706403Y-79217379D01*
X50756645Y-79352086D01*
X50760897Y-79359872D01*
X50757780Y-79361573D01*
X50776273Y-79411155D01*
X50761420Y-79479428D01*
X50760483Y-79480885D01*
X50756645Y-79487913D01*
X50706403Y-79622620D01*
X50706401Y-79622627D01*
X50700000Y-79682155D01*
X50700000Y-79805000D01*
X51750000Y-79805000D01*
X51750000Y-79035000D01*
X50700000Y-79035000D01*
X50700000Y-79157844D01*
X50040582Y-79157844D01*
X50039505Y-79147302D01*
X49984358Y-78980880D01*
X49984356Y-78980875D01*
X49892315Y-78831654D01*
X49798695Y-78738034D01*
X49765210Y-78676711D01*
X49770194Y-78607019D01*
X49798691Y-78562676D01*
X49892712Y-78468656D01*
X49984814Y-78319334D01*
X49984814Y-78319332D01*
X49988605Y-78313187D01*
X49990399Y-78314293D01*
X50029687Y-78269663D01*
X50095908Y-78250500D01*
X50579335Y-78250500D01*
X50646374Y-78270185D01*
X50692129Y-78322989D01*
X50702625Y-78387755D01*
X50700000Y-78412171D01*
X50700000Y-78535000D01*
X52126000Y-78535000D01*
X52193039Y-78554685D01*
X52238794Y-78607489D01*
X52250000Y-78659000D01*
X52250000Y-80880000D01*
X52632904Y-80880000D01*
X52699943Y-80899685D01*
X52745698Y-80952489D01*
X52756903Y-81003512D01*
X52789844Y-89370778D01*
X52770424Y-89437894D01*
X52717800Y-89483857D01*
X52648681Y-89494072D01*
X52585012Y-89465298D01*
X52547006Y-89406669D01*
X52542625Y-89385149D01*
X52535369Y-89320750D01*
X52535368Y-89320745D01*
X52475788Y-89150476D01*
X52379815Y-88997737D01*
X52252262Y-88870184D01*
X52099523Y-88774211D01*
X51929254Y-88714631D01*
X51929249Y-88714630D01*
X51750004Y-88694435D01*
X51749996Y-88694435D01*
X51570750Y-88714630D01*
X51570745Y-88714631D01*
X51400476Y-88774211D01*
X51247737Y-88870184D01*
X51120184Y-88997737D01*
X51024211Y-89150476D01*
X50964631Y-89320745D01*
X50964630Y-89320750D01*
X50944435Y-89499996D01*
X50944435Y-89500003D01*
X50964630Y-89679249D01*
X50964631Y-89679254D01*
X51024211Y-89849523D01*
X51120185Y-90002263D01*
X51122445Y-90005097D01*
X51123334Y-90007275D01*
X51123889Y-90008158D01*
X51123734Y-90008255D01*
X51148855Y-90069783D01*
X51149500Y-90082412D01*
X51149500Y-90698542D01*
X51129815Y-90765581D01*
X51090598Y-90804080D01*
X51081344Y-90809787D01*
X50957288Y-90933843D01*
X50957283Y-90933849D01*
X50955241Y-90937161D01*
X50953247Y-90938953D01*
X50952807Y-90939511D01*
X50952711Y-90939435D01*
X50903291Y-90983883D01*
X50834328Y-90995102D01*
X50770247Y-90967255D01*
X50744168Y-90937156D01*
X50742319Y-90934159D01*
X50742316Y-90934155D01*
X50618345Y-90810184D01*
X50469124Y-90718143D01*
X50469119Y-90718141D01*
X50302697Y-90662994D01*
X50302690Y-90662993D01*
X50199986Y-90652500D01*
X50062500Y-90652500D01*
X50062500Y-92859500D01*
X50072476Y-92869476D01*
X50105539Y-92879185D01*
X50151294Y-92931989D01*
X50162500Y-92983500D01*
X50162500Y-94852499D01*
X50261640Y-94852499D01*
X50261654Y-94852498D01*
X50362652Y-94842180D01*
X50526300Y-94787953D01*
X50526311Y-94787948D01*
X50673035Y-94697447D01*
X50686960Y-94683521D01*
X50748282Y-94650033D01*
X50817973Y-94655014D01*
X50862327Y-94683517D01*
X50876650Y-94697840D01*
X51023484Y-94788408D01*
X51064503Y-94802000D01*
X51121949Y-94841772D01*
X51148772Y-94906288D01*
X51149500Y-94919706D01*
X51149500Y-95773000D01*
X51129815Y-95840039D01*
X51077011Y-95885794D01*
X51025501Y-95897000D01*
X50902130Y-95897000D01*
X50902123Y-95897001D01*
X50842516Y-95903408D01*
X50707671Y-95953702D01*
X50707664Y-95953706D01*
X50592455Y-96039952D01*
X50592452Y-96039955D01*
X50506206Y-96155164D01*
X50506202Y-96155171D01*
X50455910Y-96290013D01*
X50455909Y-96290017D01*
X50449500Y-96349627D01*
X50449500Y-96349634D01*
X50449500Y-96349635D01*
X50449500Y-97095370D01*
X50449679Y-97098695D01*
X50448707Y-97098746D01*
X50437034Y-97163492D01*
X50389429Y-97214635D01*
X50326144Y-97232000D01*
X49705908Y-97232000D01*
X49638869Y-97212315D01*
X49600363Y-97168228D01*
X49598605Y-97169313D01*
X49594812Y-97163163D01*
X49502712Y-97013844D01*
X49378656Y-96889788D01*
X49229334Y-96797686D01*
X49062797Y-96742501D01*
X49062795Y-96742500D01*
X48960010Y-96732000D01*
X47959998Y-96732000D01*
X47959980Y-96732001D01*
X47857203Y-96742500D01*
X47857200Y-96742501D01*
X47690668Y-96797685D01*
X47690663Y-96797687D01*
X47541342Y-96889789D01*
X47417289Y-97013842D01*
X47325187Y-97163163D01*
X47325182Y-97163174D01*
X47315629Y-97192005D01*
X47275856Y-97249450D01*
X47211340Y-97276272D01*
X47197924Y-97277000D01*
X47030301Y-97277000D01*
X46963262Y-97257315D01*
X46917507Y-97204511D01*
X46912596Y-97192007D01*
X46884814Y-97108166D01*
X46792712Y-96958844D01*
X46668656Y-96834788D01*
X46519334Y-96742686D01*
X46352797Y-96687501D01*
X46352795Y-96687500D01*
X46250010Y-96677000D01*
X45449998Y-96677000D01*
X45449980Y-96677001D01*
X45347203Y-96687500D01*
X45347200Y-96687501D01*
X45180668Y-96742685D01*
X45180663Y-96742687D01*
X45031342Y-96834789D01*
X44937681Y-96928451D01*
X44876358Y-96961936D01*
X44806666Y-96956952D01*
X44762319Y-96928451D01*
X44668657Y-96834789D01*
X44668656Y-96834788D01*
X44519334Y-96742686D01*
X44352797Y-96687501D01*
X44352795Y-96687500D01*
X44250016Y-96677000D01*
X44250009Y-96677000D01*
X43550097Y-96677000D01*
X43483058Y-96657315D01*
X43462416Y-96640681D01*
X40985889Y-94164154D01*
X48875001Y-94164154D01*
X48885319Y-94265152D01*
X48939546Y-94428800D01*
X48939551Y-94428811D01*
X49030052Y-94575534D01*
X49030055Y-94575538D01*
X49151961Y-94697444D01*
X49151965Y-94697447D01*
X49298688Y-94787948D01*
X49298699Y-94787953D01*
X49462347Y-94842180D01*
X49563351Y-94852499D01*
X49662500Y-94852498D01*
X49662500Y-94127500D01*
X48875001Y-94127500D01*
X48875001Y-94164154D01*
X40985889Y-94164154D01*
X39224221Y-92402486D01*
X48725001Y-92402486D01*
X48735494Y-92505197D01*
X48790641Y-92671619D01*
X48790643Y-92671624D01*
X48882684Y-92820845D01*
X49006656Y-92944817D01*
X49032782Y-92960932D01*
X49079506Y-93012880D01*
X49090727Y-93081843D01*
X49062883Y-93145925D01*
X49055367Y-93154150D01*
X49030052Y-93179465D01*
X48939551Y-93326188D01*
X48939546Y-93326199D01*
X48885319Y-93489847D01*
X48875000Y-93590845D01*
X48875000Y-93627500D01*
X49662500Y-93627500D01*
X49662500Y-93145500D01*
X49652523Y-93135523D01*
X49619461Y-93125815D01*
X49573706Y-93073011D01*
X49562500Y-93021500D01*
X49562500Y-92127500D01*
X48725001Y-92127500D01*
X48725001Y-92402486D01*
X39224221Y-92402486D01*
X38174248Y-91352513D01*
X48725000Y-91352513D01*
X48725000Y-91627500D01*
X49562500Y-91627500D01*
X49562500Y-90652500D01*
X49425027Y-90652500D01*
X49425012Y-90652501D01*
X49322302Y-90662994D01*
X49155880Y-90718141D01*
X49155875Y-90718143D01*
X49006654Y-90810184D01*
X48882684Y-90934154D01*
X48790643Y-91083375D01*
X48790641Y-91083380D01*
X48735494Y-91249802D01*
X48735493Y-91249809D01*
X48725000Y-91352513D01*
X38174248Y-91352513D01*
X34886819Y-88065084D01*
X34853334Y-88003761D01*
X34850500Y-87977403D01*
X34850500Y-86981636D01*
X34870185Y-86914597D01*
X34920698Y-86869916D01*
X35127704Y-86770228D01*
X35344479Y-86622433D01*
X35536805Y-86443981D01*
X35700386Y-86238857D01*
X35831568Y-86011643D01*
X35927420Y-85767416D01*
X35985802Y-85511630D01*
X35990018Y-85455370D01*
X36005408Y-85250004D01*
X36005408Y-85249995D01*
X35985803Y-84988379D01*
X35985802Y-84988374D01*
X35985802Y-84988370D01*
X35927420Y-84732584D01*
X35831568Y-84488357D01*
X35700386Y-84261143D01*
X35536805Y-84056019D01*
X35536804Y-84056018D01*
X35536801Y-84056014D01*
X35344479Y-83877567D01*
X35318178Y-83859635D01*
X46892000Y-83859635D01*
X46892000Y-85455370D01*
X46892001Y-85455376D01*
X46898408Y-85514983D01*
X46948702Y-85649828D01*
X46948706Y-85649835D01*
X47034952Y-85765044D01*
X47034955Y-85765047D01*
X47150164Y-85851293D01*
X47150171Y-85851297D01*
X47285017Y-85901591D01*
X47285016Y-85901591D01*
X47291944Y-85902335D01*
X47344627Y-85908000D01*
X48940372Y-85907999D01*
X48999983Y-85901591D01*
X49134831Y-85851296D01*
X49250046Y-85765046D01*
X49336296Y-85649831D01*
X49386591Y-85514983D01*
X49393000Y-85455373D01*
X49392999Y-85388488D01*
X49412683Y-85321452D01*
X49465486Y-85275696D01*
X49534644Y-85265752D01*
X49598200Y-85294776D01*
X49618573Y-85317366D01*
X49639373Y-85347071D01*
X49639374Y-85347071D01*
X50199537Y-84786908D01*
X50216575Y-84850493D01*
X50282401Y-84964507D01*
X50375493Y-85057599D01*
X50489507Y-85123425D01*
X50553090Y-85140462D01*
X49992927Y-85700624D01*
X50055112Y-85744166D01*
X50253340Y-85836601D01*
X50253349Y-85836605D01*
X50464605Y-85893210D01*
X50464615Y-85893212D01*
X50682499Y-85912275D01*
X50682501Y-85912275D01*
X50900384Y-85893212D01*
X50900394Y-85893210D01*
X51111650Y-85836605D01*
X51111664Y-85836600D01*
X51309883Y-85744169D01*
X51309885Y-85744168D01*
X51372071Y-85700624D01*
X50811910Y-85140462D01*
X50875493Y-85123425D01*
X50989507Y-85057599D01*
X51082599Y-84964507D01*
X51148425Y-84850493D01*
X51165462Y-84786909D01*
X51725624Y-85347070D01*
X51769168Y-85284885D01*
X51769169Y-85284883D01*
X51861600Y-85086664D01*
X51861605Y-85086650D01*
X51918210Y-84875394D01*
X51918212Y-84875384D01*
X51937275Y-84657500D01*
X51937275Y-84657499D01*
X51918212Y-84439615D01*
X51918210Y-84439605D01*
X51861605Y-84228349D01*
X51861601Y-84228340D01*
X51769167Y-84030114D01*
X51769166Y-84030112D01*
X51725624Y-83967928D01*
X51725624Y-83967927D01*
X51165462Y-84528089D01*
X51148425Y-84464507D01*
X51082599Y-84350493D01*
X50989507Y-84257401D01*
X50875493Y-84191575D01*
X50811909Y-84174537D01*
X51372071Y-83614374D01*
X51309887Y-83570833D01*
X51111659Y-83478398D01*
X51111650Y-83478394D01*
X50900394Y-83421789D01*
X50900384Y-83421787D01*
X50682501Y-83402725D01*
X50682499Y-83402725D01*
X50464615Y-83421787D01*
X50464605Y-83421789D01*
X50253349Y-83478394D01*
X50253340Y-83478398D01*
X50055113Y-83570833D01*
X49992928Y-83614374D01*
X50553091Y-84174537D01*
X50489507Y-84191575D01*
X50375493Y-84257401D01*
X50282401Y-84350493D01*
X50216575Y-84464507D01*
X50199537Y-84528091D01*
X49639374Y-83967928D01*
X49618575Y-83997633D01*
X49563999Y-84041259D01*
X49494500Y-84048453D01*
X49432145Y-84016931D01*
X49396731Y-83956702D01*
X49392999Y-83926511D01*
X49392999Y-83859629D01*
X49392998Y-83859623D01*
X49392997Y-83859616D01*
X49386591Y-83800017D01*
X49360391Y-83729772D01*
X49336297Y-83665171D01*
X49336293Y-83665164D01*
X49250047Y-83549955D01*
X49250044Y-83549952D01*
X49134835Y-83463706D01*
X49134828Y-83463702D01*
X48999982Y-83413408D01*
X48999983Y-83413408D01*
X48940383Y-83407001D01*
X48940381Y-83407000D01*
X48940373Y-83407000D01*
X48940364Y-83407000D01*
X47344629Y-83407000D01*
X47344623Y-83407001D01*
X47285016Y-83413408D01*
X47150171Y-83463702D01*
X47150164Y-83463706D01*
X47034955Y-83549952D01*
X47034952Y-83549955D01*
X46948706Y-83665164D01*
X46948702Y-83665171D01*
X46898408Y-83800017D01*
X46892001Y-83859616D01*
X46892001Y-83859623D01*
X46892000Y-83859635D01*
X35318178Y-83859635D01*
X35230734Y-83800017D01*
X35127704Y-83729772D01*
X35127700Y-83729770D01*
X35127697Y-83729768D01*
X35127696Y-83729767D01*
X34891325Y-83615938D01*
X34891327Y-83615938D01*
X34640623Y-83538606D01*
X34640619Y-83538605D01*
X34640615Y-83538604D01*
X34515823Y-83519794D01*
X34381187Y-83499500D01*
X34381182Y-83499500D01*
X34118818Y-83499500D01*
X34118812Y-83499500D01*
X33957247Y-83523853D01*
X33859385Y-83538604D01*
X33859382Y-83538605D01*
X33859376Y-83538606D01*
X33608673Y-83615938D01*
X33372303Y-83729767D01*
X33372302Y-83729768D01*
X33155520Y-83877567D01*
X32963198Y-84056014D01*
X32799614Y-84261143D01*
X32668432Y-84488356D01*
X32572582Y-84732578D01*
X32572576Y-84732597D01*
X32514197Y-84988374D01*
X32514196Y-84988379D01*
X32494592Y-85249995D01*
X32494592Y-85250004D01*
X32514196Y-85511620D01*
X32514197Y-85511625D01*
X32572576Y-85767402D01*
X32572578Y-85767411D01*
X32572580Y-85767416D01*
X32668432Y-86011643D01*
X32799614Y-86238857D01*
X32931736Y-86404533D01*
X32963198Y-86443985D01*
X33144753Y-86612441D01*
X33155521Y-86622433D01*
X33372296Y-86770228D01*
X33372301Y-86770230D01*
X33372302Y-86770231D01*
X33372303Y-86770232D01*
X33516301Y-86839577D01*
X33579301Y-86869916D01*
X33631161Y-86916738D01*
X33649500Y-86981636D01*
X33649500Y-88190830D01*
X33649499Y-88190848D01*
X33649499Y-88356554D01*
X33649498Y-88356554D01*
X33690423Y-88509285D01*
X33719358Y-88559400D01*
X33719359Y-88559404D01*
X33719360Y-88559404D01*
X33769479Y-88646214D01*
X33769481Y-88646217D01*
X33888349Y-88765085D01*
X33888355Y-88765090D01*
X42713181Y-97589916D01*
X42746666Y-97651239D01*
X42749500Y-97677597D01*
X42749500Y-98377501D01*
X42749501Y-98377519D01*
X42760000Y-98480296D01*
X42760001Y-98480299D01*
X42815185Y-98646831D01*
X42815187Y-98646836D01*
X42840514Y-98687898D01*
X42907288Y-98796156D01*
X43031344Y-98920212D01*
X43180666Y-99012314D01*
X43347203Y-99067499D01*
X43449991Y-99078000D01*
X44250008Y-99077999D01*
X44250016Y-99077998D01*
X44250019Y-99077998D01*
X44306302Y-99072248D01*
X44352797Y-99067499D01*
X44519334Y-99012314D01*
X44668656Y-98920212D01*
X44762319Y-98826549D01*
X44823642Y-98793064D01*
X44893334Y-98798048D01*
X44937681Y-98826549D01*
X45031344Y-98920212D01*
X45180666Y-99012314D01*
X45347203Y-99067499D01*
X45449991Y-99078000D01*
X46250008Y-99077999D01*
X46250016Y-99077998D01*
X46250019Y-99077998D01*
X46306302Y-99072248D01*
X46352797Y-99067499D01*
X46519334Y-99012314D01*
X46668656Y-98920212D01*
X46792712Y-98796156D01*
X46884814Y-98646834D01*
X46912595Y-98562995D01*
X46952368Y-98505551D01*
X47016884Y-98478728D01*
X47030301Y-98478000D01*
X47241278Y-98478000D01*
X47308317Y-98497685D01*
X47346815Y-98536901D01*
X47417287Y-98651154D01*
X47417289Y-98651157D01*
X47511304Y-98745172D01*
X47544789Y-98806495D01*
X47539805Y-98876187D01*
X47511305Y-98920534D01*
X47417682Y-99014157D01*
X47325643Y-99163375D01*
X47325641Y-99163380D01*
X47270494Y-99329802D01*
X47270493Y-99329809D01*
X47260000Y-99432513D01*
X47260000Y-99582500D01*
X49659999Y-99582500D01*
X49659999Y-99432528D01*
X49659998Y-99432513D01*
X49649505Y-99329802D01*
X49594358Y-99163380D01*
X49594356Y-99163375D01*
X49502315Y-99014154D01*
X49408695Y-98920534D01*
X49375210Y-98859211D01*
X49380194Y-98789519D01*
X49408691Y-98745176D01*
X49502712Y-98651156D01*
X49594814Y-98501834D01*
X49594814Y-98501832D01*
X49598605Y-98495687D01*
X49600399Y-98496793D01*
X49639687Y-98452163D01*
X49705908Y-98433000D01*
X50372804Y-98433000D01*
X50439843Y-98452685D01*
X50485598Y-98505489D01*
X50488986Y-98513668D01*
X50506201Y-98559827D01*
X50510453Y-98567612D01*
X50507386Y-98569286D01*
X50525958Y-98619026D01*
X50511130Y-98687305D01*
X50510749Y-98687898D01*
X50506645Y-98695413D01*
X50456403Y-98830120D01*
X50456401Y-98830127D01*
X50450000Y-98889655D01*
X50450000Y-99012500D01*
X51876000Y-99012500D01*
X51943039Y-99032185D01*
X51988794Y-99084989D01*
X52000000Y-99136500D01*
X52000000Y-101357500D01*
X52597828Y-101357500D01*
X52597844Y-101357499D01*
X52657372Y-101351098D01*
X52657377Y-101351097D01*
X52670113Y-101346347D01*
X52739805Y-101341361D01*
X52801129Y-101374845D01*
X52834615Y-101436168D01*
X52837448Y-101462040D01*
X52876809Y-111459925D01*
X52857389Y-111527041D01*
X52804765Y-111573004D01*
X52735646Y-111583219D01*
X52671977Y-111554445D01*
X52647816Y-111526385D01*
X52629815Y-111497737D01*
X52502262Y-111370184D01*
X52349523Y-111274211D01*
X52179254Y-111214631D01*
X52179249Y-111214630D01*
X52000004Y-111194435D01*
X51999996Y-111194435D01*
X51820750Y-111214630D01*
X51820745Y-111214631D01*
X51650476Y-111274211D01*
X51497737Y-111370184D01*
X51370184Y-111497737D01*
X51274211Y-111650476D01*
X51214631Y-111820745D01*
X51214630Y-111820750D01*
X51194435Y-111999996D01*
X51194435Y-112000003D01*
X51214630Y-112179249D01*
X51214631Y-112179254D01*
X51274211Y-112349523D01*
X51370184Y-112502262D01*
X51370681Y-112502759D01*
X51370899Y-112503158D01*
X51374525Y-112507705D01*
X51373728Y-112508340D01*
X51404166Y-112564082D01*
X51407000Y-112590440D01*
X51407000Y-112956232D01*
X51387315Y-113023271D01*
X51348098Y-113061769D01*
X51293338Y-113095546D01*
X51201342Y-113152289D01*
X51077288Y-113276343D01*
X51077283Y-113276349D01*
X51075241Y-113279661D01*
X51073247Y-113281453D01*
X51072807Y-113282011D01*
X51072711Y-113281935D01*
X51023291Y-113326383D01*
X50954328Y-113337602D01*
X50890247Y-113309755D01*
X50864168Y-113279656D01*
X50862319Y-113276659D01*
X50862316Y-113276655D01*
X50738345Y-113152684D01*
X50589124Y-113060643D01*
X50589119Y-113060641D01*
X50422697Y-113005494D01*
X50422690Y-113005493D01*
X50319986Y-112995000D01*
X50182500Y-112995000D01*
X50182500Y-114952000D01*
X50208681Y-114978181D01*
X50242166Y-115039504D01*
X50245000Y-115065862D01*
X50245000Y-116944999D01*
X50344140Y-116944999D01*
X50344154Y-116944998D01*
X50445152Y-116934680D01*
X50608800Y-116880453D01*
X50608811Y-116880448D01*
X50755535Y-116789947D01*
X50769460Y-116776021D01*
X50830782Y-116742533D01*
X50900473Y-116747514D01*
X50944827Y-116776017D01*
X50959150Y-116790340D01*
X51060596Y-116852912D01*
X51107321Y-116904860D01*
X51119500Y-116958451D01*
X51119500Y-117710500D01*
X51099815Y-117777539D01*
X51047011Y-117823294D01*
X50995503Y-117834500D01*
X50959631Y-117834500D01*
X50959623Y-117834501D01*
X50900016Y-117840908D01*
X50765171Y-117891202D01*
X50765164Y-117891206D01*
X50649955Y-117977452D01*
X50649952Y-117977455D01*
X50563706Y-118092664D01*
X50563702Y-118092671D01*
X50513410Y-118227513D01*
X50513409Y-118227517D01*
X50507000Y-118287127D01*
X50507000Y-118287134D01*
X50507000Y-118287135D01*
X50507000Y-119032870D01*
X50507001Y-119032876D01*
X50513408Y-119092483D01*
X50539399Y-119162167D01*
X50544383Y-119231859D01*
X50510898Y-119293182D01*
X50449574Y-119326666D01*
X50423217Y-119329500D01*
X49806811Y-119329500D01*
X49739772Y-119309815D01*
X49694017Y-119257011D01*
X49689105Y-119244504D01*
X49661821Y-119162167D01*
X49634814Y-119080666D01*
X49542712Y-118931344D01*
X49418656Y-118807288D01*
X49269334Y-118715186D01*
X49102797Y-118660001D01*
X49102795Y-118660000D01*
X49000010Y-118649500D01*
X47999998Y-118649500D01*
X47999980Y-118649501D01*
X47897203Y-118660000D01*
X47897200Y-118660001D01*
X47730668Y-118715185D01*
X47730663Y-118715187D01*
X47581338Y-118807292D01*
X47577042Y-118810689D01*
X47512243Y-118836821D01*
X47443603Y-118823772D01*
X47412462Y-118801094D01*
X47318657Y-118707289D01*
X47318656Y-118707288D01*
X47169334Y-118615186D01*
X47002797Y-118560001D01*
X47002795Y-118560000D01*
X46900010Y-118549500D01*
X46099998Y-118549500D01*
X46099980Y-118549501D01*
X45997203Y-118560000D01*
X45997200Y-118560001D01*
X45830668Y-118615185D01*
X45830663Y-118615187D01*
X45681342Y-118707289D01*
X45587681Y-118800951D01*
X45526358Y-118834436D01*
X45456666Y-118829452D01*
X45412319Y-118800951D01*
X45318657Y-118707289D01*
X45318656Y-118707288D01*
X45169334Y-118615186D01*
X45002797Y-118560001D01*
X45002795Y-118560000D01*
X44900016Y-118549500D01*
X44900009Y-118549500D01*
X44200097Y-118549500D01*
X44133058Y-118529815D01*
X44112416Y-118513181D01*
X41855889Y-116256654D01*
X48957501Y-116256654D01*
X48967819Y-116357652D01*
X49022046Y-116521300D01*
X49022051Y-116521311D01*
X49112552Y-116668034D01*
X49112555Y-116668038D01*
X49234461Y-116789944D01*
X49234465Y-116789947D01*
X49381188Y-116880448D01*
X49381199Y-116880453D01*
X49544847Y-116934680D01*
X49645851Y-116944999D01*
X49745000Y-116944998D01*
X49745000Y-116220000D01*
X48957501Y-116220000D01*
X48957501Y-116256654D01*
X41855889Y-116256654D01*
X40344221Y-114744986D01*
X48845001Y-114744986D01*
X48855494Y-114847697D01*
X48910641Y-115014119D01*
X48910643Y-115014124D01*
X49002684Y-115163345D01*
X49042746Y-115203407D01*
X49076231Y-115264730D01*
X49071247Y-115334422D01*
X49060604Y-115356183D01*
X49022053Y-115418685D01*
X49022046Y-115418699D01*
X48967819Y-115582347D01*
X48957500Y-115683345D01*
X48957500Y-115720000D01*
X49745000Y-115720000D01*
X49745000Y-115488000D01*
X49718819Y-115461819D01*
X49685334Y-115400496D01*
X49682500Y-115374138D01*
X49682500Y-114470000D01*
X48845001Y-114470000D01*
X48845001Y-114744986D01*
X40344221Y-114744986D01*
X39294248Y-113695013D01*
X48845000Y-113695013D01*
X48845000Y-113970000D01*
X49682500Y-113970000D01*
X49682500Y-112995000D01*
X49545027Y-112995000D01*
X49545012Y-112995001D01*
X49442302Y-113005494D01*
X49275880Y-113060641D01*
X49275875Y-113060643D01*
X49126654Y-113152684D01*
X49002684Y-113276654D01*
X48910643Y-113425875D01*
X48910641Y-113425880D01*
X48855494Y-113592302D01*
X48855493Y-113592309D01*
X48845000Y-113695013D01*
X39294248Y-113695013D01*
X32006370Y-106407135D01*
X47097000Y-106407135D01*
X47097000Y-108002870D01*
X47097001Y-108002876D01*
X47103408Y-108062483D01*
X47153702Y-108197328D01*
X47153706Y-108197335D01*
X47239952Y-108312544D01*
X47239955Y-108312547D01*
X47355164Y-108398793D01*
X47355171Y-108398797D01*
X47490017Y-108449091D01*
X47490016Y-108449091D01*
X47496944Y-108449835D01*
X47549627Y-108455500D01*
X49145372Y-108455499D01*
X49204983Y-108449091D01*
X49339831Y-108398796D01*
X49455046Y-108312546D01*
X49541296Y-108197331D01*
X49591591Y-108062483D01*
X49598000Y-108002873D01*
X49597999Y-107935988D01*
X49617683Y-107868952D01*
X49670486Y-107823196D01*
X49739644Y-107813252D01*
X49803200Y-107842276D01*
X49823573Y-107864866D01*
X49844373Y-107894571D01*
X49844374Y-107894571D01*
X50404537Y-107334408D01*
X50421575Y-107397993D01*
X50487401Y-107512007D01*
X50580493Y-107605099D01*
X50694507Y-107670925D01*
X50758090Y-107687962D01*
X50197927Y-108248124D01*
X50260112Y-108291666D01*
X50458340Y-108384101D01*
X50458349Y-108384105D01*
X50669605Y-108440710D01*
X50669615Y-108440712D01*
X50887499Y-108459775D01*
X50887501Y-108459775D01*
X51105384Y-108440712D01*
X51105394Y-108440710D01*
X51316650Y-108384105D01*
X51316664Y-108384100D01*
X51514883Y-108291669D01*
X51514885Y-108291668D01*
X51577071Y-108248124D01*
X51016910Y-107687962D01*
X51080493Y-107670925D01*
X51194507Y-107605099D01*
X51287599Y-107512007D01*
X51353425Y-107397993D01*
X51370462Y-107334409D01*
X51930624Y-107894570D01*
X51974168Y-107832385D01*
X51974169Y-107832383D01*
X52066600Y-107634164D01*
X52066605Y-107634150D01*
X52123210Y-107422894D01*
X52123212Y-107422884D01*
X52142275Y-107205000D01*
X52142275Y-107204999D01*
X52123212Y-106987115D01*
X52123210Y-106987105D01*
X52066605Y-106775849D01*
X52066601Y-106775840D01*
X51974167Y-106577614D01*
X51974166Y-106577612D01*
X51930624Y-106515428D01*
X51930624Y-106515427D01*
X51370462Y-107075589D01*
X51353425Y-107012007D01*
X51287599Y-106897993D01*
X51194507Y-106804901D01*
X51080493Y-106739075D01*
X51016909Y-106722037D01*
X51577071Y-106161874D01*
X51514887Y-106118333D01*
X51316659Y-106025898D01*
X51316650Y-106025894D01*
X51105394Y-105969289D01*
X51105384Y-105969287D01*
X50887501Y-105950225D01*
X50887499Y-105950225D01*
X50669615Y-105969287D01*
X50669605Y-105969289D01*
X50458349Y-106025894D01*
X50458340Y-106025898D01*
X50260113Y-106118333D01*
X50197928Y-106161874D01*
X50758091Y-106722037D01*
X50694507Y-106739075D01*
X50580493Y-106804901D01*
X50487401Y-106897993D01*
X50421575Y-107012007D01*
X50404537Y-107075591D01*
X49844374Y-106515428D01*
X49823575Y-106545133D01*
X49768999Y-106588759D01*
X49699500Y-106595953D01*
X49637145Y-106564431D01*
X49601731Y-106504202D01*
X49597999Y-106474011D01*
X49597999Y-106407129D01*
X49597998Y-106407123D01*
X49597997Y-106407116D01*
X49591591Y-106347517D01*
X49541296Y-106212669D01*
X49541295Y-106212668D01*
X49541293Y-106212664D01*
X49455047Y-106097455D01*
X49455044Y-106097452D01*
X49339835Y-106011206D01*
X49339828Y-106011202D01*
X49204982Y-105960908D01*
X49204983Y-105960908D01*
X49145383Y-105954501D01*
X49145381Y-105954500D01*
X49145373Y-105954500D01*
X49145364Y-105954500D01*
X47549629Y-105954500D01*
X47549623Y-105954501D01*
X47490016Y-105960908D01*
X47355171Y-106011202D01*
X47355164Y-106011206D01*
X47239955Y-106097452D01*
X47239952Y-106097455D01*
X47153706Y-106212664D01*
X47153702Y-106212671D01*
X47103408Y-106347517D01*
X47097001Y-106407116D01*
X47097001Y-106407123D01*
X47097000Y-106407135D01*
X32006370Y-106407135D01*
X30386819Y-104787584D01*
X30353334Y-104726261D01*
X30350500Y-104699903D01*
X30350500Y-100232486D01*
X47260001Y-100232486D01*
X47270494Y-100335197D01*
X47325641Y-100501619D01*
X47325643Y-100501624D01*
X47417684Y-100650845D01*
X47541654Y-100774815D01*
X47690875Y-100866856D01*
X47690880Y-100866858D01*
X47857302Y-100922005D01*
X47857309Y-100922006D01*
X47960019Y-100932499D01*
X48209999Y-100932499D01*
X48710000Y-100932499D01*
X48959972Y-100932499D01*
X48959986Y-100932498D01*
X49062697Y-100922005D01*
X49112976Y-100905344D01*
X50450000Y-100905344D01*
X50456401Y-100964872D01*
X50456403Y-100964879D01*
X50506645Y-101099586D01*
X50506649Y-101099593D01*
X50592809Y-101214687D01*
X50592812Y-101214690D01*
X50707906Y-101300850D01*
X50707913Y-101300854D01*
X50842620Y-101351096D01*
X50842627Y-101351098D01*
X50902155Y-101357499D01*
X50902172Y-101357500D01*
X51500000Y-101357500D01*
X51500000Y-100782500D01*
X50450000Y-100782500D01*
X50450000Y-100905344D01*
X49112976Y-100905344D01*
X49229119Y-100866858D01*
X49229124Y-100866856D01*
X49378345Y-100774815D01*
X49502315Y-100650845D01*
X49594356Y-100501624D01*
X49594358Y-100501619D01*
X49649505Y-100335197D01*
X49649506Y-100335190D01*
X49659999Y-100232486D01*
X49660000Y-100232473D01*
X49660000Y-100082500D01*
X48710000Y-100082500D01*
X48710000Y-100932499D01*
X48209999Y-100932499D01*
X48210000Y-100932498D01*
X48210000Y-100082500D01*
X47260001Y-100082500D01*
X47260001Y-100232486D01*
X30350500Y-100232486D01*
X30350500Y-99635344D01*
X50450000Y-99635344D01*
X50456401Y-99694872D01*
X50456403Y-99694879D01*
X50506645Y-99829586D01*
X50510897Y-99837372D01*
X50507780Y-99839073D01*
X50526273Y-99888655D01*
X50511420Y-99956928D01*
X50510483Y-99958385D01*
X50506645Y-99965413D01*
X50456403Y-100100120D01*
X50456401Y-100100127D01*
X50450000Y-100159655D01*
X50450000Y-100282500D01*
X51500000Y-100282500D01*
X51500000Y-99512500D01*
X50450000Y-99512500D01*
X50450000Y-99635344D01*
X30350500Y-99635344D01*
X30350500Y-60749995D01*
X32495093Y-60749995D01*
X32495093Y-60750004D01*
X32514692Y-61011545D01*
X32514693Y-61011550D01*
X32573058Y-61267270D01*
X32668883Y-61511426D01*
X32668882Y-61511426D01*
X32800027Y-61738573D01*
X32847874Y-61798571D01*
X33648958Y-60997488D01*
X33673978Y-61057890D01*
X33745112Y-61164351D01*
X33835649Y-61254888D01*
X33942110Y-61326022D01*
X34002510Y-61351041D01*
X33200830Y-62152720D01*
X33372546Y-62269793D01*
X33372550Y-62269795D01*
X33608854Y-62383594D01*
X33608858Y-62383595D01*
X33859494Y-62460907D01*
X33859500Y-62460909D01*
X34118848Y-62499999D01*
X34118857Y-62500000D01*
X34381143Y-62500000D01*
X34381151Y-62499999D01*
X34640499Y-62460909D01*
X34640505Y-62460907D01*
X34891143Y-62383595D01*
X35127445Y-62269798D01*
X35127447Y-62269797D01*
X35299168Y-62152720D01*
X34497488Y-61351041D01*
X34557890Y-61326022D01*
X34664351Y-61254888D01*
X34754888Y-61164351D01*
X34826022Y-61057890D01*
X34851041Y-60997488D01*
X35652125Y-61798572D01*
X35699971Y-61738573D01*
X35831116Y-61511426D01*
X35926941Y-61267270D01*
X35985306Y-61011550D01*
X35985307Y-61011545D01*
X36004907Y-60750004D01*
X36004907Y-60749995D01*
X35985307Y-60488454D01*
X35985306Y-60488449D01*
X35926941Y-60232729D01*
X35831116Y-59988573D01*
X35831117Y-59988573D01*
X35699972Y-59761426D01*
X35652124Y-59701427D01*
X34851041Y-60502510D01*
X34826022Y-60442110D01*
X34754888Y-60335649D01*
X34664351Y-60245112D01*
X34557890Y-60173978D01*
X34497488Y-60148958D01*
X35299168Y-59347278D01*
X35127454Y-59230206D01*
X35127445Y-59230201D01*
X34891142Y-59116404D01*
X34891144Y-59116404D01*
X34640505Y-59039092D01*
X34640499Y-59039090D01*
X34381151Y-59000000D01*
X34118848Y-59000000D01*
X33859500Y-59039090D01*
X33859494Y-59039092D01*
X33608858Y-59116404D01*
X33608854Y-59116405D01*
X33372547Y-59230205D01*
X33372539Y-59230210D01*
X33200830Y-59347277D01*
X34002511Y-60148958D01*
X33942110Y-60173978D01*
X33835649Y-60245112D01*
X33745112Y-60335649D01*
X33673978Y-60442110D01*
X33648958Y-60502510D01*
X32847874Y-59701427D01*
X32800028Y-59761425D01*
X32668883Y-59988573D01*
X32573058Y-60232729D01*
X32514693Y-60488449D01*
X32514692Y-60488454D01*
X32495093Y-60749995D01*
X30350500Y-60749995D01*
X30350500Y-60550096D01*
X30370185Y-60483057D01*
X30386814Y-60462420D01*
X33449605Y-57399628D01*
X33510926Y-57366145D01*
X33580618Y-57371129D01*
X33591079Y-57375588D01*
X33608677Y-57384063D01*
X33859385Y-57461396D01*
X34118818Y-57500500D01*
X34381182Y-57500500D01*
X34640615Y-57461396D01*
X34891323Y-57384063D01*
X35127704Y-57270228D01*
X35344479Y-57122433D01*
X35536805Y-56943981D01*
X35700386Y-56738857D01*
X35831568Y-56511643D01*
X35927420Y-56267416D01*
X35985802Y-56011630D01*
X35986697Y-55999685D01*
X36005408Y-55750004D01*
X36005408Y-55749995D01*
X35985803Y-55488379D01*
X35985802Y-55488374D01*
X35985802Y-55488370D01*
X35927420Y-55232584D01*
X35831568Y-54988357D01*
X35700386Y-54761143D01*
X35536805Y-54556019D01*
X35536804Y-54556018D01*
X35536801Y-54556014D01*
X35344479Y-54377567D01*
X35304065Y-54350013D01*
X35127704Y-54229772D01*
X35127700Y-54229770D01*
X35127697Y-54229768D01*
X35127696Y-54229767D01*
X34891325Y-54115938D01*
X34891327Y-54115938D01*
X34640623Y-54038606D01*
X34640619Y-54038605D01*
X34640615Y-54038604D01*
X34515823Y-54019794D01*
X34381187Y-53999500D01*
X34381182Y-53999500D01*
X34118818Y-53999500D01*
X34118812Y-53999500D01*
X33957247Y-54023853D01*
X33859385Y-54038604D01*
X33859382Y-54038605D01*
X33859376Y-54038606D01*
X33608673Y-54115938D01*
X33372303Y-54229767D01*
X33372302Y-54229768D01*
X33155520Y-54377567D01*
X32963198Y-54556014D01*
X32799614Y-54761143D01*
X32668432Y-54988356D01*
X32572582Y-55232578D01*
X32572576Y-55232597D01*
X32514197Y-55488374D01*
X32514196Y-55488379D01*
X32494592Y-55749995D01*
X32494592Y-55750004D01*
X32514196Y-56011620D01*
X32514197Y-56011625D01*
X32572578Y-56267412D01*
X32630509Y-56415019D01*
X32636677Y-56484616D01*
X32604239Y-56546500D01*
X32602761Y-56548002D01*
X29381286Y-59769478D01*
X29269481Y-59881282D01*
X29269479Y-59881285D01*
X29219361Y-59968094D01*
X29219359Y-59968096D01*
X29190425Y-60018209D01*
X29190424Y-60018210D01*
X29174544Y-60077472D01*
X29149499Y-60170943D01*
X29149499Y-60170945D01*
X29149499Y-60339046D01*
X29149500Y-60339059D01*
X29149500Y-104913330D01*
X29149499Y-104913348D01*
X29149499Y-105079054D01*
X29149498Y-105079054D01*
X29190423Y-105231785D01*
X29219358Y-105281900D01*
X29219359Y-105281904D01*
X29219360Y-105281904D01*
X29269479Y-105368714D01*
X29269481Y-105368717D01*
X29388349Y-105487585D01*
X29388355Y-105487590D01*
X43363181Y-119462416D01*
X43396666Y-119523739D01*
X43399500Y-119550097D01*
X43399500Y-120250001D01*
X43399501Y-120250019D01*
X43410000Y-120352796D01*
X43410001Y-120352799D01*
X43457895Y-120497331D01*
X43465186Y-120519334D01*
X43557288Y-120668656D01*
X43681344Y-120792712D01*
X43830666Y-120884814D01*
X43997203Y-120939999D01*
X44099991Y-120950500D01*
X44900008Y-120950499D01*
X44900016Y-120950498D01*
X44900019Y-120950498D01*
X44956302Y-120944748D01*
X45002797Y-120939999D01*
X45169334Y-120884814D01*
X45318656Y-120792712D01*
X45412319Y-120699049D01*
X45473642Y-120665564D01*
X45543334Y-120670548D01*
X45587681Y-120699049D01*
X45681344Y-120792712D01*
X45830666Y-120884814D01*
X45997203Y-120939999D01*
X46099991Y-120950500D01*
X46900008Y-120950499D01*
X46900016Y-120950498D01*
X46900019Y-120950498D01*
X46956302Y-120944748D01*
X47002797Y-120939999D01*
X47169334Y-120884814D01*
X47236086Y-120843640D01*
X47303478Y-120825200D01*
X47370142Y-120846122D01*
X47414911Y-120899764D01*
X47423573Y-120969095D01*
X47406722Y-121014275D01*
X47365646Y-121080871D01*
X47365641Y-121080880D01*
X47310494Y-121247302D01*
X47310493Y-121247309D01*
X47300000Y-121350013D01*
X47300000Y-121500000D01*
X49699999Y-121500000D01*
X49699999Y-121350028D01*
X49699998Y-121350013D01*
X49689505Y-121247302D01*
X49634358Y-121080880D01*
X49634356Y-121080875D01*
X49542315Y-120931654D01*
X49448695Y-120838034D01*
X49415210Y-120776711D01*
X49420194Y-120707019D01*
X49448691Y-120662676D01*
X49542712Y-120568656D01*
X49542713Y-120568653D01*
X49544549Y-120566818D01*
X49605873Y-120533334D01*
X49632230Y-120530500D01*
X50423750Y-120530500D01*
X50490789Y-120550185D01*
X50536544Y-120602989D01*
X50546488Y-120672147D01*
X50539932Y-120697833D01*
X50513903Y-120767620D01*
X50513901Y-120767627D01*
X50507500Y-120827155D01*
X50507500Y-120950000D01*
X51933500Y-120950000D01*
X52000539Y-120969685D01*
X52046294Y-121022489D01*
X52057500Y-121074000D01*
X52057500Y-123295000D01*
X52655328Y-123295000D01*
X52655344Y-123294999D01*
X52714872Y-123288598D01*
X52714880Y-123288596D01*
X52756440Y-123273095D01*
X52826131Y-123268109D01*
X52887455Y-123301593D01*
X52920941Y-123362916D01*
X52923774Y-123388788D01*
X52999510Y-142625512D01*
X52980090Y-142692628D01*
X52927466Y-142738591D01*
X52875511Y-142750000D01*
X28623756Y-142750000D01*
X28556717Y-142730315D01*
X28510962Y-142677511D01*
X28499756Y-142626244D01*
X28481705Y-133456328D01*
X34325857Y-133456328D01*
X36495725Y-133456328D01*
X36495725Y-130642484D01*
X34325857Y-130642484D01*
X34325857Y-133456328D01*
X28481705Y-133456328D01*
X28461715Y-123301593D01*
X28459448Y-122149986D01*
X47300001Y-122149986D01*
X47310494Y-122252697D01*
X47365641Y-122419119D01*
X47365643Y-122419124D01*
X47457684Y-122568345D01*
X47581654Y-122692315D01*
X47730875Y-122784356D01*
X47730880Y-122784358D01*
X47897302Y-122839505D01*
X47897309Y-122839506D01*
X48000019Y-122849999D01*
X48249999Y-122849999D01*
X48750000Y-122849999D01*
X48999972Y-122849999D01*
X48999986Y-122849998D01*
X49070013Y-122842844D01*
X50507500Y-122842844D01*
X50513901Y-122902372D01*
X50513903Y-122902379D01*
X50564145Y-123037086D01*
X50564149Y-123037093D01*
X50650309Y-123152187D01*
X50650312Y-123152190D01*
X50765406Y-123238350D01*
X50765413Y-123238354D01*
X50900120Y-123288596D01*
X50900127Y-123288598D01*
X50959655Y-123294999D01*
X50959672Y-123295000D01*
X51557500Y-123295000D01*
X51557500Y-122720000D01*
X50507500Y-122720000D01*
X50507500Y-122842844D01*
X49070013Y-122842844D01*
X49102697Y-122839505D01*
X49269119Y-122784358D01*
X49269124Y-122784356D01*
X49418345Y-122692315D01*
X49542315Y-122568345D01*
X49634356Y-122419124D01*
X49634358Y-122419119D01*
X49689505Y-122252697D01*
X49689506Y-122252690D01*
X49699999Y-122149986D01*
X49700000Y-122149973D01*
X49700000Y-122000000D01*
X48750000Y-122000000D01*
X48750000Y-122849999D01*
X48249999Y-122849999D01*
X48250000Y-122849998D01*
X48250000Y-122000000D01*
X47300001Y-122000000D01*
X47300001Y-122149986D01*
X28459448Y-122149986D01*
X28458312Y-121572844D01*
X50507500Y-121572844D01*
X50513901Y-121632372D01*
X50513903Y-121632379D01*
X50564145Y-121767086D01*
X50568397Y-121774872D01*
X50565280Y-121776573D01*
X50583773Y-121826155D01*
X50568920Y-121894428D01*
X50567983Y-121895885D01*
X50564145Y-121902913D01*
X50513903Y-122037620D01*
X50513901Y-122037627D01*
X50507500Y-122097155D01*
X50507500Y-122220000D01*
X51557500Y-122220000D01*
X51557500Y-121450000D01*
X50507500Y-121450000D01*
X50507500Y-121572844D01*
X28458312Y-121572844D01*
X28375468Y-79487913D01*
X28316343Y-49452135D01*
X32499500Y-49452135D01*
X32499500Y-52047870D01*
X32499501Y-52047876D01*
X32505908Y-52107483D01*
X32556202Y-52242328D01*
X32556206Y-52242335D01*
X32642452Y-52357544D01*
X32642455Y-52357547D01*
X32757664Y-52443793D01*
X32757671Y-52443797D01*
X32892517Y-52494091D01*
X32892516Y-52494091D01*
X32899444Y-52494835D01*
X32952127Y-52500500D01*
X35547872Y-52500499D01*
X35607483Y-52494091D01*
X35742331Y-52443796D01*
X35857546Y-52357546D01*
X35943796Y-52242331D01*
X35994091Y-52107483D01*
X36000500Y-52047873D01*
X36000499Y-49452128D01*
X35994091Y-49392517D01*
X35943796Y-49257669D01*
X35943795Y-49257668D01*
X35943793Y-49257664D01*
X35857547Y-49142455D01*
X35857544Y-49142452D01*
X35742335Y-49056206D01*
X35742328Y-49056202D01*
X35607482Y-49005908D01*
X35607483Y-49005908D01*
X35547883Y-48999501D01*
X35547881Y-48999500D01*
X35547873Y-48999500D01*
X35547864Y-48999500D01*
X32952129Y-48999500D01*
X32952123Y-48999501D01*
X32892516Y-49005908D01*
X32757671Y-49056202D01*
X32757664Y-49056206D01*
X32642455Y-49142452D01*
X32642452Y-49142455D01*
X32556206Y-49257664D01*
X32556202Y-49257671D01*
X32505908Y-49392517D01*
X32499501Y-49452116D01*
X32499501Y-49452123D01*
X32499500Y-49452135D01*
X28316343Y-49452135D01*
X28298573Y-40424985D01*
X30062500Y-40424985D01*
X30072993Y-40527689D01*
X30072994Y-40527696D01*
X30128141Y-40694118D01*
X30128143Y-40694123D01*
X30220184Y-40843344D01*
X30344155Y-40967315D01*
X30493376Y-41059356D01*
X30493381Y-41059358D01*
X30659803Y-41114505D01*
X30659810Y-41114506D01*
X30762514Y-41124999D01*
X30762527Y-41125000D01*
X31025000Y-41125000D01*
X31525000Y-41125000D01*
X31787473Y-41125000D01*
X31787485Y-41124999D01*
X31890189Y-41114506D01*
X31890196Y-41114505D01*
X32056618Y-41059358D01*
X32056623Y-41059356D01*
X32205844Y-40967315D01*
X32329815Y-40843344D01*
X32421856Y-40694123D01*
X32421858Y-40694118D01*
X32477005Y-40527696D01*
X32477006Y-40527689D01*
X32487499Y-40424985D01*
X32487500Y-40424972D01*
X32487500Y-40000000D01*
X31525000Y-40000000D01*
X31525000Y-41125000D01*
X31025000Y-41125000D01*
X31025000Y-40000000D01*
X30062500Y-40000000D01*
X30062500Y-40424985D01*
X28298573Y-40424985D01*
X28295916Y-39075014D01*
X30062500Y-39075014D01*
X30062500Y-39500000D01*
X31025000Y-39500000D01*
X31525000Y-39500000D01*
X32487500Y-39500000D01*
X32487500Y-39075027D01*
X32487499Y-39075014D01*
X32487496Y-39074984D01*
X33037000Y-39074984D01*
X33037000Y-40425015D01*
X33047500Y-40527795D01*
X33047501Y-40527797D01*
X33075093Y-40611065D01*
X33102686Y-40694335D01*
X33102687Y-40694337D01*
X33194786Y-40843651D01*
X33194789Y-40843655D01*
X33318844Y-40967710D01*
X33318848Y-40967713D01*
X33468162Y-41059812D01*
X33468164Y-41059813D01*
X33468166Y-41059814D01*
X33634703Y-41114999D01*
X33737492Y-41125500D01*
X33737497Y-41125500D01*
X34762503Y-41125500D01*
X34762508Y-41125500D01*
X34865297Y-41114999D01*
X35031834Y-41059814D01*
X35181155Y-40967711D01*
X35305211Y-40843655D01*
X35397314Y-40694334D01*
X35452499Y-40527797D01*
X35459139Y-40462796D01*
X35485535Y-40398106D01*
X35542715Y-40357955D01*
X35612526Y-40355091D01*
X35672803Y-40390425D01*
X35700202Y-40436393D01*
X35713256Y-40475788D01*
X35727686Y-40519333D01*
X35727687Y-40519336D01*
X35732904Y-40527794D01*
X35819788Y-40668656D01*
X35943844Y-40792712D01*
X36093166Y-40884814D01*
X36259703Y-40939999D01*
X36362491Y-40950500D01*
X37162508Y-40950499D01*
X37162516Y-40950498D01*
X37162519Y-40950498D01*
X37218802Y-40944748D01*
X37265297Y-40939999D01*
X37431834Y-40884814D01*
X37581156Y-40792712D01*
X37674819Y-40699049D01*
X37736142Y-40665564D01*
X37805834Y-40670548D01*
X37850181Y-40699049D01*
X37943844Y-40792712D01*
X38093166Y-40884814D01*
X38259703Y-40939999D01*
X38362491Y-40950500D01*
X39162508Y-40950499D01*
X39162516Y-40950498D01*
X39162519Y-40950498D01*
X39218802Y-40944748D01*
X39265297Y-40939999D01*
X39431834Y-40884814D01*
X39581156Y-40792712D01*
X39705212Y-40668656D01*
X39797314Y-40519334D01*
X39825095Y-40435495D01*
X39864868Y-40378051D01*
X39929384Y-40351228D01*
X39942801Y-40350500D01*
X40417588Y-40350500D01*
X40484627Y-40370185D01*
X40494903Y-40377555D01*
X40497736Y-40379814D01*
X40497738Y-40379816D01*
X40650478Y-40475789D01*
X40799108Y-40527797D01*
X40820745Y-40535368D01*
X40820750Y-40535369D01*
X40999996Y-40555565D01*
X41000000Y-40555565D01*
X41000004Y-40555565D01*
X41179249Y-40535369D01*
X41179252Y-40535368D01*
X41179255Y-40535368D01*
X41349522Y-40475789D01*
X41502262Y-40379816D01*
X41629816Y-40252262D01*
X41725789Y-40099522D01*
X41785368Y-39929255D01*
X41786551Y-39918759D01*
X41805565Y-39750003D01*
X41805565Y-39749996D01*
X41785369Y-39570750D01*
X41785368Y-39570745D01*
X41742534Y-39448333D01*
X41725789Y-39400478D01*
X41629816Y-39247738D01*
X41502262Y-39120184D01*
X41433553Y-39077011D01*
X41349523Y-39024211D01*
X41179254Y-38964631D01*
X41179249Y-38964630D01*
X41000004Y-38944435D01*
X40999996Y-38944435D01*
X40820750Y-38964630D01*
X40820745Y-38964631D01*
X40650476Y-39024211D01*
X40497736Y-39120185D01*
X40494903Y-39122445D01*
X40492724Y-39123334D01*
X40491842Y-39123889D01*
X40491744Y-39123734D01*
X40430217Y-39148855D01*
X40417588Y-39149500D01*
X39942801Y-39149500D01*
X39875762Y-39129815D01*
X39830007Y-39077011D01*
X39825095Y-39064504D01*
X39811743Y-39024211D01*
X39797314Y-38980666D01*
X39705212Y-38831344D01*
X39581156Y-38707288D01*
X39431834Y-38615186D01*
X39431832Y-38615185D01*
X39425687Y-38611395D01*
X39426790Y-38609605D01*
X39382149Y-38570290D01*
X39363000Y-38504091D01*
X39363000Y-37683445D01*
X39363000Y-37683443D01*
X39322077Y-37530716D01*
X39322077Y-37530715D01*
X39322077Y-37530714D01*
X39293139Y-37480595D01*
X39293137Y-37480592D01*
X39243020Y-37393784D01*
X39131216Y-37281980D01*
X39131215Y-37281979D01*
X39126885Y-37277649D01*
X39126874Y-37277639D01*
X38386819Y-36537584D01*
X38353334Y-36476261D01*
X38350500Y-36449903D01*
X38350500Y-34488451D01*
X38370185Y-34421412D01*
X38409402Y-34382913D01*
X38510850Y-34320340D01*
X38632840Y-34198350D01*
X38723408Y-34051516D01*
X38777674Y-33887753D01*
X38788000Y-33786677D01*
X38787999Y-33213324D01*
X38786206Y-33195776D01*
X38777674Y-33112247D01*
X38750222Y-33029403D01*
X38723408Y-32948484D01*
X38632840Y-32801650D01*
X38510850Y-32679660D01*
X38510846Y-32679657D01*
X38409403Y-32617086D01*
X38362678Y-32565138D01*
X38350500Y-32511548D01*
X38350500Y-30565004D01*
X38370185Y-30497965D01*
X38409403Y-30459465D01*
X38428044Y-30447968D01*
X38547968Y-30328044D01*
X38637003Y-30183697D01*
X38690349Y-30022708D01*
X38700500Y-29923345D01*
X38700499Y-29076656D01*
X38690349Y-28977292D01*
X38637003Y-28816303D01*
X38636999Y-28816297D01*
X38636998Y-28816294D01*
X38557034Y-28686654D01*
X49652501Y-28686654D01*
X49662819Y-28787652D01*
X49717046Y-28951300D01*
X49717051Y-28951311D01*
X49807552Y-29098034D01*
X49807555Y-29098038D01*
X49929461Y-29219944D01*
X49929465Y-29219947D01*
X50076188Y-29310448D01*
X50076199Y-29310453D01*
X50239847Y-29364680D01*
X50340851Y-29374999D01*
X50440000Y-29374998D01*
X50440000Y-28650000D01*
X49652501Y-28650000D01*
X49652501Y-28686654D01*
X38557034Y-28686654D01*
X38547970Y-28671959D01*
X38547969Y-28671958D01*
X38547968Y-28671956D01*
X38428044Y-28552032D01*
X38409399Y-28540531D01*
X38362677Y-28488582D01*
X38350500Y-28434995D01*
X38350500Y-27204986D01*
X49437501Y-27204986D01*
X49447994Y-27307697D01*
X49503141Y-27474119D01*
X49503143Y-27474124D01*
X49595184Y-27623345D01*
X49688721Y-27716882D01*
X49722206Y-27778205D01*
X49718746Y-27843566D01*
X49662819Y-28012345D01*
X49662819Y-28012346D01*
X49652500Y-28113345D01*
X49652500Y-28150000D01*
X50440000Y-28150000D01*
X50440000Y-27948000D01*
X50399000Y-27948000D01*
X50331961Y-27928315D01*
X50286206Y-27875511D01*
X50275000Y-27824000D01*
X50275000Y-26930000D01*
X49437501Y-26930000D01*
X49437501Y-27204986D01*
X38350500Y-27204986D01*
X38350500Y-26155013D01*
X49437500Y-26155013D01*
X49437500Y-26430000D01*
X50275000Y-26430000D01*
X50275000Y-25455000D01*
X50137527Y-25455000D01*
X50137512Y-25455001D01*
X50034802Y-25465494D01*
X49868380Y-25520641D01*
X49868375Y-25520643D01*
X49719154Y-25612684D01*
X49595184Y-25736654D01*
X49503143Y-25885875D01*
X49503141Y-25885880D01*
X49447994Y-26052302D01*
X49447993Y-26052309D01*
X49437500Y-26155013D01*
X38350500Y-26155013D01*
X38350500Y-23374499D01*
X38370185Y-23307460D01*
X38422989Y-23261705D01*
X38474500Y-23250499D01*
X39047871Y-23250499D01*
X39047872Y-23250499D01*
X39107483Y-23244091D01*
X39242331Y-23193796D01*
X39357546Y-23107546D01*
X39443796Y-22992331D01*
X39494091Y-22857483D01*
X39500500Y-22797873D01*
X39500499Y-20202128D01*
X39494091Y-20142517D01*
X39443796Y-20007669D01*
X39443795Y-20007668D01*
X39443793Y-20007664D01*
X39357547Y-19892455D01*
X39357544Y-19892452D01*
X39242335Y-19806206D01*
X39242328Y-19806202D01*
X39107482Y-19755908D01*
X39107483Y-19755908D01*
X39047883Y-19749501D01*
X39047881Y-19749500D01*
X39047873Y-19749500D01*
X39047864Y-19749500D01*
X36452129Y-19749500D01*
X36452123Y-19749501D01*
X36392516Y-19755908D01*
X36257671Y-19806202D01*
X36257664Y-19806206D01*
X36142455Y-19892452D01*
X36142452Y-19892455D01*
X36056206Y-20007664D01*
X36056202Y-20007671D01*
X36005908Y-20142517D01*
X35999501Y-20202116D01*
X35999501Y-20202123D01*
X35999500Y-20202135D01*
X35999500Y-22797870D01*
X35999501Y-22797876D01*
X36005908Y-22857483D01*
X36056202Y-22992328D01*
X36056206Y-22992335D01*
X36142452Y-23107544D01*
X36142455Y-23107547D01*
X36257664Y-23193793D01*
X36257671Y-23193797D01*
X36302618Y-23210561D01*
X36392517Y-23244091D01*
X36452127Y-23250500D01*
X37025500Y-23250499D01*
X37092539Y-23270183D01*
X37138294Y-23322987D01*
X37149500Y-23374499D01*
X37149500Y-28434995D01*
X37129815Y-28502034D01*
X37090600Y-28540532D01*
X37071954Y-28552033D01*
X36952029Y-28671959D01*
X36863001Y-28816294D01*
X36862996Y-28816305D01*
X36809651Y-28977290D01*
X36799500Y-29076647D01*
X36799500Y-29923337D01*
X36799501Y-29923355D01*
X36809650Y-30022707D01*
X36809651Y-30022710D01*
X36862996Y-30183694D01*
X36863001Y-30183705D01*
X36952029Y-30328040D01*
X36952032Y-30328044D01*
X37071956Y-30447968D01*
X37090596Y-30459465D01*
X37137321Y-30511412D01*
X37149500Y-30565004D01*
X37149500Y-32511548D01*
X37129815Y-32578587D01*
X37090597Y-32617086D01*
X36989153Y-32679657D01*
X36989148Y-32679661D01*
X36974825Y-32693984D01*
X36913501Y-32727468D01*
X36843809Y-32722482D01*
X36799465Y-32693982D01*
X36785538Y-32680055D01*
X36785534Y-32680052D01*
X36638811Y-32589551D01*
X36638800Y-32589546D01*
X36475152Y-32535319D01*
X36374154Y-32525000D01*
X36275000Y-32525000D01*
X36275000Y-34474999D01*
X36374140Y-34474999D01*
X36374154Y-34474998D01*
X36475152Y-34464680D01*
X36638800Y-34410453D01*
X36638811Y-34410448D01*
X36785535Y-34319947D01*
X36799460Y-34306021D01*
X36860782Y-34272533D01*
X36930473Y-34277514D01*
X36974827Y-34306017D01*
X36989150Y-34320340D01*
X37090596Y-34382912D01*
X37137321Y-34434860D01*
X37149500Y-34488451D01*
X37149500Y-36663330D01*
X37149499Y-36663348D01*
X37149499Y-36829054D01*
X37149498Y-36829054D01*
X37190423Y-36981785D01*
X37219358Y-37031900D01*
X37219359Y-37031904D01*
X37219360Y-37031904D01*
X37269479Y-37118714D01*
X37269481Y-37118717D01*
X37388349Y-37237585D01*
X37388355Y-37237590D01*
X38125681Y-37974916D01*
X38159166Y-38036239D01*
X38162000Y-38062597D01*
X38162000Y-38504091D01*
X38142315Y-38571130D01*
X38098231Y-38609641D01*
X38099313Y-38611395D01*
X38093167Y-38615185D01*
X38093166Y-38615186D01*
X38025934Y-38656655D01*
X37943842Y-38707289D01*
X37850181Y-38800951D01*
X37788858Y-38834436D01*
X37719166Y-38829452D01*
X37674819Y-38800951D01*
X37581157Y-38707289D01*
X37581156Y-38707288D01*
X37431834Y-38615186D01*
X37265297Y-38560001D01*
X37265295Y-38560000D01*
X37162510Y-38549500D01*
X36362498Y-38549500D01*
X36362480Y-38549501D01*
X36259703Y-38560000D01*
X36259700Y-38560001D01*
X36093168Y-38615185D01*
X36093163Y-38615187D01*
X35943842Y-38707289D01*
X35819789Y-38831342D01*
X35727687Y-38980663D01*
X35727686Y-38980666D01*
X35700203Y-39063604D01*
X35660430Y-39121049D01*
X35595914Y-39147871D01*
X35527138Y-39135556D01*
X35475938Y-39088012D01*
X35459139Y-39037201D01*
X35453363Y-38980666D01*
X35452499Y-38972203D01*
X35397314Y-38805666D01*
X35336633Y-38707288D01*
X35305213Y-38656348D01*
X35305210Y-38656344D01*
X35181155Y-38532289D01*
X35181151Y-38532286D01*
X35031837Y-38440187D01*
X35031835Y-38440186D01*
X34948565Y-38412593D01*
X34865297Y-38385001D01*
X34865295Y-38385000D01*
X34762515Y-38374500D01*
X34762508Y-38374500D01*
X33737492Y-38374500D01*
X33737484Y-38374500D01*
X33634704Y-38385000D01*
X33634703Y-38385001D01*
X33468164Y-38440186D01*
X33468162Y-38440187D01*
X33318848Y-38532286D01*
X33318844Y-38532289D01*
X33194789Y-38656344D01*
X33194786Y-38656348D01*
X33102687Y-38805662D01*
X33102686Y-38805664D01*
X33047501Y-38972203D01*
X33047500Y-38972204D01*
X33037000Y-39074984D01*
X32487496Y-39074984D01*
X32477006Y-38972310D01*
X32477005Y-38972303D01*
X32421858Y-38805881D01*
X32421856Y-38805876D01*
X32329815Y-38656655D01*
X32205844Y-38532684D01*
X32056623Y-38440643D01*
X32056618Y-38440641D01*
X31890196Y-38385494D01*
X31890189Y-38385493D01*
X31787485Y-38375000D01*
X31525000Y-38375000D01*
X31525000Y-39500000D01*
X31025000Y-39500000D01*
X31025000Y-38375000D01*
X30762514Y-38375000D01*
X30659810Y-38385493D01*
X30659803Y-38385494D01*
X30493381Y-38440641D01*
X30493376Y-38440643D01*
X30344155Y-38532684D01*
X30220184Y-38656655D01*
X30128143Y-38805876D01*
X30128141Y-38805881D01*
X30072994Y-38972303D01*
X30072993Y-38972310D01*
X30062500Y-39075014D01*
X28295916Y-39075014D01*
X28285506Y-33786654D01*
X34987501Y-33786654D01*
X34997819Y-33887652D01*
X35052046Y-34051300D01*
X35052051Y-34051311D01*
X35142552Y-34198034D01*
X35142555Y-34198038D01*
X35264461Y-34319944D01*
X35264465Y-34319947D01*
X35411188Y-34410448D01*
X35411199Y-34410453D01*
X35574847Y-34464680D01*
X35675851Y-34474999D01*
X35775000Y-34474998D01*
X35775000Y-33750000D01*
X34987501Y-33750000D01*
X34987501Y-33786654D01*
X28285506Y-33786654D01*
X28284377Y-33213345D01*
X34987500Y-33213345D01*
X34987500Y-33250000D01*
X35775000Y-33250000D01*
X35775000Y-32524999D01*
X35675860Y-32525000D01*
X35675844Y-32525001D01*
X35574847Y-32535319D01*
X35411199Y-32589546D01*
X35411188Y-32589551D01*
X35264465Y-32680052D01*
X35264461Y-32680055D01*
X35142555Y-32801961D01*
X35142552Y-32801965D01*
X35052051Y-32948688D01*
X35052046Y-32948699D01*
X34997819Y-33112347D01*
X34987500Y-33213345D01*
X28284377Y-33213345D01*
X28277901Y-29923322D01*
X33500001Y-29923322D01*
X33510144Y-30022607D01*
X33563452Y-30183481D01*
X33563457Y-30183492D01*
X33652424Y-30327728D01*
X33652427Y-30327732D01*
X33772267Y-30447572D01*
X33772271Y-30447575D01*
X33916507Y-30536542D01*
X33916518Y-30536547D01*
X34077393Y-30589855D01*
X34176683Y-30599999D01*
X34700000Y-30599999D01*
X34723308Y-30599999D01*
X34723322Y-30599998D01*
X34822607Y-30589855D01*
X34983481Y-30536547D01*
X34983492Y-30536542D01*
X35127728Y-30447575D01*
X35127732Y-30447572D01*
X35247572Y-30327732D01*
X35247575Y-30327728D01*
X35336542Y-30183492D01*
X35336547Y-30183481D01*
X35389855Y-30022606D01*
X35399999Y-29923322D01*
X35400000Y-29923309D01*
X35400000Y-29750000D01*
X34700000Y-29750000D01*
X34700000Y-30599999D01*
X34176683Y-30599999D01*
X34200000Y-30599998D01*
X34200000Y-29750000D01*
X33500001Y-29750000D01*
X33500001Y-29923322D01*
X28277901Y-29923322D01*
X28276234Y-29076677D01*
X33500000Y-29076677D01*
X33500000Y-29250000D01*
X34200000Y-29250000D01*
X34700000Y-29250000D01*
X35399999Y-29250000D01*
X35399999Y-29076692D01*
X35399998Y-29076677D01*
X35389855Y-28977392D01*
X35336547Y-28816518D01*
X35336542Y-28816507D01*
X35247575Y-28672271D01*
X35247572Y-28672267D01*
X35127732Y-28552427D01*
X35127728Y-28552424D01*
X34983492Y-28463457D01*
X34983481Y-28463452D01*
X34822606Y-28410144D01*
X34723322Y-28400000D01*
X34700000Y-28400000D01*
X34700000Y-29250000D01*
X34200000Y-29250000D01*
X34200000Y-28399999D01*
X34176693Y-28400000D01*
X34176674Y-28400001D01*
X34077392Y-28410144D01*
X33916518Y-28463452D01*
X33916507Y-28463457D01*
X33772271Y-28552424D01*
X33772267Y-28552427D01*
X33652427Y-28672267D01*
X33652424Y-28672271D01*
X33563457Y-28816507D01*
X33563452Y-28816518D01*
X33510144Y-28977393D01*
X33500000Y-29076677D01*
X28276234Y-29076677D01*
X28261319Y-21499995D01*
X30995093Y-21499995D01*
X30995093Y-21500004D01*
X31014692Y-21761545D01*
X31014693Y-21761550D01*
X31073058Y-22017270D01*
X31168883Y-22261426D01*
X31168882Y-22261426D01*
X31300027Y-22488573D01*
X31347874Y-22548571D01*
X32148958Y-21747488D01*
X32173978Y-21807890D01*
X32245112Y-21914351D01*
X32335649Y-22004888D01*
X32442110Y-22076022D01*
X32502510Y-22101041D01*
X31700830Y-22902720D01*
X31872546Y-23019793D01*
X31872550Y-23019795D01*
X32108854Y-23133594D01*
X32108858Y-23133595D01*
X32359494Y-23210907D01*
X32359500Y-23210909D01*
X32618848Y-23249999D01*
X32618857Y-23250000D01*
X32881143Y-23250000D01*
X32881151Y-23249999D01*
X33140499Y-23210909D01*
X33140505Y-23210907D01*
X33391143Y-23133595D01*
X33627445Y-23019798D01*
X33627447Y-23019797D01*
X33799168Y-22902720D01*
X32997488Y-22101041D01*
X33057890Y-22076022D01*
X33164351Y-22004888D01*
X33254888Y-21914351D01*
X33326022Y-21807890D01*
X33351041Y-21747488D01*
X34152125Y-22548572D01*
X34199971Y-22488573D01*
X34331116Y-22261426D01*
X34426941Y-22017270D01*
X34485306Y-21761550D01*
X34485307Y-21761545D01*
X34504907Y-21500004D01*
X34504907Y-21499995D01*
X34485307Y-21238454D01*
X34485306Y-21238449D01*
X34426941Y-20982729D01*
X34331116Y-20738573D01*
X34331117Y-20738573D01*
X34199972Y-20511426D01*
X34152124Y-20451427D01*
X33351041Y-21252510D01*
X33326022Y-21192110D01*
X33254888Y-21085649D01*
X33164351Y-20995112D01*
X33057890Y-20923978D01*
X32997488Y-20898958D01*
X33799168Y-20097278D01*
X33627454Y-19980206D01*
X33627445Y-19980201D01*
X33391142Y-19866404D01*
X33391144Y-19866404D01*
X33140505Y-19789092D01*
X33140499Y-19789090D01*
X32881151Y-19750000D01*
X32618848Y-19750000D01*
X32359500Y-19789090D01*
X32359494Y-19789092D01*
X32108858Y-19866404D01*
X32108854Y-19866405D01*
X31872547Y-19980205D01*
X31872539Y-19980210D01*
X31700830Y-20097277D01*
X32502511Y-20898958D01*
X32442110Y-20923978D01*
X32335649Y-20995112D01*
X32245112Y-21085649D01*
X32173978Y-21192110D01*
X32148958Y-21252510D01*
X31347874Y-20451427D01*
X31300028Y-20511425D01*
X31168883Y-20738573D01*
X31073058Y-20982729D01*
X31014693Y-21238449D01*
X31014692Y-21238454D01*
X30995093Y-21499995D01*
X28261319Y-21499995D01*
X28250245Y-15874244D01*
X28269798Y-15807166D01*
X28322512Y-15761307D01*
X28374245Y-15750000D01*
X52376487Y-15750000D01*
X52443526Y-15769685D01*
G37*
G04 #@! TD.AperFunction*
G04 #@! TA.AperFunction,Conductor*
G36*
X51195437Y-32990185D02*
G01*
X51241192Y-33042989D01*
X51244580Y-33051167D01*
X51256201Y-33082326D01*
X51260452Y-33090109D01*
X51257394Y-33091778D01*
X51275963Y-33141594D01*
X51261098Y-33209864D01*
X51260717Y-33210457D01*
X51256645Y-33217913D01*
X51206403Y-33352620D01*
X51206401Y-33352627D01*
X51200000Y-33412155D01*
X51200000Y-33535000D01*
X52570020Y-33535000D01*
X52579421Y-35923000D01*
X52612611Y-44353541D01*
X52593191Y-44420657D01*
X52540567Y-44466620D01*
X52471448Y-44476835D01*
X52447658Y-44471071D01*
X52429257Y-44464632D01*
X52429249Y-44464630D01*
X52250004Y-44444435D01*
X52249996Y-44444435D01*
X52070750Y-44464630D01*
X52070745Y-44464631D01*
X51900476Y-44524211D01*
X51747737Y-44620184D01*
X51620184Y-44747737D01*
X51524211Y-44900476D01*
X51464631Y-45070745D01*
X51464630Y-45070750D01*
X51444435Y-45249996D01*
X51444435Y-45250003D01*
X51464630Y-45429249D01*
X51464631Y-45429254D01*
X51524211Y-45599523D01*
X51620185Y-45752263D01*
X51622445Y-45755097D01*
X51623334Y-45757275D01*
X51623889Y-45758158D01*
X51623734Y-45758255D01*
X51648855Y-45819783D01*
X51649500Y-45832412D01*
X51649500Y-45986232D01*
X51629815Y-46053271D01*
X51590598Y-46091769D01*
X51494923Y-46150781D01*
X51443842Y-46182289D01*
X51319788Y-46306343D01*
X51319783Y-46306349D01*
X51317741Y-46309661D01*
X51315747Y-46311453D01*
X51315307Y-46312011D01*
X51315211Y-46311935D01*
X51265791Y-46356383D01*
X51196828Y-46367602D01*
X51132747Y-46339755D01*
X51106668Y-46309656D01*
X51104819Y-46306659D01*
X51104816Y-46306655D01*
X50980845Y-46182684D01*
X50831624Y-46090643D01*
X50831619Y-46090641D01*
X50665197Y-46035494D01*
X50665190Y-46035493D01*
X50562486Y-46025000D01*
X50425000Y-46025000D01*
X50425000Y-48202000D01*
X50491000Y-48202000D01*
X50558039Y-48221685D01*
X50603794Y-48274489D01*
X50615000Y-48326000D01*
X50615000Y-50194999D01*
X50714140Y-50194999D01*
X50714154Y-50194998D01*
X50815152Y-50184680D01*
X50978800Y-50130453D01*
X50978811Y-50130448D01*
X51125535Y-50039947D01*
X51139460Y-50026021D01*
X51200782Y-49992533D01*
X51270473Y-49997514D01*
X51314827Y-50026017D01*
X51329150Y-50040340D01*
X51475984Y-50130908D01*
X51564506Y-50160241D01*
X51621949Y-50200012D01*
X51648772Y-50264528D01*
X51649500Y-50277946D01*
X51649500Y-50395500D01*
X51629815Y-50462539D01*
X51577011Y-50508294D01*
X51525501Y-50519500D01*
X51302130Y-50519500D01*
X51302123Y-50519501D01*
X51242516Y-50525908D01*
X51107671Y-50576202D01*
X51107664Y-50576206D01*
X50992455Y-50662452D01*
X50992452Y-50662455D01*
X50906206Y-50777664D01*
X50906202Y-50777671D01*
X50855910Y-50912513D01*
X50855909Y-50912517D01*
X50849500Y-50972127D01*
X50849500Y-50972134D01*
X50849500Y-50972135D01*
X50849500Y-51717870D01*
X50849501Y-51717876D01*
X50855908Y-51777483D01*
X50906202Y-51912328D01*
X50910454Y-51920114D01*
X50907280Y-51921846D01*
X50925659Y-51971302D01*
X50910725Y-52039557D01*
X50910113Y-52040509D01*
X50906205Y-52047665D01*
X50898310Y-52068834D01*
X50856438Y-52124767D01*
X50790974Y-52149184D01*
X50782128Y-52149500D01*
X50095908Y-52149500D01*
X50028869Y-52129815D01*
X49990363Y-52085728D01*
X49988605Y-52086813D01*
X49984814Y-52080666D01*
X49892712Y-51931344D01*
X49768656Y-51807288D01*
X49675888Y-51750069D01*
X49619336Y-51715187D01*
X49619331Y-51715185D01*
X49595499Y-51707288D01*
X49452797Y-51660001D01*
X49452795Y-51660000D01*
X49350010Y-51649500D01*
X48349998Y-51649500D01*
X48349980Y-51649501D01*
X48247203Y-51660000D01*
X48247200Y-51660001D01*
X48080668Y-51715185D01*
X48080663Y-51715187D01*
X47931345Y-51807287D01*
X47829797Y-51908835D01*
X47768474Y-51942319D01*
X47698782Y-51937335D01*
X47642849Y-51895463D01*
X47636577Y-51886249D01*
X47602712Y-51831344D01*
X47478657Y-51707289D01*
X47478656Y-51707288D01*
X47329334Y-51615186D01*
X47162797Y-51560001D01*
X47162795Y-51560000D01*
X47060010Y-51549500D01*
X46259998Y-51549500D01*
X46259980Y-51549501D01*
X46157203Y-51560000D01*
X46157200Y-51560001D01*
X45990668Y-51615185D01*
X45990663Y-51615187D01*
X45841342Y-51707289D01*
X45747681Y-51800951D01*
X45686358Y-51834436D01*
X45616666Y-51829452D01*
X45572319Y-51800951D01*
X45478657Y-51707289D01*
X45478656Y-51707288D01*
X45329334Y-51615186D01*
X45162797Y-51560001D01*
X45162795Y-51560000D01*
X45060010Y-51549500D01*
X44259998Y-51549500D01*
X44259980Y-51549501D01*
X44157203Y-51560000D01*
X44157200Y-51560001D01*
X43990668Y-51615185D01*
X43990663Y-51615187D01*
X43841342Y-51707289D01*
X43717289Y-51831342D01*
X43625187Y-51980663D01*
X43625186Y-51980666D01*
X43570001Y-52147203D01*
X43570001Y-52147204D01*
X43570000Y-52147204D01*
X43559500Y-52249983D01*
X43559500Y-53250001D01*
X43559501Y-53250019D01*
X43570000Y-53352796D01*
X43570001Y-53352799D01*
X43625185Y-53519331D01*
X43625187Y-53519336D01*
X43654602Y-53567025D01*
X43717288Y-53668656D01*
X43841344Y-53792712D01*
X43990666Y-53884814D01*
X43990667Y-53884814D01*
X43996813Y-53888605D01*
X43995706Y-53890399D01*
X44040337Y-53929687D01*
X44059500Y-53995908D01*
X44059500Y-58039902D01*
X44039815Y-58106941D01*
X44023181Y-58127583D01*
X35050395Y-67100368D01*
X34989072Y-67133853D01*
X34919380Y-67128869D01*
X34908916Y-67124409D01*
X34891324Y-67115937D01*
X34640623Y-67038606D01*
X34640619Y-67038605D01*
X34640615Y-67038604D01*
X34515823Y-67019794D01*
X34381187Y-66999500D01*
X34381182Y-66999500D01*
X34118818Y-66999500D01*
X34118812Y-66999500D01*
X33880230Y-67035462D01*
X33811005Y-67025989D01*
X33757891Y-66980595D01*
X33737751Y-66913691D01*
X33756979Y-66846519D01*
X33774062Y-66825171D01*
X40358506Y-60240728D01*
X40358511Y-60240724D01*
X40368714Y-60230520D01*
X40368716Y-60230520D01*
X40480520Y-60118716D01*
X40491326Y-60100000D01*
X40538544Y-60018216D01*
X40538545Y-60018214D01*
X40559574Y-59981790D01*
X40559573Y-59981790D01*
X40559577Y-59981785D01*
X40600500Y-59829058D01*
X40600500Y-59670943D01*
X40600500Y-49506654D01*
X49327501Y-49506654D01*
X49337819Y-49607652D01*
X49392046Y-49771300D01*
X49392051Y-49771311D01*
X49482552Y-49918034D01*
X49482555Y-49918038D01*
X49604461Y-50039944D01*
X49604465Y-50039947D01*
X49751188Y-50130448D01*
X49751199Y-50130453D01*
X49914847Y-50184680D01*
X50015851Y-50194999D01*
X50115000Y-50194998D01*
X50115000Y-49470000D01*
X49327501Y-49470000D01*
X49327501Y-49506654D01*
X40600500Y-49506654D01*
X40600500Y-47774986D01*
X49087501Y-47774986D01*
X49097994Y-47877697D01*
X49153141Y-48044119D01*
X49153143Y-48044124D01*
X49245184Y-48193345D01*
X49369156Y-48317317D01*
X49437201Y-48359287D01*
X49483926Y-48411235D01*
X49495149Y-48480197D01*
X49477644Y-48529923D01*
X49392048Y-48668694D01*
X49392046Y-48668699D01*
X49337819Y-48832347D01*
X49327500Y-48933345D01*
X49327500Y-48970000D01*
X50115000Y-48970000D01*
X50115000Y-48518000D01*
X50049000Y-48518000D01*
X49981961Y-48498315D01*
X49936206Y-48445511D01*
X49925000Y-48394000D01*
X49925000Y-47500000D01*
X49087501Y-47500000D01*
X49087501Y-47774986D01*
X40600500Y-47774986D01*
X40600500Y-46725013D01*
X49087500Y-46725013D01*
X49087500Y-47000000D01*
X49925000Y-47000000D01*
X49925000Y-46025000D01*
X49787527Y-46025000D01*
X49787512Y-46025001D01*
X49684802Y-46035494D01*
X49518380Y-46090641D01*
X49518375Y-46090643D01*
X49369154Y-46182684D01*
X49245184Y-46306654D01*
X49153143Y-46455875D01*
X49153141Y-46455880D01*
X49097994Y-46622302D01*
X49097993Y-46622309D01*
X49087500Y-46725013D01*
X40600500Y-46725013D01*
X40600500Y-44300096D01*
X40620185Y-44233057D01*
X40636814Y-44212420D01*
X43858506Y-40990727D01*
X43858511Y-40990724D01*
X43868714Y-40980520D01*
X43868716Y-40980520D01*
X43980520Y-40868716D01*
X44059577Y-40731784D01*
X44100500Y-40579057D01*
X44100500Y-39737135D01*
X46492000Y-39737135D01*
X46492000Y-41332870D01*
X46492001Y-41332876D01*
X46498408Y-41392483D01*
X46548702Y-41527328D01*
X46548706Y-41527335D01*
X46634952Y-41642544D01*
X46634955Y-41642547D01*
X46750164Y-41728793D01*
X46750171Y-41728797D01*
X46885017Y-41779091D01*
X46885016Y-41779091D01*
X46891944Y-41779835D01*
X46944627Y-41785500D01*
X48540372Y-41785499D01*
X48599983Y-41779091D01*
X48734831Y-41728796D01*
X48850046Y-41642546D01*
X48936296Y-41527331D01*
X48986591Y-41392483D01*
X48993000Y-41332873D01*
X48992999Y-41265988D01*
X49012683Y-41198952D01*
X49065486Y-41153196D01*
X49134644Y-41143252D01*
X49198200Y-41172276D01*
X49218573Y-41194866D01*
X49239373Y-41224571D01*
X49239374Y-41224571D01*
X49799537Y-40664408D01*
X49816575Y-40727993D01*
X49882401Y-40842007D01*
X49975493Y-40935099D01*
X50089507Y-41000925D01*
X50153090Y-41017962D01*
X49592927Y-41578124D01*
X49655112Y-41621666D01*
X49853340Y-41714101D01*
X49853349Y-41714105D01*
X50064605Y-41770710D01*
X50064615Y-41770712D01*
X50282499Y-41789775D01*
X50282501Y-41789775D01*
X50500384Y-41770712D01*
X50500394Y-41770710D01*
X50711650Y-41714105D01*
X50711664Y-41714100D01*
X50909883Y-41621669D01*
X50909885Y-41621668D01*
X50972071Y-41578124D01*
X50411910Y-41017962D01*
X50475493Y-41000925D01*
X50589507Y-40935099D01*
X50682599Y-40842007D01*
X50748425Y-40727993D01*
X50765462Y-40664409D01*
X51325624Y-41224570D01*
X51369168Y-41162385D01*
X51369169Y-41162383D01*
X51461600Y-40964164D01*
X51461605Y-40964150D01*
X51518210Y-40752894D01*
X51518212Y-40752884D01*
X51537275Y-40535000D01*
X51537275Y-40534999D01*
X51518212Y-40317115D01*
X51518210Y-40317105D01*
X51461605Y-40105849D01*
X51461601Y-40105840D01*
X51369167Y-39907614D01*
X51369166Y-39907612D01*
X51325624Y-39845428D01*
X51325624Y-39845427D01*
X50765462Y-40405589D01*
X50748425Y-40342007D01*
X50682599Y-40227993D01*
X50589507Y-40134901D01*
X50475493Y-40069075D01*
X50411909Y-40052037D01*
X50972071Y-39491874D01*
X50909887Y-39448333D01*
X50711659Y-39355898D01*
X50711650Y-39355894D01*
X50500394Y-39299289D01*
X50500384Y-39299287D01*
X50282501Y-39280225D01*
X50282499Y-39280225D01*
X50064615Y-39299287D01*
X50064605Y-39299289D01*
X49853349Y-39355894D01*
X49853340Y-39355898D01*
X49655113Y-39448333D01*
X49592928Y-39491874D01*
X50153091Y-40052037D01*
X50089507Y-40069075D01*
X49975493Y-40134901D01*
X49882401Y-40227993D01*
X49816575Y-40342007D01*
X49799537Y-40405591D01*
X49239374Y-39845428D01*
X49218575Y-39875133D01*
X49163999Y-39918759D01*
X49094500Y-39925953D01*
X49032145Y-39894431D01*
X48996731Y-39834202D01*
X48992999Y-39804011D01*
X48992999Y-39737129D01*
X48992998Y-39737123D01*
X48992997Y-39737116D01*
X48986591Y-39677517D01*
X48936296Y-39542669D01*
X48936295Y-39542668D01*
X48936293Y-39542664D01*
X48850047Y-39427455D01*
X48850044Y-39427452D01*
X48734835Y-39341206D01*
X48734828Y-39341202D01*
X48599982Y-39290908D01*
X48599983Y-39290908D01*
X48540383Y-39284501D01*
X48540381Y-39284500D01*
X48540373Y-39284500D01*
X48540364Y-39284500D01*
X46944629Y-39284500D01*
X46944623Y-39284501D01*
X46885016Y-39290908D01*
X46750171Y-39341202D01*
X46750164Y-39341206D01*
X46634955Y-39427452D01*
X46634952Y-39427455D01*
X46548706Y-39542664D01*
X46548702Y-39542671D01*
X46498408Y-39677517D01*
X46492001Y-39737116D01*
X46492001Y-39737123D01*
X46492000Y-39737135D01*
X44100500Y-39737135D01*
X44100500Y-34749986D01*
X47900001Y-34749986D01*
X47910494Y-34852697D01*
X47965641Y-35019119D01*
X47965643Y-35019124D01*
X48057684Y-35168345D01*
X48181654Y-35292315D01*
X48330875Y-35384356D01*
X48330880Y-35384358D01*
X48497302Y-35439505D01*
X48497309Y-35439506D01*
X48600019Y-35449999D01*
X48849999Y-35449999D01*
X49350000Y-35449999D01*
X49599972Y-35449999D01*
X49599986Y-35449998D01*
X49702697Y-35439505D01*
X49737887Y-35427844D01*
X51200000Y-35427844D01*
X51206401Y-35487372D01*
X51206403Y-35487379D01*
X51256645Y-35622086D01*
X51256649Y-35622093D01*
X51342809Y-35737187D01*
X51342812Y-35737190D01*
X51457906Y-35823350D01*
X51457913Y-35823354D01*
X51592620Y-35873596D01*
X51592627Y-35873598D01*
X51652155Y-35879999D01*
X51652172Y-35880000D01*
X52250000Y-35880000D01*
X52250000Y-35305000D01*
X51200000Y-35305000D01*
X51200000Y-35427844D01*
X49737887Y-35427844D01*
X49869119Y-35384358D01*
X49869124Y-35384356D01*
X50018345Y-35292315D01*
X50142315Y-35168345D01*
X50234356Y-35019124D01*
X50234358Y-35019119D01*
X50289505Y-34852697D01*
X50289506Y-34852690D01*
X50299999Y-34749986D01*
X50300000Y-34749973D01*
X50300000Y-34600000D01*
X49350000Y-34600000D01*
X49350000Y-35449999D01*
X48849999Y-35449999D01*
X48850000Y-35449998D01*
X48850000Y-34600000D01*
X47900001Y-34600000D01*
X47900001Y-34749986D01*
X44100500Y-34749986D01*
X44100500Y-34157844D01*
X51200000Y-34157844D01*
X51206401Y-34217372D01*
X51206403Y-34217379D01*
X51256645Y-34352086D01*
X51260897Y-34359872D01*
X51257780Y-34361573D01*
X51276273Y-34411155D01*
X51261420Y-34479428D01*
X51260483Y-34480885D01*
X51256645Y-34487913D01*
X51206403Y-34622620D01*
X51206401Y-34622627D01*
X51200000Y-34682155D01*
X51200000Y-34805000D01*
X52250000Y-34805000D01*
X52250000Y-34035000D01*
X51200000Y-34035000D01*
X51200000Y-34157844D01*
X44100500Y-34157844D01*
X44100500Y-34050096D01*
X44120185Y-33983057D01*
X44136815Y-33962419D01*
X44492416Y-33606817D01*
X44553739Y-33573333D01*
X44580097Y-33570499D01*
X45225002Y-33570499D01*
X45225008Y-33570499D01*
X45327797Y-33559999D01*
X45494334Y-33504814D01*
X45643656Y-33412712D01*
X45737319Y-33319049D01*
X45798642Y-33285564D01*
X45868334Y-33290548D01*
X45912681Y-33319049D01*
X46006344Y-33412712D01*
X46155666Y-33504814D01*
X46322203Y-33559999D01*
X46424991Y-33570500D01*
X47225008Y-33570499D01*
X47225016Y-33570498D01*
X47225019Y-33570498D01*
X47281302Y-33564748D01*
X47327797Y-33559999D01*
X47494334Y-33504814D01*
X47643656Y-33412712D01*
X47767712Y-33288656D01*
X47843970Y-33165022D01*
X47895917Y-33118298D01*
X47964879Y-33107075D01*
X48028962Y-33134919D01*
X48055045Y-33165020D01*
X48057287Y-33168654D01*
X48057289Y-33168657D01*
X48151304Y-33262672D01*
X48184789Y-33323995D01*
X48179805Y-33393687D01*
X48151305Y-33438034D01*
X48057682Y-33531657D01*
X47965643Y-33680875D01*
X47965641Y-33680880D01*
X47910494Y-33847302D01*
X47910493Y-33847309D01*
X47900000Y-33950013D01*
X47900000Y-34100000D01*
X50299999Y-34100000D01*
X50299999Y-33950028D01*
X50299998Y-33950013D01*
X50289505Y-33847302D01*
X50234358Y-33680880D01*
X50234356Y-33680875D01*
X50142315Y-33531654D01*
X50048695Y-33438034D01*
X50015210Y-33376711D01*
X50020194Y-33307019D01*
X50048691Y-33262676D01*
X50142712Y-33168656D01*
X50228603Y-33029402D01*
X50280551Y-32982679D01*
X50334142Y-32970500D01*
X51128398Y-32970500D01*
X51195437Y-32990185D01*
G37*
G04 #@! TD.AperFunction*
M02*
