G04 #@! TF.GenerationSoftware,KiCad,Pcbnew,8.0.4*
G04 #@! TF.CreationDate,2025-07-07T19:56:56+02:00*
G04 #@! TF.ProjectId,pec,7065632e-6b69-4636-9164-5f7063625858,rev?*
G04 #@! TF.SameCoordinates,Original*
G04 #@! TF.FileFunction,Legend,Bot*
G04 #@! TF.FilePolarity,Positive*
%FSLAX46Y46*%
G04 Gerber Fmt 4.6, Leading zero omitted, Abs format (unit mm)*
G04 Created by KiCad (PCBNEW 8.0.4) date 2025-07-07 19:56:56*
%MOMM*%
%LPD*%
G01*
G04 APERTURE LIST*
G04 Aperture macros list*
%AMRoundRect*
0 Rectangle with rounded corners*
0 $1 Rounding radius*
0 $2 $3 $4 $5 $6 $7 $8 $9 X,Y pos of 4 corners*
0 Add a 4 corners polygon primitive as box body*
4,1,4,$2,$3,$4,$5,$6,$7,$8,$9,$2,$3,0*
0 Add four circle primitives for the rounded corners*
1,1,$1+$1,$2,$3*
1,1,$1+$1,$4,$5*
1,1,$1+$1,$6,$7*
1,1,$1+$1,$8,$9*
0 Add four rect primitives between the rounded corners*
20,1,$1+$1,$2,$3,$4,$5,0*
20,1,$1+$1,$4,$5,$6,$7,0*
20,1,$1+$1,$6,$7,$8,$9,0*
20,1,$1+$1,$8,$9,$2,$3,0*%
G04 Aperture macros list end*
%ADD10C,0.300000*%
%ADD11C,0.150000*%
%ADD12C,0.120000*%
%ADD13R,2.310000X2.310000*%
%ADD14C,2.310000*%
%ADD15RoundRect,0.250001X0.799999X1.549999X-0.799999X1.549999X-0.799999X-1.549999X0.799999X-1.549999X0*%
%ADD16O,2.100000X3.600000*%
%ADD17R,1.500000X1.500000*%
%ADD18C,1.500000*%
%ADD19C,2.400000*%
%ADD20R,4.000000X4.000000*%
%ADD21C,4.000000*%
%ADD22R,2.500000X2.500000*%
%ADD23C,2.500000*%
%ADD24RoundRect,0.250001X1.549999X-0.799999X1.549999X0.799999X-1.549999X0.799999X-1.549999X-0.799999X0*%
%ADD25O,3.600000X2.100000*%
%ADD26R,3.200000X3.200000*%
%ADD27O,3.200000X3.200000*%
%ADD28C,3.400000*%
%ADD29RoundRect,0.237500X-0.300000X-0.237500X0.300000X-0.237500X0.300000X0.237500X-0.300000X0.237500X0*%
%ADD30RoundRect,0.237500X0.300000X0.237500X-0.300000X0.237500X-0.300000X-0.237500X0.300000X-0.237500X0*%
%ADD31RoundRect,0.250000X-0.412500X-1.100000X0.412500X-1.100000X0.412500X1.100000X-0.412500X1.100000X0*%
G04 APERTURE END LIST*
D10*
X32695489Y-132015114D02*
X32481203Y-132086542D01*
X32481203Y-132086542D02*
X32409774Y-132157971D01*
X32409774Y-132157971D02*
X32338346Y-132300828D01*
X32338346Y-132300828D02*
X32338346Y-132515114D01*
X32338346Y-132515114D02*
X32409774Y-132657971D01*
X32409774Y-132657971D02*
X32481203Y-132729400D01*
X32481203Y-132729400D02*
X32624060Y-132800828D01*
X32624060Y-132800828D02*
X33195489Y-132800828D01*
X33195489Y-132800828D02*
X33195489Y-131300828D01*
X33195489Y-131300828D02*
X32695489Y-131300828D01*
X32695489Y-131300828D02*
X32552632Y-131372257D01*
X32552632Y-131372257D02*
X32481203Y-131443685D01*
X32481203Y-131443685D02*
X32409774Y-131586542D01*
X32409774Y-131586542D02*
X32409774Y-131729400D01*
X32409774Y-131729400D02*
X32481203Y-131872257D01*
X32481203Y-131872257D02*
X32552632Y-131943685D01*
X32552632Y-131943685D02*
X32695489Y-132015114D01*
X32695489Y-132015114D02*
X33195489Y-132015114D01*
X31409774Y-131300828D02*
X31124060Y-131300828D01*
X31124060Y-131300828D02*
X30981203Y-131372257D01*
X30981203Y-131372257D02*
X30838346Y-131515114D01*
X30838346Y-131515114D02*
X30766917Y-131800828D01*
X30766917Y-131800828D02*
X30766917Y-132300828D01*
X30766917Y-132300828D02*
X30838346Y-132586542D01*
X30838346Y-132586542D02*
X30981203Y-132729400D01*
X30981203Y-132729400D02*
X31124060Y-132800828D01*
X31124060Y-132800828D02*
X31409774Y-132800828D01*
X31409774Y-132800828D02*
X31552632Y-132729400D01*
X31552632Y-132729400D02*
X31695489Y-132586542D01*
X31695489Y-132586542D02*
X31766917Y-132300828D01*
X31766917Y-132300828D02*
X31766917Y-131800828D01*
X31766917Y-131800828D02*
X31695489Y-131515114D01*
X31695489Y-131515114D02*
X31552632Y-131372257D01*
X31552632Y-131372257D02*
X31409774Y-131300828D01*
X30338345Y-131300828D02*
X29481203Y-131300828D01*
X29909774Y-132800828D02*
X29909774Y-131300828D01*
D11*
X62742857Y-26559580D02*
X62790476Y-26607200D01*
X62790476Y-26607200D02*
X62933333Y-26654819D01*
X62933333Y-26654819D02*
X63028571Y-26654819D01*
X63028571Y-26654819D02*
X63171428Y-26607200D01*
X63171428Y-26607200D02*
X63266666Y-26511961D01*
X63266666Y-26511961D02*
X63314285Y-26416723D01*
X63314285Y-26416723D02*
X63361904Y-26226247D01*
X63361904Y-26226247D02*
X63361904Y-26083390D01*
X63361904Y-26083390D02*
X63314285Y-25892914D01*
X63314285Y-25892914D02*
X63266666Y-25797676D01*
X63266666Y-25797676D02*
X63171428Y-25702438D01*
X63171428Y-25702438D02*
X63028571Y-25654819D01*
X63028571Y-25654819D02*
X62933333Y-25654819D01*
X62933333Y-25654819D02*
X62790476Y-25702438D01*
X62790476Y-25702438D02*
X62742857Y-25750057D01*
X62361904Y-25750057D02*
X62314285Y-25702438D01*
X62314285Y-25702438D02*
X62219047Y-25654819D01*
X62219047Y-25654819D02*
X61980952Y-25654819D01*
X61980952Y-25654819D02*
X61885714Y-25702438D01*
X61885714Y-25702438D02*
X61838095Y-25750057D01*
X61838095Y-25750057D02*
X61790476Y-25845295D01*
X61790476Y-25845295D02*
X61790476Y-25940533D01*
X61790476Y-25940533D02*
X61838095Y-26083390D01*
X61838095Y-26083390D02*
X62409523Y-26654819D01*
X62409523Y-26654819D02*
X61790476Y-26654819D01*
X61219047Y-26083390D02*
X61314285Y-26035771D01*
X61314285Y-26035771D02*
X61361904Y-25988152D01*
X61361904Y-25988152D02*
X61409523Y-25892914D01*
X61409523Y-25892914D02*
X61409523Y-25845295D01*
X61409523Y-25845295D02*
X61361904Y-25750057D01*
X61361904Y-25750057D02*
X61314285Y-25702438D01*
X61314285Y-25702438D02*
X61219047Y-25654819D01*
X61219047Y-25654819D02*
X61028571Y-25654819D01*
X61028571Y-25654819D02*
X60933333Y-25702438D01*
X60933333Y-25702438D02*
X60885714Y-25750057D01*
X60885714Y-25750057D02*
X60838095Y-25845295D01*
X60838095Y-25845295D02*
X60838095Y-25892914D01*
X60838095Y-25892914D02*
X60885714Y-25988152D01*
X60885714Y-25988152D02*
X60933333Y-26035771D01*
X60933333Y-26035771D02*
X61028571Y-26083390D01*
X61028571Y-26083390D02*
X61219047Y-26083390D01*
X61219047Y-26083390D02*
X61314285Y-26131009D01*
X61314285Y-26131009D02*
X61361904Y-26178628D01*
X61361904Y-26178628D02*
X61409523Y-26273866D01*
X61409523Y-26273866D02*
X61409523Y-26464342D01*
X61409523Y-26464342D02*
X61361904Y-26559580D01*
X61361904Y-26559580D02*
X61314285Y-26607200D01*
X61314285Y-26607200D02*
X61219047Y-26654819D01*
X61219047Y-26654819D02*
X61028571Y-26654819D01*
X61028571Y-26654819D02*
X60933333Y-26607200D01*
X60933333Y-26607200D02*
X60885714Y-26559580D01*
X60885714Y-26559580D02*
X60838095Y-26464342D01*
X60838095Y-26464342D02*
X60838095Y-26273866D01*
X60838095Y-26273866D02*
X60885714Y-26178628D01*
X60885714Y-26178628D02*
X60933333Y-26131009D01*
X60933333Y-26131009D02*
X61028571Y-26083390D01*
X61617857Y-47209580D02*
X61665476Y-47257200D01*
X61665476Y-47257200D02*
X61808333Y-47304819D01*
X61808333Y-47304819D02*
X61903571Y-47304819D01*
X61903571Y-47304819D02*
X62046428Y-47257200D01*
X62046428Y-47257200D02*
X62141666Y-47161961D01*
X62141666Y-47161961D02*
X62189285Y-47066723D01*
X62189285Y-47066723D02*
X62236904Y-46876247D01*
X62236904Y-46876247D02*
X62236904Y-46733390D01*
X62236904Y-46733390D02*
X62189285Y-46542914D01*
X62189285Y-46542914D02*
X62141666Y-46447676D01*
X62141666Y-46447676D02*
X62046428Y-46352438D01*
X62046428Y-46352438D02*
X61903571Y-46304819D01*
X61903571Y-46304819D02*
X61808333Y-46304819D01*
X61808333Y-46304819D02*
X61665476Y-46352438D01*
X61665476Y-46352438D02*
X61617857Y-46400057D01*
X61284523Y-46304819D02*
X60665476Y-46304819D01*
X60665476Y-46304819D02*
X60998809Y-46685771D01*
X60998809Y-46685771D02*
X60855952Y-46685771D01*
X60855952Y-46685771D02*
X60760714Y-46733390D01*
X60760714Y-46733390D02*
X60713095Y-46781009D01*
X60713095Y-46781009D02*
X60665476Y-46876247D01*
X60665476Y-46876247D02*
X60665476Y-47114342D01*
X60665476Y-47114342D02*
X60713095Y-47209580D01*
X60713095Y-47209580D02*
X60760714Y-47257200D01*
X60760714Y-47257200D02*
X60855952Y-47304819D01*
X60855952Y-47304819D02*
X61141666Y-47304819D01*
X61141666Y-47304819D02*
X61236904Y-47257200D01*
X61236904Y-47257200D02*
X61284523Y-47209580D01*
X59713095Y-47304819D02*
X60284523Y-47304819D01*
X59998809Y-47304819D02*
X59998809Y-46304819D01*
X59998809Y-46304819D02*
X60094047Y-46447676D01*
X60094047Y-46447676D02*
X60189285Y-46542914D01*
X60189285Y-46542914D02*
X60284523Y-46590533D01*
X62192857Y-70709580D02*
X62240476Y-70757200D01*
X62240476Y-70757200D02*
X62383333Y-70804819D01*
X62383333Y-70804819D02*
X62478571Y-70804819D01*
X62478571Y-70804819D02*
X62621428Y-70757200D01*
X62621428Y-70757200D02*
X62716666Y-70661961D01*
X62716666Y-70661961D02*
X62764285Y-70566723D01*
X62764285Y-70566723D02*
X62811904Y-70376247D01*
X62811904Y-70376247D02*
X62811904Y-70233390D01*
X62811904Y-70233390D02*
X62764285Y-70042914D01*
X62764285Y-70042914D02*
X62716666Y-69947676D01*
X62716666Y-69947676D02*
X62621428Y-69852438D01*
X62621428Y-69852438D02*
X62478571Y-69804819D01*
X62478571Y-69804819D02*
X62383333Y-69804819D01*
X62383333Y-69804819D02*
X62240476Y-69852438D01*
X62240476Y-69852438D02*
X62192857Y-69900057D01*
X61859523Y-69804819D02*
X61240476Y-69804819D01*
X61240476Y-69804819D02*
X61573809Y-70185771D01*
X61573809Y-70185771D02*
X61430952Y-70185771D01*
X61430952Y-70185771D02*
X61335714Y-70233390D01*
X61335714Y-70233390D02*
X61288095Y-70281009D01*
X61288095Y-70281009D02*
X61240476Y-70376247D01*
X61240476Y-70376247D02*
X61240476Y-70614342D01*
X61240476Y-70614342D02*
X61288095Y-70709580D01*
X61288095Y-70709580D02*
X61335714Y-70757200D01*
X61335714Y-70757200D02*
X61430952Y-70804819D01*
X61430952Y-70804819D02*
X61716666Y-70804819D01*
X61716666Y-70804819D02*
X61811904Y-70757200D01*
X61811904Y-70757200D02*
X61859523Y-70709580D01*
X60383333Y-70138152D02*
X60383333Y-70804819D01*
X60621428Y-69757200D02*
X60859523Y-70471485D01*
X60859523Y-70471485D02*
X60240476Y-70471485D01*
X53042857Y-38209580D02*
X53090476Y-38257200D01*
X53090476Y-38257200D02*
X53233333Y-38304819D01*
X53233333Y-38304819D02*
X53328571Y-38304819D01*
X53328571Y-38304819D02*
X53471428Y-38257200D01*
X53471428Y-38257200D02*
X53566666Y-38161961D01*
X53566666Y-38161961D02*
X53614285Y-38066723D01*
X53614285Y-38066723D02*
X53661904Y-37876247D01*
X53661904Y-37876247D02*
X53661904Y-37733390D01*
X53661904Y-37733390D02*
X53614285Y-37542914D01*
X53614285Y-37542914D02*
X53566666Y-37447676D01*
X53566666Y-37447676D02*
X53471428Y-37352438D01*
X53471428Y-37352438D02*
X53328571Y-37304819D01*
X53328571Y-37304819D02*
X53233333Y-37304819D01*
X53233333Y-37304819D02*
X53090476Y-37352438D01*
X53090476Y-37352438D02*
X53042857Y-37400057D01*
X52709523Y-37304819D02*
X52090476Y-37304819D01*
X52090476Y-37304819D02*
X52423809Y-37685771D01*
X52423809Y-37685771D02*
X52280952Y-37685771D01*
X52280952Y-37685771D02*
X52185714Y-37733390D01*
X52185714Y-37733390D02*
X52138095Y-37781009D01*
X52138095Y-37781009D02*
X52090476Y-37876247D01*
X52090476Y-37876247D02*
X52090476Y-38114342D01*
X52090476Y-38114342D02*
X52138095Y-38209580D01*
X52138095Y-38209580D02*
X52185714Y-38257200D01*
X52185714Y-38257200D02*
X52280952Y-38304819D01*
X52280952Y-38304819D02*
X52566666Y-38304819D01*
X52566666Y-38304819D02*
X52661904Y-38257200D01*
X52661904Y-38257200D02*
X52709523Y-38209580D01*
X51757142Y-37304819D02*
X51138095Y-37304819D01*
X51138095Y-37304819D02*
X51471428Y-37685771D01*
X51471428Y-37685771D02*
X51328571Y-37685771D01*
X51328571Y-37685771D02*
X51233333Y-37733390D01*
X51233333Y-37733390D02*
X51185714Y-37781009D01*
X51185714Y-37781009D02*
X51138095Y-37876247D01*
X51138095Y-37876247D02*
X51138095Y-38114342D01*
X51138095Y-38114342D02*
X51185714Y-38209580D01*
X51185714Y-38209580D02*
X51233333Y-38257200D01*
X51233333Y-38257200D02*
X51328571Y-38304819D01*
X51328571Y-38304819D02*
X51614285Y-38304819D01*
X51614285Y-38304819D02*
X51709523Y-38257200D01*
X51709523Y-38257200D02*
X51757142Y-38209580D01*
X46142857Y-82609580D02*
X46190476Y-82657200D01*
X46190476Y-82657200D02*
X46333333Y-82704819D01*
X46333333Y-82704819D02*
X46428571Y-82704819D01*
X46428571Y-82704819D02*
X46571428Y-82657200D01*
X46571428Y-82657200D02*
X46666666Y-82561961D01*
X46666666Y-82561961D02*
X46714285Y-82466723D01*
X46714285Y-82466723D02*
X46761904Y-82276247D01*
X46761904Y-82276247D02*
X46761904Y-82133390D01*
X46761904Y-82133390D02*
X46714285Y-81942914D01*
X46714285Y-81942914D02*
X46666666Y-81847676D01*
X46666666Y-81847676D02*
X46571428Y-81752438D01*
X46571428Y-81752438D02*
X46428571Y-81704819D01*
X46428571Y-81704819D02*
X46333333Y-81704819D01*
X46333333Y-81704819D02*
X46190476Y-81752438D01*
X46190476Y-81752438D02*
X46142857Y-81800057D01*
X45809523Y-81704819D02*
X45190476Y-81704819D01*
X45190476Y-81704819D02*
X45523809Y-82085771D01*
X45523809Y-82085771D02*
X45380952Y-82085771D01*
X45380952Y-82085771D02*
X45285714Y-82133390D01*
X45285714Y-82133390D02*
X45238095Y-82181009D01*
X45238095Y-82181009D02*
X45190476Y-82276247D01*
X45190476Y-82276247D02*
X45190476Y-82514342D01*
X45190476Y-82514342D02*
X45238095Y-82609580D01*
X45238095Y-82609580D02*
X45285714Y-82657200D01*
X45285714Y-82657200D02*
X45380952Y-82704819D01*
X45380952Y-82704819D02*
X45666666Y-82704819D01*
X45666666Y-82704819D02*
X45761904Y-82657200D01*
X45761904Y-82657200D02*
X45809523Y-82609580D01*
X44333333Y-81704819D02*
X44523809Y-81704819D01*
X44523809Y-81704819D02*
X44619047Y-81752438D01*
X44619047Y-81752438D02*
X44666666Y-81800057D01*
X44666666Y-81800057D02*
X44761904Y-81942914D01*
X44761904Y-81942914D02*
X44809523Y-82133390D01*
X44809523Y-82133390D02*
X44809523Y-82514342D01*
X44809523Y-82514342D02*
X44761904Y-82609580D01*
X44761904Y-82609580D02*
X44714285Y-82657200D01*
X44714285Y-82657200D02*
X44619047Y-82704819D01*
X44619047Y-82704819D02*
X44428571Y-82704819D01*
X44428571Y-82704819D02*
X44333333Y-82657200D01*
X44333333Y-82657200D02*
X44285714Y-82609580D01*
X44285714Y-82609580D02*
X44238095Y-82514342D01*
X44238095Y-82514342D02*
X44238095Y-82276247D01*
X44238095Y-82276247D02*
X44285714Y-82181009D01*
X44285714Y-82181009D02*
X44333333Y-82133390D01*
X44333333Y-82133390D02*
X44428571Y-82085771D01*
X44428571Y-82085771D02*
X44619047Y-82085771D01*
X44619047Y-82085771D02*
X44714285Y-82133390D01*
X44714285Y-82133390D02*
X44761904Y-82181009D01*
X44761904Y-82181009D02*
X44809523Y-82276247D01*
X62727857Y-91297080D02*
X62775476Y-91344700D01*
X62775476Y-91344700D02*
X62918333Y-91392319D01*
X62918333Y-91392319D02*
X63013571Y-91392319D01*
X63013571Y-91392319D02*
X63156428Y-91344700D01*
X63156428Y-91344700D02*
X63251666Y-91249461D01*
X63251666Y-91249461D02*
X63299285Y-91154223D01*
X63299285Y-91154223D02*
X63346904Y-90963747D01*
X63346904Y-90963747D02*
X63346904Y-90820890D01*
X63346904Y-90820890D02*
X63299285Y-90630414D01*
X63299285Y-90630414D02*
X63251666Y-90535176D01*
X63251666Y-90535176D02*
X63156428Y-90439938D01*
X63156428Y-90439938D02*
X63013571Y-90392319D01*
X63013571Y-90392319D02*
X62918333Y-90392319D01*
X62918333Y-90392319D02*
X62775476Y-90439938D01*
X62775476Y-90439938D02*
X62727857Y-90487557D01*
X62394523Y-90392319D02*
X61775476Y-90392319D01*
X61775476Y-90392319D02*
X62108809Y-90773271D01*
X62108809Y-90773271D02*
X61965952Y-90773271D01*
X61965952Y-90773271D02*
X61870714Y-90820890D01*
X61870714Y-90820890D02*
X61823095Y-90868509D01*
X61823095Y-90868509D02*
X61775476Y-90963747D01*
X61775476Y-90963747D02*
X61775476Y-91201842D01*
X61775476Y-91201842D02*
X61823095Y-91297080D01*
X61823095Y-91297080D02*
X61870714Y-91344700D01*
X61870714Y-91344700D02*
X61965952Y-91392319D01*
X61965952Y-91392319D02*
X62251666Y-91392319D01*
X62251666Y-91392319D02*
X62346904Y-91344700D01*
X62346904Y-91344700D02*
X62394523Y-91297080D01*
X61442142Y-90392319D02*
X60775476Y-90392319D01*
X60775476Y-90392319D02*
X61204047Y-91392319D01*
X63492857Y-23759580D02*
X63540476Y-23807200D01*
X63540476Y-23807200D02*
X63683333Y-23854819D01*
X63683333Y-23854819D02*
X63778571Y-23854819D01*
X63778571Y-23854819D02*
X63921428Y-23807200D01*
X63921428Y-23807200D02*
X64016666Y-23711961D01*
X64016666Y-23711961D02*
X64064285Y-23616723D01*
X64064285Y-23616723D02*
X64111904Y-23426247D01*
X64111904Y-23426247D02*
X64111904Y-23283390D01*
X64111904Y-23283390D02*
X64064285Y-23092914D01*
X64064285Y-23092914D02*
X64016666Y-22997676D01*
X64016666Y-22997676D02*
X63921428Y-22902438D01*
X63921428Y-22902438D02*
X63778571Y-22854819D01*
X63778571Y-22854819D02*
X63683333Y-22854819D01*
X63683333Y-22854819D02*
X63540476Y-22902438D01*
X63540476Y-22902438D02*
X63492857Y-22950057D01*
X63111904Y-22950057D02*
X63064285Y-22902438D01*
X63064285Y-22902438D02*
X62969047Y-22854819D01*
X62969047Y-22854819D02*
X62730952Y-22854819D01*
X62730952Y-22854819D02*
X62635714Y-22902438D01*
X62635714Y-22902438D02*
X62588095Y-22950057D01*
X62588095Y-22950057D02*
X62540476Y-23045295D01*
X62540476Y-23045295D02*
X62540476Y-23140533D01*
X62540476Y-23140533D02*
X62588095Y-23283390D01*
X62588095Y-23283390D02*
X63159523Y-23854819D01*
X63159523Y-23854819D02*
X62540476Y-23854819D01*
X62064285Y-23854819D02*
X61873809Y-23854819D01*
X61873809Y-23854819D02*
X61778571Y-23807200D01*
X61778571Y-23807200D02*
X61730952Y-23759580D01*
X61730952Y-23759580D02*
X61635714Y-23616723D01*
X61635714Y-23616723D02*
X61588095Y-23426247D01*
X61588095Y-23426247D02*
X61588095Y-23045295D01*
X61588095Y-23045295D02*
X61635714Y-22950057D01*
X61635714Y-22950057D02*
X61683333Y-22902438D01*
X61683333Y-22902438D02*
X61778571Y-22854819D01*
X61778571Y-22854819D02*
X61969047Y-22854819D01*
X61969047Y-22854819D02*
X62064285Y-22902438D01*
X62064285Y-22902438D02*
X62111904Y-22950057D01*
X62111904Y-22950057D02*
X62159523Y-23045295D01*
X62159523Y-23045295D02*
X62159523Y-23283390D01*
X62159523Y-23283390D02*
X62111904Y-23378628D01*
X62111904Y-23378628D02*
X62064285Y-23426247D01*
X62064285Y-23426247D02*
X61969047Y-23473866D01*
X61969047Y-23473866D02*
X61778571Y-23473866D01*
X61778571Y-23473866D02*
X61683333Y-23426247D01*
X61683333Y-23426247D02*
X61635714Y-23378628D01*
X61635714Y-23378628D02*
X61588095Y-23283390D01*
X62610357Y-113844580D02*
X62657976Y-113892200D01*
X62657976Y-113892200D02*
X62800833Y-113939819D01*
X62800833Y-113939819D02*
X62896071Y-113939819D01*
X62896071Y-113939819D02*
X63038928Y-113892200D01*
X63038928Y-113892200D02*
X63134166Y-113796961D01*
X63134166Y-113796961D02*
X63181785Y-113701723D01*
X63181785Y-113701723D02*
X63229404Y-113511247D01*
X63229404Y-113511247D02*
X63229404Y-113368390D01*
X63229404Y-113368390D02*
X63181785Y-113177914D01*
X63181785Y-113177914D02*
X63134166Y-113082676D01*
X63134166Y-113082676D02*
X63038928Y-112987438D01*
X63038928Y-112987438D02*
X62896071Y-112939819D01*
X62896071Y-112939819D02*
X62800833Y-112939819D01*
X62800833Y-112939819D02*
X62657976Y-112987438D01*
X62657976Y-112987438D02*
X62610357Y-113035057D01*
X62229404Y-113035057D02*
X62181785Y-112987438D01*
X62181785Y-112987438D02*
X62086547Y-112939819D01*
X62086547Y-112939819D02*
X61848452Y-112939819D01*
X61848452Y-112939819D02*
X61753214Y-112987438D01*
X61753214Y-112987438D02*
X61705595Y-113035057D01*
X61705595Y-113035057D02*
X61657976Y-113130295D01*
X61657976Y-113130295D02*
X61657976Y-113225533D01*
X61657976Y-113225533D02*
X61705595Y-113368390D01*
X61705595Y-113368390D02*
X62277023Y-113939819D01*
X62277023Y-113939819D02*
X61657976Y-113939819D01*
X60753214Y-112939819D02*
X61229404Y-112939819D01*
X61229404Y-112939819D02*
X61277023Y-113416009D01*
X61277023Y-113416009D02*
X61229404Y-113368390D01*
X61229404Y-113368390D02*
X61134166Y-113320771D01*
X61134166Y-113320771D02*
X60896071Y-113320771D01*
X60896071Y-113320771D02*
X60800833Y-113368390D01*
X60800833Y-113368390D02*
X60753214Y-113416009D01*
X60753214Y-113416009D02*
X60705595Y-113511247D01*
X60705595Y-113511247D02*
X60705595Y-113749342D01*
X60705595Y-113749342D02*
X60753214Y-113844580D01*
X60753214Y-113844580D02*
X60800833Y-113892200D01*
X60800833Y-113892200D02*
X60896071Y-113939819D01*
X60896071Y-113939819D02*
X61134166Y-113939819D01*
X61134166Y-113939819D02*
X61229404Y-113892200D01*
X61229404Y-113892200D02*
X61277023Y-113844580D01*
X62842857Y-44109580D02*
X62890476Y-44157200D01*
X62890476Y-44157200D02*
X63033333Y-44204819D01*
X63033333Y-44204819D02*
X63128571Y-44204819D01*
X63128571Y-44204819D02*
X63271428Y-44157200D01*
X63271428Y-44157200D02*
X63366666Y-44061961D01*
X63366666Y-44061961D02*
X63414285Y-43966723D01*
X63414285Y-43966723D02*
X63461904Y-43776247D01*
X63461904Y-43776247D02*
X63461904Y-43633390D01*
X63461904Y-43633390D02*
X63414285Y-43442914D01*
X63414285Y-43442914D02*
X63366666Y-43347676D01*
X63366666Y-43347676D02*
X63271428Y-43252438D01*
X63271428Y-43252438D02*
X63128571Y-43204819D01*
X63128571Y-43204819D02*
X63033333Y-43204819D01*
X63033333Y-43204819D02*
X62890476Y-43252438D01*
X62890476Y-43252438D02*
X62842857Y-43300057D01*
X62509523Y-43204819D02*
X61890476Y-43204819D01*
X61890476Y-43204819D02*
X62223809Y-43585771D01*
X62223809Y-43585771D02*
X62080952Y-43585771D01*
X62080952Y-43585771D02*
X61985714Y-43633390D01*
X61985714Y-43633390D02*
X61938095Y-43681009D01*
X61938095Y-43681009D02*
X61890476Y-43776247D01*
X61890476Y-43776247D02*
X61890476Y-44014342D01*
X61890476Y-44014342D02*
X61938095Y-44109580D01*
X61938095Y-44109580D02*
X61985714Y-44157200D01*
X61985714Y-44157200D02*
X62080952Y-44204819D01*
X62080952Y-44204819D02*
X62366666Y-44204819D01*
X62366666Y-44204819D02*
X62461904Y-44157200D01*
X62461904Y-44157200D02*
X62509523Y-44109580D01*
X61509523Y-43300057D02*
X61461904Y-43252438D01*
X61461904Y-43252438D02*
X61366666Y-43204819D01*
X61366666Y-43204819D02*
X61128571Y-43204819D01*
X61128571Y-43204819D02*
X61033333Y-43252438D01*
X61033333Y-43252438D02*
X60985714Y-43300057D01*
X60985714Y-43300057D02*
X60938095Y-43395295D01*
X60938095Y-43395295D02*
X60938095Y-43490533D01*
X60938095Y-43490533D02*
X60985714Y-43633390D01*
X60985714Y-43633390D02*
X61557142Y-44204819D01*
X61557142Y-44204819D02*
X60938095Y-44204819D01*
X62897857Y-67574580D02*
X62945476Y-67622200D01*
X62945476Y-67622200D02*
X63088333Y-67669819D01*
X63088333Y-67669819D02*
X63183571Y-67669819D01*
X63183571Y-67669819D02*
X63326428Y-67622200D01*
X63326428Y-67622200D02*
X63421666Y-67526961D01*
X63421666Y-67526961D02*
X63469285Y-67431723D01*
X63469285Y-67431723D02*
X63516904Y-67241247D01*
X63516904Y-67241247D02*
X63516904Y-67098390D01*
X63516904Y-67098390D02*
X63469285Y-66907914D01*
X63469285Y-66907914D02*
X63421666Y-66812676D01*
X63421666Y-66812676D02*
X63326428Y-66717438D01*
X63326428Y-66717438D02*
X63183571Y-66669819D01*
X63183571Y-66669819D02*
X63088333Y-66669819D01*
X63088333Y-66669819D02*
X62945476Y-66717438D01*
X62945476Y-66717438D02*
X62897857Y-66765057D01*
X62564523Y-66669819D02*
X61945476Y-66669819D01*
X61945476Y-66669819D02*
X62278809Y-67050771D01*
X62278809Y-67050771D02*
X62135952Y-67050771D01*
X62135952Y-67050771D02*
X62040714Y-67098390D01*
X62040714Y-67098390D02*
X61993095Y-67146009D01*
X61993095Y-67146009D02*
X61945476Y-67241247D01*
X61945476Y-67241247D02*
X61945476Y-67479342D01*
X61945476Y-67479342D02*
X61993095Y-67574580D01*
X61993095Y-67574580D02*
X62040714Y-67622200D01*
X62040714Y-67622200D02*
X62135952Y-67669819D01*
X62135952Y-67669819D02*
X62421666Y-67669819D01*
X62421666Y-67669819D02*
X62516904Y-67622200D01*
X62516904Y-67622200D02*
X62564523Y-67574580D01*
X61040714Y-66669819D02*
X61516904Y-66669819D01*
X61516904Y-66669819D02*
X61564523Y-67146009D01*
X61564523Y-67146009D02*
X61516904Y-67098390D01*
X61516904Y-67098390D02*
X61421666Y-67050771D01*
X61421666Y-67050771D02*
X61183571Y-67050771D01*
X61183571Y-67050771D02*
X61088333Y-67098390D01*
X61088333Y-67098390D02*
X61040714Y-67146009D01*
X61040714Y-67146009D02*
X60993095Y-67241247D01*
X60993095Y-67241247D02*
X60993095Y-67479342D01*
X60993095Y-67479342D02*
X61040714Y-67574580D01*
X61040714Y-67574580D02*
X61088333Y-67622200D01*
X61088333Y-67622200D02*
X61183571Y-67669819D01*
X61183571Y-67669819D02*
X61421666Y-67669819D01*
X61421666Y-67669819D02*
X61516904Y-67622200D01*
X61516904Y-67622200D02*
X61564523Y-67574580D01*
X63385357Y-110609580D02*
X63432976Y-110657200D01*
X63432976Y-110657200D02*
X63575833Y-110704819D01*
X63575833Y-110704819D02*
X63671071Y-110704819D01*
X63671071Y-110704819D02*
X63813928Y-110657200D01*
X63813928Y-110657200D02*
X63909166Y-110561961D01*
X63909166Y-110561961D02*
X63956785Y-110466723D01*
X63956785Y-110466723D02*
X64004404Y-110276247D01*
X64004404Y-110276247D02*
X64004404Y-110133390D01*
X64004404Y-110133390D02*
X63956785Y-109942914D01*
X63956785Y-109942914D02*
X63909166Y-109847676D01*
X63909166Y-109847676D02*
X63813928Y-109752438D01*
X63813928Y-109752438D02*
X63671071Y-109704819D01*
X63671071Y-109704819D02*
X63575833Y-109704819D01*
X63575833Y-109704819D02*
X63432976Y-109752438D01*
X63432976Y-109752438D02*
X63385357Y-109800057D01*
X63004404Y-109800057D02*
X62956785Y-109752438D01*
X62956785Y-109752438D02*
X62861547Y-109704819D01*
X62861547Y-109704819D02*
X62623452Y-109704819D01*
X62623452Y-109704819D02*
X62528214Y-109752438D01*
X62528214Y-109752438D02*
X62480595Y-109800057D01*
X62480595Y-109800057D02*
X62432976Y-109895295D01*
X62432976Y-109895295D02*
X62432976Y-109990533D01*
X62432976Y-109990533D02*
X62480595Y-110133390D01*
X62480595Y-110133390D02*
X63052023Y-110704819D01*
X63052023Y-110704819D02*
X62432976Y-110704819D01*
X61575833Y-109704819D02*
X61766309Y-109704819D01*
X61766309Y-109704819D02*
X61861547Y-109752438D01*
X61861547Y-109752438D02*
X61909166Y-109800057D01*
X61909166Y-109800057D02*
X62004404Y-109942914D01*
X62004404Y-109942914D02*
X62052023Y-110133390D01*
X62052023Y-110133390D02*
X62052023Y-110514342D01*
X62052023Y-110514342D02*
X62004404Y-110609580D01*
X62004404Y-110609580D02*
X61956785Y-110657200D01*
X61956785Y-110657200D02*
X61861547Y-110704819D01*
X61861547Y-110704819D02*
X61671071Y-110704819D01*
X61671071Y-110704819D02*
X61575833Y-110657200D01*
X61575833Y-110657200D02*
X61528214Y-110609580D01*
X61528214Y-110609580D02*
X61480595Y-110514342D01*
X61480595Y-110514342D02*
X61480595Y-110276247D01*
X61480595Y-110276247D02*
X61528214Y-110181009D01*
X61528214Y-110181009D02*
X61575833Y-110133390D01*
X61575833Y-110133390D02*
X61671071Y-110085771D01*
X61671071Y-110085771D02*
X61861547Y-110085771D01*
X61861547Y-110085771D02*
X61956785Y-110133390D01*
X61956785Y-110133390D02*
X62004404Y-110181009D01*
X62004404Y-110181009D02*
X62052023Y-110276247D01*
X49392857Y-60679580D02*
X49440476Y-60727200D01*
X49440476Y-60727200D02*
X49583333Y-60774819D01*
X49583333Y-60774819D02*
X49678571Y-60774819D01*
X49678571Y-60774819D02*
X49821428Y-60727200D01*
X49821428Y-60727200D02*
X49916666Y-60631961D01*
X49916666Y-60631961D02*
X49964285Y-60536723D01*
X49964285Y-60536723D02*
X50011904Y-60346247D01*
X50011904Y-60346247D02*
X50011904Y-60203390D01*
X50011904Y-60203390D02*
X49964285Y-60012914D01*
X49964285Y-60012914D02*
X49916666Y-59917676D01*
X49916666Y-59917676D02*
X49821428Y-59822438D01*
X49821428Y-59822438D02*
X49678571Y-59774819D01*
X49678571Y-59774819D02*
X49583333Y-59774819D01*
X49583333Y-59774819D02*
X49440476Y-59822438D01*
X49440476Y-59822438D02*
X49392857Y-59870057D01*
X49011904Y-59870057D02*
X48964285Y-59822438D01*
X48964285Y-59822438D02*
X48869047Y-59774819D01*
X48869047Y-59774819D02*
X48630952Y-59774819D01*
X48630952Y-59774819D02*
X48535714Y-59822438D01*
X48535714Y-59822438D02*
X48488095Y-59870057D01*
X48488095Y-59870057D02*
X48440476Y-59965295D01*
X48440476Y-59965295D02*
X48440476Y-60060533D01*
X48440476Y-60060533D02*
X48488095Y-60203390D01*
X48488095Y-60203390D02*
X49059523Y-60774819D01*
X49059523Y-60774819D02*
X48440476Y-60774819D01*
X48107142Y-59774819D02*
X47440476Y-59774819D01*
X47440476Y-59774819D02*
X47869047Y-60774819D01*
X49900357Y-103149580D02*
X49947976Y-103197200D01*
X49947976Y-103197200D02*
X50090833Y-103244819D01*
X50090833Y-103244819D02*
X50186071Y-103244819D01*
X50186071Y-103244819D02*
X50328928Y-103197200D01*
X50328928Y-103197200D02*
X50424166Y-103101961D01*
X50424166Y-103101961D02*
X50471785Y-103006723D01*
X50471785Y-103006723D02*
X50519404Y-102816247D01*
X50519404Y-102816247D02*
X50519404Y-102673390D01*
X50519404Y-102673390D02*
X50471785Y-102482914D01*
X50471785Y-102482914D02*
X50424166Y-102387676D01*
X50424166Y-102387676D02*
X50328928Y-102292438D01*
X50328928Y-102292438D02*
X50186071Y-102244819D01*
X50186071Y-102244819D02*
X50090833Y-102244819D01*
X50090833Y-102244819D02*
X49947976Y-102292438D01*
X49947976Y-102292438D02*
X49900357Y-102340057D01*
X49519404Y-102340057D02*
X49471785Y-102292438D01*
X49471785Y-102292438D02*
X49376547Y-102244819D01*
X49376547Y-102244819D02*
X49138452Y-102244819D01*
X49138452Y-102244819D02*
X49043214Y-102292438D01*
X49043214Y-102292438D02*
X48995595Y-102340057D01*
X48995595Y-102340057D02*
X48947976Y-102435295D01*
X48947976Y-102435295D02*
X48947976Y-102530533D01*
X48947976Y-102530533D02*
X48995595Y-102673390D01*
X48995595Y-102673390D02*
X49567023Y-103244819D01*
X49567023Y-103244819D02*
X48947976Y-103244819D01*
X48090833Y-102578152D02*
X48090833Y-103244819D01*
X48328928Y-102197200D02*
X48567023Y-102911485D01*
X48567023Y-102911485D02*
X47947976Y-102911485D01*
X63227857Y-88597080D02*
X63275476Y-88644700D01*
X63275476Y-88644700D02*
X63418333Y-88692319D01*
X63418333Y-88692319D02*
X63513571Y-88692319D01*
X63513571Y-88692319D02*
X63656428Y-88644700D01*
X63656428Y-88644700D02*
X63751666Y-88549461D01*
X63751666Y-88549461D02*
X63799285Y-88454223D01*
X63799285Y-88454223D02*
X63846904Y-88263747D01*
X63846904Y-88263747D02*
X63846904Y-88120890D01*
X63846904Y-88120890D02*
X63799285Y-87930414D01*
X63799285Y-87930414D02*
X63751666Y-87835176D01*
X63751666Y-87835176D02*
X63656428Y-87739938D01*
X63656428Y-87739938D02*
X63513571Y-87692319D01*
X63513571Y-87692319D02*
X63418333Y-87692319D01*
X63418333Y-87692319D02*
X63275476Y-87739938D01*
X63275476Y-87739938D02*
X63227857Y-87787557D01*
X62894523Y-87692319D02*
X62275476Y-87692319D01*
X62275476Y-87692319D02*
X62608809Y-88073271D01*
X62608809Y-88073271D02*
X62465952Y-88073271D01*
X62465952Y-88073271D02*
X62370714Y-88120890D01*
X62370714Y-88120890D02*
X62323095Y-88168509D01*
X62323095Y-88168509D02*
X62275476Y-88263747D01*
X62275476Y-88263747D02*
X62275476Y-88501842D01*
X62275476Y-88501842D02*
X62323095Y-88597080D01*
X62323095Y-88597080D02*
X62370714Y-88644700D01*
X62370714Y-88644700D02*
X62465952Y-88692319D01*
X62465952Y-88692319D02*
X62751666Y-88692319D01*
X62751666Y-88692319D02*
X62846904Y-88644700D01*
X62846904Y-88644700D02*
X62894523Y-88597080D01*
X61704047Y-88120890D02*
X61799285Y-88073271D01*
X61799285Y-88073271D02*
X61846904Y-88025652D01*
X61846904Y-88025652D02*
X61894523Y-87930414D01*
X61894523Y-87930414D02*
X61894523Y-87882795D01*
X61894523Y-87882795D02*
X61846904Y-87787557D01*
X61846904Y-87787557D02*
X61799285Y-87739938D01*
X61799285Y-87739938D02*
X61704047Y-87692319D01*
X61704047Y-87692319D02*
X61513571Y-87692319D01*
X61513571Y-87692319D02*
X61418333Y-87739938D01*
X61418333Y-87739938D02*
X61370714Y-87787557D01*
X61370714Y-87787557D02*
X61323095Y-87882795D01*
X61323095Y-87882795D02*
X61323095Y-87930414D01*
X61323095Y-87930414D02*
X61370714Y-88025652D01*
X61370714Y-88025652D02*
X61418333Y-88073271D01*
X61418333Y-88073271D02*
X61513571Y-88120890D01*
X61513571Y-88120890D02*
X61704047Y-88120890D01*
X61704047Y-88120890D02*
X61799285Y-88168509D01*
X61799285Y-88168509D02*
X61846904Y-88216128D01*
X61846904Y-88216128D02*
X61894523Y-88311366D01*
X61894523Y-88311366D02*
X61894523Y-88501842D01*
X61894523Y-88501842D02*
X61846904Y-88597080D01*
X61846904Y-88597080D02*
X61799285Y-88644700D01*
X61799285Y-88644700D02*
X61704047Y-88692319D01*
X61704047Y-88692319D02*
X61513571Y-88692319D01*
X61513571Y-88692319D02*
X61418333Y-88644700D01*
X61418333Y-88644700D02*
X61370714Y-88597080D01*
X61370714Y-88597080D02*
X61323095Y-88501842D01*
X61323095Y-88501842D02*
X61323095Y-88311366D01*
X61323095Y-88311366D02*
X61370714Y-88216128D01*
X61370714Y-88216128D02*
X61418333Y-88168509D01*
X61418333Y-88168509D02*
X61513571Y-88120890D01*
X53142857Y-22609580D02*
X53190476Y-22657200D01*
X53190476Y-22657200D02*
X53333333Y-22704819D01*
X53333333Y-22704819D02*
X53428571Y-22704819D01*
X53428571Y-22704819D02*
X53571428Y-22657200D01*
X53571428Y-22657200D02*
X53666666Y-22561961D01*
X53666666Y-22561961D02*
X53714285Y-22466723D01*
X53714285Y-22466723D02*
X53761904Y-22276247D01*
X53761904Y-22276247D02*
X53761904Y-22133390D01*
X53761904Y-22133390D02*
X53714285Y-21942914D01*
X53714285Y-21942914D02*
X53666666Y-21847676D01*
X53666666Y-21847676D02*
X53571428Y-21752438D01*
X53571428Y-21752438D02*
X53428571Y-21704819D01*
X53428571Y-21704819D02*
X53333333Y-21704819D01*
X53333333Y-21704819D02*
X53190476Y-21752438D01*
X53190476Y-21752438D02*
X53142857Y-21800057D01*
X52809523Y-21704819D02*
X52190476Y-21704819D01*
X52190476Y-21704819D02*
X52523809Y-22085771D01*
X52523809Y-22085771D02*
X52380952Y-22085771D01*
X52380952Y-22085771D02*
X52285714Y-22133390D01*
X52285714Y-22133390D02*
X52238095Y-22181009D01*
X52238095Y-22181009D02*
X52190476Y-22276247D01*
X52190476Y-22276247D02*
X52190476Y-22514342D01*
X52190476Y-22514342D02*
X52238095Y-22609580D01*
X52238095Y-22609580D02*
X52285714Y-22657200D01*
X52285714Y-22657200D02*
X52380952Y-22704819D01*
X52380952Y-22704819D02*
X52666666Y-22704819D01*
X52666666Y-22704819D02*
X52761904Y-22657200D01*
X52761904Y-22657200D02*
X52809523Y-22609580D01*
X51571428Y-21704819D02*
X51476190Y-21704819D01*
X51476190Y-21704819D02*
X51380952Y-21752438D01*
X51380952Y-21752438D02*
X51333333Y-21800057D01*
X51333333Y-21800057D02*
X51285714Y-21895295D01*
X51285714Y-21895295D02*
X51238095Y-22085771D01*
X51238095Y-22085771D02*
X51238095Y-22323866D01*
X51238095Y-22323866D02*
X51285714Y-22514342D01*
X51285714Y-22514342D02*
X51333333Y-22609580D01*
X51333333Y-22609580D02*
X51380952Y-22657200D01*
X51380952Y-22657200D02*
X51476190Y-22704819D01*
X51476190Y-22704819D02*
X51571428Y-22704819D01*
X51571428Y-22704819D02*
X51666666Y-22657200D01*
X51666666Y-22657200D02*
X51714285Y-22609580D01*
X51714285Y-22609580D02*
X51761904Y-22514342D01*
X51761904Y-22514342D02*
X51809523Y-22323866D01*
X51809523Y-22323866D02*
X51809523Y-22085771D01*
X51809523Y-22085771D02*
X51761904Y-21895295D01*
X51761904Y-21895295D02*
X51714285Y-21800057D01*
X51714285Y-21800057D02*
X51666666Y-21752438D01*
X51666666Y-21752438D02*
X51571428Y-21704819D01*
D12*
X58996267Y-25690000D02*
X58703733Y-25690000D01*
X58996267Y-26710000D02*
X58703733Y-26710000D01*
X58033767Y-45990000D02*
X57741233Y-45990000D01*
X58033767Y-47010000D02*
X57741233Y-47010000D01*
X58283767Y-69740000D02*
X57991233Y-69740000D01*
X58283767Y-70760000D02*
X57991233Y-70760000D01*
X49103733Y-37240000D02*
X49396267Y-37240000D01*
X49103733Y-38260000D02*
X49396267Y-38260000D01*
X48853733Y-81490000D02*
X49146267Y-81490000D01*
X48853733Y-82510000D02*
X49146267Y-82510000D01*
X58876267Y-90397500D02*
X58583733Y-90397500D01*
X58876267Y-91417500D02*
X58583733Y-91417500D01*
X59561252Y-22040000D02*
X58138748Y-22040000D01*
X59561252Y-24760000D02*
X58138748Y-24760000D01*
X58646267Y-112990000D02*
X58353733Y-112990000D01*
X58646267Y-114010000D02*
X58353733Y-114010000D01*
X58648752Y-42340000D02*
X57226248Y-42340000D01*
X58648752Y-45060000D02*
X57226248Y-45060000D01*
X58898752Y-65640000D02*
X57476248Y-65640000D01*
X58898752Y-68360000D02*
X57476248Y-68360000D01*
X59398752Y-108860000D02*
X57976248Y-108860000D01*
X59398752Y-111580000D02*
X57976248Y-111580000D01*
X48603733Y-61240000D02*
X48896267Y-61240000D01*
X48603733Y-62260000D02*
X48896267Y-62260000D01*
X49111233Y-103710000D02*
X49403767Y-103710000D01*
X49111233Y-104730000D02*
X49403767Y-104730000D01*
X59241252Y-86847500D02*
X57818748Y-86847500D01*
X59241252Y-89567500D02*
X57818748Y-89567500D01*
X48853733Y-21740000D02*
X49146267Y-21740000D01*
X48853733Y-22760000D02*
X49146267Y-22760000D01*
%LPC*%
D13*
X81670000Y-19000000D03*
D14*
X86750000Y-19000000D03*
X89290000Y-19000000D03*
X91830000Y-19000000D03*
D15*
X99310000Y-141027500D03*
D16*
X91690000Y-141027500D03*
D17*
X48092500Y-64135000D03*
D18*
X50632500Y-64135000D03*
X55712500Y-64135000D03*
X60792500Y-64135000D03*
D19*
X93500000Y-97750000D03*
X108500000Y-97750000D03*
D20*
X125342169Y-67500000D03*
D21*
X135342169Y-67500000D03*
D20*
X159157832Y-44500000D03*
D21*
X149157832Y-44500000D03*
D20*
X125342169Y-91000000D03*
D21*
X135342169Y-91000000D03*
D17*
X48142500Y-84657500D03*
D18*
X50682500Y-84657500D03*
X55762500Y-84657500D03*
X60842500Y-84657500D03*
D13*
X99420000Y-19000000D03*
D14*
X104500000Y-19000000D03*
X107040000Y-19000000D03*
X109580000Y-19000000D03*
D22*
X37750000Y-21500000D03*
D23*
X32750000Y-21500000D03*
D17*
X48555000Y-20165000D03*
D18*
X51095000Y-20165000D03*
X56175000Y-20165000D03*
X61255000Y-20165000D03*
D24*
X156472500Y-28810000D03*
D25*
X156472500Y-21190000D03*
D26*
X150470000Y-140100000D03*
D27*
X150470000Y-127400000D03*
D13*
X135000000Y-19000000D03*
D14*
X140080000Y-19000000D03*
X142620000Y-19000000D03*
X145160000Y-19000000D03*
D19*
X88750000Y-45750000D03*
X116250000Y-45750000D03*
D17*
X47742500Y-40535000D03*
D18*
X50282500Y-40535000D03*
X55362500Y-40535000D03*
X60442500Y-40535000D03*
D19*
X93500000Y-71250000D03*
X108500000Y-71250000D03*
D17*
X48347500Y-107205000D03*
D18*
X50887500Y-107205000D03*
X55967500Y-107205000D03*
X61047500Y-107205000D03*
D19*
X88750000Y-59500000D03*
X116250000Y-59500000D03*
D13*
X117250000Y-19000000D03*
D14*
X122330000Y-19000000D03*
X124870000Y-19000000D03*
X127410000Y-19000000D03*
D20*
X159185664Y-113250000D03*
D21*
X149185664Y-113250000D03*
D28*
X109500000Y-127250000D03*
X109500000Y-106450000D03*
D22*
X34250000Y-73750000D03*
D23*
X34250000Y-68750000D03*
D22*
X34250000Y-80250000D03*
D23*
X34250000Y-85250000D03*
D20*
X125342169Y-43500000D03*
D21*
X135342169Y-43500000D03*
D13*
X163500000Y-128500000D03*
D14*
X163500000Y-133580000D03*
X163500000Y-136120000D03*
X163500000Y-138660000D03*
D19*
X93500000Y-80250000D03*
X108500000Y-80250000D03*
X93500000Y-89000000D03*
X108500000Y-89000000D03*
D20*
X159000001Y-90250000D03*
D21*
X149000001Y-90250000D03*
D20*
X159000001Y-67250000D03*
D21*
X149000001Y-67250000D03*
D26*
X139820000Y-140100000D03*
D27*
X139820000Y-127400000D03*
D22*
X34250000Y-50750000D03*
D23*
X34250000Y-55750000D03*
X34250000Y-60750000D03*
D29*
X57987500Y-26200000D03*
X59712500Y-26200000D03*
X57025000Y-46500000D03*
X58750000Y-46500000D03*
X57275000Y-70250000D03*
X59000000Y-70250000D03*
D30*
X50112500Y-37750000D03*
X48387500Y-37750000D03*
X49862500Y-82000000D03*
X48137500Y-82000000D03*
D29*
X57867500Y-90907500D03*
X59592500Y-90907500D03*
D31*
X57287500Y-23400000D03*
X60412500Y-23400000D03*
D29*
X57637500Y-113500000D03*
X59362500Y-113500000D03*
D31*
X56375000Y-43700000D03*
X59500000Y-43700000D03*
X56625000Y-67000000D03*
X59750000Y-67000000D03*
X57125000Y-110220000D03*
X60250000Y-110220000D03*
D30*
X49612500Y-61750000D03*
X47887500Y-61750000D03*
X50120000Y-104220000D03*
X48395000Y-104220000D03*
D31*
X56967500Y-88207500D03*
X60092500Y-88207500D03*
D30*
X49862500Y-22250000D03*
X48137500Y-22250000D03*
%LPD*%
M02*
