G04 #@! TF.GenerationSoftware,KiCad,Pcbnew,8.0.4*
G04 #@! TF.CreationDate,2025-07-07T19:56:56+02:00*
G04 #@! TF.ProjectId,pec,7065632e-6b69-4636-9164-5f7063625858,rev?*
G04 #@! TF.SameCoordinates,Original*
G04 #@! TF.FileFunction,Copper,L4,Bot*
G04 #@! TF.FilePolarity,Positive*
%FSLAX46Y46*%
G04 Gerber Fmt 4.6, Leading zero omitted, Abs format (unit mm)*
G04 Created by KiCad (PCBNEW 8.0.4) date 2025-07-07 19:56:56*
%MOMM*%
%LPD*%
G01*
G04 APERTURE LIST*
G04 Aperture macros list*
%AMRoundRect*
0 Rectangle with rounded corners*
0 $1 Rounding radius*
0 $2 $3 $4 $5 $6 $7 $8 $9 X,Y pos of 4 corners*
0 Add a 4 corners polygon primitive as box body*
4,1,4,$2,$3,$4,$5,$6,$7,$8,$9,$2,$3,0*
0 Add four circle primitives for the rounded corners*
1,1,$1+$1,$2,$3*
1,1,$1+$1,$4,$5*
1,1,$1+$1,$6,$7*
1,1,$1+$1,$8,$9*
0 Add four rect primitives between the rounded corners*
20,1,$1+$1,$2,$3,$4,$5,0*
20,1,$1+$1,$4,$5,$6,$7,0*
20,1,$1+$1,$6,$7,$8,$9,0*
20,1,$1+$1,$8,$9,$2,$3,0*%
G04 Aperture macros list end*
%ADD10C,0.300000*%
G04 #@! TA.AperFunction,NonConductor*
%ADD11C,0.300000*%
G04 #@! TD*
G04 #@! TA.AperFunction,ComponentPad*
%ADD12R,2.310000X2.310000*%
G04 #@! TD*
G04 #@! TA.AperFunction,ComponentPad*
%ADD13C,2.310000*%
G04 #@! TD*
G04 #@! TA.AperFunction,ComponentPad*
%ADD14RoundRect,0.250001X0.799999X1.549999X-0.799999X1.549999X-0.799999X-1.549999X0.799999X-1.549999X0*%
G04 #@! TD*
G04 #@! TA.AperFunction,ComponentPad*
%ADD15O,2.100000X3.600000*%
G04 #@! TD*
G04 #@! TA.AperFunction,ComponentPad*
%ADD16R,1.500000X1.500000*%
G04 #@! TD*
G04 #@! TA.AperFunction,ComponentPad*
%ADD17C,1.500000*%
G04 #@! TD*
G04 #@! TA.AperFunction,ComponentPad*
%ADD18C,2.400000*%
G04 #@! TD*
G04 #@! TA.AperFunction,ComponentPad*
%ADD19R,4.000000X4.000000*%
G04 #@! TD*
G04 #@! TA.AperFunction,ComponentPad*
%ADD20C,4.000000*%
G04 #@! TD*
G04 #@! TA.AperFunction,ComponentPad*
%ADD21R,2.500000X2.500000*%
G04 #@! TD*
G04 #@! TA.AperFunction,ComponentPad*
%ADD22C,2.500000*%
G04 #@! TD*
G04 #@! TA.AperFunction,ComponentPad*
%ADD23RoundRect,0.250001X1.549999X-0.799999X1.549999X0.799999X-1.549999X0.799999X-1.549999X-0.799999X0*%
G04 #@! TD*
G04 #@! TA.AperFunction,ComponentPad*
%ADD24O,3.600000X2.100000*%
G04 #@! TD*
G04 #@! TA.AperFunction,ComponentPad*
%ADD25R,3.200000X3.200000*%
G04 #@! TD*
G04 #@! TA.AperFunction,ComponentPad*
%ADD26O,3.200000X3.200000*%
G04 #@! TD*
G04 #@! TA.AperFunction,ComponentPad*
%ADD27C,3.400000*%
G04 #@! TD*
G04 #@! TA.AperFunction,SMDPad,CuDef*
%ADD28RoundRect,0.237500X-0.300000X-0.237500X0.300000X-0.237500X0.300000X0.237500X-0.300000X0.237500X0*%
G04 #@! TD*
G04 #@! TA.AperFunction,SMDPad,CuDef*
%ADD29RoundRect,0.237500X0.300000X0.237500X-0.300000X0.237500X-0.300000X-0.237500X0.300000X-0.237500X0*%
G04 #@! TD*
G04 #@! TA.AperFunction,SMDPad,CuDef*
%ADD30RoundRect,0.250000X-0.412500X-1.100000X0.412500X-1.100000X0.412500X1.100000X-0.412500X1.100000X0*%
G04 #@! TD*
G04 #@! TA.AperFunction,ViaPad*
%ADD31C,0.600000*%
G04 #@! TD*
G04 #@! TA.AperFunction,Conductor*
%ADD32C,0.200000*%
G04 #@! TD*
G04 APERTURE END LIST*
D10*
D11*
X35052632Y-131800828D02*
X35052632Y-132800828D01*
X35409774Y-131229400D02*
X35766917Y-132300828D01*
X35766917Y-132300828D02*
X34838346Y-132300828D01*
D12*
X81670000Y-19000000D03*
D13*
X86750000Y-19000000D03*
X89290000Y-19000000D03*
X91830000Y-19000000D03*
D14*
X99310000Y-141027500D03*
D15*
X91690000Y-141027500D03*
D16*
X48092500Y-64135000D03*
D17*
X50632500Y-64135000D03*
X55712500Y-64135000D03*
X60792500Y-64135000D03*
D18*
X93500000Y-97750000D03*
X108500000Y-97750000D03*
D19*
X125342169Y-67500000D03*
D20*
X135342169Y-67500000D03*
D19*
X159157832Y-44500000D03*
D20*
X149157832Y-44500000D03*
D19*
X125342169Y-91000000D03*
D20*
X135342169Y-91000000D03*
D16*
X48142500Y-84657500D03*
D17*
X50682500Y-84657500D03*
X55762500Y-84657500D03*
X60842500Y-84657500D03*
D12*
X99420000Y-19000000D03*
D13*
X104500000Y-19000000D03*
X107040000Y-19000000D03*
X109580000Y-19000000D03*
D21*
X37750000Y-21500000D03*
D22*
X32750000Y-21500000D03*
D16*
X48555000Y-20165000D03*
D17*
X51095000Y-20165000D03*
X56175000Y-20165000D03*
X61255000Y-20165000D03*
D23*
X156472500Y-28810000D03*
D24*
X156472500Y-21190000D03*
D25*
X150470000Y-140100000D03*
D26*
X150470000Y-127400000D03*
D12*
X135000000Y-19000000D03*
D13*
X140080000Y-19000000D03*
X142620000Y-19000000D03*
X145160000Y-19000000D03*
D18*
X88750000Y-45750000D03*
X116250000Y-45750000D03*
D16*
X47742500Y-40535000D03*
D17*
X50282500Y-40535000D03*
X55362500Y-40535000D03*
X60442500Y-40535000D03*
D18*
X93500000Y-71250000D03*
X108500000Y-71250000D03*
D16*
X48347500Y-107205000D03*
D17*
X50887500Y-107205000D03*
X55967500Y-107205000D03*
X61047500Y-107205000D03*
D18*
X88750000Y-59500000D03*
X116250000Y-59500000D03*
D12*
X117250000Y-19000000D03*
D13*
X122330000Y-19000000D03*
X124870000Y-19000000D03*
X127410000Y-19000000D03*
D19*
X159185664Y-113250000D03*
D20*
X149185664Y-113250000D03*
D27*
X109500000Y-127250000D03*
X109500000Y-106450000D03*
D21*
X34250000Y-73750000D03*
D22*
X34250000Y-68750000D03*
D21*
X34250000Y-80250000D03*
D22*
X34250000Y-85250000D03*
D19*
X125342169Y-43500000D03*
D20*
X135342169Y-43500000D03*
D12*
X163500000Y-128500000D03*
D13*
X163500000Y-133580000D03*
X163500000Y-136120000D03*
X163500000Y-138660000D03*
D18*
X93500000Y-80250000D03*
X108500000Y-80250000D03*
X93500000Y-89000000D03*
X108500000Y-89000000D03*
D19*
X159000001Y-90250000D03*
D20*
X149000001Y-90250000D03*
D19*
X159000001Y-67250000D03*
D20*
X149000001Y-67250000D03*
D25*
X139820000Y-140100000D03*
D26*
X139820000Y-127400000D03*
D21*
X34250000Y-50750000D03*
D22*
X34250000Y-55750000D03*
X34250000Y-60750000D03*
D28*
X57987500Y-26200000D03*
X59712500Y-26200000D03*
X57025000Y-46500000D03*
X58750000Y-46500000D03*
X57275000Y-70250000D03*
X59000000Y-70250000D03*
D29*
X50112500Y-37750000D03*
X48387500Y-37750000D03*
X49862500Y-82000000D03*
X48137500Y-82000000D03*
D28*
X57867500Y-90907500D03*
X59592500Y-90907500D03*
D30*
X57287500Y-23400000D03*
X60412500Y-23400000D03*
D28*
X57637500Y-113500000D03*
X59362500Y-113500000D03*
D30*
X56375000Y-43700000D03*
X59500000Y-43700000D03*
X56625000Y-67000000D03*
X59750000Y-67000000D03*
X57125000Y-110220000D03*
X60250000Y-110220000D03*
D29*
X49612500Y-61750000D03*
X47887500Y-61750000D03*
X50120000Y-104220000D03*
X48395000Y-104220000D03*
D30*
X56967500Y-88207500D03*
X60092500Y-88207500D03*
D29*
X49862500Y-22250000D03*
X48137500Y-22250000D03*
D31*
X147950000Y-29100000D03*
X51750000Y-39000000D03*
X52000000Y-105250000D03*
X51500000Y-82000000D03*
X51750000Y-59500000D03*
X70100000Y-120750000D03*
X63250000Y-122470000D03*
X70250000Y-28500000D03*
X64275000Y-34975000D03*
X69250000Y-49000000D03*
X64000000Y-55250000D03*
X69250000Y-75750000D03*
X63750000Y-80000000D03*
X69842500Y-98157500D03*
X63592500Y-100532500D03*
X41000000Y-39750000D03*
X51750000Y-89500000D03*
X52500000Y-24500000D03*
X52000000Y-68750000D03*
X52000000Y-112000000D03*
X52250000Y-45250000D03*
X114950000Y-29100000D03*
X63250000Y-121200000D03*
X78600000Y-120250000D03*
X63250000Y-119991217D03*
X69500000Y-119000000D03*
X71250000Y-32350000D03*
X64350000Y-32515000D03*
X64350000Y-33785000D03*
X79100000Y-33500000D03*
X78250000Y-54000000D03*
X64000000Y-54000000D03*
X70750000Y-52900000D03*
X64000000Y-52750000D03*
X63750000Y-77500000D03*
X70750000Y-77000000D03*
X78600000Y-78400000D03*
X63750000Y-78750000D03*
X63592500Y-97907500D03*
X70092500Y-95407500D03*
X63592500Y-99157500D03*
X78592500Y-96657500D03*
X63250000Y-118750000D03*
X64350000Y-31245000D03*
X64000000Y-51250000D03*
X63750000Y-76250000D03*
X63592500Y-96657500D03*
D32*
X159250000Y-129250000D02*
X159250000Y-131870000D01*
X159250000Y-131870000D02*
X163500000Y-136120000D01*
X57637500Y-116857500D02*
X57637500Y-113500000D01*
X57125000Y-110220000D02*
X57125000Y-112987500D01*
X70100000Y-120750000D02*
X71200000Y-119650000D01*
X149650000Y-119650000D02*
X159250000Y-129250000D01*
X63250000Y-122470000D02*
X57637500Y-116857500D01*
X57125000Y-112987500D02*
X57637500Y-113500000D01*
X71200000Y-119650000D02*
X149650000Y-119650000D01*
X55967500Y-107205000D02*
X55967500Y-109062500D01*
X55967500Y-109062500D02*
X57125000Y-110220000D01*
X70250000Y-28500000D02*
X73500000Y-25250000D01*
X56175000Y-20165000D02*
X57287500Y-21277500D01*
X57287500Y-23400000D02*
X57287500Y-25500000D01*
X57287500Y-21277500D02*
X57287500Y-23400000D01*
X57987500Y-26200000D02*
X57987500Y-28687500D01*
X57987500Y-28687500D02*
X64275000Y-34975000D01*
X86500000Y-25250000D02*
X89290000Y-22460000D01*
X73500000Y-25250000D02*
X86500000Y-25250000D01*
X57287500Y-25500000D02*
X57987500Y-26200000D01*
X89290000Y-22460000D02*
X89290000Y-19000000D01*
X107040000Y-26960000D02*
X107040000Y-19000000D01*
X87552942Y-30750000D02*
X103250000Y-30750000D01*
X56375000Y-41547500D02*
X56375000Y-43700000D01*
X69250000Y-49000000D02*
X71500000Y-46750000D01*
X57025000Y-46500000D02*
X57025000Y-48275000D01*
X57025000Y-48275000D02*
X64000000Y-55250000D01*
X55362500Y-40535000D02*
X56375000Y-41547500D01*
X103250000Y-30750000D02*
X107040000Y-26960000D01*
X78750000Y-46750000D02*
X82850000Y-42650000D01*
X71500000Y-46750000D02*
X78750000Y-46750000D01*
X56375000Y-45850000D02*
X57025000Y-46500000D01*
X82850000Y-42650000D02*
X82850000Y-35452942D01*
X56375000Y-43700000D02*
X56375000Y-45850000D01*
X82850000Y-35452942D02*
X87552942Y-30750000D01*
X124830000Y-26170000D02*
X119000000Y-32000000D01*
X56625000Y-65047500D02*
X56625000Y-67000000D01*
X57275000Y-70250000D02*
X57275000Y-73525000D01*
X83700000Y-61300000D02*
X69250000Y-75750000D01*
X87434314Y-32000000D02*
X83700000Y-35734314D01*
X56625000Y-69600000D02*
X57275000Y-70250000D01*
X56625000Y-67000000D02*
X56625000Y-69600000D01*
X57275000Y-73525000D02*
X63750000Y-80000000D01*
X83700000Y-35734314D02*
X83700000Y-61300000D01*
X119000000Y-32000000D02*
X87434314Y-32000000D01*
X124830000Y-19000000D02*
X124830000Y-26170000D01*
X55712500Y-64135000D02*
X56625000Y-65047500D01*
X127467681Y-33000000D02*
X87565686Y-33000000D01*
X142620000Y-19000000D02*
X142620000Y-23880000D01*
X84500000Y-36065686D02*
X84500000Y-87500000D01*
X56967500Y-85862500D02*
X56967500Y-88207500D01*
X57867500Y-94807500D02*
X63592500Y-100532500D01*
X57867500Y-90907500D02*
X57867500Y-94807500D01*
X73842500Y-98157500D02*
X69842500Y-98157500D01*
X84500000Y-87500000D02*
X73842500Y-98157500D01*
X87565686Y-33000000D02*
X84500000Y-36065686D01*
X135467681Y-25000000D02*
X127467681Y-33000000D01*
X141500000Y-25000000D02*
X135467681Y-25000000D01*
X56967500Y-90007500D02*
X57867500Y-90907500D01*
X55762500Y-84657500D02*
X56967500Y-85862500D01*
X142620000Y-23880000D02*
X141500000Y-25000000D01*
X56967500Y-88207500D02*
X56967500Y-90007500D01*
X48347500Y-107205000D02*
X48347500Y-108347500D01*
X34250000Y-46000000D02*
X34250000Y-50750000D01*
X48050000Y-24500000D02*
X52500000Y-24500000D01*
X47955000Y-45250000D02*
X47955000Y-39845000D01*
X48347500Y-108347500D02*
X52000000Y-112000000D01*
X48050000Y-84750000D02*
X48050000Y-89500000D01*
X48050000Y-106907500D02*
X48347500Y-107205000D01*
X47955000Y-68750000D02*
X47955000Y-45250000D01*
X52250000Y-45250000D02*
X47955000Y-45250000D01*
X40500000Y-39750000D02*
X34250000Y-46000000D01*
X47955000Y-68750000D02*
X47955000Y-84655000D01*
X48050000Y-24500000D02*
X48050000Y-19500000D01*
X40500000Y-39750000D02*
X48050000Y-39750000D01*
X48050000Y-89500000D02*
X51750000Y-89500000D01*
X48050000Y-89500000D02*
X48050000Y-106907500D01*
X48205000Y-106692500D02*
X48542500Y-107030000D01*
X47955000Y-68750000D02*
X52000000Y-68750000D01*
X47955000Y-39845000D02*
X48050000Y-39750000D01*
X48050000Y-39750000D02*
X48050000Y-24500000D01*
X47955000Y-84655000D02*
X48050000Y-84750000D01*
X149000000Y-120250000D02*
X78600000Y-120250000D01*
X163500000Y-138660000D02*
X157750000Y-132910000D01*
X157750000Y-129000000D02*
X149000000Y-120250000D01*
X157750000Y-132910000D02*
X157750000Y-129000000D01*
X91830000Y-22920000D02*
X91830000Y-19000000D01*
X87000000Y-27750000D02*
X91830000Y-22920000D01*
X84750000Y-27750000D02*
X87000000Y-27750000D01*
X79100000Y-33400000D02*
X84750000Y-27750000D01*
X109580000Y-25920000D02*
X109580000Y-19000000D01*
X83250000Y-49000000D02*
X83250000Y-35618628D01*
X104000000Y-31500000D02*
X109580000Y-25920000D01*
X83250000Y-35618628D02*
X87368628Y-31500000D01*
X87368628Y-31500000D02*
X104000000Y-31500000D01*
X78250000Y-54000000D02*
X83250000Y-49000000D01*
X84100000Y-35900000D02*
X87500000Y-32500000D01*
X84100000Y-72900000D02*
X84100000Y-35900000D01*
X127370000Y-24880000D02*
X127370000Y-19000000D01*
X78600000Y-78400000D02*
X84100000Y-72900000D01*
X119750000Y-32500000D02*
X127370000Y-24880000D01*
X87500000Y-32500000D02*
X119750000Y-32500000D01*
X78592500Y-96657500D02*
X84900000Y-90350000D01*
X87750000Y-33400000D02*
X136920000Y-33400000D01*
X84900000Y-90350000D02*
X84900000Y-36250000D01*
X84900000Y-36250000D02*
X87750000Y-33400000D01*
X145160000Y-25160000D02*
X145160000Y-19000000D01*
X136920000Y-33400000D02*
X145160000Y-25160000D01*
X59362500Y-111387500D02*
X59362500Y-113500000D01*
X59362500Y-114112500D02*
X59362500Y-113500000D01*
X60250000Y-110220000D02*
X60250000Y-110500000D01*
X63250000Y-118750000D02*
X63250000Y-118000000D01*
X63250000Y-118000000D02*
X59362500Y-114112500D01*
X61047500Y-107205000D02*
X61047500Y-109422500D01*
X61047500Y-109422500D02*
X60250000Y-110220000D01*
X60250000Y-110500000D02*
X59362500Y-111387500D01*
X59712500Y-26200000D02*
X59712500Y-26607500D01*
X59712500Y-26607500D02*
X64350000Y-31245000D01*
X60412500Y-25500000D02*
X59712500Y-26200000D01*
X60412500Y-21007500D02*
X61255000Y-20165000D01*
X60412500Y-23400000D02*
X60412500Y-25500000D01*
X60412500Y-23400000D02*
X60412500Y-21007500D01*
X58750000Y-46500000D02*
X61500000Y-49250000D01*
X62000000Y-49250000D02*
X64000000Y-51250000D01*
X59500000Y-41477500D02*
X59500000Y-43700000D01*
X59500000Y-45750000D02*
X58750000Y-46500000D01*
X59500000Y-43700000D02*
X59500000Y-45750000D01*
X60442500Y-40535000D02*
X59500000Y-41477500D01*
X61500000Y-49250000D02*
X62000000Y-49250000D01*
X59750000Y-69500000D02*
X59000000Y-70250000D01*
X59750000Y-67000000D02*
X59750000Y-69500000D01*
X59000000Y-71500000D02*
X63750000Y-76250000D01*
X60792500Y-64135000D02*
X59750000Y-65177500D01*
X59000000Y-70250000D02*
X59000000Y-71500000D01*
X59750000Y-65177500D02*
X59750000Y-67000000D01*
X60092500Y-88207500D02*
X60092500Y-90407500D01*
X60092500Y-85407500D02*
X60092500Y-88207500D01*
X59592500Y-92657500D02*
X63592500Y-96657500D01*
X60842500Y-84657500D02*
X60092500Y-85407500D01*
X60092500Y-90407500D02*
X59592500Y-90907500D01*
X59592500Y-90907500D02*
X59592500Y-92657500D01*
G04 #@! TA.AperFunction,Conductor*
G36*
X52443526Y-15769685D02*
G01*
X52489281Y-15822489D01*
X52500486Y-15873512D01*
X52515533Y-19695440D01*
X52496113Y-19762556D01*
X52443489Y-19808519D01*
X52374370Y-19818734D01*
X52310701Y-19789960D01*
X52276606Y-19740648D01*
X52276391Y-19740749D01*
X52275801Y-19739483D01*
X52275015Y-19738347D01*
X52274103Y-19735844D01*
X52181667Y-19537614D01*
X52181666Y-19537612D01*
X52138124Y-19475428D01*
X52138124Y-19475427D01*
X51577962Y-20035589D01*
X51560925Y-19972007D01*
X51495099Y-19857993D01*
X51402007Y-19764901D01*
X51287993Y-19699075D01*
X51224409Y-19682037D01*
X51784571Y-19121874D01*
X51722387Y-19078333D01*
X51524159Y-18985898D01*
X51524150Y-18985894D01*
X51312894Y-18929289D01*
X51312884Y-18929287D01*
X51095001Y-18910225D01*
X51094999Y-18910225D01*
X50877115Y-18929287D01*
X50877105Y-18929289D01*
X50665849Y-18985894D01*
X50665840Y-18985898D01*
X50467613Y-19078333D01*
X50405428Y-19121874D01*
X50965591Y-19682037D01*
X50902007Y-19699075D01*
X50787993Y-19764901D01*
X50694901Y-19857993D01*
X50629075Y-19972007D01*
X50612037Y-20035591D01*
X50051874Y-19475428D01*
X50031075Y-19505133D01*
X49976499Y-19548759D01*
X49907000Y-19555953D01*
X49844645Y-19524431D01*
X49809231Y-19464202D01*
X49805499Y-19434011D01*
X49805499Y-19367129D01*
X49805498Y-19367123D01*
X49805497Y-19367116D01*
X49799091Y-19307517D01*
X49748796Y-19172669D01*
X49748795Y-19172668D01*
X49748793Y-19172664D01*
X49662547Y-19057455D01*
X49662544Y-19057452D01*
X49547335Y-18971206D01*
X49547328Y-18971202D01*
X49412482Y-18920908D01*
X49412483Y-18920908D01*
X49352883Y-18914501D01*
X49352881Y-18914500D01*
X49352873Y-18914500D01*
X49352865Y-18914500D01*
X48201363Y-18914500D01*
X48169271Y-18910275D01*
X48169084Y-18910225D01*
X48156695Y-18906905D01*
X48129058Y-18899500D01*
X48129057Y-18899500D01*
X47970943Y-18899500D01*
X47970938Y-18899500D01*
X47930727Y-18910275D01*
X47898636Y-18914500D01*
X47757130Y-18914500D01*
X47757123Y-18914501D01*
X47697516Y-18920908D01*
X47562671Y-18971202D01*
X47562664Y-18971206D01*
X47447455Y-19057452D01*
X47447452Y-19057455D01*
X47361206Y-19172664D01*
X47361202Y-19172671D01*
X47310908Y-19307517D01*
X47304501Y-19367116D01*
X47304501Y-19367123D01*
X47304500Y-19367135D01*
X47304500Y-20962870D01*
X47304501Y-20962876D01*
X47310908Y-21022483D01*
X47361202Y-21157328D01*
X47361206Y-21157335D01*
X47424237Y-21241533D01*
X47448655Y-21306997D01*
X47433804Y-21375270D01*
X47390073Y-21421380D01*
X47376649Y-21429660D01*
X47254661Y-21551648D01*
X47164093Y-21698481D01*
X47164091Y-21698486D01*
X47143194Y-21761550D01*
X47109826Y-21862247D01*
X47109826Y-21862248D01*
X47109825Y-21862248D01*
X47099500Y-21963315D01*
X47099500Y-22536669D01*
X47099501Y-22536687D01*
X47109825Y-22637752D01*
X47146109Y-22747249D01*
X47164092Y-22801516D01*
X47254660Y-22948350D01*
X47376650Y-23070340D01*
X47388920Y-23077908D01*
X47390596Y-23078942D01*
X47437321Y-23130890D01*
X47449500Y-23184481D01*
X47449500Y-37105912D01*
X47431039Y-37171008D01*
X47414095Y-37198477D01*
X47414091Y-37198486D01*
X47386719Y-37281088D01*
X47359826Y-37362247D01*
X47359826Y-37362248D01*
X47359825Y-37362248D01*
X47349500Y-37463315D01*
X47349500Y-38036669D01*
X47349501Y-38036687D01*
X47359825Y-38137752D01*
X47359826Y-38137755D01*
X47414020Y-38301300D01*
X47414092Y-38301516D01*
X47431037Y-38328988D01*
X47449500Y-38394086D01*
X47449500Y-39025500D01*
X47429815Y-39092539D01*
X47377011Y-39138294D01*
X47325500Y-39149500D01*
X41582412Y-39149500D01*
X41515373Y-39129815D01*
X41505097Y-39122445D01*
X41502263Y-39120185D01*
X41502262Y-39120184D01*
X41445496Y-39084515D01*
X41349523Y-39024211D01*
X41179254Y-38964631D01*
X41179249Y-38964630D01*
X41000004Y-38944435D01*
X40999996Y-38944435D01*
X40820750Y-38964630D01*
X40820745Y-38964631D01*
X40650476Y-39024211D01*
X40497737Y-39120184D01*
X40494903Y-39122445D01*
X40492724Y-39123334D01*
X40491842Y-39123889D01*
X40491744Y-39123734D01*
X40430216Y-39148854D01*
X40423070Y-39149218D01*
X40420945Y-39149498D01*
X40268214Y-39190423D01*
X40268209Y-39190426D01*
X40131290Y-39269475D01*
X40131282Y-39269481D01*
X33769479Y-45631284D01*
X33747872Y-45668710D01*
X33738739Y-45684530D01*
X33690423Y-45768215D01*
X33649499Y-45920943D01*
X33649499Y-45920945D01*
X33649499Y-46089046D01*
X33649500Y-46089059D01*
X33649500Y-48875500D01*
X33629815Y-48942539D01*
X33577011Y-48988294D01*
X33525500Y-48999500D01*
X32952129Y-48999500D01*
X32952123Y-48999501D01*
X32892516Y-49005908D01*
X32757671Y-49056202D01*
X32757664Y-49056206D01*
X32642455Y-49142452D01*
X32642452Y-49142455D01*
X32556206Y-49257664D01*
X32556202Y-49257671D01*
X32505908Y-49392517D01*
X32499501Y-49452116D01*
X32499501Y-49452123D01*
X32499500Y-49452135D01*
X32499500Y-52047870D01*
X32499501Y-52047876D01*
X32505908Y-52107483D01*
X32556202Y-52242328D01*
X32556206Y-52242335D01*
X32642452Y-52357544D01*
X32642455Y-52357547D01*
X32757664Y-52443793D01*
X32757671Y-52443797D01*
X32892517Y-52494091D01*
X32892516Y-52494091D01*
X32899444Y-52494835D01*
X32952127Y-52500500D01*
X35547872Y-52500499D01*
X35607483Y-52494091D01*
X35742331Y-52443796D01*
X35857546Y-52357546D01*
X35943796Y-52242331D01*
X35994091Y-52107483D01*
X36000500Y-52047873D01*
X36000499Y-49452128D01*
X35994091Y-49392517D01*
X35943796Y-49257669D01*
X35943795Y-49257668D01*
X35943793Y-49257664D01*
X35857547Y-49142455D01*
X35857544Y-49142452D01*
X35742335Y-49056206D01*
X35742328Y-49056202D01*
X35607482Y-49005908D01*
X35607483Y-49005908D01*
X35547883Y-48999501D01*
X35547881Y-48999500D01*
X35547873Y-48999500D01*
X35547865Y-48999500D01*
X34974500Y-48999500D01*
X34907461Y-48979815D01*
X34861706Y-48927011D01*
X34850500Y-48875500D01*
X34850500Y-46300097D01*
X34870185Y-46233058D01*
X34886819Y-46212416D01*
X36745694Y-44353541D01*
X40575360Y-40523874D01*
X40636681Y-40490391D01*
X40703994Y-40494515D01*
X40820745Y-40535368D01*
X40820750Y-40535369D01*
X40999996Y-40555565D01*
X41000000Y-40555565D01*
X41000004Y-40555565D01*
X41179249Y-40535369D01*
X41179252Y-40535368D01*
X41179255Y-40535368D01*
X41349522Y-40475789D01*
X41502262Y-40379816D01*
X41502267Y-40379810D01*
X41505097Y-40377555D01*
X41507275Y-40376665D01*
X41508158Y-40376111D01*
X41508255Y-40376265D01*
X41569783Y-40351145D01*
X41582412Y-40350500D01*
X46368000Y-40350500D01*
X46435039Y-40370185D01*
X46480794Y-40422989D01*
X46492000Y-40474500D01*
X46492000Y-41332870D01*
X46492001Y-41332876D01*
X46498408Y-41392483D01*
X46548702Y-41527328D01*
X46548706Y-41527335D01*
X46634952Y-41642544D01*
X46634955Y-41642547D01*
X46750164Y-41728793D01*
X46750171Y-41728797D01*
X46750174Y-41728798D01*
X46885017Y-41779091D01*
X46944627Y-41785500D01*
X47230501Y-41785499D01*
X47297539Y-41805183D01*
X47343294Y-41857987D01*
X47354500Y-41909499D01*
X47354500Y-60722704D01*
X47334815Y-60789743D01*
X47282011Y-60835498D01*
X47276803Y-60837544D01*
X47273487Y-60839090D01*
X47126648Y-60929661D01*
X47004661Y-61051648D01*
X46914093Y-61198481D01*
X46914091Y-61198486D01*
X46895401Y-61254888D01*
X46859826Y-61362247D01*
X46859826Y-61362248D01*
X46859825Y-61362248D01*
X46849500Y-61463315D01*
X46849500Y-62036669D01*
X46849501Y-62036687D01*
X46859825Y-62137752D01*
X46896109Y-62247249D01*
X46914092Y-62301516D01*
X47004660Y-62448350D01*
X47126650Y-62570340D01*
X47273484Y-62660908D01*
X47273486Y-62660908D01*
X47277399Y-62663322D01*
X47324123Y-62715270D01*
X47335346Y-62784233D01*
X47307502Y-62848315D01*
X47249434Y-62887171D01*
X47240821Y-62889537D01*
X47235017Y-62890908D01*
X47100171Y-62941202D01*
X47100164Y-62941206D01*
X46984955Y-63027452D01*
X46984952Y-63027455D01*
X46898706Y-63142664D01*
X46898702Y-63142671D01*
X46848408Y-63277517D01*
X46842001Y-63337116D01*
X46842001Y-63337123D01*
X46842000Y-63337135D01*
X46842000Y-64932870D01*
X46842001Y-64932876D01*
X46848408Y-64992483D01*
X46898702Y-65127328D01*
X46898706Y-65127335D01*
X46984952Y-65242544D01*
X46984955Y-65242547D01*
X47100164Y-65328793D01*
X47100171Y-65328797D01*
X47235014Y-65379090D01*
X47235017Y-65379091D01*
X47243753Y-65380030D01*
X47308302Y-65406764D01*
X47348153Y-65464155D01*
X47354500Y-65503319D01*
X47354500Y-81150448D01*
X47334815Y-81217487D01*
X47318181Y-81238129D01*
X47254661Y-81301648D01*
X47164093Y-81448481D01*
X47164091Y-81448486D01*
X47136719Y-81531088D01*
X47109826Y-81612247D01*
X47109826Y-81612248D01*
X47109825Y-81612248D01*
X47099500Y-81713315D01*
X47099500Y-82286669D01*
X47099501Y-82286687D01*
X47109825Y-82387752D01*
X47146109Y-82497249D01*
X47164020Y-82551300D01*
X47164092Y-82551515D01*
X47164093Y-82551518D01*
X47254661Y-82698351D01*
X47318181Y-82761871D01*
X47351666Y-82823194D01*
X47354500Y-82849552D01*
X47354500Y-83301398D01*
X47334815Y-83368437D01*
X47282011Y-83414192D01*
X47273833Y-83417580D01*
X47150171Y-83463702D01*
X47150164Y-83463706D01*
X47034955Y-83549952D01*
X47034952Y-83549955D01*
X46948706Y-83665164D01*
X46948702Y-83665171D01*
X46898408Y-83800017D01*
X46892001Y-83859616D01*
X46892001Y-83859623D01*
X46892000Y-83859635D01*
X46892000Y-85455370D01*
X46892001Y-85455376D01*
X46898408Y-85514983D01*
X46948702Y-85649828D01*
X46948706Y-85649835D01*
X47034952Y-85765044D01*
X47034955Y-85765047D01*
X47150164Y-85851293D01*
X47150171Y-85851297D01*
X47285017Y-85901591D01*
X47285015Y-85901591D01*
X47338756Y-85907369D01*
X47403307Y-85934107D01*
X47443155Y-85991499D01*
X47449500Y-86030658D01*
X47449500Y-103588072D01*
X47431040Y-103653165D01*
X47421592Y-103668484D01*
X47367326Y-103832247D01*
X47367326Y-103832248D01*
X47367325Y-103832248D01*
X47357000Y-103933315D01*
X47357000Y-104506669D01*
X47357001Y-104506687D01*
X47367325Y-104607752D01*
X47403609Y-104717249D01*
X47421520Y-104771300D01*
X47421592Y-104771515D01*
X47421596Y-104771524D01*
X47431038Y-104786831D01*
X47449500Y-104851928D01*
X47449500Y-105889925D01*
X47429815Y-105956964D01*
X47377011Y-106002719D01*
X47368837Y-106006105D01*
X47355173Y-106011201D01*
X47355163Y-106011207D01*
X47239955Y-106097452D01*
X47239952Y-106097455D01*
X47153706Y-106212664D01*
X47153702Y-106212671D01*
X47103408Y-106347517D01*
X47097001Y-106407116D01*
X47097001Y-106407123D01*
X47097000Y-106407135D01*
X47097000Y-108002870D01*
X47097001Y-108002876D01*
X47103408Y-108062483D01*
X47153702Y-108197328D01*
X47153706Y-108197335D01*
X47239952Y-108312544D01*
X47239955Y-108312547D01*
X47355164Y-108398793D01*
X47355171Y-108398797D01*
X47380570Y-108408270D01*
X47490017Y-108449091D01*
X47549627Y-108455500D01*
X47659605Y-108455499D01*
X47726644Y-108475183D01*
X47772399Y-108527987D01*
X47779379Y-108547402D01*
X47787922Y-108579284D01*
X47816858Y-108629400D01*
X47816859Y-108629404D01*
X47816860Y-108629404D01*
X47866979Y-108716214D01*
X47866981Y-108716217D01*
X47985849Y-108835085D01*
X47985855Y-108835090D01*
X51169298Y-112018533D01*
X51202783Y-112079856D01*
X51204837Y-112092330D01*
X51214630Y-112179249D01*
X51274210Y-112349521D01*
X51330010Y-112438326D01*
X51370184Y-112502262D01*
X51497738Y-112629816D01*
X51650478Y-112725789D01*
X51820745Y-112785368D01*
X51820750Y-112785369D01*
X51999996Y-112805565D01*
X52000000Y-112805565D01*
X52000004Y-112805565D01*
X52179249Y-112785369D01*
X52179252Y-112785368D01*
X52179255Y-112785368D01*
X52349522Y-112725789D01*
X52502262Y-112629816D01*
X52629816Y-112502262D01*
X52652040Y-112466891D01*
X52704372Y-112420602D01*
X52773425Y-112409952D01*
X52837274Y-112438326D01*
X52875647Y-112496715D01*
X52881032Y-112532376D01*
X52999510Y-142625512D01*
X52980090Y-142692628D01*
X52927466Y-142738591D01*
X52875511Y-142750000D01*
X28623756Y-142750000D01*
X28556717Y-142730315D01*
X28510962Y-142677511D01*
X28499756Y-142626244D01*
X28481705Y-133456328D01*
X34182846Y-133456328D01*
X36424142Y-133456328D01*
X36424142Y-130572175D01*
X34182846Y-130572175D01*
X34182846Y-133456328D01*
X28481705Y-133456328D01*
X28441014Y-112785369D01*
X28386811Y-85249995D01*
X32494592Y-85249995D01*
X32494592Y-85250004D01*
X32514196Y-85511620D01*
X32514197Y-85511625D01*
X32572576Y-85767402D01*
X32572578Y-85767411D01*
X32572580Y-85767416D01*
X32668432Y-86011643D01*
X32799614Y-86238857D01*
X32931736Y-86404533D01*
X32963198Y-86443985D01*
X33144753Y-86612441D01*
X33155521Y-86622433D01*
X33372296Y-86770228D01*
X33372301Y-86770230D01*
X33372302Y-86770231D01*
X33372303Y-86770232D01*
X33497843Y-86830688D01*
X33608673Y-86884061D01*
X33608674Y-86884061D01*
X33608677Y-86884063D01*
X33859385Y-86961396D01*
X34118818Y-87000500D01*
X34381182Y-87000500D01*
X34640615Y-86961396D01*
X34891323Y-86884063D01*
X35127704Y-86770228D01*
X35344479Y-86622433D01*
X35536805Y-86443981D01*
X35700386Y-86238857D01*
X35831568Y-86011643D01*
X35927420Y-85767416D01*
X35985802Y-85511630D01*
X35990018Y-85455370D01*
X36005408Y-85250004D01*
X36005408Y-85249995D01*
X35985803Y-84988379D01*
X35985802Y-84988374D01*
X35985802Y-84988370D01*
X35927420Y-84732584D01*
X35831568Y-84488357D01*
X35700386Y-84261143D01*
X35536805Y-84056019D01*
X35536804Y-84056018D01*
X35536801Y-84056014D01*
X35344479Y-83877567D01*
X35230734Y-83800017D01*
X35127704Y-83729772D01*
X35127700Y-83729770D01*
X35127697Y-83729768D01*
X35127696Y-83729767D01*
X34891325Y-83615938D01*
X34891327Y-83615938D01*
X34640623Y-83538606D01*
X34640619Y-83538605D01*
X34640615Y-83538604D01*
X34515823Y-83519794D01*
X34381187Y-83499500D01*
X34381182Y-83499500D01*
X34118818Y-83499500D01*
X34118812Y-83499500D01*
X33957247Y-83523853D01*
X33859385Y-83538604D01*
X33859382Y-83538605D01*
X33859376Y-83538606D01*
X33608673Y-83615938D01*
X33372303Y-83729767D01*
X33372302Y-83729768D01*
X33155520Y-83877567D01*
X32963198Y-84056014D01*
X32799614Y-84261143D01*
X32668432Y-84488356D01*
X32572582Y-84732578D01*
X32572576Y-84732597D01*
X32514197Y-84988374D01*
X32514196Y-84988379D01*
X32494592Y-85249995D01*
X28386811Y-85249995D01*
X28374414Y-78952135D01*
X32499500Y-78952135D01*
X32499500Y-81547870D01*
X32499501Y-81547876D01*
X32505908Y-81607483D01*
X32556202Y-81742328D01*
X32556206Y-81742335D01*
X32642452Y-81857544D01*
X32642455Y-81857547D01*
X32757664Y-81943793D01*
X32757671Y-81943797D01*
X32892517Y-81994091D01*
X32892516Y-81994091D01*
X32899444Y-81994835D01*
X32952127Y-82000500D01*
X35547872Y-82000499D01*
X35607483Y-81994091D01*
X35742331Y-81943796D01*
X35857546Y-81857546D01*
X35943796Y-81742331D01*
X35994091Y-81607483D01*
X36000500Y-81547873D01*
X36000499Y-78952128D01*
X35994091Y-78892517D01*
X35943796Y-78757669D01*
X35943795Y-78757668D01*
X35943793Y-78757664D01*
X35857547Y-78642455D01*
X35857544Y-78642452D01*
X35742335Y-78556206D01*
X35742328Y-78556202D01*
X35607482Y-78505908D01*
X35607483Y-78505908D01*
X35547883Y-78499501D01*
X35547881Y-78499500D01*
X35547873Y-78499500D01*
X35547864Y-78499500D01*
X32952129Y-78499500D01*
X32952123Y-78499501D01*
X32892516Y-78505908D01*
X32757671Y-78556202D01*
X32757664Y-78556206D01*
X32642455Y-78642452D01*
X32642452Y-78642455D01*
X32556206Y-78757664D01*
X32556202Y-78757671D01*
X32505908Y-78892517D01*
X32499501Y-78952116D01*
X32499501Y-78952123D01*
X32499500Y-78952135D01*
X28374414Y-78952135D01*
X28367619Y-75500498D01*
X28361618Y-72452135D01*
X32499500Y-72452135D01*
X32499500Y-75047870D01*
X32499501Y-75047876D01*
X32505908Y-75107483D01*
X32556202Y-75242328D01*
X32556206Y-75242335D01*
X32642452Y-75357544D01*
X32642455Y-75357547D01*
X32757664Y-75443793D01*
X32757671Y-75443797D01*
X32892517Y-75494091D01*
X32892516Y-75494091D01*
X32899444Y-75494835D01*
X32952127Y-75500500D01*
X35547872Y-75500499D01*
X35607483Y-75494091D01*
X35742331Y-75443796D01*
X35857546Y-75357546D01*
X35943796Y-75242331D01*
X35994091Y-75107483D01*
X36000500Y-75047873D01*
X36000499Y-72452128D01*
X35994091Y-72392517D01*
X35943796Y-72257669D01*
X35943795Y-72257668D01*
X35943793Y-72257664D01*
X35857547Y-72142455D01*
X35857544Y-72142452D01*
X35742335Y-72056206D01*
X35742328Y-72056202D01*
X35607482Y-72005908D01*
X35607483Y-72005908D01*
X35547883Y-71999501D01*
X35547881Y-71999500D01*
X35547873Y-71999500D01*
X35547864Y-71999500D01*
X32952129Y-71999500D01*
X32952123Y-71999501D01*
X32892516Y-72005908D01*
X32757671Y-72056202D01*
X32757664Y-72056206D01*
X32642455Y-72142452D01*
X32642452Y-72142455D01*
X32556206Y-72257664D01*
X32556202Y-72257671D01*
X32505908Y-72392517D01*
X32499501Y-72452116D01*
X32499501Y-72452123D01*
X32499500Y-72452135D01*
X28361618Y-72452135D01*
X28354331Y-68749995D01*
X32494592Y-68749995D01*
X32494592Y-68750004D01*
X32514196Y-69011620D01*
X32514197Y-69011625D01*
X32572576Y-69267402D01*
X32572578Y-69267411D01*
X32572580Y-69267416D01*
X32668432Y-69511643D01*
X32799614Y-69738857D01*
X32931736Y-69904533D01*
X32963198Y-69943985D01*
X33144753Y-70112441D01*
X33155521Y-70122433D01*
X33372296Y-70270228D01*
X33372301Y-70270230D01*
X33372302Y-70270231D01*
X33372303Y-70270232D01*
X33497843Y-70330688D01*
X33608673Y-70384061D01*
X33608674Y-70384061D01*
X33608677Y-70384063D01*
X33859385Y-70461396D01*
X34118818Y-70500500D01*
X34381182Y-70500500D01*
X34640615Y-70461396D01*
X34891323Y-70384063D01*
X35127704Y-70270228D01*
X35344479Y-70122433D01*
X35536805Y-69943981D01*
X35700386Y-69738857D01*
X35831568Y-69511643D01*
X35927420Y-69267416D01*
X35985802Y-69011630D01*
X36005408Y-68750000D01*
X35985802Y-68488370D01*
X35927420Y-68232584D01*
X35831568Y-67988357D01*
X35700386Y-67761143D01*
X35536805Y-67556019D01*
X35536804Y-67556018D01*
X35536801Y-67556014D01*
X35344479Y-67377567D01*
X35127704Y-67229772D01*
X35127700Y-67229770D01*
X35127697Y-67229768D01*
X35127696Y-67229767D01*
X34891325Y-67115938D01*
X34891327Y-67115938D01*
X34640623Y-67038606D01*
X34640619Y-67038605D01*
X34640615Y-67038604D01*
X34515823Y-67019794D01*
X34381187Y-66999500D01*
X34381182Y-66999500D01*
X34118818Y-66999500D01*
X34118812Y-66999500D01*
X33957247Y-67023853D01*
X33859385Y-67038604D01*
X33859382Y-67038605D01*
X33859376Y-67038606D01*
X33608673Y-67115938D01*
X33372303Y-67229767D01*
X33372302Y-67229768D01*
X33155520Y-67377567D01*
X32963198Y-67556014D01*
X32799614Y-67761143D01*
X32668432Y-67988356D01*
X32572582Y-68232578D01*
X32572576Y-68232597D01*
X32514197Y-68488374D01*
X32514196Y-68488379D01*
X32494592Y-68749995D01*
X28354331Y-68749995D01*
X28338583Y-60749995D01*
X32495093Y-60749995D01*
X32495093Y-60750004D01*
X32514692Y-61011545D01*
X32514693Y-61011550D01*
X32573058Y-61267270D01*
X32668883Y-61511426D01*
X32668882Y-61511426D01*
X32800027Y-61738573D01*
X32847874Y-61798571D01*
X33648958Y-60997488D01*
X33673978Y-61057890D01*
X33745112Y-61164351D01*
X33835649Y-61254888D01*
X33942110Y-61326022D01*
X34002510Y-61351041D01*
X33200830Y-62152720D01*
X33372546Y-62269793D01*
X33372550Y-62269795D01*
X33608854Y-62383594D01*
X33608858Y-62383595D01*
X33859494Y-62460907D01*
X33859500Y-62460909D01*
X34118848Y-62499999D01*
X34118857Y-62500000D01*
X34381143Y-62500000D01*
X34381151Y-62499999D01*
X34640499Y-62460909D01*
X34640505Y-62460907D01*
X34891143Y-62383595D01*
X35127445Y-62269798D01*
X35127447Y-62269797D01*
X35299168Y-62152720D01*
X34497488Y-61351041D01*
X34557890Y-61326022D01*
X34664351Y-61254888D01*
X34754888Y-61164351D01*
X34826022Y-61057890D01*
X34851041Y-60997488D01*
X35652125Y-61798572D01*
X35699971Y-61738573D01*
X35831116Y-61511426D01*
X35926941Y-61267270D01*
X35985306Y-61011550D01*
X35985307Y-61011545D01*
X36004907Y-60750004D01*
X36004907Y-60749995D01*
X35985307Y-60488454D01*
X35985306Y-60488449D01*
X35926941Y-60232729D01*
X35831116Y-59988573D01*
X35831117Y-59988573D01*
X35699972Y-59761426D01*
X35652124Y-59701427D01*
X34851041Y-60502510D01*
X34826022Y-60442110D01*
X34754888Y-60335649D01*
X34664351Y-60245112D01*
X34557890Y-60173978D01*
X34497488Y-60148958D01*
X35299168Y-59347278D01*
X35127454Y-59230206D01*
X35127445Y-59230201D01*
X34891142Y-59116404D01*
X34891144Y-59116404D01*
X34640505Y-59039092D01*
X34640499Y-59039090D01*
X34381151Y-59000000D01*
X34118848Y-59000000D01*
X33859500Y-59039090D01*
X33859494Y-59039092D01*
X33608858Y-59116404D01*
X33608854Y-59116405D01*
X33372547Y-59230205D01*
X33372539Y-59230210D01*
X33200830Y-59347277D01*
X34002511Y-60148958D01*
X33942110Y-60173978D01*
X33835649Y-60245112D01*
X33745112Y-60335649D01*
X33673978Y-60442110D01*
X33648958Y-60502510D01*
X32847874Y-59701427D01*
X32800028Y-59761425D01*
X32668883Y-59988573D01*
X32573058Y-60232729D01*
X32514693Y-60488449D01*
X32514692Y-60488454D01*
X32495093Y-60749995D01*
X28338583Y-60749995D01*
X28328740Y-55749995D01*
X32494592Y-55749995D01*
X32494592Y-55750004D01*
X32514196Y-56011620D01*
X32514197Y-56011625D01*
X32572576Y-56267402D01*
X32572578Y-56267411D01*
X32572580Y-56267416D01*
X32668432Y-56511643D01*
X32799614Y-56738857D01*
X32931736Y-56904533D01*
X32963198Y-56943985D01*
X33144753Y-57112441D01*
X33155521Y-57122433D01*
X33372296Y-57270228D01*
X33372301Y-57270230D01*
X33372302Y-57270231D01*
X33372303Y-57270232D01*
X33497843Y-57330688D01*
X33608673Y-57384061D01*
X33608674Y-57384061D01*
X33608677Y-57384063D01*
X33859385Y-57461396D01*
X34118818Y-57500500D01*
X34381182Y-57500500D01*
X34640615Y-57461396D01*
X34891323Y-57384063D01*
X35127704Y-57270228D01*
X35344479Y-57122433D01*
X35536805Y-56943981D01*
X35700386Y-56738857D01*
X35831568Y-56511643D01*
X35927420Y-56267416D01*
X35985802Y-56011630D01*
X36005408Y-55750000D01*
X35985802Y-55488370D01*
X35927420Y-55232584D01*
X35831568Y-54988357D01*
X35700386Y-54761143D01*
X35536805Y-54556019D01*
X35536804Y-54556018D01*
X35536801Y-54556014D01*
X35344479Y-54377567D01*
X35127704Y-54229772D01*
X35127700Y-54229770D01*
X35127697Y-54229768D01*
X35127696Y-54229767D01*
X34891325Y-54115938D01*
X34891327Y-54115938D01*
X34640623Y-54038606D01*
X34640619Y-54038605D01*
X34640615Y-54038604D01*
X34515823Y-54019794D01*
X34381187Y-53999500D01*
X34381182Y-53999500D01*
X34118818Y-53999500D01*
X34118812Y-53999500D01*
X33957247Y-54023853D01*
X33859385Y-54038604D01*
X33859382Y-54038605D01*
X33859376Y-54038606D01*
X33608673Y-54115938D01*
X33372303Y-54229767D01*
X33372302Y-54229768D01*
X33155520Y-54377567D01*
X32963198Y-54556014D01*
X32799614Y-54761143D01*
X32668432Y-54988356D01*
X32572582Y-55232578D01*
X32572576Y-55232597D01*
X32514197Y-55488374D01*
X32514196Y-55488379D01*
X32494592Y-55749995D01*
X28328740Y-55749995D01*
X28261319Y-21499995D01*
X30995093Y-21499995D01*
X30995093Y-21500004D01*
X31014692Y-21761545D01*
X31014693Y-21761550D01*
X31073058Y-22017270D01*
X31168883Y-22261426D01*
X31168882Y-22261426D01*
X31300027Y-22488573D01*
X31347874Y-22548571D01*
X32148958Y-21747488D01*
X32173978Y-21807890D01*
X32245112Y-21914351D01*
X32335649Y-22004888D01*
X32442110Y-22076022D01*
X32502510Y-22101041D01*
X31700830Y-22902720D01*
X31872546Y-23019793D01*
X31872550Y-23019795D01*
X32108854Y-23133594D01*
X32108858Y-23133595D01*
X32359494Y-23210907D01*
X32359500Y-23210909D01*
X32618848Y-23249999D01*
X32618857Y-23250000D01*
X32881143Y-23250000D01*
X32881151Y-23249999D01*
X33140499Y-23210909D01*
X33140505Y-23210907D01*
X33391143Y-23133595D01*
X33627445Y-23019798D01*
X33627447Y-23019797D01*
X33799168Y-22902720D01*
X32997488Y-22101041D01*
X33057890Y-22076022D01*
X33164351Y-22004888D01*
X33254888Y-21914351D01*
X33326022Y-21807890D01*
X33351041Y-21747488D01*
X34152125Y-22548572D01*
X34199971Y-22488573D01*
X34331116Y-22261426D01*
X34426941Y-22017270D01*
X34485306Y-21761550D01*
X34485307Y-21761545D01*
X34504907Y-21500004D01*
X34504907Y-21499995D01*
X34485307Y-21238454D01*
X34485306Y-21238449D01*
X34426941Y-20982729D01*
X34331116Y-20738573D01*
X34331117Y-20738573D01*
X34199972Y-20511426D01*
X34152124Y-20451427D01*
X33351041Y-21252510D01*
X33326022Y-21192110D01*
X33254888Y-21085649D01*
X33164351Y-20995112D01*
X33057890Y-20923978D01*
X32997488Y-20898958D01*
X33694311Y-20202135D01*
X35999500Y-20202135D01*
X35999500Y-22797870D01*
X35999501Y-22797876D01*
X36005908Y-22857483D01*
X36056202Y-22992328D01*
X36056206Y-22992335D01*
X36142452Y-23107544D01*
X36142455Y-23107547D01*
X36257664Y-23193793D01*
X36257671Y-23193797D01*
X36392517Y-23244091D01*
X36392516Y-23244091D01*
X36399444Y-23244835D01*
X36452127Y-23250500D01*
X39047872Y-23250499D01*
X39107483Y-23244091D01*
X39242331Y-23193796D01*
X39357546Y-23107546D01*
X39443796Y-22992331D01*
X39494091Y-22857483D01*
X39500500Y-22797873D01*
X39500499Y-20202128D01*
X39494091Y-20142517D01*
X39443796Y-20007669D01*
X39443795Y-20007668D01*
X39443793Y-20007664D01*
X39357547Y-19892455D01*
X39357544Y-19892452D01*
X39242335Y-19806206D01*
X39242328Y-19806202D01*
X39107482Y-19755908D01*
X39107483Y-19755908D01*
X39047883Y-19749501D01*
X39047881Y-19749500D01*
X39047873Y-19749500D01*
X39047864Y-19749500D01*
X36452129Y-19749500D01*
X36452123Y-19749501D01*
X36392516Y-19755908D01*
X36257671Y-19806202D01*
X36257664Y-19806206D01*
X36142455Y-19892452D01*
X36142452Y-19892455D01*
X36056206Y-20007664D01*
X36056202Y-20007671D01*
X36005908Y-20142517D01*
X35999501Y-20202116D01*
X35999501Y-20202123D01*
X35999500Y-20202135D01*
X33694311Y-20202135D01*
X33799168Y-20097278D01*
X33627454Y-19980206D01*
X33627445Y-19980201D01*
X33391142Y-19866404D01*
X33391144Y-19866404D01*
X33140505Y-19789092D01*
X33140499Y-19789090D01*
X32881151Y-19750000D01*
X32618848Y-19750000D01*
X32359500Y-19789090D01*
X32359494Y-19789092D01*
X32108858Y-19866404D01*
X32108854Y-19866405D01*
X31872547Y-19980205D01*
X31872539Y-19980210D01*
X31700830Y-20097277D01*
X32502511Y-20898958D01*
X32442110Y-20923978D01*
X32335649Y-20995112D01*
X32245112Y-21085649D01*
X32173978Y-21192110D01*
X32148958Y-21252510D01*
X31347874Y-20451427D01*
X31300028Y-20511425D01*
X31168883Y-20738573D01*
X31073058Y-20982729D01*
X31014693Y-21238449D01*
X31014692Y-21238454D01*
X30995093Y-21499995D01*
X28261319Y-21499995D01*
X28250245Y-15874244D01*
X28269798Y-15807166D01*
X28322512Y-15761307D01*
X28374245Y-15750000D01*
X52376487Y-15750000D01*
X52443526Y-15769685D01*
G37*
G04 #@! TD.AperFunction*
G04 #@! TA.AperFunction,Conductor*
G36*
X52758009Y-89535999D02*
G01*
X52788965Y-89598637D01*
X52790824Y-89619544D01*
X52876810Y-111459927D01*
X52857390Y-111527043D01*
X52804766Y-111573006D01*
X52735647Y-111583221D01*
X52671978Y-111554447D01*
X52647817Y-111526387D01*
X52629815Y-111497737D01*
X52502262Y-111370184D01*
X52349521Y-111274210D01*
X52179249Y-111214630D01*
X52092330Y-111204837D01*
X52027916Y-111177770D01*
X52018533Y-111169298D01*
X49388520Y-108539285D01*
X49355035Y-108477962D01*
X49360019Y-108408270D01*
X49401889Y-108352338D01*
X49455046Y-108312546D01*
X49541296Y-108197331D01*
X49591591Y-108062483D01*
X49598000Y-108002873D01*
X49597999Y-107935988D01*
X49617683Y-107868952D01*
X49670486Y-107823196D01*
X49739644Y-107813252D01*
X49803200Y-107842276D01*
X49823573Y-107864866D01*
X49844373Y-107894571D01*
X49844374Y-107894571D01*
X50404537Y-107334408D01*
X50421575Y-107397993D01*
X50487401Y-107512007D01*
X50580493Y-107605099D01*
X50694507Y-107670925D01*
X50758090Y-107687962D01*
X50197927Y-108248124D01*
X50260112Y-108291666D01*
X50458340Y-108384101D01*
X50458349Y-108384105D01*
X50669605Y-108440710D01*
X50669615Y-108440712D01*
X50887499Y-108459775D01*
X50887501Y-108459775D01*
X51105384Y-108440712D01*
X51105394Y-108440710D01*
X51316650Y-108384105D01*
X51316664Y-108384100D01*
X51514883Y-108291669D01*
X51514885Y-108291668D01*
X51577071Y-108248124D01*
X51016910Y-107687962D01*
X51080493Y-107670925D01*
X51194507Y-107605099D01*
X51287599Y-107512007D01*
X51353425Y-107397993D01*
X51370462Y-107334409D01*
X51930624Y-107894570D01*
X51974168Y-107832385D01*
X51974169Y-107832383D01*
X52066600Y-107634164D01*
X52066605Y-107634150D01*
X52123210Y-107422894D01*
X52123212Y-107422884D01*
X52142275Y-107205000D01*
X52142275Y-107204999D01*
X52123212Y-106987115D01*
X52123210Y-106987105D01*
X52066605Y-106775849D01*
X52066601Y-106775840D01*
X51974167Y-106577614D01*
X51974166Y-106577612D01*
X51930624Y-106515428D01*
X51930624Y-106515427D01*
X51370462Y-107075589D01*
X51353425Y-107012007D01*
X51287599Y-106897993D01*
X51194507Y-106804901D01*
X51080493Y-106739075D01*
X51016909Y-106722037D01*
X51577071Y-106161874D01*
X51514887Y-106118333D01*
X51316659Y-106025898D01*
X51316650Y-106025894D01*
X51105394Y-105969289D01*
X51105384Y-105969287D01*
X50887501Y-105950225D01*
X50887499Y-105950225D01*
X50669615Y-105969287D01*
X50669605Y-105969289D01*
X50458349Y-106025894D01*
X50458340Y-106025898D01*
X50260113Y-106118333D01*
X50197928Y-106161874D01*
X50758091Y-106722037D01*
X50694507Y-106739075D01*
X50580493Y-106804901D01*
X50487401Y-106897993D01*
X50421575Y-107012007D01*
X50404537Y-107075591D01*
X49844374Y-106515428D01*
X49823575Y-106545133D01*
X49768999Y-106588759D01*
X49699500Y-106595953D01*
X49637145Y-106564431D01*
X49601731Y-106504202D01*
X49597999Y-106474011D01*
X49597999Y-106407129D01*
X49597998Y-106407123D01*
X49597997Y-106407116D01*
X49591591Y-106347517D01*
X49541296Y-106212669D01*
X49541295Y-106212668D01*
X49541293Y-106212664D01*
X49455047Y-106097455D01*
X49455044Y-106097452D01*
X49339835Y-106011206D01*
X49339828Y-106011202D01*
X49204982Y-105960908D01*
X49204983Y-105960908D01*
X49145383Y-105954501D01*
X49145381Y-105954500D01*
X49145373Y-105954500D01*
X49145365Y-105954500D01*
X48774500Y-105954500D01*
X48707461Y-105934815D01*
X48661706Y-105882011D01*
X48650500Y-105830500D01*
X48650500Y-105317046D01*
X48670185Y-105250007D01*
X48722989Y-105204252D01*
X48761897Y-105193688D01*
X48845253Y-105185174D01*
X49009016Y-105130908D01*
X49155850Y-105040340D01*
X49170171Y-105026018D01*
X49231489Y-104992533D01*
X49301181Y-104997514D01*
X49345534Y-105026017D01*
X49359461Y-105039944D01*
X49359465Y-105039947D01*
X49506188Y-105130448D01*
X49506199Y-105130453D01*
X49669847Y-105184680D01*
X49770851Y-105194999D01*
X50370000Y-105194999D01*
X50469140Y-105194999D01*
X50469154Y-105194998D01*
X50570152Y-105184680D01*
X50733800Y-105130453D01*
X50733811Y-105130448D01*
X50880534Y-105039947D01*
X50880538Y-105039944D01*
X51002444Y-104918038D01*
X51002447Y-104918034D01*
X51092948Y-104771311D01*
X51092953Y-104771300D01*
X51147180Y-104607652D01*
X51157499Y-104506654D01*
X51157500Y-104506641D01*
X51157500Y-104470000D01*
X50370000Y-104470000D01*
X50370000Y-105194999D01*
X49770851Y-105194999D01*
X49870000Y-105194998D01*
X49870000Y-103970000D01*
X50370000Y-103970000D01*
X51157499Y-103970000D01*
X51157499Y-103933360D01*
X51157498Y-103933345D01*
X51147180Y-103832347D01*
X51092953Y-103668699D01*
X51092948Y-103668688D01*
X51002447Y-103521965D01*
X51002444Y-103521961D01*
X50880538Y-103400055D01*
X50880534Y-103400052D01*
X50733811Y-103309551D01*
X50733800Y-103309546D01*
X50570152Y-103255319D01*
X50469154Y-103245000D01*
X50370000Y-103245000D01*
X50370000Y-103970000D01*
X49870000Y-103970000D01*
X49870000Y-103244999D01*
X49770860Y-103245000D01*
X49770844Y-103245001D01*
X49669847Y-103255319D01*
X49506199Y-103309546D01*
X49506188Y-103309551D01*
X49359465Y-103400052D01*
X49345532Y-103413985D01*
X49284208Y-103447468D01*
X49214516Y-103442482D01*
X49170172Y-103413982D01*
X49155851Y-103399661D01*
X49155850Y-103399660D01*
X49064629Y-103343395D01*
X49009018Y-103309093D01*
X49009013Y-103309091D01*
X49007569Y-103308612D01*
X48845253Y-103254826D01*
X48845250Y-103254825D01*
X48761897Y-103246310D01*
X48697206Y-103219914D01*
X48657054Y-103162733D01*
X48650500Y-103122952D01*
X48650500Y-90224500D01*
X48670185Y-90157461D01*
X48722989Y-90111706D01*
X48774500Y-90100500D01*
X51167588Y-90100500D01*
X51234627Y-90120185D01*
X51244903Y-90127555D01*
X51247736Y-90129814D01*
X51247738Y-90129816D01*
X51291735Y-90157461D01*
X51398426Y-90224500D01*
X51400478Y-90225789D01*
X51570745Y-90285368D01*
X51570750Y-90285369D01*
X51749996Y-90305565D01*
X51750000Y-90305565D01*
X51750004Y-90305565D01*
X51929249Y-90285369D01*
X51929252Y-90285368D01*
X51929255Y-90285368D01*
X52099522Y-90225789D01*
X52252262Y-90129816D01*
X52379816Y-90002262D01*
X52475789Y-89849522D01*
X52535368Y-89679255D01*
X52543605Y-89606150D01*
X52570671Y-89541735D01*
X52628265Y-89502180D01*
X52698102Y-89500041D01*
X52758009Y-89535999D01*
G37*
G04 #@! TD.AperFunction*
G04 #@! TA.AperFunction,Conductor*
G36*
X52630804Y-69353754D02*
G01*
X52686746Y-69395615D01*
X52711176Y-69461074D01*
X52711493Y-69469457D01*
X52789845Y-89370787D01*
X52770425Y-89437903D01*
X52717801Y-89483866D01*
X52648682Y-89494081D01*
X52585013Y-89465307D01*
X52547007Y-89406678D01*
X52542626Y-89385158D01*
X52535369Y-89320750D01*
X52535368Y-89320745D01*
X52475788Y-89150476D01*
X52379815Y-88997737D01*
X52252262Y-88870184D01*
X52099523Y-88774211D01*
X51929254Y-88714631D01*
X51929249Y-88714630D01*
X51750004Y-88694435D01*
X51749996Y-88694435D01*
X51570750Y-88714630D01*
X51570745Y-88714631D01*
X51400476Y-88774211D01*
X51247736Y-88870185D01*
X51244903Y-88872445D01*
X51242724Y-88873334D01*
X51241842Y-88873889D01*
X51241744Y-88873734D01*
X51180217Y-88898855D01*
X51167588Y-88899500D01*
X48774500Y-88899500D01*
X48707461Y-88879815D01*
X48661706Y-88827011D01*
X48650500Y-88775500D01*
X48650500Y-86031999D01*
X48670185Y-85964960D01*
X48722989Y-85919205D01*
X48774500Y-85907999D01*
X48940371Y-85907999D01*
X48940372Y-85907999D01*
X48999983Y-85901591D01*
X49134831Y-85851296D01*
X49250046Y-85765046D01*
X49336296Y-85649831D01*
X49386591Y-85514983D01*
X49393000Y-85455373D01*
X49392999Y-85388488D01*
X49412683Y-85321452D01*
X49465486Y-85275696D01*
X49534644Y-85265752D01*
X49598200Y-85294776D01*
X49618573Y-85317366D01*
X49639373Y-85347071D01*
X49639374Y-85347071D01*
X50199537Y-84786908D01*
X50216575Y-84850493D01*
X50282401Y-84964507D01*
X50375493Y-85057599D01*
X50489507Y-85123425D01*
X50553090Y-85140462D01*
X49992927Y-85700624D01*
X50055112Y-85744166D01*
X50253340Y-85836601D01*
X50253349Y-85836605D01*
X50464605Y-85893210D01*
X50464615Y-85893212D01*
X50682499Y-85912275D01*
X50682501Y-85912275D01*
X50900384Y-85893212D01*
X50900394Y-85893210D01*
X51111650Y-85836605D01*
X51111664Y-85836600D01*
X51309883Y-85744169D01*
X51309885Y-85744168D01*
X51372071Y-85700624D01*
X50811910Y-85140462D01*
X50875493Y-85123425D01*
X50989507Y-85057599D01*
X51082599Y-84964507D01*
X51148425Y-84850493D01*
X51165462Y-84786909D01*
X51725624Y-85347070D01*
X51769168Y-85284885D01*
X51769169Y-85284883D01*
X51861600Y-85086664D01*
X51861605Y-85086650D01*
X51918210Y-84875394D01*
X51918212Y-84875384D01*
X51937275Y-84657500D01*
X51937275Y-84657499D01*
X51918212Y-84439615D01*
X51918210Y-84439605D01*
X51861605Y-84228349D01*
X51861601Y-84228340D01*
X51769167Y-84030114D01*
X51769166Y-84030112D01*
X51725624Y-83967928D01*
X51725624Y-83967927D01*
X51165462Y-84528089D01*
X51148425Y-84464507D01*
X51082599Y-84350493D01*
X50989507Y-84257401D01*
X50875493Y-84191575D01*
X50811909Y-84174537D01*
X51372071Y-83614374D01*
X51309887Y-83570833D01*
X51111659Y-83478398D01*
X51111650Y-83478394D01*
X50900394Y-83421789D01*
X50900384Y-83421787D01*
X50682501Y-83402725D01*
X50682499Y-83402725D01*
X50464615Y-83421787D01*
X50464605Y-83421789D01*
X50253349Y-83478394D01*
X50253340Y-83478398D01*
X50055113Y-83570833D01*
X49992928Y-83614374D01*
X50553091Y-84174537D01*
X50489507Y-84191575D01*
X50375493Y-84257401D01*
X50282401Y-84350493D01*
X50216575Y-84464507D01*
X50199537Y-84528091D01*
X49639374Y-83967928D01*
X49618575Y-83997633D01*
X49563999Y-84041259D01*
X49494500Y-84048453D01*
X49432145Y-84016931D01*
X49396731Y-83956702D01*
X49392999Y-83926511D01*
X49392999Y-83859629D01*
X49392998Y-83859623D01*
X49392997Y-83859616D01*
X49386591Y-83800017D01*
X49360391Y-83729772D01*
X49336297Y-83665171D01*
X49336293Y-83665164D01*
X49250047Y-83549955D01*
X49250044Y-83549952D01*
X49134835Y-83463706D01*
X49134828Y-83463702D01*
X48999982Y-83413408D01*
X48999983Y-83413408D01*
X48940383Y-83407001D01*
X48940381Y-83407000D01*
X48940373Y-83407000D01*
X48940365Y-83407000D01*
X48679500Y-83407000D01*
X48612461Y-83387315D01*
X48566706Y-83334511D01*
X48555500Y-83283000D01*
X48555500Y-83065402D01*
X48575185Y-82998363D01*
X48627989Y-82952608D01*
X48640486Y-82947699D01*
X48751516Y-82910908D01*
X48898350Y-82820340D01*
X48912671Y-82806018D01*
X48973989Y-82772533D01*
X49043681Y-82777514D01*
X49088034Y-82806017D01*
X49101961Y-82819944D01*
X49101965Y-82819947D01*
X49248688Y-82910448D01*
X49248699Y-82910453D01*
X49412347Y-82964680D01*
X49513351Y-82974999D01*
X50112500Y-82974999D01*
X50211640Y-82974999D01*
X50211654Y-82974998D01*
X50312652Y-82964680D01*
X50476300Y-82910453D01*
X50476311Y-82910448D01*
X50623034Y-82819947D01*
X50623038Y-82819944D01*
X50744944Y-82698038D01*
X50744947Y-82698034D01*
X50835448Y-82551311D01*
X50835453Y-82551300D01*
X50889680Y-82387652D01*
X50899999Y-82286654D01*
X50900000Y-82286641D01*
X50900000Y-82250000D01*
X50112500Y-82250000D01*
X50112500Y-82974999D01*
X49513351Y-82974999D01*
X49612500Y-82974998D01*
X49612500Y-81750000D01*
X50112500Y-81750000D01*
X50899999Y-81750000D01*
X50899999Y-81713360D01*
X50899998Y-81713345D01*
X50889680Y-81612347D01*
X50835453Y-81448699D01*
X50835448Y-81448688D01*
X50744947Y-81301965D01*
X50744944Y-81301961D01*
X50623038Y-81180055D01*
X50623034Y-81180052D01*
X50476311Y-81089551D01*
X50476300Y-81089546D01*
X50312652Y-81035319D01*
X50211654Y-81025000D01*
X50112500Y-81025000D01*
X50112500Y-81750000D01*
X49612500Y-81750000D01*
X49612500Y-81024999D01*
X49513360Y-81025000D01*
X49513344Y-81025001D01*
X49412347Y-81035319D01*
X49248699Y-81089546D01*
X49248688Y-81089551D01*
X49101965Y-81180052D01*
X49088032Y-81193985D01*
X49026708Y-81227468D01*
X48957016Y-81222482D01*
X48912672Y-81193982D01*
X48898351Y-81179661D01*
X48898350Y-81179660D01*
X48807129Y-81123395D01*
X48751518Y-81089093D01*
X48751517Y-81089092D01*
X48751516Y-81089092D01*
X48640495Y-81052303D01*
X48583051Y-81012530D01*
X48556228Y-80948014D01*
X48555500Y-80934597D01*
X48555500Y-69474500D01*
X48575185Y-69407461D01*
X48627989Y-69361706D01*
X48679500Y-69350500D01*
X51417588Y-69350500D01*
X51484627Y-69370185D01*
X51494903Y-69377555D01*
X51497736Y-69379814D01*
X51497738Y-69379816D01*
X51541735Y-69407461D01*
X51648426Y-69474500D01*
X51650478Y-69475789D01*
X51752943Y-69511643D01*
X51820745Y-69535368D01*
X51820750Y-69535369D01*
X51999996Y-69555565D01*
X52000000Y-69555565D01*
X52000004Y-69555565D01*
X52179249Y-69535369D01*
X52179252Y-69535368D01*
X52179255Y-69535368D01*
X52349522Y-69475789D01*
X52502262Y-69379816D01*
X52502266Y-69379811D01*
X52507705Y-69375475D01*
X52509085Y-69377205D01*
X52561111Y-69348784D01*
X52630804Y-69353754D01*
G37*
G04 #@! TD.AperFunction*
G04 #@! TA.AperFunction,Conductor*
G36*
X51734627Y-45870185D02*
G01*
X51744903Y-45877555D01*
X51747736Y-45879814D01*
X51747738Y-45879816D01*
X51861270Y-45951152D01*
X51898426Y-45974500D01*
X51900478Y-45975789D01*
X52045299Y-46026464D01*
X52070745Y-46035368D01*
X52070750Y-46035369D01*
X52249996Y-46055565D01*
X52250000Y-46055565D01*
X52250004Y-46055565D01*
X52429249Y-46035369D01*
X52429252Y-46035368D01*
X52429255Y-46035368D01*
X52429256Y-46035367D01*
X52429259Y-46035367D01*
X52454702Y-46026464D01*
X52524481Y-46022901D01*
X52585109Y-46057630D01*
X52617336Y-46119623D01*
X52619657Y-46143017D01*
X52705804Y-68024528D01*
X52686384Y-68091644D01*
X52633760Y-68137607D01*
X52564641Y-68147822D01*
X52508331Y-68123612D01*
X52508158Y-68123889D01*
X52506391Y-68122778D01*
X52504489Y-68121961D01*
X52502258Y-68120181D01*
X52349523Y-68024211D01*
X52179254Y-67964631D01*
X52179249Y-67964630D01*
X52000004Y-67944435D01*
X51999996Y-67944435D01*
X51820750Y-67964630D01*
X51820745Y-67964631D01*
X51650476Y-68024211D01*
X51497736Y-68120185D01*
X51494903Y-68122445D01*
X51492724Y-68123334D01*
X51491842Y-68123889D01*
X51491744Y-68123734D01*
X51430217Y-68148855D01*
X51417588Y-68149500D01*
X48679500Y-68149500D01*
X48612461Y-68129815D01*
X48566706Y-68077011D01*
X48555500Y-68025500D01*
X48555500Y-65509499D01*
X48575185Y-65442460D01*
X48627989Y-65396705D01*
X48679500Y-65385499D01*
X48890371Y-65385499D01*
X48890372Y-65385499D01*
X48949983Y-65379091D01*
X49084831Y-65328796D01*
X49200046Y-65242546D01*
X49286296Y-65127331D01*
X49336591Y-64992483D01*
X49343000Y-64932873D01*
X49342999Y-64865988D01*
X49362683Y-64798952D01*
X49415486Y-64753196D01*
X49484644Y-64743252D01*
X49548200Y-64772276D01*
X49568573Y-64794866D01*
X49589373Y-64824571D01*
X49589374Y-64824571D01*
X50149537Y-64264408D01*
X50166575Y-64327993D01*
X50232401Y-64442007D01*
X50325493Y-64535099D01*
X50439507Y-64600925D01*
X50503090Y-64617962D01*
X49942927Y-65178124D01*
X50005112Y-65221666D01*
X50203340Y-65314101D01*
X50203349Y-65314105D01*
X50414605Y-65370710D01*
X50414615Y-65370712D01*
X50632499Y-65389775D01*
X50632501Y-65389775D01*
X50850384Y-65370712D01*
X50850394Y-65370710D01*
X51061650Y-65314105D01*
X51061664Y-65314100D01*
X51259883Y-65221669D01*
X51259885Y-65221668D01*
X51322071Y-65178124D01*
X50761910Y-64617962D01*
X50825493Y-64600925D01*
X50939507Y-64535099D01*
X51032599Y-64442007D01*
X51098425Y-64327993D01*
X51115462Y-64264409D01*
X51675624Y-64824570D01*
X51719168Y-64762385D01*
X51719169Y-64762383D01*
X51811600Y-64564164D01*
X51811605Y-64564150D01*
X51868210Y-64352894D01*
X51868212Y-64352884D01*
X51887275Y-64135000D01*
X51887275Y-64134999D01*
X51868212Y-63917115D01*
X51868210Y-63917105D01*
X51811605Y-63705849D01*
X51811601Y-63705840D01*
X51719167Y-63507614D01*
X51719166Y-63507612D01*
X51675624Y-63445428D01*
X51675624Y-63445427D01*
X51115462Y-64005589D01*
X51098425Y-63942007D01*
X51032599Y-63827993D01*
X50939507Y-63734901D01*
X50825493Y-63669075D01*
X50761909Y-63652037D01*
X51322071Y-63091874D01*
X51259887Y-63048333D01*
X51061659Y-62955898D01*
X51061650Y-62955894D01*
X50850394Y-62899289D01*
X50850384Y-62899287D01*
X50632501Y-62880225D01*
X50632499Y-62880225D01*
X50414615Y-62899287D01*
X50414605Y-62899289D01*
X50203349Y-62955894D01*
X50203340Y-62955898D01*
X50005113Y-63048333D01*
X49942928Y-63091874D01*
X50503091Y-63652037D01*
X50439507Y-63669075D01*
X50325493Y-63734901D01*
X50232401Y-63827993D01*
X50166575Y-63942007D01*
X50149537Y-64005591D01*
X49589374Y-63445428D01*
X49568575Y-63475133D01*
X49513999Y-63518759D01*
X49444500Y-63525953D01*
X49382145Y-63494431D01*
X49346731Y-63434202D01*
X49342999Y-63404011D01*
X49342999Y-63337129D01*
X49342998Y-63337123D01*
X49342997Y-63337116D01*
X49336591Y-63277517D01*
X49286296Y-63142669D01*
X49286295Y-63142668D01*
X49286293Y-63142664D01*
X49200047Y-63027455D01*
X49200044Y-63027452D01*
X49080285Y-62937800D01*
X49038414Y-62881867D01*
X49034270Y-62823925D01*
X49025740Y-62843558D01*
X48967671Y-62882414D01*
X48917288Y-62887393D01*
X48890373Y-62884500D01*
X48890367Y-62884500D01*
X48679500Y-62884500D01*
X48612461Y-62864815D01*
X48566706Y-62812011D01*
X48555500Y-62760500D01*
X48555500Y-62696816D01*
X48575185Y-62629777D01*
X48614401Y-62591279D01*
X48648350Y-62570340D01*
X48662671Y-62556018D01*
X48723989Y-62522533D01*
X48793681Y-62527514D01*
X48838034Y-62556017D01*
X48851961Y-62569944D01*
X48851965Y-62569947D01*
X48995637Y-62658566D01*
X49042362Y-62710514D01*
X49053055Y-62776234D01*
X49066916Y-62750852D01*
X49128239Y-62717368D01*
X49167200Y-62715176D01*
X49263352Y-62724999D01*
X49862500Y-62724999D01*
X49961640Y-62724999D01*
X49961654Y-62724998D01*
X50062652Y-62714680D01*
X50226300Y-62660453D01*
X50226311Y-62660448D01*
X50373034Y-62569947D01*
X50373038Y-62569944D01*
X50494944Y-62448038D01*
X50494947Y-62448034D01*
X50585448Y-62301311D01*
X50585453Y-62301300D01*
X50639680Y-62137652D01*
X50649999Y-62036654D01*
X50650000Y-62036641D01*
X50650000Y-62000000D01*
X49862500Y-62000000D01*
X49862500Y-62724999D01*
X49263352Y-62724999D01*
X49362500Y-62724998D01*
X49362500Y-61500000D01*
X49862500Y-61500000D01*
X50649999Y-61500000D01*
X50649999Y-61463360D01*
X50649998Y-61463345D01*
X50639680Y-61362347D01*
X50585453Y-61198699D01*
X50585448Y-61198688D01*
X50494947Y-61051965D01*
X50494944Y-61051961D01*
X50373038Y-60930055D01*
X50373034Y-60930052D01*
X50226311Y-60839551D01*
X50226300Y-60839546D01*
X50062652Y-60785319D01*
X49961654Y-60775000D01*
X49862500Y-60775000D01*
X49862500Y-61500000D01*
X49362500Y-61500000D01*
X49362500Y-60774999D01*
X49263360Y-60775000D01*
X49263344Y-60775001D01*
X49162347Y-60785319D01*
X48998699Y-60839546D01*
X48998688Y-60839551D01*
X48851965Y-60930052D01*
X48838032Y-60943985D01*
X48776708Y-60977468D01*
X48707016Y-60972482D01*
X48662672Y-60943982D01*
X48648349Y-60929659D01*
X48614402Y-60908720D01*
X48567678Y-60856771D01*
X48555500Y-60803182D01*
X48555500Y-45974500D01*
X48575185Y-45907461D01*
X48627989Y-45861706D01*
X48679500Y-45850500D01*
X51667588Y-45850500D01*
X51734627Y-45870185D01*
G37*
G04 #@! TD.AperFunction*
G04 #@! TA.AperFunction,Conductor*
G36*
X51984627Y-25120185D02*
G01*
X51994903Y-25127555D01*
X51997736Y-25129814D01*
X51997738Y-25129816D01*
X52041735Y-25157461D01*
X52148426Y-25224500D01*
X52150478Y-25225789D01*
X52320745Y-25285368D01*
X52320750Y-25285369D01*
X52427954Y-25297448D01*
X52492368Y-25324514D01*
X52531924Y-25382109D01*
X52538070Y-25420180D01*
X52612611Y-44353541D01*
X52593191Y-44420657D01*
X52540567Y-44466620D01*
X52471448Y-44476835D01*
X52447658Y-44471071D01*
X52429257Y-44464632D01*
X52429249Y-44464630D01*
X52250004Y-44444435D01*
X52249996Y-44444435D01*
X52070750Y-44464630D01*
X52070745Y-44464631D01*
X51900476Y-44524211D01*
X51747736Y-44620185D01*
X51744903Y-44622445D01*
X51742724Y-44623334D01*
X51741842Y-44623889D01*
X51741744Y-44623734D01*
X51680217Y-44648855D01*
X51667588Y-44649500D01*
X48679500Y-44649500D01*
X48612461Y-44629815D01*
X48566706Y-44577011D01*
X48555500Y-44525500D01*
X48555500Y-41881777D01*
X48575185Y-41814738D01*
X48627989Y-41768983D01*
X48636168Y-41765595D01*
X48734826Y-41728798D01*
X48734826Y-41728797D01*
X48734831Y-41728796D01*
X48850046Y-41642546D01*
X48936296Y-41527331D01*
X48986591Y-41392483D01*
X48993000Y-41332873D01*
X48992999Y-41265988D01*
X49012683Y-41198952D01*
X49065486Y-41153196D01*
X49134644Y-41143252D01*
X49198200Y-41172276D01*
X49218573Y-41194866D01*
X49239373Y-41224571D01*
X49239374Y-41224571D01*
X49799537Y-40664408D01*
X49816575Y-40727993D01*
X49882401Y-40842007D01*
X49975493Y-40935099D01*
X50089507Y-41000925D01*
X50153090Y-41017962D01*
X49592927Y-41578124D01*
X49655112Y-41621666D01*
X49853340Y-41714101D01*
X49853349Y-41714105D01*
X50064605Y-41770710D01*
X50064615Y-41770712D01*
X50282499Y-41789775D01*
X50282501Y-41789775D01*
X50500384Y-41770712D01*
X50500394Y-41770710D01*
X50711650Y-41714105D01*
X50711664Y-41714100D01*
X50909883Y-41621669D01*
X50909885Y-41621668D01*
X50972071Y-41578124D01*
X50411910Y-41017962D01*
X50475493Y-41000925D01*
X50589507Y-40935099D01*
X50682599Y-40842007D01*
X50748425Y-40727993D01*
X50765462Y-40664409D01*
X51325624Y-41224570D01*
X51369168Y-41162385D01*
X51369169Y-41162383D01*
X51461600Y-40964164D01*
X51461605Y-40964150D01*
X51518210Y-40752894D01*
X51518212Y-40752884D01*
X51537275Y-40535000D01*
X51537275Y-40534999D01*
X51518212Y-40317115D01*
X51518210Y-40317105D01*
X51461605Y-40105849D01*
X51461601Y-40105840D01*
X51369167Y-39907614D01*
X51369166Y-39907612D01*
X51325624Y-39845428D01*
X51325624Y-39845427D01*
X50765462Y-40405589D01*
X50748425Y-40342007D01*
X50682599Y-40227993D01*
X50589507Y-40134901D01*
X50475493Y-40069075D01*
X50411909Y-40052037D01*
X50972071Y-39491874D01*
X50909887Y-39448333D01*
X50711659Y-39355898D01*
X50711650Y-39355894D01*
X50500394Y-39299289D01*
X50500384Y-39299287D01*
X50282501Y-39280225D01*
X50282499Y-39280225D01*
X50064615Y-39299287D01*
X50064605Y-39299289D01*
X49853349Y-39355894D01*
X49853340Y-39355898D01*
X49655113Y-39448333D01*
X49592928Y-39491874D01*
X50153091Y-40052037D01*
X50089507Y-40069075D01*
X49975493Y-40134901D01*
X49882401Y-40227993D01*
X49816575Y-40342007D01*
X49799537Y-40405591D01*
X49239374Y-39845428D01*
X49218575Y-39875133D01*
X49163999Y-39918759D01*
X49094500Y-39925953D01*
X49032145Y-39894431D01*
X48996731Y-39834202D01*
X48992999Y-39804011D01*
X48992999Y-39737129D01*
X48992998Y-39737123D01*
X48986591Y-39677516D01*
X48936297Y-39542671D01*
X48936293Y-39542664D01*
X48850047Y-39427455D01*
X48850044Y-39427452D01*
X48734834Y-39341205D01*
X48734831Y-39341203D01*
X48731159Y-39339834D01*
X48728025Y-39337488D01*
X48727051Y-39336956D01*
X48727127Y-39336815D01*
X48675228Y-39297959D01*
X48650815Y-39232493D01*
X48650500Y-39223655D01*
X48650500Y-38846280D01*
X48670185Y-38779241D01*
X48722989Y-38733486D01*
X48761897Y-38722922D01*
X48837753Y-38715174D01*
X49001516Y-38660908D01*
X49148350Y-38570340D01*
X49162671Y-38556018D01*
X49223989Y-38522533D01*
X49293681Y-38527514D01*
X49338034Y-38556017D01*
X49351961Y-38569944D01*
X49351965Y-38569947D01*
X49498688Y-38660448D01*
X49498699Y-38660453D01*
X49662347Y-38714680D01*
X49763351Y-38724999D01*
X50362500Y-38724999D01*
X50461640Y-38724999D01*
X50461654Y-38724998D01*
X50562652Y-38714680D01*
X50726300Y-38660453D01*
X50726311Y-38660448D01*
X50873034Y-38569947D01*
X50873038Y-38569944D01*
X50994944Y-38448038D01*
X50994947Y-38448034D01*
X51085448Y-38301311D01*
X51085453Y-38301300D01*
X51139680Y-38137652D01*
X51149999Y-38036654D01*
X51150000Y-38036641D01*
X51150000Y-38000000D01*
X50362500Y-38000000D01*
X50362500Y-38724999D01*
X49763351Y-38724999D01*
X49862500Y-38724998D01*
X49862500Y-37500000D01*
X50362500Y-37500000D01*
X51149999Y-37500000D01*
X51149999Y-37463360D01*
X51149998Y-37463345D01*
X51139680Y-37362347D01*
X51085453Y-37198699D01*
X51085448Y-37198688D01*
X50994947Y-37051965D01*
X50994944Y-37051961D01*
X50873038Y-36930055D01*
X50873034Y-36930052D01*
X50726311Y-36839551D01*
X50726300Y-36839546D01*
X50562652Y-36785319D01*
X50461654Y-36775000D01*
X50362500Y-36775000D01*
X50362500Y-37500000D01*
X49862500Y-37500000D01*
X49862500Y-36774999D01*
X49763360Y-36775000D01*
X49763344Y-36775001D01*
X49662347Y-36785319D01*
X49498699Y-36839546D01*
X49498688Y-36839551D01*
X49351965Y-36930052D01*
X49338032Y-36943985D01*
X49276708Y-36977468D01*
X49207016Y-36972482D01*
X49162672Y-36943982D01*
X49148351Y-36929661D01*
X49148350Y-36929660D01*
X49057129Y-36873395D01*
X49001518Y-36839093D01*
X49001513Y-36839091D01*
X49000069Y-36838612D01*
X48837753Y-36784826D01*
X48837750Y-36784825D01*
X48761897Y-36777076D01*
X48697205Y-36750679D01*
X48657054Y-36693498D01*
X48650500Y-36653718D01*
X48650500Y-25224500D01*
X48670185Y-25157461D01*
X48722989Y-25111706D01*
X48774500Y-25100500D01*
X51917588Y-25100500D01*
X51984627Y-25120185D01*
G37*
G04 #@! TD.AperFunction*
G04 #@! TA.AperFunction,Conductor*
G36*
X50629075Y-20357993D02*
G01*
X50694901Y-20472007D01*
X50787993Y-20565099D01*
X50902007Y-20630925D01*
X50965590Y-20647962D01*
X50368454Y-21245097D01*
X50307131Y-21278582D01*
X50268171Y-21280774D01*
X50211656Y-21275000D01*
X50112500Y-21275000D01*
X50112500Y-22000000D01*
X50899999Y-22000000D01*
X50899999Y-21963360D01*
X50899998Y-21963345D01*
X50889680Y-21862347D01*
X50835453Y-21698699D01*
X50835448Y-21698688D01*
X50768411Y-21590005D01*
X50749970Y-21522613D01*
X50770892Y-21455949D01*
X50824534Y-21411180D01*
X50884757Y-21401380D01*
X51094999Y-21419775D01*
X51095001Y-21419775D01*
X51312884Y-21400712D01*
X51312894Y-21400710D01*
X51524150Y-21344105D01*
X51524164Y-21344100D01*
X51722383Y-21251669D01*
X51722385Y-21251668D01*
X51784571Y-21208124D01*
X51224410Y-20647962D01*
X51287993Y-20630925D01*
X51402007Y-20565099D01*
X51495099Y-20472007D01*
X51560925Y-20357993D01*
X51577962Y-20294409D01*
X52138124Y-20854570D01*
X52181668Y-20792385D01*
X52181669Y-20792383D01*
X52274100Y-20594164D01*
X52274102Y-20594158D01*
X52275399Y-20589318D01*
X52311759Y-20529654D01*
X52374604Y-20499120D01*
X52443980Y-20507409D01*
X52497862Y-20551889D01*
X52519142Y-20618439D01*
X52519176Y-20620913D01*
X52530825Y-23579660D01*
X52511405Y-23646776D01*
X52458781Y-23692739D01*
X52420710Y-23703368D01*
X52320749Y-23714630D01*
X52320745Y-23714631D01*
X52150476Y-23774211D01*
X51997736Y-23870185D01*
X51994903Y-23872445D01*
X51992724Y-23873334D01*
X51991842Y-23873889D01*
X51991744Y-23873734D01*
X51930217Y-23898855D01*
X51917588Y-23899500D01*
X48774500Y-23899500D01*
X48707461Y-23879815D01*
X48661706Y-23827011D01*
X48650500Y-23775500D01*
X48650500Y-23283921D01*
X48670185Y-23216882D01*
X48722989Y-23171127D01*
X48735471Y-23166224D01*
X48751516Y-23160908D01*
X48898350Y-23070340D01*
X48912671Y-23056018D01*
X48973989Y-23022533D01*
X49043681Y-23027514D01*
X49088034Y-23056017D01*
X49101961Y-23069944D01*
X49101965Y-23069947D01*
X49248688Y-23160448D01*
X49248699Y-23160453D01*
X49412347Y-23214680D01*
X49513351Y-23224999D01*
X50112500Y-23224999D01*
X50211640Y-23224999D01*
X50211654Y-23224998D01*
X50312652Y-23214680D01*
X50476300Y-23160453D01*
X50476311Y-23160448D01*
X50623034Y-23069947D01*
X50623038Y-23069944D01*
X50744944Y-22948038D01*
X50744947Y-22948034D01*
X50835448Y-22801311D01*
X50835453Y-22801300D01*
X50889680Y-22637652D01*
X50899999Y-22536654D01*
X50900000Y-22536641D01*
X50900000Y-22500000D01*
X50112500Y-22500000D01*
X50112500Y-23224999D01*
X49513351Y-23224999D01*
X49612500Y-23224998D01*
X49612500Y-21372079D01*
X49632185Y-21305040D01*
X49656446Y-21278981D01*
X49656278Y-21278813D01*
X49661000Y-21274090D01*
X49662192Y-21272810D01*
X49662546Y-21272546D01*
X49748796Y-21157331D01*
X49799091Y-21022483D01*
X49805500Y-20962873D01*
X49805499Y-20895988D01*
X49825183Y-20828952D01*
X49877986Y-20783196D01*
X49947144Y-20773252D01*
X50010700Y-20802276D01*
X50031073Y-20824866D01*
X50051873Y-20854571D01*
X50051874Y-20854571D01*
X50612037Y-20294408D01*
X50629075Y-20357993D01*
G37*
G04 #@! TD.AperFunction*
M02*
