G04 #@! TF.GenerationSoftware,KiCad,Pcbnew,8.0.4*
G04 #@! TF.CreationDate,2025-07-07T19:56:56+02:00*
G04 #@! TF.ProjectId,pec,7065632e-6b69-4636-9164-5f7063625858,rev?*
G04 #@! TF.SameCoordinates,Original*
G04 #@! TF.FileFunction,Paste,Top*
G04 #@! TF.FilePolarity,Positive*
%FSLAX46Y46*%
G04 Gerber Fmt 4.6, Leading zero omitted, Abs format (unit mm)*
G04 Created by KiCad (PCBNEW 8.0.4) date 2025-07-07 19:56:56*
%MOMM*%
%LPD*%
G01*
G04 APERTURE LIST*
G04 Aperture macros list*
%AMRoundRect*
0 Rectangle with rounded corners*
0 $1 Rounding radius*
0 $2 $3 $4 $5 $6 $7 $8 $9 X,Y pos of 4 corners*
0 Add a 4 corners polygon primitive as box body*
4,1,4,$2,$3,$4,$5,$6,$7,$8,$9,$2,$3,0*
0 Add four circle primitives for the rounded corners*
1,1,$1+$1,$2,$3*
1,1,$1+$1,$4,$5*
1,1,$1+$1,$6,$7*
1,1,$1+$1,$8,$9*
0 Add four rect primitives between the rounded corners*
20,1,$1+$1,$2,$3,$4,$5,0*
20,1,$1+$1,$4,$5,$6,$7,0*
20,1,$1+$1,$6,$7,$8,$9,0*
20,1,$1+$1,$8,$9,$2,$3,0*%
G04 Aperture macros list end*
%ADD10RoundRect,0.250000X-0.450000X0.350000X-0.450000X-0.350000X0.450000X-0.350000X0.450000X0.350000X0*%
%ADD11RoundRect,0.250000X0.475000X-0.337500X0.475000X0.337500X-0.475000X0.337500X-0.475000X-0.337500X0*%
%ADD12RoundRect,0.250000X-0.400000X-0.625000X0.400000X-0.625000X0.400000X0.625000X-0.400000X0.625000X0*%
%ADD13RoundRect,0.225000X0.225000X0.375000X-0.225000X0.375000X-0.225000X-0.375000X0.225000X-0.375000X0*%
%ADD14R,1.600000X0.650000*%
%ADD15RoundRect,0.250000X-0.350000X-0.450000X0.350000X-0.450000X0.350000X0.450000X-0.350000X0.450000X0*%
%ADD16RoundRect,0.237500X0.237500X-0.300000X0.237500X0.300000X-0.237500X0.300000X-0.237500X-0.300000X0*%
%ADD17R,1.120000X1.240000*%
%ADD18RoundRect,0.250000X-0.337500X-0.475000X0.337500X-0.475000X0.337500X0.475000X-0.337500X0.475000X0*%
%ADD19RoundRect,0.237500X-0.300000X-0.237500X0.300000X-0.237500X0.300000X0.237500X-0.300000X0.237500X0*%
%ADD20RoundRect,0.250001X-0.462499X-0.624999X0.462499X-0.624999X0.462499X0.624999X-0.462499X0.624999X0*%
G04 APERTURE END LIST*
D10*
X48460000Y-97832500D03*
X48460000Y-99832500D03*
D11*
X67342500Y-100482500D03*
X67342500Y-98407500D03*
D12*
X71842500Y-101407500D03*
X74942500Y-101407500D03*
D13*
X37750000Y-29500000D03*
X34450000Y-29500000D03*
D14*
X52000000Y-76245000D03*
X52000000Y-77515000D03*
X52000000Y-78785000D03*
X52000000Y-80055000D03*
X61700000Y-80055000D03*
X61700000Y-78785000D03*
X61700000Y-77515000D03*
X61700000Y-76245000D03*
D12*
X122150000Y-30400000D03*
X125250000Y-30400000D03*
X71742500Y-95362500D03*
X74842500Y-95362500D03*
X72250000Y-55500000D03*
X75350000Y-55500000D03*
D14*
X52150000Y-51345000D03*
X52150000Y-52615000D03*
X52150000Y-53885000D03*
X52150000Y-55155000D03*
X61850000Y-55155000D03*
X61850000Y-53885000D03*
X61850000Y-52615000D03*
X61850000Y-51345000D03*
D12*
X127400000Y-30400000D03*
X130500000Y-30400000D03*
D15*
X43850000Y-97877500D03*
X45850000Y-97877500D03*
D16*
X65592500Y-100382500D03*
X65592500Y-98657500D03*
D12*
X127400000Y-27600000D03*
X130500000Y-27600000D03*
X116900000Y-30400000D03*
X120000000Y-30400000D03*
X72250000Y-50250000D03*
X75350000Y-50250000D03*
X132650000Y-27600000D03*
X135750000Y-27600000D03*
X71500000Y-121550000D03*
X74600000Y-121550000D03*
D10*
X48850000Y-52750000D03*
X48850000Y-54750000D03*
D15*
X44660000Y-52750000D03*
X46660000Y-52750000D03*
D12*
X72250000Y-52900000D03*
X75350000Y-52900000D03*
X122150000Y-27600000D03*
X125250000Y-27600000D03*
X72500000Y-76850000D03*
X75600000Y-76850000D03*
D10*
X49100000Y-32350000D03*
X49100000Y-34350000D03*
D17*
X79100000Y-37850000D03*
X79100000Y-34850000D03*
D18*
X50525000Y-26680000D03*
X52600000Y-26680000D03*
D16*
X65750000Y-122537500D03*
X65750000Y-120812500D03*
D12*
X137850000Y-30400000D03*
X140950000Y-30400000D03*
D19*
X50220000Y-72885000D03*
X51945000Y-72885000D03*
D12*
X143100000Y-30400000D03*
X146200000Y-30400000D03*
D18*
X49932500Y-114220000D03*
X52007500Y-114220000D03*
D11*
X68400000Y-35150000D03*
X68400000Y-33075000D03*
D10*
X48500000Y-119750000D03*
X48500000Y-121750000D03*
D17*
X78600000Y-124750000D03*
X78600000Y-121750000D03*
D12*
X71842500Y-104157500D03*
X74942500Y-104157500D03*
X137900000Y-27600000D03*
X141000000Y-27600000D03*
D19*
X36025000Y-33500000D03*
X37750000Y-33500000D03*
D18*
X49812500Y-91877500D03*
X51887500Y-91877500D03*
D15*
X44825000Y-32370000D03*
X46825000Y-32370000D03*
D18*
X50120000Y-70885000D03*
X52195000Y-70885000D03*
D17*
X78250000Y-58550000D03*
X78250000Y-55550000D03*
D19*
X50690000Y-28400000D03*
X52415000Y-28400000D03*
D15*
X36762500Y-39750000D03*
X38762500Y-39750000D03*
D19*
X49995000Y-115970000D03*
X51720000Y-115970000D03*
D16*
X65750000Y-55112500D03*
X65750000Y-53387500D03*
D12*
X71485000Y-127770000D03*
X74585000Y-127770000D03*
X116900000Y-27600000D03*
X120000000Y-27600000D03*
D11*
X67500000Y-122575000D03*
X67500000Y-120500000D03*
D18*
X50175000Y-47250000D03*
X52250000Y-47250000D03*
D12*
X72500000Y-74400000D03*
X75600000Y-74400000D03*
D15*
X44500000Y-119750000D03*
X46500000Y-119750000D03*
D12*
X71500000Y-119030000D03*
X74600000Y-119030000D03*
X72500000Y-79315000D03*
X75600000Y-79315000D03*
X72300000Y-58800000D03*
X75400000Y-58800000D03*
X73200000Y-38250000D03*
X76300000Y-38250000D03*
X132700000Y-30400000D03*
X135800000Y-30400000D03*
X72300000Y-61300000D03*
X75400000Y-61300000D03*
D17*
X78592500Y-101257500D03*
X78592500Y-98257500D03*
X78500000Y-82700000D03*
X78500000Y-79700000D03*
D14*
X51807500Y-118660000D03*
X51807500Y-119930000D03*
X51807500Y-121200000D03*
X51807500Y-122470000D03*
X61507500Y-122470000D03*
X61507500Y-121200000D03*
X61507500Y-119930000D03*
X61507500Y-118660000D03*
D12*
X73100000Y-32350000D03*
X76200000Y-32350000D03*
X73192500Y-40795000D03*
X76292500Y-40795000D03*
D11*
X67350000Y-80073750D03*
X67350000Y-77998750D03*
D12*
X72650000Y-85400000D03*
X75750000Y-85400000D03*
D11*
X67550000Y-55250000D03*
X67550000Y-53175000D03*
D12*
X71742500Y-92657500D03*
X74842500Y-92657500D03*
D19*
X49912500Y-93877500D03*
X51637500Y-93877500D03*
D12*
X71742500Y-98027500D03*
X74842500Y-98027500D03*
X71500000Y-116550000D03*
X74600000Y-116550000D03*
D14*
X51750000Y-96722500D03*
X51750000Y-97992500D03*
X51750000Y-99262500D03*
X51750000Y-100532500D03*
X61450000Y-100532500D03*
X61450000Y-99262500D03*
X61450000Y-97992500D03*
X61450000Y-96722500D03*
D16*
X65550000Y-79862500D03*
X65550000Y-78137500D03*
X66600000Y-35025000D03*
X66600000Y-33300000D03*
D12*
X72600000Y-82850000D03*
X75700000Y-82850000D03*
X73050000Y-29900000D03*
X76150000Y-29900000D03*
D10*
X48850000Y-77650000D03*
X48850000Y-79650000D03*
D19*
X50365000Y-49220000D03*
X52090000Y-49220000D03*
D12*
X143100000Y-27600000D03*
X146200000Y-27600000D03*
D20*
X31275000Y-39750000D03*
X34250000Y-39750000D03*
D15*
X44600000Y-77650000D03*
X46600000Y-77650000D03*
D12*
X71500000Y-125250000D03*
X74600000Y-125250000D03*
X73100000Y-34850000D03*
X76200000Y-34850000D03*
D14*
X52500000Y-31245000D03*
X52500000Y-32515000D03*
X52500000Y-33785000D03*
X52500000Y-35055000D03*
X62200000Y-35055000D03*
X62200000Y-33785000D03*
X62200000Y-32515000D03*
X62200000Y-31245000D03*
M02*
