G04 #@! TF.GenerationSoftware,KiCad,Pcbnew,8.0.4*
G04 #@! TF.CreationDate,2025-07-07T19:56:56+02:00*
G04 #@! TF.ProjectId,pec,7065632e-6b69-4636-9164-5f7063625858,rev?*
G04 #@! TF.SameCoordinates,Original*
G04 #@! TF.FileFunction,Copper,L2,Inr*
G04 #@! TF.FilePolarity,Positive*
%FSLAX46Y46*%
G04 Gerber Fmt 4.6, Leading zero omitted, Abs format (unit mm)*
G04 Created by KiCad (PCBNEW 8.0.4) date 2025-07-07 19:56:56*
%MOMM*%
%LPD*%
G01*
G04 APERTURE LIST*
G04 Aperture macros list*
%AMRoundRect*
0 Rectangle with rounded corners*
0 $1 Rounding radius*
0 $2 $3 $4 $5 $6 $7 $8 $9 X,Y pos of 4 corners*
0 Add a 4 corners polygon primitive as box body*
4,1,4,$2,$3,$4,$5,$6,$7,$8,$9,$2,$3,0*
0 Add four circle primitives for the rounded corners*
1,1,$1+$1,$2,$3*
1,1,$1+$1,$4,$5*
1,1,$1+$1,$6,$7*
1,1,$1+$1,$8,$9*
0 Add four rect primitives between the rounded corners*
20,1,$1+$1,$2,$3,$4,$5,0*
20,1,$1+$1,$4,$5,$6,$7,0*
20,1,$1+$1,$6,$7,$8,$9,0*
20,1,$1+$1,$8,$9,$2,$3,0*%
G04 Aperture macros list end*
%ADD10C,0.300000*%
G04 #@! TA.AperFunction,NonConductor*
%ADD11C,0.300000*%
G04 #@! TD*
G04 #@! TA.AperFunction,ComponentPad*
%ADD12R,2.310000X2.310000*%
G04 #@! TD*
G04 #@! TA.AperFunction,ComponentPad*
%ADD13C,2.310000*%
G04 #@! TD*
G04 #@! TA.AperFunction,ComponentPad*
%ADD14RoundRect,0.250001X0.799999X1.549999X-0.799999X1.549999X-0.799999X-1.549999X0.799999X-1.549999X0*%
G04 #@! TD*
G04 #@! TA.AperFunction,ComponentPad*
%ADD15O,2.100000X3.600000*%
G04 #@! TD*
G04 #@! TA.AperFunction,ComponentPad*
%ADD16R,1.500000X1.500000*%
G04 #@! TD*
G04 #@! TA.AperFunction,ComponentPad*
%ADD17C,1.500000*%
G04 #@! TD*
G04 #@! TA.AperFunction,ComponentPad*
%ADD18C,2.400000*%
G04 #@! TD*
G04 #@! TA.AperFunction,ComponentPad*
%ADD19R,4.000000X4.000000*%
G04 #@! TD*
G04 #@! TA.AperFunction,ComponentPad*
%ADD20C,4.000000*%
G04 #@! TD*
G04 #@! TA.AperFunction,ComponentPad*
%ADD21R,2.500000X2.500000*%
G04 #@! TD*
G04 #@! TA.AperFunction,ComponentPad*
%ADD22C,2.500000*%
G04 #@! TD*
G04 #@! TA.AperFunction,ComponentPad*
%ADD23RoundRect,0.250001X1.549999X-0.799999X1.549999X0.799999X-1.549999X0.799999X-1.549999X-0.799999X0*%
G04 #@! TD*
G04 #@! TA.AperFunction,ComponentPad*
%ADD24O,3.600000X2.100000*%
G04 #@! TD*
G04 #@! TA.AperFunction,ComponentPad*
%ADD25R,3.200000X3.200000*%
G04 #@! TD*
G04 #@! TA.AperFunction,ComponentPad*
%ADD26O,3.200000X3.200000*%
G04 #@! TD*
G04 #@! TA.AperFunction,ComponentPad*
%ADD27C,3.400000*%
G04 #@! TD*
G04 #@! TA.AperFunction,ViaPad*
%ADD28C,0.600000*%
G04 #@! TD*
G04 APERTURE END LIST*
D10*
D11*
X34983082Y-131443685D02*
X35054510Y-131372257D01*
X35054510Y-131372257D02*
X35197368Y-131300828D01*
X35197368Y-131300828D02*
X35554510Y-131300828D01*
X35554510Y-131300828D02*
X35697368Y-131372257D01*
X35697368Y-131372257D02*
X35768796Y-131443685D01*
X35768796Y-131443685D02*
X35840225Y-131586542D01*
X35840225Y-131586542D02*
X35840225Y-131729400D01*
X35840225Y-131729400D02*
X35768796Y-131943685D01*
X35768796Y-131943685D02*
X34911653Y-132800828D01*
X34911653Y-132800828D02*
X35840225Y-132800828D01*
D12*
X81670000Y-19000000D03*
D13*
X86750000Y-19000000D03*
X89290000Y-19000000D03*
X91830000Y-19000000D03*
D14*
X99310000Y-141027500D03*
D15*
X91690000Y-141027500D03*
D16*
X48092500Y-64135000D03*
D17*
X50632500Y-64135000D03*
X55712500Y-64135000D03*
X60792500Y-64135000D03*
D18*
X93500000Y-97750000D03*
X108500000Y-97750000D03*
D19*
X125342169Y-67500000D03*
D20*
X135342169Y-67500000D03*
D19*
X159157832Y-44500000D03*
D20*
X149157832Y-44500000D03*
D19*
X125342169Y-91000000D03*
D20*
X135342169Y-91000000D03*
D16*
X48142500Y-84657500D03*
D17*
X50682500Y-84657500D03*
X55762500Y-84657500D03*
X60842500Y-84657500D03*
D12*
X99420000Y-19000000D03*
D13*
X104500000Y-19000000D03*
X107040000Y-19000000D03*
X109580000Y-19000000D03*
D21*
X37750000Y-21500000D03*
D22*
X32750000Y-21500000D03*
D16*
X48555000Y-20165000D03*
D17*
X51095000Y-20165000D03*
X56175000Y-20165000D03*
X61255000Y-20165000D03*
D23*
X156472500Y-28810000D03*
D24*
X156472500Y-21190000D03*
D25*
X150470000Y-140100000D03*
D26*
X150470000Y-127400000D03*
D12*
X135000000Y-19000000D03*
D13*
X140080000Y-19000000D03*
X142620000Y-19000000D03*
X145160000Y-19000000D03*
D18*
X88750000Y-45750000D03*
X116250000Y-45750000D03*
D16*
X47742500Y-40535000D03*
D17*
X50282500Y-40535000D03*
X55362500Y-40535000D03*
X60442500Y-40535000D03*
D18*
X93500000Y-71250000D03*
X108500000Y-71250000D03*
D16*
X48347500Y-107205000D03*
D17*
X50887500Y-107205000D03*
X55967500Y-107205000D03*
X61047500Y-107205000D03*
D18*
X88750000Y-59500000D03*
X116250000Y-59500000D03*
D12*
X117250000Y-19000000D03*
D13*
X122330000Y-19000000D03*
X124870000Y-19000000D03*
X127410000Y-19000000D03*
D19*
X159185664Y-113250000D03*
D20*
X149185664Y-113250000D03*
D27*
X109500000Y-127250000D03*
X109500000Y-106450000D03*
D21*
X34250000Y-73750000D03*
D22*
X34250000Y-68750000D03*
D21*
X34250000Y-80250000D03*
D22*
X34250000Y-85250000D03*
D19*
X125342169Y-43500000D03*
D20*
X135342169Y-43500000D03*
D12*
X163500000Y-128500000D03*
D13*
X163500000Y-133580000D03*
X163500000Y-136120000D03*
X163500000Y-138660000D03*
D18*
X93500000Y-80250000D03*
X108500000Y-80250000D03*
X93500000Y-89000000D03*
X108500000Y-89000000D03*
D19*
X159000001Y-90250000D03*
D20*
X149000001Y-90250000D03*
D19*
X159000001Y-67250000D03*
D20*
X149000001Y-67250000D03*
D25*
X139820000Y-140100000D03*
D26*
X139820000Y-127400000D03*
D21*
X34250000Y-50750000D03*
D22*
X34250000Y-55750000D03*
X34250000Y-60750000D03*
D28*
X147950000Y-29100000D03*
X51750000Y-39000000D03*
X52000000Y-105250000D03*
X51500000Y-82000000D03*
X51750000Y-59500000D03*
X70100000Y-120750000D03*
X63250000Y-122470000D03*
X70250000Y-28500000D03*
X64275000Y-34975000D03*
X69250000Y-49000000D03*
X64000000Y-55250000D03*
X69250000Y-75750000D03*
X63750000Y-80000000D03*
X69842500Y-98157500D03*
X63592500Y-100532500D03*
X41000000Y-39750000D03*
X51750000Y-89500000D03*
X52500000Y-24500000D03*
X52000000Y-68750000D03*
X52000000Y-112000000D03*
X52250000Y-45250000D03*
X114950000Y-29100000D03*
X63250000Y-121200000D03*
X78600000Y-120250000D03*
X63250000Y-119991217D03*
X69500000Y-119000000D03*
X71250000Y-32350000D03*
X64350000Y-32515000D03*
X64350000Y-33785000D03*
X79100000Y-33500000D03*
X78250000Y-54000000D03*
X64000000Y-54000000D03*
X70750000Y-52900000D03*
X64000000Y-52750000D03*
X63750000Y-77500000D03*
X70750000Y-77000000D03*
X78600000Y-78400000D03*
X63750000Y-78750000D03*
X63592500Y-97907500D03*
X70092500Y-95407500D03*
X63592500Y-99157500D03*
X78592500Y-96657500D03*
X63250000Y-118750000D03*
X64350000Y-31245000D03*
X64000000Y-51250000D03*
X63750000Y-76250000D03*
X63592500Y-96657500D03*
G04 #@! TA.AperFunction,Conductor*
G36*
X52443526Y-15769685D02*
G01*
X52489281Y-15822489D01*
X52500486Y-15873512D01*
X52515533Y-19695440D01*
X52496113Y-19762556D01*
X52443489Y-19808519D01*
X52374370Y-19818734D01*
X52310701Y-19789960D01*
X52276606Y-19740648D01*
X52276391Y-19740749D01*
X52275801Y-19739483D01*
X52275015Y-19738347D01*
X52274103Y-19735844D01*
X52181667Y-19537614D01*
X52181666Y-19537612D01*
X52138124Y-19475428D01*
X52138124Y-19475427D01*
X51577962Y-20035589D01*
X51560925Y-19972007D01*
X51495099Y-19857993D01*
X51402007Y-19764901D01*
X51287993Y-19699075D01*
X51224409Y-19682037D01*
X51784571Y-19121874D01*
X51722387Y-19078333D01*
X51524159Y-18985898D01*
X51524150Y-18985894D01*
X51312894Y-18929289D01*
X51312884Y-18929287D01*
X51095001Y-18910225D01*
X51094999Y-18910225D01*
X50877115Y-18929287D01*
X50877105Y-18929289D01*
X50665849Y-18985894D01*
X50665840Y-18985898D01*
X50467613Y-19078333D01*
X50405428Y-19121874D01*
X50965591Y-19682037D01*
X50902007Y-19699075D01*
X50787993Y-19764901D01*
X50694901Y-19857993D01*
X50629075Y-19972007D01*
X50612037Y-20035591D01*
X50051874Y-19475428D01*
X50031075Y-19505133D01*
X49976499Y-19548759D01*
X49907000Y-19555953D01*
X49844645Y-19524431D01*
X49809231Y-19464202D01*
X49805499Y-19434011D01*
X49805499Y-19367129D01*
X49805498Y-19367123D01*
X49805497Y-19367116D01*
X49799091Y-19307517D01*
X49748796Y-19172669D01*
X49748795Y-19172668D01*
X49748793Y-19172664D01*
X49662547Y-19057455D01*
X49662544Y-19057452D01*
X49547335Y-18971206D01*
X49547328Y-18971202D01*
X49412482Y-18920908D01*
X49412483Y-18920908D01*
X49352883Y-18914501D01*
X49352881Y-18914500D01*
X49352873Y-18914500D01*
X49352864Y-18914500D01*
X47757129Y-18914500D01*
X47757123Y-18914501D01*
X47697516Y-18920908D01*
X47562671Y-18971202D01*
X47562664Y-18971206D01*
X47447455Y-19057452D01*
X47447452Y-19057455D01*
X47361206Y-19172664D01*
X47361202Y-19172671D01*
X47310908Y-19307517D01*
X47304501Y-19367116D01*
X47304501Y-19367123D01*
X47304500Y-19367135D01*
X47304500Y-20962870D01*
X47304501Y-20962876D01*
X47310908Y-21022483D01*
X47361202Y-21157328D01*
X47361206Y-21157335D01*
X47447452Y-21272544D01*
X47447455Y-21272547D01*
X47562664Y-21358793D01*
X47562671Y-21358797D01*
X47697517Y-21409091D01*
X47697516Y-21409091D01*
X47704444Y-21409835D01*
X47757127Y-21415500D01*
X49352872Y-21415499D01*
X49412483Y-21409091D01*
X49547331Y-21358796D01*
X49662546Y-21272546D01*
X49748796Y-21157331D01*
X49799091Y-21022483D01*
X49805500Y-20962873D01*
X49805499Y-20895988D01*
X49825183Y-20828952D01*
X49877986Y-20783196D01*
X49947144Y-20773252D01*
X50010700Y-20802276D01*
X50031073Y-20824866D01*
X50051873Y-20854571D01*
X50051874Y-20854571D01*
X50612037Y-20294408D01*
X50629075Y-20357993D01*
X50694901Y-20472007D01*
X50787993Y-20565099D01*
X50902007Y-20630925D01*
X50965590Y-20647962D01*
X50405427Y-21208124D01*
X50467612Y-21251666D01*
X50665840Y-21344101D01*
X50665849Y-21344105D01*
X50877105Y-21400710D01*
X50877115Y-21400712D01*
X51094999Y-21419775D01*
X51095001Y-21419775D01*
X51312884Y-21400712D01*
X51312894Y-21400710D01*
X51524150Y-21344105D01*
X51524164Y-21344100D01*
X51722383Y-21251669D01*
X51722385Y-21251668D01*
X51784571Y-21208124D01*
X51224410Y-20647962D01*
X51287993Y-20630925D01*
X51402007Y-20565099D01*
X51495099Y-20472007D01*
X51560925Y-20357993D01*
X51577962Y-20294409D01*
X52138124Y-20854570D01*
X52181668Y-20792385D01*
X52181669Y-20792383D01*
X52274100Y-20594164D01*
X52274102Y-20594158D01*
X52275399Y-20589318D01*
X52311759Y-20529654D01*
X52374604Y-20499120D01*
X52443980Y-20507409D01*
X52497862Y-20551889D01*
X52519142Y-20618439D01*
X52519176Y-20620913D01*
X52530825Y-23579660D01*
X52511405Y-23646776D01*
X52458781Y-23692739D01*
X52420710Y-23703368D01*
X52320749Y-23714630D01*
X52320745Y-23714631D01*
X52150476Y-23774211D01*
X51997737Y-23870184D01*
X51870184Y-23997737D01*
X51774211Y-24150476D01*
X51714631Y-24320745D01*
X51714630Y-24320750D01*
X51694435Y-24499996D01*
X51694435Y-24500003D01*
X51714630Y-24679249D01*
X51714631Y-24679254D01*
X51774211Y-24849523D01*
X51870184Y-25002262D01*
X51997738Y-25129816D01*
X52150478Y-25225789D01*
X52320745Y-25285368D01*
X52320750Y-25285369D01*
X52427954Y-25297448D01*
X52492368Y-25324514D01*
X52531924Y-25382109D01*
X52538070Y-25420180D01*
X52612611Y-44353541D01*
X52593191Y-44420657D01*
X52540567Y-44466620D01*
X52471448Y-44476835D01*
X52447658Y-44471071D01*
X52429257Y-44464632D01*
X52429249Y-44464630D01*
X52250004Y-44444435D01*
X52249996Y-44444435D01*
X52070750Y-44464630D01*
X52070745Y-44464631D01*
X51900476Y-44524211D01*
X51747737Y-44620184D01*
X51620184Y-44747737D01*
X51524211Y-44900476D01*
X51464631Y-45070745D01*
X51464630Y-45070750D01*
X51444435Y-45249996D01*
X51444435Y-45250003D01*
X51464630Y-45429249D01*
X51464631Y-45429254D01*
X51524211Y-45599523D01*
X51620184Y-45752262D01*
X51747738Y-45879816D01*
X51900478Y-45975789D01*
X52045299Y-46026464D01*
X52070745Y-46035368D01*
X52070750Y-46035369D01*
X52249996Y-46055565D01*
X52250000Y-46055565D01*
X52250004Y-46055565D01*
X52429249Y-46035369D01*
X52429252Y-46035368D01*
X52429255Y-46035368D01*
X52429256Y-46035367D01*
X52429259Y-46035367D01*
X52454702Y-46026464D01*
X52524481Y-46022901D01*
X52585109Y-46057630D01*
X52617336Y-46119623D01*
X52619657Y-46143017D01*
X52705804Y-68024528D01*
X52686384Y-68091644D01*
X52633760Y-68137607D01*
X52564641Y-68147822D01*
X52508331Y-68123612D01*
X52508158Y-68123889D01*
X52506391Y-68122778D01*
X52504489Y-68121961D01*
X52502258Y-68120181D01*
X52349523Y-68024211D01*
X52179254Y-67964631D01*
X52179249Y-67964630D01*
X52000004Y-67944435D01*
X51999996Y-67944435D01*
X51820750Y-67964630D01*
X51820745Y-67964631D01*
X51650476Y-68024211D01*
X51497737Y-68120184D01*
X51370184Y-68247737D01*
X51274211Y-68400476D01*
X51214631Y-68570745D01*
X51214630Y-68570750D01*
X51194435Y-68749996D01*
X51194435Y-68750003D01*
X51214630Y-68929249D01*
X51214631Y-68929254D01*
X51274211Y-69099523D01*
X51370184Y-69252262D01*
X51497738Y-69379816D01*
X51522882Y-69395615D01*
X51640400Y-69469457D01*
X51650478Y-69475789D01*
X51752943Y-69511643D01*
X51820745Y-69535368D01*
X51820750Y-69535369D01*
X51999996Y-69555565D01*
X52000000Y-69555565D01*
X52000004Y-69555565D01*
X52179249Y-69535369D01*
X52179252Y-69535368D01*
X52179255Y-69535368D01*
X52349522Y-69475789D01*
X52502262Y-69379816D01*
X52502266Y-69379811D01*
X52507705Y-69375475D01*
X52509085Y-69377205D01*
X52561111Y-69348784D01*
X52630804Y-69353754D01*
X52686746Y-69395615D01*
X52711176Y-69461074D01*
X52711493Y-69469457D01*
X52789845Y-89370787D01*
X52770425Y-89437903D01*
X52717801Y-89483866D01*
X52648682Y-89494081D01*
X52585013Y-89465307D01*
X52547007Y-89406678D01*
X52542626Y-89385158D01*
X52535369Y-89320750D01*
X52535368Y-89320745D01*
X52475788Y-89150476D01*
X52379815Y-88997737D01*
X52252262Y-88870184D01*
X52099523Y-88774211D01*
X51929254Y-88714631D01*
X51929249Y-88714630D01*
X51750004Y-88694435D01*
X51749996Y-88694435D01*
X51570750Y-88714630D01*
X51570745Y-88714631D01*
X51400476Y-88774211D01*
X51247737Y-88870184D01*
X51120184Y-88997737D01*
X51024211Y-89150476D01*
X50964631Y-89320745D01*
X50964630Y-89320750D01*
X50944435Y-89499996D01*
X50944435Y-89500003D01*
X50964630Y-89679249D01*
X50964631Y-89679254D01*
X51024211Y-89849523D01*
X51120184Y-90002262D01*
X51247738Y-90129816D01*
X51400478Y-90225789D01*
X51570745Y-90285368D01*
X51570750Y-90285369D01*
X51749996Y-90305565D01*
X51750000Y-90305565D01*
X51750004Y-90305565D01*
X51929249Y-90285369D01*
X51929252Y-90285368D01*
X51929255Y-90285368D01*
X52099522Y-90225789D01*
X52252262Y-90129816D01*
X52379816Y-90002262D01*
X52475789Y-89849522D01*
X52535368Y-89679255D01*
X52543605Y-89606150D01*
X52570671Y-89541735D01*
X52628265Y-89502180D01*
X52698102Y-89500041D01*
X52758009Y-89535999D01*
X52788965Y-89598637D01*
X52790824Y-89619544D01*
X52876810Y-111459927D01*
X52857390Y-111527043D01*
X52804766Y-111573006D01*
X52735647Y-111583221D01*
X52671978Y-111554447D01*
X52647817Y-111526387D01*
X52629815Y-111497737D01*
X52502262Y-111370184D01*
X52349523Y-111274211D01*
X52179254Y-111214631D01*
X52179249Y-111214630D01*
X52000004Y-111194435D01*
X51999996Y-111194435D01*
X51820750Y-111214630D01*
X51820745Y-111214631D01*
X51650476Y-111274211D01*
X51497737Y-111370184D01*
X51370184Y-111497737D01*
X51274211Y-111650476D01*
X51214631Y-111820745D01*
X51214630Y-111820750D01*
X51194435Y-111999996D01*
X51194435Y-112000003D01*
X51214630Y-112179249D01*
X51214631Y-112179254D01*
X51274211Y-112349523D01*
X51330010Y-112438326D01*
X51370184Y-112502262D01*
X51497738Y-112629816D01*
X51650478Y-112725789D01*
X51820745Y-112785368D01*
X51820750Y-112785369D01*
X51999996Y-112805565D01*
X52000000Y-112805565D01*
X52000004Y-112805565D01*
X52179249Y-112785369D01*
X52179252Y-112785368D01*
X52179255Y-112785368D01*
X52349522Y-112725789D01*
X52502262Y-112629816D01*
X52629816Y-112502262D01*
X52652040Y-112466891D01*
X52704372Y-112420602D01*
X52773425Y-112409952D01*
X52837274Y-112438326D01*
X52875647Y-112496715D01*
X52881032Y-112532376D01*
X52999510Y-142625512D01*
X52980090Y-142692628D01*
X52927466Y-142738591D01*
X52875511Y-142750000D01*
X28623756Y-142750000D01*
X28556717Y-142730315D01*
X28510962Y-142677511D01*
X28499756Y-142626244D01*
X28481705Y-133456328D01*
X34256153Y-133456328D01*
X36497450Y-133456328D01*
X36497450Y-130643603D01*
X34256153Y-130643603D01*
X34256153Y-133456328D01*
X28481705Y-133456328D01*
X28476168Y-130643603D01*
X28428459Y-106407135D01*
X47097000Y-106407135D01*
X47097000Y-108002870D01*
X47097001Y-108002876D01*
X47103408Y-108062483D01*
X47153702Y-108197328D01*
X47153706Y-108197335D01*
X47239952Y-108312544D01*
X47239955Y-108312547D01*
X47355164Y-108398793D01*
X47355171Y-108398797D01*
X47490017Y-108449091D01*
X47490016Y-108449091D01*
X47496944Y-108449835D01*
X47549627Y-108455500D01*
X49145372Y-108455499D01*
X49204983Y-108449091D01*
X49339831Y-108398796D01*
X49455046Y-108312546D01*
X49541296Y-108197331D01*
X49591591Y-108062483D01*
X49598000Y-108002873D01*
X49597999Y-107935988D01*
X49617683Y-107868952D01*
X49670486Y-107823196D01*
X49739644Y-107813252D01*
X49803200Y-107842276D01*
X49823573Y-107864866D01*
X49844373Y-107894571D01*
X49844374Y-107894571D01*
X50404537Y-107334408D01*
X50421575Y-107397993D01*
X50487401Y-107512007D01*
X50580493Y-107605099D01*
X50694507Y-107670925D01*
X50758090Y-107687962D01*
X50197927Y-108248124D01*
X50260112Y-108291666D01*
X50458340Y-108384101D01*
X50458349Y-108384105D01*
X50669605Y-108440710D01*
X50669615Y-108440712D01*
X50887499Y-108459775D01*
X50887501Y-108459775D01*
X51105384Y-108440712D01*
X51105394Y-108440710D01*
X51316650Y-108384105D01*
X51316664Y-108384100D01*
X51514883Y-108291669D01*
X51514885Y-108291668D01*
X51577071Y-108248124D01*
X51016910Y-107687962D01*
X51080493Y-107670925D01*
X51194507Y-107605099D01*
X51287599Y-107512007D01*
X51353425Y-107397993D01*
X51370462Y-107334409D01*
X51930624Y-107894570D01*
X51974168Y-107832385D01*
X51974169Y-107832383D01*
X52066600Y-107634164D01*
X52066605Y-107634150D01*
X52123210Y-107422894D01*
X52123212Y-107422884D01*
X52142275Y-107205000D01*
X52142275Y-107204999D01*
X52123212Y-106987115D01*
X52123210Y-106987105D01*
X52066605Y-106775849D01*
X52066601Y-106775840D01*
X51974167Y-106577614D01*
X51974166Y-106577612D01*
X51930624Y-106515428D01*
X51930624Y-106515427D01*
X51370462Y-107075589D01*
X51353425Y-107012007D01*
X51287599Y-106897993D01*
X51194507Y-106804901D01*
X51080493Y-106739075D01*
X51016909Y-106722037D01*
X51577071Y-106161874D01*
X51514887Y-106118333D01*
X51316659Y-106025898D01*
X51316650Y-106025894D01*
X51105394Y-105969289D01*
X51105384Y-105969287D01*
X50887501Y-105950225D01*
X50887499Y-105950225D01*
X50669615Y-105969287D01*
X50669605Y-105969289D01*
X50458349Y-106025894D01*
X50458340Y-106025898D01*
X50260113Y-106118333D01*
X50197928Y-106161874D01*
X50758091Y-106722037D01*
X50694507Y-106739075D01*
X50580493Y-106804901D01*
X50487401Y-106897993D01*
X50421575Y-107012007D01*
X50404537Y-107075591D01*
X49844374Y-106515428D01*
X49823575Y-106545133D01*
X49768999Y-106588759D01*
X49699500Y-106595953D01*
X49637145Y-106564431D01*
X49601731Y-106504202D01*
X49597999Y-106474011D01*
X49597999Y-106407129D01*
X49597998Y-106407123D01*
X49597997Y-106407116D01*
X49591591Y-106347517D01*
X49541296Y-106212669D01*
X49541295Y-106212668D01*
X49541293Y-106212664D01*
X49455047Y-106097455D01*
X49455044Y-106097452D01*
X49339835Y-106011206D01*
X49339828Y-106011202D01*
X49204982Y-105960908D01*
X49204983Y-105960908D01*
X49145383Y-105954501D01*
X49145381Y-105954500D01*
X49145373Y-105954500D01*
X49145364Y-105954500D01*
X47549629Y-105954500D01*
X47549623Y-105954501D01*
X47490016Y-105960908D01*
X47355171Y-106011202D01*
X47355164Y-106011206D01*
X47239955Y-106097452D01*
X47239952Y-106097455D01*
X47153706Y-106212664D01*
X47153702Y-106212671D01*
X47103408Y-106347517D01*
X47097001Y-106407116D01*
X47097001Y-106407123D01*
X47097000Y-106407135D01*
X28428459Y-106407135D01*
X28386811Y-85249995D01*
X32494592Y-85249995D01*
X32494592Y-85250004D01*
X32514196Y-85511620D01*
X32514197Y-85511625D01*
X32572576Y-85767402D01*
X32572578Y-85767411D01*
X32572580Y-85767416D01*
X32668432Y-86011643D01*
X32799614Y-86238857D01*
X32931736Y-86404533D01*
X32963198Y-86443985D01*
X33144753Y-86612441D01*
X33155521Y-86622433D01*
X33372296Y-86770228D01*
X33372301Y-86770230D01*
X33372302Y-86770231D01*
X33372303Y-86770232D01*
X33497843Y-86830688D01*
X33608673Y-86884061D01*
X33608674Y-86884061D01*
X33608677Y-86884063D01*
X33859385Y-86961396D01*
X34118818Y-87000500D01*
X34381182Y-87000500D01*
X34640615Y-86961396D01*
X34891323Y-86884063D01*
X35127704Y-86770228D01*
X35344479Y-86622433D01*
X35536805Y-86443981D01*
X35700386Y-86238857D01*
X35831568Y-86011643D01*
X35927420Y-85767416D01*
X35985802Y-85511630D01*
X35990018Y-85455370D01*
X36005408Y-85250004D01*
X36005408Y-85249995D01*
X35985803Y-84988379D01*
X35985802Y-84988374D01*
X35985802Y-84988370D01*
X35927420Y-84732584D01*
X35831568Y-84488357D01*
X35700386Y-84261143D01*
X35536805Y-84056019D01*
X35536804Y-84056018D01*
X35536801Y-84056014D01*
X35344479Y-83877567D01*
X35318178Y-83859635D01*
X46892000Y-83859635D01*
X46892000Y-85455370D01*
X46892001Y-85455376D01*
X46898408Y-85514983D01*
X46948702Y-85649828D01*
X46948706Y-85649835D01*
X47034952Y-85765044D01*
X47034955Y-85765047D01*
X47150164Y-85851293D01*
X47150171Y-85851297D01*
X47285017Y-85901591D01*
X47285016Y-85901591D01*
X47291944Y-85902335D01*
X47344627Y-85908000D01*
X48940372Y-85907999D01*
X48999983Y-85901591D01*
X49134831Y-85851296D01*
X49250046Y-85765046D01*
X49336296Y-85649831D01*
X49386591Y-85514983D01*
X49393000Y-85455373D01*
X49392999Y-85388488D01*
X49412683Y-85321452D01*
X49465486Y-85275696D01*
X49534644Y-85265752D01*
X49598200Y-85294776D01*
X49618573Y-85317366D01*
X49639373Y-85347071D01*
X49639374Y-85347071D01*
X50199537Y-84786908D01*
X50216575Y-84850493D01*
X50282401Y-84964507D01*
X50375493Y-85057599D01*
X50489507Y-85123425D01*
X50553090Y-85140462D01*
X49992927Y-85700624D01*
X50055112Y-85744166D01*
X50253340Y-85836601D01*
X50253349Y-85836605D01*
X50464605Y-85893210D01*
X50464615Y-85893212D01*
X50682499Y-85912275D01*
X50682501Y-85912275D01*
X50900384Y-85893212D01*
X50900394Y-85893210D01*
X51111650Y-85836605D01*
X51111664Y-85836600D01*
X51309883Y-85744169D01*
X51309885Y-85744168D01*
X51372071Y-85700624D01*
X50811910Y-85140462D01*
X50875493Y-85123425D01*
X50989507Y-85057599D01*
X51082599Y-84964507D01*
X51148425Y-84850493D01*
X51165462Y-84786909D01*
X51725624Y-85347070D01*
X51769168Y-85284885D01*
X51769169Y-85284883D01*
X51861600Y-85086664D01*
X51861605Y-85086650D01*
X51918210Y-84875394D01*
X51918212Y-84875384D01*
X51937275Y-84657500D01*
X51937275Y-84657499D01*
X51918212Y-84439615D01*
X51918210Y-84439605D01*
X51861605Y-84228349D01*
X51861601Y-84228340D01*
X51769167Y-84030114D01*
X51769166Y-84030112D01*
X51725624Y-83967928D01*
X51725624Y-83967927D01*
X51165462Y-84528089D01*
X51148425Y-84464507D01*
X51082599Y-84350493D01*
X50989507Y-84257401D01*
X50875493Y-84191575D01*
X50811909Y-84174537D01*
X51372071Y-83614374D01*
X51309887Y-83570833D01*
X51111659Y-83478398D01*
X51111650Y-83478394D01*
X50900394Y-83421789D01*
X50900384Y-83421787D01*
X50682501Y-83402725D01*
X50682499Y-83402725D01*
X50464615Y-83421787D01*
X50464605Y-83421789D01*
X50253349Y-83478394D01*
X50253340Y-83478398D01*
X50055113Y-83570833D01*
X49992928Y-83614374D01*
X50553091Y-84174537D01*
X50489507Y-84191575D01*
X50375493Y-84257401D01*
X50282401Y-84350493D01*
X50216575Y-84464507D01*
X50199537Y-84528091D01*
X49639374Y-83967928D01*
X49618575Y-83997633D01*
X49563999Y-84041259D01*
X49494500Y-84048453D01*
X49432145Y-84016931D01*
X49396731Y-83956702D01*
X49392999Y-83926511D01*
X49392999Y-83859629D01*
X49392998Y-83859623D01*
X49392997Y-83859616D01*
X49386591Y-83800017D01*
X49360391Y-83729772D01*
X49336297Y-83665171D01*
X49336293Y-83665164D01*
X49250047Y-83549955D01*
X49250044Y-83549952D01*
X49134835Y-83463706D01*
X49134828Y-83463702D01*
X48999982Y-83413408D01*
X48999983Y-83413408D01*
X48940383Y-83407001D01*
X48940381Y-83407000D01*
X48940373Y-83407000D01*
X48940364Y-83407000D01*
X47344629Y-83407000D01*
X47344623Y-83407001D01*
X47285016Y-83413408D01*
X47150171Y-83463702D01*
X47150164Y-83463706D01*
X47034955Y-83549952D01*
X47034952Y-83549955D01*
X46948706Y-83665164D01*
X46948702Y-83665171D01*
X46898408Y-83800017D01*
X46892001Y-83859616D01*
X46892001Y-83859623D01*
X46892000Y-83859635D01*
X35318178Y-83859635D01*
X35230734Y-83800017D01*
X35127704Y-83729772D01*
X35127700Y-83729770D01*
X35127697Y-83729768D01*
X35127696Y-83729767D01*
X34891325Y-83615938D01*
X34891327Y-83615938D01*
X34640623Y-83538606D01*
X34640619Y-83538605D01*
X34640615Y-83538604D01*
X34515823Y-83519794D01*
X34381187Y-83499500D01*
X34381182Y-83499500D01*
X34118818Y-83499500D01*
X34118812Y-83499500D01*
X33957247Y-83523853D01*
X33859385Y-83538604D01*
X33859382Y-83538605D01*
X33859376Y-83538606D01*
X33608673Y-83615938D01*
X33372303Y-83729767D01*
X33372302Y-83729768D01*
X33155520Y-83877567D01*
X32963198Y-84056014D01*
X32799614Y-84261143D01*
X32668432Y-84488356D01*
X32572582Y-84732578D01*
X32572576Y-84732597D01*
X32514197Y-84988374D01*
X32514196Y-84988379D01*
X32494592Y-85249995D01*
X28386811Y-85249995D01*
X28374414Y-78952135D01*
X32499500Y-78952135D01*
X32499500Y-81547870D01*
X32499501Y-81547876D01*
X32505908Y-81607483D01*
X32556202Y-81742328D01*
X32556206Y-81742335D01*
X32642452Y-81857544D01*
X32642455Y-81857547D01*
X32757664Y-81943793D01*
X32757671Y-81943797D01*
X32892517Y-81994091D01*
X32892516Y-81994091D01*
X32899444Y-81994835D01*
X32952127Y-82000500D01*
X35547872Y-82000499D01*
X35607483Y-81994091D01*
X35742331Y-81943796D01*
X35857546Y-81857546D01*
X35943796Y-81742331D01*
X35994091Y-81607483D01*
X36000500Y-81547873D01*
X36000499Y-78952128D01*
X35994091Y-78892517D01*
X35943796Y-78757669D01*
X35943795Y-78757668D01*
X35943793Y-78757664D01*
X35857547Y-78642455D01*
X35857544Y-78642452D01*
X35742335Y-78556206D01*
X35742328Y-78556202D01*
X35607482Y-78505908D01*
X35607483Y-78505908D01*
X35547883Y-78499501D01*
X35547881Y-78499500D01*
X35547873Y-78499500D01*
X35547864Y-78499500D01*
X32952129Y-78499500D01*
X32952123Y-78499501D01*
X32892516Y-78505908D01*
X32757671Y-78556202D01*
X32757664Y-78556206D01*
X32642455Y-78642452D01*
X32642452Y-78642455D01*
X32556206Y-78757664D01*
X32556202Y-78757671D01*
X32505908Y-78892517D01*
X32499501Y-78952116D01*
X32499501Y-78952123D01*
X32499500Y-78952135D01*
X28374414Y-78952135D01*
X28367619Y-75500498D01*
X28361618Y-72452135D01*
X32499500Y-72452135D01*
X32499500Y-75047870D01*
X32499501Y-75047876D01*
X32505908Y-75107483D01*
X32556202Y-75242328D01*
X32556206Y-75242335D01*
X32642452Y-75357544D01*
X32642455Y-75357547D01*
X32757664Y-75443793D01*
X32757671Y-75443797D01*
X32892517Y-75494091D01*
X32892516Y-75494091D01*
X32899444Y-75494835D01*
X32952127Y-75500500D01*
X35547872Y-75500499D01*
X35607483Y-75494091D01*
X35742331Y-75443796D01*
X35857546Y-75357546D01*
X35943796Y-75242331D01*
X35994091Y-75107483D01*
X36000500Y-75047873D01*
X36000499Y-72452128D01*
X35994091Y-72392517D01*
X35943796Y-72257669D01*
X35943795Y-72257668D01*
X35943793Y-72257664D01*
X35857547Y-72142455D01*
X35857544Y-72142452D01*
X35742335Y-72056206D01*
X35742328Y-72056202D01*
X35607482Y-72005908D01*
X35607483Y-72005908D01*
X35547883Y-71999501D01*
X35547881Y-71999500D01*
X35547873Y-71999500D01*
X35547864Y-71999500D01*
X32952129Y-71999500D01*
X32952123Y-71999501D01*
X32892516Y-72005908D01*
X32757671Y-72056202D01*
X32757664Y-72056206D01*
X32642455Y-72142452D01*
X32642452Y-72142455D01*
X32556206Y-72257664D01*
X32556202Y-72257671D01*
X32505908Y-72392517D01*
X32499501Y-72452116D01*
X32499501Y-72452123D01*
X32499500Y-72452135D01*
X28361618Y-72452135D01*
X28354331Y-68749995D01*
X32494592Y-68749995D01*
X32494592Y-68750004D01*
X32514196Y-69011620D01*
X32514197Y-69011625D01*
X32572576Y-69267402D01*
X32572578Y-69267411D01*
X32572580Y-69267416D01*
X32668432Y-69511643D01*
X32799614Y-69738857D01*
X32931736Y-69904533D01*
X32963198Y-69943985D01*
X33144753Y-70112441D01*
X33155521Y-70122433D01*
X33372296Y-70270228D01*
X33372301Y-70270230D01*
X33372302Y-70270231D01*
X33372303Y-70270232D01*
X33497843Y-70330688D01*
X33608673Y-70384061D01*
X33608674Y-70384061D01*
X33608677Y-70384063D01*
X33859385Y-70461396D01*
X34118818Y-70500500D01*
X34381182Y-70500500D01*
X34640615Y-70461396D01*
X34891323Y-70384063D01*
X35127704Y-70270228D01*
X35344479Y-70122433D01*
X35536805Y-69943981D01*
X35700386Y-69738857D01*
X35831568Y-69511643D01*
X35927420Y-69267416D01*
X35985802Y-69011630D01*
X35991975Y-68929254D01*
X36005408Y-68750004D01*
X36005408Y-68749995D01*
X35985803Y-68488379D01*
X35985802Y-68488374D01*
X35985802Y-68488370D01*
X35927420Y-68232584D01*
X35831568Y-67988357D01*
X35700386Y-67761143D01*
X35536805Y-67556019D01*
X35536804Y-67556018D01*
X35536801Y-67556014D01*
X35344479Y-67377567D01*
X35127704Y-67229772D01*
X35127700Y-67229770D01*
X35127697Y-67229768D01*
X35127696Y-67229767D01*
X34891325Y-67115938D01*
X34891327Y-67115938D01*
X34640623Y-67038606D01*
X34640619Y-67038605D01*
X34640615Y-67038604D01*
X34515823Y-67019794D01*
X34381187Y-66999500D01*
X34381182Y-66999500D01*
X34118818Y-66999500D01*
X34118812Y-66999500D01*
X33957247Y-67023853D01*
X33859385Y-67038604D01*
X33859382Y-67038605D01*
X33859376Y-67038606D01*
X33608673Y-67115938D01*
X33372303Y-67229767D01*
X33372302Y-67229768D01*
X33155520Y-67377567D01*
X32963198Y-67556014D01*
X32799614Y-67761143D01*
X32668432Y-67988356D01*
X32572582Y-68232578D01*
X32572576Y-68232597D01*
X32514197Y-68488374D01*
X32514196Y-68488379D01*
X32494592Y-68749995D01*
X28354331Y-68749995D01*
X28343676Y-63337135D01*
X46842000Y-63337135D01*
X46842000Y-64932870D01*
X46842001Y-64932876D01*
X46848408Y-64992483D01*
X46898702Y-65127328D01*
X46898706Y-65127335D01*
X46984952Y-65242544D01*
X46984955Y-65242547D01*
X47100164Y-65328793D01*
X47100171Y-65328797D01*
X47235017Y-65379091D01*
X47235016Y-65379091D01*
X47241944Y-65379835D01*
X47294627Y-65385500D01*
X48890372Y-65385499D01*
X48949983Y-65379091D01*
X49084831Y-65328796D01*
X49200046Y-65242546D01*
X49286296Y-65127331D01*
X49336591Y-64992483D01*
X49343000Y-64932873D01*
X49342999Y-64865988D01*
X49362683Y-64798952D01*
X49415486Y-64753196D01*
X49484644Y-64743252D01*
X49548200Y-64772276D01*
X49568573Y-64794866D01*
X49589373Y-64824571D01*
X49589374Y-64824571D01*
X50149537Y-64264408D01*
X50166575Y-64327993D01*
X50232401Y-64442007D01*
X50325493Y-64535099D01*
X50439507Y-64600925D01*
X50503090Y-64617962D01*
X49942927Y-65178124D01*
X50005112Y-65221666D01*
X50203340Y-65314101D01*
X50203349Y-65314105D01*
X50414605Y-65370710D01*
X50414615Y-65370712D01*
X50632499Y-65389775D01*
X50632501Y-65389775D01*
X50850384Y-65370712D01*
X50850394Y-65370710D01*
X51061650Y-65314105D01*
X51061664Y-65314100D01*
X51259883Y-65221669D01*
X51259885Y-65221668D01*
X51322071Y-65178124D01*
X50761910Y-64617962D01*
X50825493Y-64600925D01*
X50939507Y-64535099D01*
X51032599Y-64442007D01*
X51098425Y-64327993D01*
X51115462Y-64264409D01*
X51675624Y-64824570D01*
X51719168Y-64762385D01*
X51719169Y-64762383D01*
X51811600Y-64564164D01*
X51811605Y-64564150D01*
X51868210Y-64352894D01*
X51868212Y-64352884D01*
X51887275Y-64135000D01*
X51887275Y-64134999D01*
X51868212Y-63917115D01*
X51868210Y-63917105D01*
X51811605Y-63705849D01*
X51811601Y-63705840D01*
X51719167Y-63507614D01*
X51719166Y-63507612D01*
X51675624Y-63445428D01*
X51675624Y-63445427D01*
X51115462Y-64005589D01*
X51098425Y-63942007D01*
X51032599Y-63827993D01*
X50939507Y-63734901D01*
X50825493Y-63669075D01*
X50761909Y-63652037D01*
X51322071Y-63091874D01*
X51259887Y-63048333D01*
X51061659Y-62955898D01*
X51061650Y-62955894D01*
X50850394Y-62899289D01*
X50850384Y-62899287D01*
X50632501Y-62880225D01*
X50632499Y-62880225D01*
X50414615Y-62899287D01*
X50414605Y-62899289D01*
X50203349Y-62955894D01*
X50203340Y-62955898D01*
X50005113Y-63048333D01*
X49942928Y-63091874D01*
X50503091Y-63652037D01*
X50439507Y-63669075D01*
X50325493Y-63734901D01*
X50232401Y-63827993D01*
X50166575Y-63942007D01*
X50149537Y-64005591D01*
X49589374Y-63445428D01*
X49568575Y-63475133D01*
X49513999Y-63518759D01*
X49444500Y-63525953D01*
X49382145Y-63494431D01*
X49346731Y-63434202D01*
X49342999Y-63404011D01*
X49342999Y-63337129D01*
X49342998Y-63337123D01*
X49342997Y-63337116D01*
X49336591Y-63277517D01*
X49286296Y-63142669D01*
X49286295Y-63142668D01*
X49286293Y-63142664D01*
X49200047Y-63027455D01*
X49200044Y-63027452D01*
X49084835Y-62941206D01*
X49084828Y-62941202D01*
X48949982Y-62890908D01*
X48949983Y-62890908D01*
X48890383Y-62884501D01*
X48890381Y-62884500D01*
X48890373Y-62884500D01*
X48890364Y-62884500D01*
X47294629Y-62884500D01*
X47294623Y-62884501D01*
X47235016Y-62890908D01*
X47100171Y-62941202D01*
X47100164Y-62941206D01*
X46984955Y-63027452D01*
X46984952Y-63027455D01*
X46898706Y-63142664D01*
X46898702Y-63142671D01*
X46848408Y-63277517D01*
X46842001Y-63337116D01*
X46842001Y-63337123D01*
X46842000Y-63337135D01*
X28343676Y-63337135D01*
X28338583Y-60749995D01*
X32495093Y-60749995D01*
X32495093Y-60750004D01*
X32514692Y-61011545D01*
X32514693Y-61011550D01*
X32573058Y-61267270D01*
X32668883Y-61511426D01*
X32668882Y-61511426D01*
X32800027Y-61738573D01*
X32847874Y-61798571D01*
X33648958Y-60997488D01*
X33673978Y-61057890D01*
X33745112Y-61164351D01*
X33835649Y-61254888D01*
X33942110Y-61326022D01*
X34002510Y-61351041D01*
X33200830Y-62152720D01*
X33372546Y-62269793D01*
X33372550Y-62269795D01*
X33608854Y-62383594D01*
X33608858Y-62383595D01*
X33859494Y-62460907D01*
X33859500Y-62460909D01*
X34118848Y-62499999D01*
X34118857Y-62500000D01*
X34381143Y-62500000D01*
X34381151Y-62499999D01*
X34640499Y-62460909D01*
X34640505Y-62460907D01*
X34891143Y-62383595D01*
X35127445Y-62269798D01*
X35127447Y-62269797D01*
X35299168Y-62152720D01*
X34497488Y-61351041D01*
X34557890Y-61326022D01*
X34664351Y-61254888D01*
X34754888Y-61164351D01*
X34826022Y-61057890D01*
X34851041Y-60997488D01*
X35652125Y-61798572D01*
X35699971Y-61738573D01*
X35831116Y-61511426D01*
X35926941Y-61267270D01*
X35985306Y-61011550D01*
X35985307Y-61011545D01*
X36004907Y-60750004D01*
X36004907Y-60749995D01*
X35985307Y-60488454D01*
X35985306Y-60488449D01*
X35926941Y-60232729D01*
X35831116Y-59988573D01*
X35831117Y-59988573D01*
X35699972Y-59761426D01*
X35652124Y-59701427D01*
X34851041Y-60502510D01*
X34826022Y-60442110D01*
X34754888Y-60335649D01*
X34664351Y-60245112D01*
X34557890Y-60173978D01*
X34497488Y-60148958D01*
X35299168Y-59347278D01*
X35127454Y-59230206D01*
X35127445Y-59230201D01*
X34891142Y-59116404D01*
X34891144Y-59116404D01*
X34640505Y-59039092D01*
X34640499Y-59039090D01*
X34381151Y-59000000D01*
X34118848Y-59000000D01*
X33859500Y-59039090D01*
X33859494Y-59039092D01*
X33608858Y-59116404D01*
X33608854Y-59116405D01*
X33372547Y-59230205D01*
X33372539Y-59230210D01*
X33200830Y-59347277D01*
X34002511Y-60148958D01*
X33942110Y-60173978D01*
X33835649Y-60245112D01*
X33745112Y-60335649D01*
X33673978Y-60442110D01*
X33648958Y-60502510D01*
X32847874Y-59701427D01*
X32800028Y-59761425D01*
X32668883Y-59988573D01*
X32573058Y-60232729D01*
X32514693Y-60488449D01*
X32514692Y-60488454D01*
X32495093Y-60749995D01*
X28338583Y-60749995D01*
X28328740Y-55749995D01*
X32494592Y-55749995D01*
X32494592Y-55750004D01*
X32514196Y-56011620D01*
X32514197Y-56011625D01*
X32572576Y-56267402D01*
X32572578Y-56267411D01*
X32572580Y-56267416D01*
X32668432Y-56511643D01*
X32799614Y-56738857D01*
X32931736Y-56904533D01*
X32963198Y-56943985D01*
X33144753Y-57112441D01*
X33155521Y-57122433D01*
X33372296Y-57270228D01*
X33372301Y-57270230D01*
X33372302Y-57270231D01*
X33372303Y-57270232D01*
X33497843Y-57330688D01*
X33608673Y-57384061D01*
X33608674Y-57384061D01*
X33608677Y-57384063D01*
X33859385Y-57461396D01*
X34118818Y-57500500D01*
X34381182Y-57500500D01*
X34640615Y-57461396D01*
X34891323Y-57384063D01*
X35127704Y-57270228D01*
X35344479Y-57122433D01*
X35536805Y-56943981D01*
X35700386Y-56738857D01*
X35831568Y-56511643D01*
X35927420Y-56267416D01*
X35985802Y-56011630D01*
X36005408Y-55750000D01*
X35985802Y-55488370D01*
X35927420Y-55232584D01*
X35831568Y-54988357D01*
X35700386Y-54761143D01*
X35536805Y-54556019D01*
X35536804Y-54556018D01*
X35536801Y-54556014D01*
X35344479Y-54377567D01*
X35127704Y-54229772D01*
X35127700Y-54229770D01*
X35127697Y-54229768D01*
X35127696Y-54229767D01*
X34891325Y-54115938D01*
X34891327Y-54115938D01*
X34640623Y-54038606D01*
X34640619Y-54038605D01*
X34640615Y-54038604D01*
X34515823Y-54019794D01*
X34381187Y-53999500D01*
X34381182Y-53999500D01*
X34118818Y-53999500D01*
X34118812Y-53999500D01*
X33957247Y-54023853D01*
X33859385Y-54038604D01*
X33859382Y-54038605D01*
X33859376Y-54038606D01*
X33608673Y-54115938D01*
X33372303Y-54229767D01*
X33372302Y-54229768D01*
X33155520Y-54377567D01*
X32963198Y-54556014D01*
X32799614Y-54761143D01*
X32668432Y-54988356D01*
X32572582Y-55232578D01*
X32572576Y-55232597D01*
X32514197Y-55488374D01*
X32514196Y-55488379D01*
X32494592Y-55749995D01*
X28328740Y-55749995D01*
X28316343Y-49452135D01*
X32499500Y-49452135D01*
X32499500Y-52047870D01*
X32499501Y-52047876D01*
X32505908Y-52107483D01*
X32556202Y-52242328D01*
X32556206Y-52242335D01*
X32642452Y-52357544D01*
X32642455Y-52357547D01*
X32757664Y-52443793D01*
X32757671Y-52443797D01*
X32892517Y-52494091D01*
X32892516Y-52494091D01*
X32899444Y-52494835D01*
X32952127Y-52500500D01*
X35547872Y-52500499D01*
X35607483Y-52494091D01*
X35742331Y-52443796D01*
X35857546Y-52357546D01*
X35943796Y-52242331D01*
X35994091Y-52107483D01*
X36000500Y-52047873D01*
X36000499Y-49452128D01*
X35994091Y-49392517D01*
X35943796Y-49257669D01*
X35943795Y-49257668D01*
X35943793Y-49257664D01*
X35857547Y-49142455D01*
X35857544Y-49142452D01*
X35742335Y-49056206D01*
X35742328Y-49056202D01*
X35607482Y-49005908D01*
X35607483Y-49005908D01*
X35547883Y-48999501D01*
X35547881Y-48999500D01*
X35547873Y-48999500D01*
X35547864Y-48999500D01*
X32952129Y-48999500D01*
X32952123Y-48999501D01*
X32892516Y-49005908D01*
X32757671Y-49056202D01*
X32757664Y-49056206D01*
X32642455Y-49142452D01*
X32642452Y-49142455D01*
X32556206Y-49257664D01*
X32556202Y-49257671D01*
X32505908Y-49392517D01*
X32499501Y-49452116D01*
X32499501Y-49452123D01*
X32499500Y-49452135D01*
X28316343Y-49452135D01*
X28297244Y-39749996D01*
X40194435Y-39749996D01*
X40194435Y-39750003D01*
X40214630Y-39929249D01*
X40214631Y-39929254D01*
X40274211Y-40099523D01*
X40296441Y-40134901D01*
X40370184Y-40252262D01*
X40497738Y-40379816D01*
X40650478Y-40475789D01*
X40819690Y-40534999D01*
X40820745Y-40535368D01*
X40820750Y-40535369D01*
X40999996Y-40555565D01*
X41000000Y-40555565D01*
X41000004Y-40555565D01*
X41179249Y-40535369D01*
X41179252Y-40535368D01*
X41179255Y-40535368D01*
X41349522Y-40475789D01*
X41502262Y-40379816D01*
X41629816Y-40252262D01*
X41725789Y-40099522D01*
X41785368Y-39929255D01*
X41786551Y-39918759D01*
X41805565Y-39750003D01*
X41805565Y-39749996D01*
X41804116Y-39737135D01*
X46492000Y-39737135D01*
X46492000Y-41332870D01*
X46492001Y-41332876D01*
X46498408Y-41392483D01*
X46548702Y-41527328D01*
X46548706Y-41527335D01*
X46634952Y-41642544D01*
X46634955Y-41642547D01*
X46750164Y-41728793D01*
X46750171Y-41728797D01*
X46885017Y-41779091D01*
X46885016Y-41779091D01*
X46891944Y-41779835D01*
X46944627Y-41785500D01*
X48540372Y-41785499D01*
X48599983Y-41779091D01*
X48734831Y-41728796D01*
X48850046Y-41642546D01*
X48936296Y-41527331D01*
X48986591Y-41392483D01*
X48993000Y-41332873D01*
X48992999Y-41265988D01*
X49012683Y-41198952D01*
X49065486Y-41153196D01*
X49134644Y-41143252D01*
X49198200Y-41172276D01*
X49218573Y-41194866D01*
X49239373Y-41224571D01*
X49239374Y-41224571D01*
X49799537Y-40664408D01*
X49816575Y-40727993D01*
X49882401Y-40842007D01*
X49975493Y-40935099D01*
X50089507Y-41000925D01*
X50153090Y-41017962D01*
X49592927Y-41578124D01*
X49655112Y-41621666D01*
X49853340Y-41714101D01*
X49853349Y-41714105D01*
X50064605Y-41770710D01*
X50064615Y-41770712D01*
X50282499Y-41789775D01*
X50282501Y-41789775D01*
X50500384Y-41770712D01*
X50500394Y-41770710D01*
X50711650Y-41714105D01*
X50711664Y-41714100D01*
X50909883Y-41621669D01*
X50909885Y-41621668D01*
X50972071Y-41578124D01*
X50411910Y-41017962D01*
X50475493Y-41000925D01*
X50589507Y-40935099D01*
X50682599Y-40842007D01*
X50748425Y-40727993D01*
X50765462Y-40664409D01*
X51325624Y-41224570D01*
X51369168Y-41162385D01*
X51369169Y-41162383D01*
X51461600Y-40964164D01*
X51461605Y-40964150D01*
X51518210Y-40752894D01*
X51518212Y-40752884D01*
X51537275Y-40535000D01*
X51537275Y-40534999D01*
X51518212Y-40317115D01*
X51518210Y-40317105D01*
X51461605Y-40105849D01*
X51461601Y-40105840D01*
X51369167Y-39907614D01*
X51369166Y-39907612D01*
X51325624Y-39845428D01*
X51325624Y-39845427D01*
X50765462Y-40405589D01*
X50748425Y-40342007D01*
X50682599Y-40227993D01*
X50589507Y-40134901D01*
X50475493Y-40069075D01*
X50411909Y-40052037D01*
X50972071Y-39491874D01*
X50909887Y-39448333D01*
X50711659Y-39355898D01*
X50711650Y-39355894D01*
X50500394Y-39299289D01*
X50500384Y-39299287D01*
X50282501Y-39280225D01*
X50282499Y-39280225D01*
X50064615Y-39299287D01*
X50064605Y-39299289D01*
X49853349Y-39355894D01*
X49853340Y-39355898D01*
X49655113Y-39448333D01*
X49592928Y-39491874D01*
X50153091Y-40052037D01*
X50089507Y-40069075D01*
X49975493Y-40134901D01*
X49882401Y-40227993D01*
X49816575Y-40342007D01*
X49799537Y-40405591D01*
X49239374Y-39845428D01*
X49218575Y-39875133D01*
X49163999Y-39918759D01*
X49094500Y-39925953D01*
X49032145Y-39894431D01*
X48996731Y-39834202D01*
X48992999Y-39804011D01*
X48992999Y-39737129D01*
X48992998Y-39737123D01*
X48992997Y-39737116D01*
X48986591Y-39677517D01*
X48936296Y-39542669D01*
X48936295Y-39542668D01*
X48936293Y-39542664D01*
X48850047Y-39427455D01*
X48850044Y-39427452D01*
X48734835Y-39341206D01*
X48734828Y-39341202D01*
X48599982Y-39290908D01*
X48599983Y-39290908D01*
X48540383Y-39284501D01*
X48540381Y-39284500D01*
X48540373Y-39284500D01*
X48540364Y-39284500D01*
X46944629Y-39284500D01*
X46944623Y-39284501D01*
X46885016Y-39290908D01*
X46750171Y-39341202D01*
X46750164Y-39341206D01*
X46634955Y-39427452D01*
X46634952Y-39427455D01*
X46548706Y-39542664D01*
X46548702Y-39542671D01*
X46498408Y-39677517D01*
X46492001Y-39737116D01*
X46492001Y-39737123D01*
X46492000Y-39737135D01*
X41804116Y-39737135D01*
X41785369Y-39570750D01*
X41785368Y-39570745D01*
X41742534Y-39448333D01*
X41725789Y-39400478D01*
X41629816Y-39247738D01*
X41502262Y-39120184D01*
X41349523Y-39024211D01*
X41179254Y-38964631D01*
X41179249Y-38964630D01*
X41000004Y-38944435D01*
X40999996Y-38944435D01*
X40820750Y-38964630D01*
X40820745Y-38964631D01*
X40650476Y-39024211D01*
X40497737Y-39120184D01*
X40370184Y-39247737D01*
X40274211Y-39400476D01*
X40214631Y-39570745D01*
X40214630Y-39570750D01*
X40194435Y-39749996D01*
X28297244Y-39749996D01*
X28261319Y-21499995D01*
X30995093Y-21499995D01*
X30995093Y-21500004D01*
X31014692Y-21761545D01*
X31014693Y-21761550D01*
X31073058Y-22017270D01*
X31168883Y-22261426D01*
X31168882Y-22261426D01*
X31300027Y-22488573D01*
X31347874Y-22548571D01*
X32148958Y-21747488D01*
X32173978Y-21807890D01*
X32245112Y-21914351D01*
X32335649Y-22004888D01*
X32442110Y-22076022D01*
X32502510Y-22101041D01*
X31700830Y-22902720D01*
X31872546Y-23019793D01*
X31872550Y-23019795D01*
X32108854Y-23133594D01*
X32108858Y-23133595D01*
X32359494Y-23210907D01*
X32359500Y-23210909D01*
X32618848Y-23249999D01*
X32618857Y-23250000D01*
X32881143Y-23250000D01*
X32881151Y-23249999D01*
X33140499Y-23210909D01*
X33140505Y-23210907D01*
X33391143Y-23133595D01*
X33627445Y-23019798D01*
X33627447Y-23019797D01*
X33799168Y-22902720D01*
X32997488Y-22101041D01*
X33057890Y-22076022D01*
X33164351Y-22004888D01*
X33254888Y-21914351D01*
X33326022Y-21807890D01*
X33351041Y-21747488D01*
X34152125Y-22548572D01*
X34199971Y-22488573D01*
X34331116Y-22261426D01*
X34426941Y-22017270D01*
X34485306Y-21761550D01*
X34485307Y-21761545D01*
X34504907Y-21500004D01*
X34504907Y-21499995D01*
X34485307Y-21238454D01*
X34485306Y-21238449D01*
X34426941Y-20982729D01*
X34331116Y-20738573D01*
X34331117Y-20738573D01*
X34199972Y-20511426D01*
X34152124Y-20451427D01*
X33351041Y-21252510D01*
X33326022Y-21192110D01*
X33254888Y-21085649D01*
X33164351Y-20995112D01*
X33057890Y-20923978D01*
X32997488Y-20898958D01*
X33694311Y-20202135D01*
X35999500Y-20202135D01*
X35999500Y-22797870D01*
X35999501Y-22797876D01*
X36005908Y-22857483D01*
X36056202Y-22992328D01*
X36056206Y-22992335D01*
X36142452Y-23107544D01*
X36142455Y-23107547D01*
X36257664Y-23193793D01*
X36257671Y-23193797D01*
X36392517Y-23244091D01*
X36392516Y-23244091D01*
X36399444Y-23244835D01*
X36452127Y-23250500D01*
X39047872Y-23250499D01*
X39107483Y-23244091D01*
X39242331Y-23193796D01*
X39357546Y-23107546D01*
X39443796Y-22992331D01*
X39494091Y-22857483D01*
X39500500Y-22797873D01*
X39500499Y-20202128D01*
X39494091Y-20142517D01*
X39443796Y-20007669D01*
X39443795Y-20007668D01*
X39443793Y-20007664D01*
X39357547Y-19892455D01*
X39357544Y-19892452D01*
X39242335Y-19806206D01*
X39242328Y-19806202D01*
X39107482Y-19755908D01*
X39107483Y-19755908D01*
X39047883Y-19749501D01*
X39047881Y-19749500D01*
X39047873Y-19749500D01*
X39047864Y-19749500D01*
X36452129Y-19749500D01*
X36452123Y-19749501D01*
X36392516Y-19755908D01*
X36257671Y-19806202D01*
X36257664Y-19806206D01*
X36142455Y-19892452D01*
X36142452Y-19892455D01*
X36056206Y-20007664D01*
X36056202Y-20007671D01*
X36005908Y-20142517D01*
X35999501Y-20202116D01*
X35999501Y-20202123D01*
X35999500Y-20202135D01*
X33694311Y-20202135D01*
X33799168Y-20097278D01*
X33627454Y-19980206D01*
X33627445Y-19980201D01*
X33391142Y-19866404D01*
X33391144Y-19866404D01*
X33140505Y-19789092D01*
X33140499Y-19789090D01*
X32881151Y-19750000D01*
X32618848Y-19750000D01*
X32359500Y-19789090D01*
X32359494Y-19789092D01*
X32108858Y-19866404D01*
X32108854Y-19866405D01*
X31872547Y-19980205D01*
X31872539Y-19980210D01*
X31700830Y-20097277D01*
X32502511Y-20898958D01*
X32442110Y-20923978D01*
X32335649Y-20995112D01*
X32245112Y-21085649D01*
X32173978Y-21192110D01*
X32148958Y-21252510D01*
X31347874Y-20451427D01*
X31300028Y-20511425D01*
X31168883Y-20738573D01*
X31073058Y-20982729D01*
X31014693Y-21238449D01*
X31014692Y-21238454D01*
X30995093Y-21499995D01*
X28261319Y-21499995D01*
X28250245Y-15874244D01*
X28269798Y-15807166D01*
X28322512Y-15761307D01*
X28374245Y-15750000D01*
X52376487Y-15750000D01*
X52443526Y-15769685D01*
G37*
G04 #@! TD.AperFunction*
G04 #@! TA.AperFunction,Conductor*
G36*
X90634184Y-37307601D02*
G01*
X90660940Y-37315061D01*
X90824134Y-37381033D01*
X90852524Y-37392510D01*
X102020625Y-41907273D01*
X102044171Y-41919896D01*
X102081352Y-41945336D01*
X102117751Y-41984029D01*
X102133816Y-42010891D01*
X102150684Y-42061267D01*
X102154033Y-42092384D01*
X102148273Y-42145191D01*
X102133907Y-42187894D01*
X102122708Y-42212153D01*
X100776565Y-44455724D01*
X100776563Y-44455727D01*
X100750000Y-44500000D01*
X100748186Y-44551587D01*
X100748185Y-44551596D01*
X100748185Y-44551602D01*
X98500268Y-108492362D01*
X98500180Y-108494407D01*
X98499997Y-108497947D01*
X98499719Y-108502023D01*
X98499421Y-108505537D01*
X98499231Y-108507574D01*
X95019782Y-142805001D01*
X95013064Y-142834544D01*
X94995853Y-142882279D01*
X94962341Y-142932221D01*
X94952949Y-142940710D01*
X94936365Y-142955696D01*
X94883301Y-142983992D01*
X94863824Y-142988861D01*
X94834070Y-142996298D01*
X94804002Y-143000000D01*
X88964309Y-143000000D01*
X88939962Y-142997586D01*
X88899356Y-142989455D01*
X88854426Y-142970712D01*
X88842452Y-142962646D01*
X88830478Y-142954580D01*
X88796225Y-142919982D01*
X88780331Y-142895869D01*
X88762040Y-142850751D01*
X88754319Y-142810070D01*
X88752150Y-142785704D01*
X89499533Y-68296568D01*
X89499532Y-68296565D01*
X89500000Y-68250000D01*
X86522696Y-62047283D01*
X86517407Y-62034474D01*
X86509572Y-62012013D01*
X86503430Y-61985019D01*
X86500775Y-61961380D01*
X86500000Y-61947540D01*
X86500000Y-43072161D01*
X86501427Y-43053401D01*
X86506291Y-43021637D01*
X86517522Y-42985828D01*
X86531666Y-42956979D01*
X86541210Y-42940760D01*
X87064943Y-42187894D01*
X90400866Y-37392504D01*
X90419182Y-37371625D01*
X90453763Y-37340146D01*
X90501843Y-37313002D01*
X90532922Y-37303747D01*
X90588015Y-37300168D01*
X90634184Y-37307601D01*
G37*
G04 #@! TD.AperFunction*
G04 #@! TA.AperFunction,Conductor*
G36*
X83599918Y-16753234D02*
G01*
X83621500Y-16758262D01*
X83646298Y-16764039D01*
X83696775Y-16788910D01*
X83713966Y-16803003D01*
X83722283Y-16809821D01*
X83756571Y-16854442D01*
X83776261Y-16897799D01*
X83784950Y-16924754D01*
X84944514Y-22722571D01*
X85000000Y-23000000D01*
X95349996Y-23000000D01*
X95350000Y-23000000D01*
X95500000Y-23000000D01*
X97204264Y-17156807D01*
X97214374Y-17132283D01*
X97235785Y-17092933D01*
X97270302Y-17053003D01*
X97295199Y-17034330D01*
X97343198Y-17012374D01*
X97386961Y-17002840D01*
X97413350Y-17000000D01*
X101573201Y-17000000D01*
X101601175Y-17003197D01*
X101630932Y-17010087D01*
X101647314Y-17013881D01*
X101697567Y-17038475D01*
X101715434Y-17053003D01*
X101723027Y-17059177D01*
X101757353Y-17103358D01*
X101777222Y-17146344D01*
X101786058Y-17173080D01*
X103000000Y-23000000D01*
X111778546Y-25090130D01*
X118695312Y-26736979D01*
X118709492Y-26741266D01*
X118733341Y-26750063D01*
X118759694Y-26763551D01*
X118780768Y-26777744D01*
X118792543Y-26786742D01*
X129670616Y-36181441D01*
X129688740Y-36200852D01*
X129715635Y-36236688D01*
X129737614Y-36284711D01*
X129747155Y-36328481D01*
X129750000Y-36354890D01*
X129750000Y-96144415D01*
X129747121Y-96170978D01*
X129737470Y-96214984D01*
X129715241Y-96263230D01*
X129688061Y-96299160D01*
X129669742Y-96318606D01*
X114314476Y-109444882D01*
X114296641Y-109457585D01*
X114264546Y-109476411D01*
X114223622Y-109491519D01*
X114186986Y-109498066D01*
X114165172Y-109500000D01*
X106721436Y-109500000D01*
X106696587Y-109497484D01*
X106667425Y-109491519D01*
X106655195Y-109489017D01*
X106609487Y-109469499D01*
X106585282Y-109452749D01*
X106550908Y-109416848D01*
X106535227Y-109391941D01*
X106517713Y-109345427D01*
X106511052Y-109303708D01*
X106509618Y-109278771D01*
X106745831Y-103845886D01*
X106749311Y-103821628D01*
X106759244Y-103781311D01*
X106780014Y-103737153D01*
X106804738Y-103703791D01*
X106821204Y-103685641D01*
X119750000Y-92000000D01*
X119750000Y-42500000D01*
X119610032Y-42455954D01*
X119610034Y-42455954D01*
X84053846Y-31266944D01*
X84039939Y-31261630D01*
X84016704Y-31251114D01*
X83991293Y-31235704D01*
X83971218Y-31219954D01*
X83960077Y-31210077D01*
X81505872Y-28755872D01*
X81500000Y-28750000D01*
X79174057Y-26781894D01*
X78331127Y-26068645D01*
X78312617Y-26049169D01*
X78285150Y-26013144D01*
X78262671Y-25964677D01*
X78252910Y-25920432D01*
X78250000Y-25893727D01*
X78250000Y-22782970D01*
X78250312Y-22774181D01*
X78251385Y-22759080D01*
X78253870Y-22741682D01*
X78254891Y-22736953D01*
X78257073Y-22726859D01*
X78259224Y-22718373D01*
X79954264Y-16906807D01*
X79964374Y-16882283D01*
X79985785Y-16842933D01*
X80020302Y-16803003D01*
X80045199Y-16784330D01*
X80093198Y-16762374D01*
X80136961Y-16752840D01*
X80163350Y-16750000D01*
X83571783Y-16750000D01*
X83599918Y-16753234D01*
G37*
G04 #@! TD.AperFunction*
G04 #@! TA.AperFunction,Conductor*
G36*
X141061971Y-17252381D02*
G01*
X141102346Y-17260412D01*
X141147043Y-17278927D01*
X141170913Y-17294877D01*
X141205122Y-17329086D01*
X141221072Y-17352956D01*
X141239588Y-17397655D01*
X141247617Y-17438022D01*
X141250000Y-17462210D01*
X141250000Y-18032234D01*
X141231728Y-18097023D01*
X141140377Y-18246096D01*
X141040655Y-18486845D01*
X140979825Y-18740224D01*
X140959381Y-19000000D01*
X140979825Y-19259775D01*
X141040655Y-19513154D01*
X141140377Y-19753905D01*
X141231727Y-19902973D01*
X141250000Y-19967763D01*
X141250000Y-24500000D01*
X147158010Y-24500000D01*
X147158013Y-24500000D01*
X147250000Y-24500000D01*
X150991321Y-20135126D01*
X153181410Y-17580021D01*
X153200836Y-17561764D01*
X153236750Y-17534652D01*
X153284936Y-17512490D01*
X153301872Y-17508782D01*
X153328885Y-17502869D01*
X153355403Y-17500000D01*
X159787789Y-17500000D01*
X159811971Y-17502381D01*
X159852346Y-17510412D01*
X159897043Y-17528927D01*
X159920913Y-17544877D01*
X159955122Y-17579086D01*
X159971072Y-17602956D01*
X159989588Y-17647655D01*
X159997617Y-17688020D01*
X160000000Y-17712210D01*
X160000000Y-24548199D01*
X159996147Y-24578868D01*
X159983359Y-24628965D01*
X159953963Y-24682796D01*
X159929686Y-24708869D01*
X159878084Y-24742027D01*
X159829027Y-24758350D01*
X159798715Y-24764376D01*
X158988854Y-24822224D01*
X153187234Y-25236626D01*
X153187233Y-25236626D01*
X153000000Y-25250000D01*
X153001490Y-25437702D01*
X153001489Y-25437707D01*
X153749992Y-119749102D01*
X153749996Y-119749502D01*
X153750000Y-119750000D01*
X153750015Y-119750841D01*
X153996213Y-133784144D01*
X153994206Y-133808643D01*
X153986717Y-133849561D01*
X153968594Y-133894994D01*
X153952748Y-133919281D01*
X153918465Y-133954170D01*
X153894459Y-133970440D01*
X153849357Y-133989356D01*
X153835912Y-133992062D01*
X153811446Y-133994500D01*
X138385841Y-133994500D01*
X138359694Y-133991711D01*
X138341801Y-133987851D01*
X138294158Y-133966290D01*
X138269365Y-133947929D01*
X138234845Y-133908641D01*
X138213242Y-133869875D01*
X138202950Y-133845680D01*
X138187954Y-133796492D01*
X135107750Y-123693420D01*
X132010025Y-113532882D01*
X132007683Y-113524037D01*
X132004208Y-113508638D01*
X132001505Y-113490502D01*
X132000339Y-113474760D01*
X132000000Y-113465600D01*
X132000000Y-32104504D01*
X132000000Y-32104503D01*
X132000000Y-32000000D01*
X122322960Y-25268146D01*
X120598100Y-24068243D01*
X120575872Y-24048424D01*
X120542864Y-24010960D01*
X120515480Y-23958550D01*
X120503576Y-23910060D01*
X120500000Y-23880497D01*
X120500000Y-17712210D01*
X120502381Y-17688029D01*
X120510412Y-17647651D01*
X120528927Y-17602956D01*
X120544877Y-17579086D01*
X120579086Y-17544877D01*
X120602956Y-17528927D01*
X120647653Y-17510412D01*
X120688027Y-17502381D01*
X120712211Y-17500000D01*
X123287789Y-17500000D01*
X123311971Y-17502381D01*
X123352346Y-17510412D01*
X123397043Y-17528927D01*
X123420913Y-17544877D01*
X123455122Y-17579086D01*
X123471072Y-17602956D01*
X123489588Y-17647655D01*
X123497617Y-17688020D01*
X123500000Y-17712210D01*
X123500000Y-18032234D01*
X123481728Y-18097023D01*
X123390377Y-18246096D01*
X123290655Y-18486845D01*
X123229825Y-18740224D01*
X123209381Y-19000000D01*
X123229825Y-19259775D01*
X123290655Y-19513154D01*
X123390377Y-19753905D01*
X123481727Y-19902973D01*
X123500000Y-19967763D01*
X123500000Y-20250000D01*
X129500000Y-23750000D01*
X137084796Y-23750000D01*
X137084797Y-23750000D01*
X137250000Y-23750000D01*
X138440658Y-17558579D01*
X138466096Y-17426298D01*
X138474645Y-17399151D01*
X138494170Y-17355442D01*
X138528413Y-17310422D01*
X138553970Y-17289311D01*
X138604652Y-17264186D01*
X138651251Y-17253269D01*
X138679535Y-17250000D01*
X141037789Y-17250000D01*
X141061971Y-17252381D01*
G37*
G04 #@! TD.AperFunction*
G04 #@! TA.AperFunction,Conductor*
G36*
X111713638Y-124500691D02*
G01*
X111728044Y-124502217D01*
X111735974Y-124503058D01*
X111761532Y-124508537D01*
X111782888Y-124515538D01*
X111795089Y-124520264D01*
X112195001Y-124700000D01*
X133960880Y-134482419D01*
X133960884Y-134482420D01*
X133960890Y-134482423D01*
X133960894Y-134482424D01*
X134000000Y-134500000D01*
X155700576Y-134500000D01*
X155700582Y-134500000D01*
X155750000Y-134500000D01*
X155793728Y-134476984D01*
X155793731Y-134476984D01*
X158125000Y-133250000D01*
X160449631Y-132026509D01*
X160463289Y-132020346D01*
X160487339Y-132011201D01*
X160516424Y-132004015D01*
X160529847Y-132002382D01*
X160541961Y-132000908D01*
X160556939Y-132000000D01*
X165037789Y-132000000D01*
X165061971Y-132002381D01*
X165102346Y-132010412D01*
X165147043Y-132028927D01*
X165170913Y-132044877D01*
X165205122Y-132079086D01*
X165221072Y-132102956D01*
X165239588Y-132147655D01*
X165247617Y-132188022D01*
X165250000Y-132212210D01*
X165250000Y-134537789D01*
X165247617Y-134561982D01*
X165239588Y-134602344D01*
X165221072Y-134647043D01*
X165205122Y-134670913D01*
X165170913Y-134705122D01*
X165147043Y-134721072D01*
X165102344Y-134739588D01*
X165085841Y-134742870D01*
X165061978Y-134747617D01*
X165037789Y-134750000D01*
X164467763Y-134750000D01*
X164402973Y-134731727D01*
X164253905Y-134640377D01*
X164013154Y-134540655D01*
X163759774Y-134479825D01*
X163759775Y-134479825D01*
X163500000Y-134459381D01*
X163240224Y-134479825D01*
X162986845Y-134540655D01*
X162746094Y-134640377D01*
X162597027Y-134731727D01*
X162532237Y-134750000D01*
X161000000Y-134750000D01*
X160939956Y-134828317D01*
X160939956Y-134828318D01*
X155318723Y-142160359D01*
X155299011Y-142180741D01*
X155262168Y-142210997D01*
X155211645Y-142235926D01*
X155165219Y-142246757D01*
X155137047Y-142250000D01*
X122334175Y-142250000D01*
X122312518Y-142248094D01*
X122276127Y-142241638D01*
X122235453Y-142226739D01*
X122203505Y-142208161D01*
X122185742Y-142195627D01*
X106081128Y-128568646D01*
X106062617Y-128549169D01*
X106035150Y-128513144D01*
X106012671Y-128464677D01*
X106002910Y-128420432D01*
X106000000Y-128393727D01*
X106000000Y-124712210D01*
X106002381Y-124688029D01*
X106010412Y-124647651D01*
X106028927Y-124602956D01*
X106044877Y-124579086D01*
X106079086Y-124544877D01*
X106102956Y-124528927D01*
X106147653Y-124510412D01*
X106188027Y-124502381D01*
X106212211Y-124500000D01*
X111700570Y-124500000D01*
X111713638Y-124500691D01*
G37*
G04 #@! TD.AperFunction*
G04 #@! TA.AperFunction,Conductor*
G36*
X166193039Y-26519685D02*
G01*
X166238794Y-26572489D01*
X166250000Y-26624000D01*
X166250000Y-130626000D01*
X166230315Y-130693039D01*
X166177511Y-130738794D01*
X166126000Y-130750000D01*
X161326636Y-130750000D01*
X161259597Y-130730315D01*
X161215727Y-130681454D01*
X155512999Y-119275998D01*
X155499909Y-119220931D01*
X155250000Y-39250002D01*
X155250000Y-39250000D01*
X154009538Y-36272891D01*
X154000000Y-36225199D01*
X154000000Y-26624000D01*
X154019685Y-26556961D01*
X154072489Y-26511206D01*
X154124000Y-26500000D01*
X166126000Y-26500000D01*
X166193039Y-26519685D01*
G37*
G04 #@! TD.AperFunction*
M02*
