M48
; DRILL file {KiCad 8.0.4} date 2025-07-07T19:57:22+0200
; FORMAT={-:-/ absolute / metric / decimal}
; #@! TF.CreationDate,2025-07-07T19:57:22+02:00
; #@! TF.GenerationSoftware,Kicad,Pcbnew,8.0.4
; #@! TF.FileFunction,Plated,1,4,PTH
FMAT,2
METRIC
; #@! TA.AperFunction,Plated,PTH,ViaDrill
T1C0.300
; #@! TA.AperFunction,Plated,PTH,ComponentDrill
T2C1.000
; #@! TA.AperFunction,Plated,PTH,ComponentDrill
T3C1.200
; #@! TA.AperFunction,Plated,PTH,ComponentDrill
T4C1.300
; #@! TA.AperFunction,Plated,PTH,ComponentDrill
T5C1.400
; #@! TA.AperFunction,Plated,PTH,ComponentDrill
T6C1.540
; #@! TA.AperFunction,Plated,PTH,ComponentDrill
T7C1.600
; #@! TA.AperFunction,Plated,PTH,ComponentDrill
T8C1.700
; #@! TA.AperFunction,Plated,PTH,ComponentDrill
T9C2.000
%
G90
G05
T1
X41.0Y-39.75
X51.5Y-82.0
X51.75Y-39.0
X51.75Y-59.5
X51.75Y-89.5
X52.0Y-68.75
X52.0Y-105.25
X52.0Y-112.0
X52.25Y-45.25
X52.5Y-24.5
X63.25Y-118.75
X63.25Y-119.991
X63.25Y-121.2
X63.25Y-122.47
X63.592Y-96.657
X63.592Y-97.907
X63.592Y-99.157
X63.592Y-100.532
X63.75Y-76.25
X63.75Y-77.5
X63.75Y-78.75
X63.75Y-80.0
X64.0Y-51.25
X64.0Y-52.75
X64.0Y-54.0
X64.0Y-55.25
X64.275Y-34.975
X64.35Y-31.245
X64.35Y-32.515
X64.35Y-33.785
X69.25Y-49.0
X69.25Y-75.75
X69.5Y-119.0
X69.843Y-98.157
X70.093Y-95.407
X70.1Y-120.75
X70.25Y-28.5
X70.75Y-52.9
X70.75Y-77.0
X71.25Y-32.35
X78.25Y-54.0
X78.593Y-96.657
X78.6Y-78.4
X78.6Y-120.25
X79.1Y-33.5
X114.95Y-29.1
X147.95Y-29.1
T2
X47.742Y-40.535
X48.093Y-64.135
X48.142Y-84.657
X48.347Y-107.205
X48.555Y-20.165
X50.282Y-40.535
X50.633Y-64.135
X50.682Y-84.657
X50.887Y-107.205
X51.095Y-20.165
X55.362Y-40.535
X55.712Y-64.135
X55.762Y-84.657
X55.967Y-107.205
X56.175Y-20.165
X60.442Y-40.535
X60.792Y-64.135
X60.842Y-84.657
X61.047Y-107.205
X61.255Y-20.165
T3
X88.75Y-45.75
X88.75Y-59.5
X93.5Y-71.25
X93.5Y-80.25
X93.5Y-89.0
X93.5Y-97.75
X108.5Y-71.25
X108.5Y-80.25
X108.5Y-89.0
X108.5Y-97.75
X116.25Y-45.75
X116.25Y-59.5
T4
X32.75Y-21.5
X34.25Y-50.75
X34.25Y-55.75
X34.25Y-60.75
X34.25Y-68.75
X34.25Y-73.75
X34.25Y-80.25
X34.25Y-85.25
X37.75Y-21.5
T5
X91.69Y-141.028
X99.31Y-141.028
X156.472Y-21.19
X156.472Y-28.81
T6
X81.67Y-19.0
X86.75Y-19.0
X89.29Y-19.0
X91.83Y-19.0
X99.42Y-19.0
X104.5Y-19.0
X107.04Y-19.0
X109.58Y-19.0
X117.25Y-19.0
X122.33Y-19.0
X124.87Y-19.0
X127.41Y-19.0
X135.0Y-19.0
X140.08Y-19.0
X142.62Y-19.0
X145.16Y-19.0
X163.5Y-128.5
X163.5Y-133.58
X163.5Y-136.12
X163.5Y-138.66
T7
X139.82Y-127.4
X139.82Y-140.1
X150.47Y-127.4
X150.47Y-140.1
T8
X109.5Y-106.45
X109.5Y-127.25
T9
X125.342Y-43.5
X125.342Y-67.5
X125.342Y-91.0
X135.342Y-43.5
X135.342Y-67.5
X135.342Y-91.0
X149.0Y-67.25
X149.0Y-90.25
X149.158Y-44.5
X149.186Y-113.25
X159.0Y-67.25
X159.0Y-90.25
X159.158Y-44.5
X159.186Y-113.25
M30
